%FSLAX45Y45*%
G04 Gerber Fmt 4.5, Leading zero omitted, Abs format (unit mm)*
G04 Created by KiCad (PCBNEW (6.0.1)) date 2023-07-16 14:40:19*
%MOMM*%
%LPD*%
G01*
G04 APERTURE LIST*
%TA.AperFunction,Profile*%
%ADD10C,0.100000*%
%TD*%
%ADD11C,0.200000*%
%ADD12C,0.030000*%
G04 APERTURE END LIST*
D10*
X17100000Y-9450000D02*
G75*
G03*
X17100000Y-8750000I300000J350000D01*
G01*
X17000000Y-11500000D02*
X18100000Y-11500000D01*
X7900000Y-9700000D02*
X8150000Y-9450000D01*
X16300000Y-7800000D02*
X7700000Y-7800000D01*
X17100000Y-12450000D02*
X17300000Y-12200000D01*
X16925000Y-11500000D02*
X16925000Y-11550000D01*
X16525000Y-12700000D02*
X16500000Y-12700000D01*
X7300000Y-11500000D02*
X7000000Y-11500000D01*
X17050000Y-6450000D02*
G75*
G03*
X17050000Y-5750000I1150001J350000D01*
G01*
X7900000Y-12700000D02*
X8150000Y-12450000D01*
X16300000Y-4700000D02*
X7700000Y-4700000D01*
X7700000Y-12700000D02*
G75*
G03*
X7700000Y-12900000I0J-100000D01*
G01*
X16525000Y-12450000D02*
X8150000Y-12450000D01*
X17100000Y-11750000D02*
X17300000Y-12000000D01*
X16525000Y-11500000D02*
X16500000Y-11500000D01*
X6800000Y-4700000D02*
X7300000Y-4700000D01*
X7900000Y-6700000D02*
X8150000Y-6450000D01*
X16300000Y-8750000D02*
G75*
G03*
X16300000Y-8550000I0J100000D01*
G01*
X7300000Y-12900000D02*
G75*
G03*
X7300000Y-12700000I0J100000D01*
G01*
X7700000Y-9900000D02*
X7700000Y-10400000D01*
X16500000Y-13400000D02*
X16500000Y-12700000D01*
X16300000Y-9450000D02*
X8150000Y-9450000D01*
X7300000Y-13400000D02*
X6800000Y-13400000D01*
X7700000Y-8300000D02*
G75*
G03*
X7700000Y-8500000I0J-100000D01*
G01*
X16525000Y-11750000D02*
G75*
G03*
X16525000Y-11550000I0J100000D01*
G01*
X16700000Y-9650000D02*
G75*
G03*
X16700000Y-8550000I700182J550000D01*
G01*
X16925000Y-12450000D02*
G75*
G03*
X16925000Y-12650000I0J-100000D01*
G01*
X6800000Y-10400000D02*
X7300000Y-10400000D01*
X7300000Y-5300000D02*
X7300000Y-4700000D01*
X7900000Y-9700000D02*
X7700000Y-9700000D01*
X16925000Y-11550000D02*
G75*
G03*
X16925000Y-11750000I0J-100000D01*
G01*
X16525000Y-12650000D02*
G75*
G03*
X16525000Y-12450000I0J100000D01*
G01*
X18100000Y-11500000D02*
X18100000Y-12700000D01*
X7700000Y-10800000D02*
X7700000Y-11300000D01*
X16300000Y-10400000D02*
X16300000Y-9650000D01*
X8150000Y-11750000D02*
X7900000Y-11500000D01*
X7700000Y-7800000D02*
X7700000Y-8300000D01*
X7900000Y-6700000D02*
X7700000Y-6700000D01*
X18100000Y-12700000D02*
X17000000Y-12700000D01*
X7300000Y-7800000D02*
X6800000Y-7800000D01*
X16400000Y-10800000D02*
X7700000Y-10800000D01*
X16700000Y-6450000D02*
X17050000Y-6450000D01*
X16700000Y-8750000D02*
X17100000Y-8750000D01*
X7300000Y-9900000D02*
G75*
G03*
X7300000Y-9700000I0J100000D01*
G01*
X16300000Y-5550000D02*
X16300000Y-4700000D01*
X7000000Y-5500000D02*
X7000000Y-6700000D01*
X8150000Y-8750000D02*
X7900000Y-8500000D01*
X7300000Y-5500000D02*
G75*
G03*
X7300000Y-5300000I0J100000D01*
G01*
X16700000Y-8550000D02*
G75*
G03*
X16700000Y-8750000I0J-100000D01*
G01*
X6800000Y-13400000D02*
X6800000Y-10800000D01*
X6800000Y-7400000D02*
X6800000Y-4700000D01*
X7300000Y-8500000D02*
G75*
G03*
X7300000Y-8300000I0J100000D01*
G01*
X16925000Y-12700000D02*
X17000000Y-12700000D01*
X7700000Y-5300000D02*
G75*
G03*
X7700000Y-5500000I0J-100000D01*
G01*
X17541421Y-9100000D02*
G75*
G03*
X17541421Y-9100000I-141421J0D01*
G01*
X16300000Y-6450000D02*
X8150000Y-6450000D01*
X7900000Y-11500000D02*
X7700000Y-11500000D01*
X16700000Y-6450000D02*
G75*
G03*
X16700000Y-6650000I0J-100000D01*
G01*
X7000000Y-8500000D02*
X7000000Y-9700000D01*
X7000000Y-9700000D02*
X7300000Y-9700000D01*
X16925000Y-12650000D02*
X16925000Y-12700000D01*
X7700000Y-7400000D02*
X16300000Y-7400000D01*
X16525000Y-11550000D02*
X16525000Y-11500000D01*
X17800000Y-12200000D02*
X17300000Y-12200000D01*
X16700000Y-6650000D02*
G75*
G03*
X16700000Y-5550000I1498891J550000D01*
G01*
X7300000Y-10800000D02*
X7300000Y-11300000D01*
X16700000Y-5550000D02*
G75*
G03*
X16700000Y-5750000I0J-100000D01*
G01*
X7900000Y-12700000D02*
X7700000Y-12700000D01*
X16400000Y-11500000D02*
X16400000Y-10800000D01*
X7000000Y-6700000D02*
X7300000Y-6700000D01*
X16300000Y-9650000D02*
G75*
G03*
X16300000Y-9450000I0J100000D01*
G01*
X7300000Y-6900000D02*
X7300000Y-7400000D01*
X16700000Y-9450000D02*
G75*
G03*
X16700000Y-9650000I0J-100000D01*
G01*
X8150000Y-5750000D02*
X7900000Y-5500000D01*
X7700000Y-5300000D02*
X7700000Y-4700000D01*
X7300000Y-12900000D02*
X7300000Y-13400000D01*
X7300000Y-8500000D02*
X7000000Y-8500000D01*
X17300000Y-12000000D02*
X17800000Y-12000000D01*
X7700000Y-6900000D02*
X7700000Y-7400000D01*
X16300000Y-5750000D02*
X8150000Y-5750000D01*
X6800000Y-7800000D02*
X6800000Y-10400000D01*
X7700000Y-12900000D02*
X7700000Y-13400000D01*
X7000000Y-11500000D02*
X7000000Y-12700000D01*
X16300000Y-8750000D02*
X8150000Y-8750000D01*
X16300000Y-8550000D02*
X16300000Y-7800000D01*
X7700000Y-9700000D02*
G75*
G03*
X7700000Y-9900000I0J-100000D01*
G01*
X16300000Y-6650000D02*
G75*
G03*
X16300000Y-6450000I0J100000D01*
G01*
X7300000Y-6900000D02*
G75*
G03*
X7300000Y-6700000I0J100000D01*
G01*
X16500000Y-11500000D02*
X16400000Y-11500000D01*
X16300000Y-7400000D02*
X16300000Y-6650000D01*
X18800000Y-6100000D02*
G75*
G03*
X18800000Y-6100000I-600000J0D01*
G01*
X7300000Y-10400000D02*
X7300000Y-9900000D01*
X7000000Y-5500000D02*
X7300000Y-5500000D01*
X16925000Y-11750000D02*
X17100000Y-11750000D01*
X16700000Y-9450000D02*
X17100000Y-9450000D01*
X7700000Y-6700000D02*
G75*
G03*
X7700000Y-6900000I0J-100000D01*
G01*
X17000000Y-11500000D02*
X16925000Y-11500000D01*
X7900000Y-5500000D02*
X7700000Y-5500000D01*
X7300000Y-7400000D02*
X6800000Y-7400000D01*
X7700000Y-10400000D02*
X16300000Y-10400000D01*
X6800000Y-10800000D02*
X7300000Y-10800000D01*
X7900000Y-8500000D02*
X7700000Y-8500000D01*
X16700000Y-5750000D02*
X17050000Y-5750000D01*
X7300000Y-8300000D02*
X7300000Y-7800000D01*
X6500000Y-4150000D02*
X20000000Y-4150000D01*
X20000000Y-4150000D02*
X20000000Y-13900000D01*
X20000000Y-13900000D02*
X6500000Y-13900000D01*
X6500000Y-13900000D02*
X6500000Y-4150000D01*
X16925000Y-12450000D02*
X17100000Y-12450000D01*
X16525000Y-11750000D02*
X8150000Y-11750000D01*
X16525000Y-12650000D02*
X16525000Y-12700000D01*
X7700000Y-11300000D02*
G75*
G03*
X7700000Y-11500000I0J-100000D01*
G01*
X7300000Y-11500000D02*
G75*
G03*
X7300000Y-11300000I0J100000D01*
G01*
X17800000Y-12200000D02*
G75*
G03*
X17800000Y-12000000I0J100000D01*
G01*
X7000000Y-12700000D02*
X7300000Y-12700000D01*
X7700000Y-13400000D02*
X16500000Y-13400000D01*
X16300000Y-5750000D02*
G75*
G03*
X16300000Y-5550000I0J100000D01*
G01*
D11*
D12*
X7685000Y-6085000D02*
X7715000Y-6115000D01*
X7715000Y-6085000D02*
X7685000Y-6115000D01*
X7685000Y-9085000D02*
X7715000Y-9115000D01*
X7715000Y-9085000D02*
X7685000Y-9115000D01*
X7685000Y-12085000D02*
X7715000Y-12115000D01*
X7715000Y-12085000D02*
X7685000Y-12115000D01*
X7836452Y-5955000D02*
X7866452Y-5985000D01*
X7866452Y-5955000D02*
X7836452Y-5985000D01*
X7836452Y-6215000D02*
X7866452Y-6245000D01*
X7866452Y-6215000D02*
X7836452Y-6245000D01*
X7836452Y-8955000D02*
X7866452Y-8985000D01*
X7866452Y-8955000D02*
X7836452Y-8985000D01*
X7836452Y-9215000D02*
X7866452Y-9245000D01*
X7866452Y-9215000D02*
X7836452Y-9245000D01*
X7836452Y-11955000D02*
X7866452Y-11985000D01*
X7866452Y-11955000D02*
X7836452Y-11985000D01*
X7836452Y-12215000D02*
X7866452Y-12245000D01*
X7866452Y-12215000D02*
X7836452Y-12245000D01*
X7987903Y-5955000D02*
X8017903Y-5985000D01*
X8017903Y-5955000D02*
X7987903Y-5985000D01*
X7987903Y-6215000D02*
X8017903Y-6245000D01*
X8017903Y-6215000D02*
X7987903Y-6245000D01*
X7987903Y-8955000D02*
X8017903Y-8985000D01*
X8017903Y-8955000D02*
X7987903Y-8985000D01*
X7987903Y-9215000D02*
X8017903Y-9245000D01*
X8017903Y-9215000D02*
X7987903Y-9245000D01*
X7987903Y-11955000D02*
X8017903Y-11985000D01*
X8017903Y-11955000D02*
X7987903Y-11985000D01*
X7987903Y-12215000D02*
X8017903Y-12245000D01*
X8017903Y-12215000D02*
X7987903Y-12245000D01*
X8139355Y-5955000D02*
X8169355Y-5985000D01*
X8169355Y-5955000D02*
X8139355Y-5985000D01*
X8139355Y-6215000D02*
X8169355Y-6245000D01*
X8169355Y-6215000D02*
X8139355Y-6245000D01*
X8139355Y-8955000D02*
X8169355Y-8985000D01*
X8169355Y-8955000D02*
X8139355Y-8985000D01*
X8139355Y-9215000D02*
X8169355Y-9245000D01*
X8169355Y-9215000D02*
X8139355Y-9245000D01*
X8139355Y-11955000D02*
X8169355Y-11985000D01*
X8169355Y-11955000D02*
X8139355Y-11985000D01*
X8139355Y-12215000D02*
X8169355Y-12245000D01*
X8169355Y-12215000D02*
X8139355Y-12245000D01*
X8290806Y-5955000D02*
X8320806Y-5985000D01*
X8320806Y-5955000D02*
X8290806Y-5985000D01*
X8290806Y-6215000D02*
X8320806Y-6245000D01*
X8320806Y-6215000D02*
X8290806Y-6245000D01*
X8290806Y-8955000D02*
X8320806Y-8985000D01*
X8320806Y-8955000D02*
X8290806Y-8985000D01*
X8290806Y-9215000D02*
X8320806Y-9245000D01*
X8320806Y-9215000D02*
X8290806Y-9245000D01*
X8290806Y-11955000D02*
X8320806Y-11985000D01*
X8320806Y-11955000D02*
X8290806Y-11985000D01*
X8290806Y-12215000D02*
X8320806Y-12245000D01*
X8320806Y-12215000D02*
X8290806Y-12245000D01*
X8442258Y-5955000D02*
X8472258Y-5985000D01*
X8472258Y-5955000D02*
X8442258Y-5985000D01*
X8442258Y-6215000D02*
X8472258Y-6245000D01*
X8472258Y-6215000D02*
X8442258Y-6245000D01*
X8442258Y-8955000D02*
X8472258Y-8985000D01*
X8472258Y-8955000D02*
X8442258Y-8985000D01*
X8442258Y-9215000D02*
X8472258Y-9245000D01*
X8472258Y-9215000D02*
X8442258Y-9245000D01*
X8442258Y-11955000D02*
X8472258Y-11985000D01*
X8472258Y-11955000D02*
X8442258Y-11985000D01*
X8442258Y-12215000D02*
X8472258Y-12245000D01*
X8472258Y-12215000D02*
X8442258Y-12245000D01*
X8593710Y-5955000D02*
X8623710Y-5985000D01*
X8623710Y-5955000D02*
X8593710Y-5985000D01*
X8593710Y-6215000D02*
X8623710Y-6245000D01*
X8623710Y-6215000D02*
X8593710Y-6245000D01*
X8593710Y-8955000D02*
X8623710Y-8985000D01*
X8623710Y-8955000D02*
X8593710Y-8985000D01*
X8593710Y-9215000D02*
X8623710Y-9245000D01*
X8623710Y-9215000D02*
X8593710Y-9245000D01*
X8593710Y-11955000D02*
X8623710Y-11985000D01*
X8623710Y-11955000D02*
X8593710Y-11985000D01*
X8593710Y-12215000D02*
X8623710Y-12245000D01*
X8623710Y-12215000D02*
X8593710Y-12245000D01*
X8745161Y-5955000D02*
X8775161Y-5985000D01*
X8775161Y-5955000D02*
X8745161Y-5985000D01*
X8745161Y-6215000D02*
X8775161Y-6245000D01*
X8775161Y-6215000D02*
X8745161Y-6245000D01*
X8745161Y-8955000D02*
X8775161Y-8985000D01*
X8775161Y-8955000D02*
X8745161Y-8985000D01*
X8745161Y-9215000D02*
X8775161Y-9245000D01*
X8775161Y-9215000D02*
X8745161Y-9245000D01*
X8745161Y-11955000D02*
X8775161Y-11985000D01*
X8775161Y-11955000D02*
X8745161Y-11985000D01*
X8745161Y-12215000D02*
X8775161Y-12245000D01*
X8775161Y-12215000D02*
X8745161Y-12245000D01*
X8896613Y-5955000D02*
X8926613Y-5985000D01*
X8926613Y-5955000D02*
X8896613Y-5985000D01*
X8896613Y-6215000D02*
X8926613Y-6245000D01*
X8926613Y-6215000D02*
X8896613Y-6245000D01*
X8896613Y-8955000D02*
X8926613Y-8985000D01*
X8926613Y-8955000D02*
X8896613Y-8985000D01*
X8896613Y-9215000D02*
X8926613Y-9245000D01*
X8926613Y-9215000D02*
X8896613Y-9245000D01*
X8896613Y-11955000D02*
X8926613Y-11985000D01*
X8926613Y-11955000D02*
X8896613Y-11985000D01*
X8896613Y-12215000D02*
X8926613Y-12245000D01*
X8926613Y-12215000D02*
X8896613Y-12245000D01*
X9048065Y-5955000D02*
X9078065Y-5985000D01*
X9078065Y-5955000D02*
X9048065Y-5985000D01*
X9048065Y-6215000D02*
X9078065Y-6245000D01*
X9078065Y-6215000D02*
X9048065Y-6245000D01*
X9048065Y-8955000D02*
X9078065Y-8985000D01*
X9078065Y-8955000D02*
X9048065Y-8985000D01*
X9048065Y-9215000D02*
X9078065Y-9245000D01*
X9078065Y-9215000D02*
X9048065Y-9245000D01*
X9048065Y-11955000D02*
X9078065Y-11985000D01*
X9078065Y-11955000D02*
X9048065Y-11985000D01*
X9048065Y-12215000D02*
X9078065Y-12245000D01*
X9078065Y-12215000D02*
X9048065Y-12245000D01*
X9199516Y-5955000D02*
X9229516Y-5985000D01*
X9229516Y-5955000D02*
X9199516Y-5985000D01*
X9199516Y-6215000D02*
X9229516Y-6245000D01*
X9229516Y-6215000D02*
X9199516Y-6245000D01*
X9199516Y-8955000D02*
X9229516Y-8985000D01*
X9229516Y-8955000D02*
X9199516Y-8985000D01*
X9199516Y-9215000D02*
X9229516Y-9245000D01*
X9229516Y-9215000D02*
X9199516Y-9245000D01*
X9199516Y-11955000D02*
X9229516Y-11985000D01*
X9229516Y-11955000D02*
X9199516Y-11985000D01*
X9199516Y-12215000D02*
X9229516Y-12245000D01*
X9229516Y-12215000D02*
X9199516Y-12245000D01*
X9350968Y-5955000D02*
X9380968Y-5985000D01*
X9380968Y-5955000D02*
X9350968Y-5985000D01*
X9350968Y-6215000D02*
X9380968Y-6245000D01*
X9380968Y-6215000D02*
X9350968Y-6245000D01*
X9350968Y-8955000D02*
X9380968Y-8985000D01*
X9380968Y-8955000D02*
X9350968Y-8985000D01*
X9350968Y-9215000D02*
X9380968Y-9245000D01*
X9380968Y-9215000D02*
X9350968Y-9245000D01*
X9350968Y-11955000D02*
X9380968Y-11985000D01*
X9380968Y-11955000D02*
X9350968Y-11985000D01*
X9350968Y-12215000D02*
X9380968Y-12245000D01*
X9380968Y-12215000D02*
X9350968Y-12245000D01*
X9502419Y-5955000D02*
X9532419Y-5985000D01*
X9532419Y-5955000D02*
X9502419Y-5985000D01*
X9502419Y-6215000D02*
X9532419Y-6245000D01*
X9532419Y-6215000D02*
X9502419Y-6245000D01*
X9502419Y-8955000D02*
X9532419Y-8985000D01*
X9532419Y-8955000D02*
X9502419Y-8985000D01*
X9502419Y-9215000D02*
X9532419Y-9245000D01*
X9532419Y-9215000D02*
X9502419Y-9245000D01*
X9502419Y-11955000D02*
X9532419Y-11985000D01*
X9532419Y-11955000D02*
X9502419Y-11985000D01*
X9502419Y-12215000D02*
X9532419Y-12245000D01*
X9532419Y-12215000D02*
X9502419Y-12245000D01*
X9653871Y-5955000D02*
X9683871Y-5985000D01*
X9683871Y-5955000D02*
X9653871Y-5985000D01*
X9653871Y-6215000D02*
X9683871Y-6245000D01*
X9683871Y-6215000D02*
X9653871Y-6245000D01*
X9653871Y-8955000D02*
X9683871Y-8985000D01*
X9683871Y-8955000D02*
X9653871Y-8985000D01*
X9653871Y-9215000D02*
X9683871Y-9245000D01*
X9683871Y-9215000D02*
X9653871Y-9245000D01*
X9653871Y-11955000D02*
X9683871Y-11985000D01*
X9683871Y-11955000D02*
X9653871Y-11985000D01*
X9653871Y-12215000D02*
X9683871Y-12245000D01*
X9683871Y-12215000D02*
X9653871Y-12245000D01*
X9805323Y-5955000D02*
X9835323Y-5985000D01*
X9835323Y-5955000D02*
X9805323Y-5985000D01*
X9805323Y-6215000D02*
X9835323Y-6245000D01*
X9835323Y-6215000D02*
X9805323Y-6245000D01*
X9805323Y-8955000D02*
X9835323Y-8985000D01*
X9835323Y-8955000D02*
X9805323Y-8985000D01*
X9805323Y-9215000D02*
X9835323Y-9245000D01*
X9835323Y-9215000D02*
X9805323Y-9245000D01*
X9805323Y-11955000D02*
X9835323Y-11985000D01*
X9835323Y-11955000D02*
X9805323Y-11985000D01*
X9805323Y-12215000D02*
X9835323Y-12245000D01*
X9835323Y-12215000D02*
X9805323Y-12245000D01*
X9956774Y-5955000D02*
X9986774Y-5985000D01*
X9986774Y-5955000D02*
X9956774Y-5985000D01*
X9956774Y-6215000D02*
X9986774Y-6245000D01*
X9986774Y-6215000D02*
X9956774Y-6245000D01*
X9956774Y-8955000D02*
X9986774Y-8985000D01*
X9986774Y-8955000D02*
X9956774Y-8985000D01*
X9956774Y-9215000D02*
X9986774Y-9245000D01*
X9986774Y-9215000D02*
X9956774Y-9245000D01*
X9956774Y-11955000D02*
X9986774Y-11985000D01*
X9986774Y-11955000D02*
X9956774Y-11985000D01*
X9956774Y-12215000D02*
X9986774Y-12245000D01*
X9986774Y-12215000D02*
X9956774Y-12245000D01*
X10108226Y-5955000D02*
X10138226Y-5985000D01*
X10138226Y-5955000D02*
X10108226Y-5985000D01*
X10108226Y-6215000D02*
X10138226Y-6245000D01*
X10138226Y-6215000D02*
X10108226Y-6245000D01*
X10108226Y-8955000D02*
X10138226Y-8985000D01*
X10138226Y-8955000D02*
X10108226Y-8985000D01*
X10108226Y-9215000D02*
X10138226Y-9245000D01*
X10138226Y-9215000D02*
X10108226Y-9245000D01*
X10108226Y-11955000D02*
X10138226Y-11985000D01*
X10138226Y-11955000D02*
X10108226Y-11985000D01*
X10108226Y-12215000D02*
X10138226Y-12245000D01*
X10138226Y-12215000D02*
X10108226Y-12245000D01*
X10259677Y-5955000D02*
X10289677Y-5985000D01*
X10289677Y-5955000D02*
X10259677Y-5985000D01*
X10259677Y-6215000D02*
X10289677Y-6245000D01*
X10289677Y-6215000D02*
X10259677Y-6245000D01*
X10259677Y-8955000D02*
X10289677Y-8985000D01*
X10289677Y-8955000D02*
X10259677Y-8985000D01*
X10259677Y-9215000D02*
X10289677Y-9245000D01*
X10289677Y-9215000D02*
X10259677Y-9245000D01*
X10259677Y-11955000D02*
X10289677Y-11985000D01*
X10289677Y-11955000D02*
X10259677Y-11985000D01*
X10259677Y-12215000D02*
X10289677Y-12245000D01*
X10289677Y-12215000D02*
X10259677Y-12245000D01*
X10411129Y-5955000D02*
X10441129Y-5985000D01*
X10441129Y-5955000D02*
X10411129Y-5985000D01*
X10411129Y-6215000D02*
X10441129Y-6245000D01*
X10441129Y-6215000D02*
X10411129Y-6245000D01*
X10411129Y-8955000D02*
X10441129Y-8985000D01*
X10441129Y-8955000D02*
X10411129Y-8985000D01*
X10411129Y-9215000D02*
X10441129Y-9245000D01*
X10441129Y-9215000D02*
X10411129Y-9245000D01*
X10411129Y-11955000D02*
X10441129Y-11985000D01*
X10441129Y-11955000D02*
X10411129Y-11985000D01*
X10411129Y-12215000D02*
X10441129Y-12245000D01*
X10441129Y-12215000D02*
X10411129Y-12245000D01*
X10562581Y-5955000D02*
X10592581Y-5985000D01*
X10592581Y-5955000D02*
X10562581Y-5985000D01*
X10562581Y-6215000D02*
X10592581Y-6245000D01*
X10592581Y-6215000D02*
X10562581Y-6245000D01*
X10562581Y-8955000D02*
X10592581Y-8985000D01*
X10592581Y-8955000D02*
X10562581Y-8985000D01*
X10562581Y-9215000D02*
X10592581Y-9245000D01*
X10592581Y-9215000D02*
X10562581Y-9245000D01*
X10562581Y-11955000D02*
X10592581Y-11985000D01*
X10592581Y-11955000D02*
X10562581Y-11985000D01*
X10562581Y-12215000D02*
X10592581Y-12245000D01*
X10592581Y-12215000D02*
X10562581Y-12245000D01*
X10714032Y-5955000D02*
X10744032Y-5985000D01*
X10744032Y-5955000D02*
X10714032Y-5985000D01*
X10714032Y-6215000D02*
X10744032Y-6245000D01*
X10744032Y-6215000D02*
X10714032Y-6245000D01*
X10714032Y-8955000D02*
X10744032Y-8985000D01*
X10744032Y-8955000D02*
X10714032Y-8985000D01*
X10714032Y-9215000D02*
X10744032Y-9245000D01*
X10744032Y-9215000D02*
X10714032Y-9245000D01*
X10714032Y-11955000D02*
X10744032Y-11985000D01*
X10744032Y-11955000D02*
X10714032Y-11985000D01*
X10714032Y-12215000D02*
X10744032Y-12245000D01*
X10744032Y-12215000D02*
X10714032Y-12245000D01*
X10865484Y-5955000D02*
X10895484Y-5985000D01*
X10895484Y-5955000D02*
X10865484Y-5985000D01*
X10865484Y-6215000D02*
X10895484Y-6245000D01*
X10895484Y-6215000D02*
X10865484Y-6245000D01*
X10865484Y-8955000D02*
X10895484Y-8985000D01*
X10895484Y-8955000D02*
X10865484Y-8985000D01*
X10865484Y-9215000D02*
X10895484Y-9245000D01*
X10895484Y-9215000D02*
X10865484Y-9245000D01*
X10865484Y-11955000D02*
X10895484Y-11985000D01*
X10895484Y-11955000D02*
X10865484Y-11985000D01*
X10865484Y-12215000D02*
X10895484Y-12245000D01*
X10895484Y-12215000D02*
X10865484Y-12245000D01*
X11016935Y-5955000D02*
X11046935Y-5985000D01*
X11046935Y-5955000D02*
X11016935Y-5985000D01*
X11016935Y-6215000D02*
X11046935Y-6245000D01*
X11046935Y-6215000D02*
X11016935Y-6245000D01*
X11016935Y-8955000D02*
X11046935Y-8985000D01*
X11046935Y-8955000D02*
X11016935Y-8985000D01*
X11016935Y-9215000D02*
X11046935Y-9245000D01*
X11046935Y-9215000D02*
X11016935Y-9245000D01*
X11016935Y-11955000D02*
X11046935Y-11985000D01*
X11046935Y-11955000D02*
X11016935Y-11985000D01*
X11016935Y-12215000D02*
X11046935Y-12245000D01*
X11046935Y-12215000D02*
X11016935Y-12245000D01*
X11168387Y-5955000D02*
X11198387Y-5985000D01*
X11198387Y-5955000D02*
X11168387Y-5985000D01*
X11168387Y-6215000D02*
X11198387Y-6245000D01*
X11198387Y-6215000D02*
X11168387Y-6245000D01*
X11168387Y-8955000D02*
X11198387Y-8985000D01*
X11198387Y-8955000D02*
X11168387Y-8985000D01*
X11168387Y-9215000D02*
X11198387Y-9245000D01*
X11198387Y-9215000D02*
X11168387Y-9245000D01*
X11168387Y-11955000D02*
X11198387Y-11985000D01*
X11198387Y-11955000D02*
X11168387Y-11985000D01*
X11168387Y-12215000D02*
X11198387Y-12245000D01*
X11198387Y-12215000D02*
X11168387Y-12245000D01*
X11319839Y-5955000D02*
X11349839Y-5985000D01*
X11349839Y-5955000D02*
X11319839Y-5985000D01*
X11319839Y-6215000D02*
X11349839Y-6245000D01*
X11349839Y-6215000D02*
X11319839Y-6245000D01*
X11319839Y-8955000D02*
X11349839Y-8985000D01*
X11349839Y-8955000D02*
X11319839Y-8985000D01*
X11319839Y-9215000D02*
X11349839Y-9245000D01*
X11349839Y-9215000D02*
X11319839Y-9245000D01*
X11319839Y-11955000D02*
X11349839Y-11985000D01*
X11349839Y-11955000D02*
X11319839Y-11985000D01*
X11319839Y-12215000D02*
X11349839Y-12245000D01*
X11349839Y-12215000D02*
X11319839Y-12245000D01*
X11471290Y-5955000D02*
X11501290Y-5985000D01*
X11501290Y-5955000D02*
X11471290Y-5985000D01*
X11471290Y-6215000D02*
X11501290Y-6245000D01*
X11501290Y-6215000D02*
X11471290Y-6245000D01*
X11471290Y-8955000D02*
X11501290Y-8985000D01*
X11501290Y-8955000D02*
X11471290Y-8985000D01*
X11471290Y-9215000D02*
X11501290Y-9245000D01*
X11501290Y-9215000D02*
X11471290Y-9245000D01*
X11471290Y-11955000D02*
X11501290Y-11985000D01*
X11501290Y-11955000D02*
X11471290Y-11985000D01*
X11471290Y-12215000D02*
X11501290Y-12245000D01*
X11501290Y-12215000D02*
X11471290Y-12245000D01*
X11622742Y-5955000D02*
X11652742Y-5985000D01*
X11652742Y-5955000D02*
X11622742Y-5985000D01*
X11622742Y-6215000D02*
X11652742Y-6245000D01*
X11652742Y-6215000D02*
X11622742Y-6245000D01*
X11622742Y-8955000D02*
X11652742Y-8985000D01*
X11652742Y-8955000D02*
X11622742Y-8985000D01*
X11622742Y-9215000D02*
X11652742Y-9245000D01*
X11652742Y-9215000D02*
X11622742Y-9245000D01*
X11622742Y-11955000D02*
X11652742Y-11985000D01*
X11652742Y-11955000D02*
X11622742Y-11985000D01*
X11622742Y-12215000D02*
X11652742Y-12245000D01*
X11652742Y-12215000D02*
X11622742Y-12245000D01*
X11774193Y-5955000D02*
X11804193Y-5985000D01*
X11804193Y-5955000D02*
X11774193Y-5985000D01*
X11774193Y-6215000D02*
X11804193Y-6245000D01*
X11804193Y-6215000D02*
X11774193Y-6245000D01*
X11774193Y-8955000D02*
X11804193Y-8985000D01*
X11804193Y-8955000D02*
X11774193Y-8985000D01*
X11774193Y-9215000D02*
X11804193Y-9245000D01*
X11804193Y-9215000D02*
X11774193Y-9245000D01*
X11774193Y-11955000D02*
X11804193Y-11985000D01*
X11804193Y-11955000D02*
X11774193Y-11985000D01*
X11774193Y-12215000D02*
X11804193Y-12245000D01*
X11804193Y-12215000D02*
X11774193Y-12245000D01*
X11925645Y-5955000D02*
X11955645Y-5985000D01*
X11955645Y-5955000D02*
X11925645Y-5985000D01*
X11925645Y-6215000D02*
X11955645Y-6245000D01*
X11955645Y-6215000D02*
X11925645Y-6245000D01*
X11925645Y-8955000D02*
X11955645Y-8985000D01*
X11955645Y-8955000D02*
X11925645Y-8985000D01*
X11925645Y-9215000D02*
X11955645Y-9245000D01*
X11955645Y-9215000D02*
X11925645Y-9245000D01*
X11925645Y-11955000D02*
X11955645Y-11985000D01*
X11955645Y-11955000D02*
X11925645Y-11985000D01*
X11925645Y-12215000D02*
X11955645Y-12245000D01*
X11955645Y-12215000D02*
X11925645Y-12245000D01*
X12077097Y-5955000D02*
X12107097Y-5985000D01*
X12107097Y-5955000D02*
X12077097Y-5985000D01*
X12077097Y-6215000D02*
X12107097Y-6245000D01*
X12107097Y-6215000D02*
X12077097Y-6245000D01*
X12077097Y-8955000D02*
X12107097Y-8985000D01*
X12107097Y-8955000D02*
X12077097Y-8985000D01*
X12077097Y-9215000D02*
X12107097Y-9245000D01*
X12107097Y-9215000D02*
X12077097Y-9245000D01*
X12077097Y-11955000D02*
X12107097Y-11985000D01*
X12107097Y-11955000D02*
X12077097Y-11985000D01*
X12077097Y-12215000D02*
X12107097Y-12245000D01*
X12107097Y-12215000D02*
X12077097Y-12245000D01*
X12228548Y-5955000D02*
X12258548Y-5985000D01*
X12258548Y-5955000D02*
X12228548Y-5985000D01*
X12228548Y-6215000D02*
X12258548Y-6245000D01*
X12258548Y-6215000D02*
X12228548Y-6245000D01*
X12228548Y-8955000D02*
X12258548Y-8985000D01*
X12258548Y-8955000D02*
X12228548Y-8985000D01*
X12228548Y-9215000D02*
X12258548Y-9245000D01*
X12258548Y-9215000D02*
X12228548Y-9245000D01*
X12228548Y-11955000D02*
X12258548Y-11985000D01*
X12258548Y-11955000D02*
X12228548Y-11985000D01*
X12228548Y-12215000D02*
X12258548Y-12245000D01*
X12258548Y-12215000D02*
X12228548Y-12245000D01*
X12380000Y-5955000D02*
X12410000Y-5985000D01*
X12410000Y-5955000D02*
X12380000Y-5985000D01*
X12380000Y-6215000D02*
X12410000Y-6245000D01*
X12410000Y-6215000D02*
X12380000Y-6245000D01*
X12380000Y-8955000D02*
X12410000Y-8985000D01*
X12410000Y-8955000D02*
X12380000Y-8985000D01*
X12380000Y-9215000D02*
X12410000Y-9245000D01*
X12410000Y-9215000D02*
X12380000Y-9245000D01*
X12380000Y-11955000D02*
X12410000Y-11985000D01*
X12410000Y-11955000D02*
X12380000Y-11985000D01*
X12380000Y-12215000D02*
X12410000Y-12245000D01*
X12410000Y-12215000D02*
X12380000Y-12245000D01*
X12531452Y-5955000D02*
X12561452Y-5985000D01*
X12561452Y-5955000D02*
X12531452Y-5985000D01*
X12531452Y-6215000D02*
X12561452Y-6245000D01*
X12561452Y-6215000D02*
X12531452Y-6245000D01*
X12531452Y-8955000D02*
X12561452Y-8985000D01*
X12561452Y-8955000D02*
X12531452Y-8985000D01*
X12531452Y-9215000D02*
X12561452Y-9245000D01*
X12561452Y-9215000D02*
X12531452Y-9245000D01*
X12531452Y-11955000D02*
X12561452Y-11985000D01*
X12561452Y-11955000D02*
X12531452Y-11985000D01*
X12531452Y-12215000D02*
X12561452Y-12245000D01*
X12561452Y-12215000D02*
X12531452Y-12245000D01*
X12682903Y-5955000D02*
X12712903Y-5985000D01*
X12712903Y-5955000D02*
X12682903Y-5985000D01*
X12682903Y-6215000D02*
X12712903Y-6245000D01*
X12712903Y-6215000D02*
X12682903Y-6245000D01*
X12682903Y-8955000D02*
X12712903Y-8985000D01*
X12712903Y-8955000D02*
X12682903Y-8985000D01*
X12682903Y-9215000D02*
X12712903Y-9245000D01*
X12712903Y-9215000D02*
X12682903Y-9245000D01*
X12682903Y-11955000D02*
X12712903Y-11985000D01*
X12712903Y-11955000D02*
X12682903Y-11985000D01*
X12682903Y-12215000D02*
X12712903Y-12245000D01*
X12712903Y-12215000D02*
X12682903Y-12245000D01*
X12834355Y-5955000D02*
X12864355Y-5985000D01*
X12864355Y-5955000D02*
X12834355Y-5985000D01*
X12834355Y-6215000D02*
X12864355Y-6245000D01*
X12864355Y-6215000D02*
X12834355Y-6245000D01*
X12834355Y-8955000D02*
X12864355Y-8985000D01*
X12864355Y-8955000D02*
X12834355Y-8985000D01*
X12834355Y-9215000D02*
X12864355Y-9245000D01*
X12864355Y-9215000D02*
X12834355Y-9245000D01*
X12834355Y-11955000D02*
X12864355Y-11985000D01*
X12864355Y-11955000D02*
X12834355Y-11985000D01*
X12834355Y-12215000D02*
X12864355Y-12245000D01*
X12864355Y-12215000D02*
X12834355Y-12245000D01*
X12985806Y-5955000D02*
X13015806Y-5985000D01*
X13015806Y-5955000D02*
X12985806Y-5985000D01*
X12985806Y-6215000D02*
X13015806Y-6245000D01*
X13015806Y-6215000D02*
X12985806Y-6245000D01*
X12985806Y-8955000D02*
X13015806Y-8985000D01*
X13015806Y-8955000D02*
X12985806Y-8985000D01*
X12985806Y-9215000D02*
X13015806Y-9245000D01*
X13015806Y-9215000D02*
X12985806Y-9245000D01*
X12985806Y-11955000D02*
X13015806Y-11985000D01*
X13015806Y-11955000D02*
X12985806Y-11985000D01*
X12985806Y-12215000D02*
X13015806Y-12245000D01*
X13015806Y-12215000D02*
X12985806Y-12245000D01*
X13137258Y-5955000D02*
X13167258Y-5985000D01*
X13167258Y-5955000D02*
X13137258Y-5985000D01*
X13137258Y-6215000D02*
X13167258Y-6245000D01*
X13167258Y-6215000D02*
X13137258Y-6245000D01*
X13137258Y-8955000D02*
X13167258Y-8985000D01*
X13167258Y-8955000D02*
X13137258Y-8985000D01*
X13137258Y-9215000D02*
X13167258Y-9245000D01*
X13167258Y-9215000D02*
X13137258Y-9245000D01*
X13137258Y-11955000D02*
X13167258Y-11985000D01*
X13167258Y-11955000D02*
X13137258Y-11985000D01*
X13137258Y-12215000D02*
X13167258Y-12245000D01*
X13167258Y-12215000D02*
X13137258Y-12245000D01*
X13288710Y-5955000D02*
X13318710Y-5985000D01*
X13318710Y-5955000D02*
X13288710Y-5985000D01*
X13288710Y-6215000D02*
X13318710Y-6245000D01*
X13318710Y-6215000D02*
X13288710Y-6245000D01*
X13288710Y-8955000D02*
X13318710Y-8985000D01*
X13318710Y-8955000D02*
X13288710Y-8985000D01*
X13288710Y-9215000D02*
X13318710Y-9245000D01*
X13318710Y-9215000D02*
X13288710Y-9245000D01*
X13288710Y-11955000D02*
X13318710Y-11985000D01*
X13318710Y-11955000D02*
X13288710Y-11985000D01*
X13288710Y-12215000D02*
X13318710Y-12245000D01*
X13318710Y-12215000D02*
X13288710Y-12245000D01*
X13440161Y-5955000D02*
X13470161Y-5985000D01*
X13470161Y-5955000D02*
X13440161Y-5985000D01*
X13440161Y-6215000D02*
X13470161Y-6245000D01*
X13470161Y-6215000D02*
X13440161Y-6245000D01*
X13440161Y-8955000D02*
X13470161Y-8985000D01*
X13470161Y-8955000D02*
X13440161Y-8985000D01*
X13440161Y-9215000D02*
X13470161Y-9245000D01*
X13470161Y-9215000D02*
X13440161Y-9245000D01*
X13440161Y-11955000D02*
X13470161Y-11985000D01*
X13470161Y-11955000D02*
X13440161Y-11985000D01*
X13440161Y-12215000D02*
X13470161Y-12245000D01*
X13470161Y-12215000D02*
X13440161Y-12245000D01*
X13591613Y-5955000D02*
X13621613Y-5985000D01*
X13621613Y-5955000D02*
X13591613Y-5985000D01*
X13591613Y-6215000D02*
X13621613Y-6245000D01*
X13621613Y-6215000D02*
X13591613Y-6245000D01*
X13591613Y-8955000D02*
X13621613Y-8985000D01*
X13621613Y-8955000D02*
X13591613Y-8985000D01*
X13591613Y-9215000D02*
X13621613Y-9245000D01*
X13621613Y-9215000D02*
X13591613Y-9245000D01*
X13591613Y-11955000D02*
X13621613Y-11985000D01*
X13621613Y-11955000D02*
X13591613Y-11985000D01*
X13591613Y-12215000D02*
X13621613Y-12245000D01*
X13621613Y-12215000D02*
X13591613Y-12245000D01*
X13743064Y-5955000D02*
X13773064Y-5985000D01*
X13773064Y-5955000D02*
X13743064Y-5985000D01*
X13743064Y-6215000D02*
X13773064Y-6245000D01*
X13773064Y-6215000D02*
X13743064Y-6245000D01*
X13743064Y-8955000D02*
X13773064Y-8985000D01*
X13773064Y-8955000D02*
X13743064Y-8985000D01*
X13743064Y-9215000D02*
X13773064Y-9245000D01*
X13773064Y-9215000D02*
X13743064Y-9245000D01*
X13743064Y-11955000D02*
X13773064Y-11985000D01*
X13773064Y-11955000D02*
X13743064Y-11985000D01*
X13743064Y-12215000D02*
X13773064Y-12245000D01*
X13773064Y-12215000D02*
X13743064Y-12245000D01*
X13894516Y-5955000D02*
X13924516Y-5985000D01*
X13924516Y-5955000D02*
X13894516Y-5985000D01*
X13894516Y-6215000D02*
X13924516Y-6245000D01*
X13924516Y-6215000D02*
X13894516Y-6245000D01*
X13894516Y-8955000D02*
X13924516Y-8985000D01*
X13924516Y-8955000D02*
X13894516Y-8985000D01*
X13894516Y-9215000D02*
X13924516Y-9245000D01*
X13924516Y-9215000D02*
X13894516Y-9245000D01*
X13894516Y-11955000D02*
X13924516Y-11985000D01*
X13924516Y-11955000D02*
X13894516Y-11985000D01*
X13894516Y-12215000D02*
X13924516Y-12245000D01*
X13924516Y-12215000D02*
X13894516Y-12245000D01*
X14045968Y-5955000D02*
X14075968Y-5985000D01*
X14075968Y-5955000D02*
X14045968Y-5985000D01*
X14045968Y-6215000D02*
X14075968Y-6245000D01*
X14075968Y-6215000D02*
X14045968Y-6245000D01*
X14045968Y-8955000D02*
X14075968Y-8985000D01*
X14075968Y-8955000D02*
X14045968Y-8985000D01*
X14045968Y-9215000D02*
X14075968Y-9245000D01*
X14075968Y-9215000D02*
X14045968Y-9245000D01*
X14045968Y-11955000D02*
X14075968Y-11985000D01*
X14075968Y-11955000D02*
X14045968Y-11985000D01*
X14045968Y-12215000D02*
X14075968Y-12245000D01*
X14075968Y-12215000D02*
X14045968Y-12245000D01*
X14197419Y-5955000D02*
X14227419Y-5985000D01*
X14227419Y-5955000D02*
X14197419Y-5985000D01*
X14197419Y-6215000D02*
X14227419Y-6245000D01*
X14227419Y-6215000D02*
X14197419Y-6245000D01*
X14197419Y-8955000D02*
X14227419Y-8985000D01*
X14227419Y-8955000D02*
X14197419Y-8985000D01*
X14197419Y-9215000D02*
X14227419Y-9245000D01*
X14227419Y-9215000D02*
X14197419Y-9245000D01*
X14197419Y-11955000D02*
X14227419Y-11985000D01*
X14227419Y-11955000D02*
X14197419Y-11985000D01*
X14197419Y-12215000D02*
X14227419Y-12245000D01*
X14227419Y-12215000D02*
X14197419Y-12245000D01*
X14348871Y-5955000D02*
X14378871Y-5985000D01*
X14378871Y-5955000D02*
X14348871Y-5985000D01*
X14348871Y-6215000D02*
X14378871Y-6245000D01*
X14378871Y-6215000D02*
X14348871Y-6245000D01*
X14348871Y-8955000D02*
X14378871Y-8985000D01*
X14378871Y-8955000D02*
X14348871Y-8985000D01*
X14348871Y-9215000D02*
X14378871Y-9245000D01*
X14378871Y-9215000D02*
X14348871Y-9245000D01*
X14348871Y-11955000D02*
X14378871Y-11985000D01*
X14378871Y-11955000D02*
X14348871Y-11985000D01*
X14348871Y-12215000D02*
X14378871Y-12245000D01*
X14378871Y-12215000D02*
X14348871Y-12245000D01*
X14500322Y-5955000D02*
X14530322Y-5985000D01*
X14530322Y-5955000D02*
X14500322Y-5985000D01*
X14500322Y-6215000D02*
X14530322Y-6245000D01*
X14530322Y-6215000D02*
X14500322Y-6245000D01*
X14500322Y-8955000D02*
X14530322Y-8985000D01*
X14530322Y-8955000D02*
X14500322Y-8985000D01*
X14500322Y-9215000D02*
X14530322Y-9245000D01*
X14530322Y-9215000D02*
X14500322Y-9245000D01*
X14500322Y-11955000D02*
X14530322Y-11985000D01*
X14530322Y-11955000D02*
X14500322Y-11985000D01*
X14500322Y-12215000D02*
X14530322Y-12245000D01*
X14530322Y-12215000D02*
X14500322Y-12245000D01*
X14651774Y-5955000D02*
X14681774Y-5985000D01*
X14681774Y-5955000D02*
X14651774Y-5985000D01*
X14651774Y-6215000D02*
X14681774Y-6245000D01*
X14681774Y-6215000D02*
X14651774Y-6245000D01*
X14651774Y-8955000D02*
X14681774Y-8985000D01*
X14681774Y-8955000D02*
X14651774Y-8985000D01*
X14651774Y-9215000D02*
X14681774Y-9245000D01*
X14681774Y-9215000D02*
X14651774Y-9245000D01*
X14651774Y-11955000D02*
X14681774Y-11985000D01*
X14681774Y-11955000D02*
X14651774Y-11985000D01*
X14651774Y-12215000D02*
X14681774Y-12245000D01*
X14681774Y-12215000D02*
X14651774Y-12245000D01*
X14803226Y-5955000D02*
X14833226Y-5985000D01*
X14833226Y-5955000D02*
X14803226Y-5985000D01*
X14803226Y-6215000D02*
X14833226Y-6245000D01*
X14833226Y-6215000D02*
X14803226Y-6245000D01*
X14803226Y-8955000D02*
X14833226Y-8985000D01*
X14833226Y-8955000D02*
X14803226Y-8985000D01*
X14803226Y-9215000D02*
X14833226Y-9245000D01*
X14833226Y-9215000D02*
X14803226Y-9245000D01*
X14803226Y-11955000D02*
X14833226Y-11985000D01*
X14833226Y-11955000D02*
X14803226Y-11985000D01*
X14803226Y-12215000D02*
X14833226Y-12245000D01*
X14833226Y-12215000D02*
X14803226Y-12245000D01*
X14954677Y-5955000D02*
X14984677Y-5985000D01*
X14984677Y-5955000D02*
X14954677Y-5985000D01*
X14954677Y-6215000D02*
X14984677Y-6245000D01*
X14984677Y-6215000D02*
X14954677Y-6245000D01*
X14954677Y-8955000D02*
X14984677Y-8985000D01*
X14984677Y-8955000D02*
X14954677Y-8985000D01*
X14954677Y-9215000D02*
X14984677Y-9245000D01*
X14984677Y-9215000D02*
X14954677Y-9245000D01*
X14954677Y-11955000D02*
X14984677Y-11985000D01*
X14984677Y-11955000D02*
X14954677Y-11985000D01*
X14954677Y-12215000D02*
X14984677Y-12245000D01*
X14984677Y-12215000D02*
X14954677Y-12245000D01*
X15106129Y-5955000D02*
X15136129Y-5985000D01*
X15136129Y-5955000D02*
X15106129Y-5985000D01*
X15106129Y-6215000D02*
X15136129Y-6245000D01*
X15136129Y-6215000D02*
X15106129Y-6245000D01*
X15106129Y-8955000D02*
X15136129Y-8985000D01*
X15136129Y-8955000D02*
X15106129Y-8985000D01*
X15106129Y-9215000D02*
X15136129Y-9245000D01*
X15136129Y-9215000D02*
X15106129Y-9245000D01*
X15106129Y-11955000D02*
X15136129Y-11985000D01*
X15136129Y-11955000D02*
X15106129Y-11985000D01*
X15106129Y-12215000D02*
X15136129Y-12245000D01*
X15136129Y-12215000D02*
X15106129Y-12245000D01*
X15257581Y-5955000D02*
X15287581Y-5985000D01*
X15287581Y-5955000D02*
X15257581Y-5985000D01*
X15257581Y-6215000D02*
X15287581Y-6245000D01*
X15287581Y-6215000D02*
X15257581Y-6245000D01*
X15257581Y-8955000D02*
X15287581Y-8985000D01*
X15287581Y-8955000D02*
X15257581Y-8985000D01*
X15257581Y-9215000D02*
X15287581Y-9245000D01*
X15287581Y-9215000D02*
X15257581Y-9245000D01*
X15257581Y-11955000D02*
X15287581Y-11985000D01*
X15287581Y-11955000D02*
X15257581Y-11985000D01*
X15257581Y-12215000D02*
X15287581Y-12245000D01*
X15287581Y-12215000D02*
X15257581Y-12245000D01*
X15409032Y-5955000D02*
X15439032Y-5985000D01*
X15439032Y-5955000D02*
X15409032Y-5985000D01*
X15409032Y-6215000D02*
X15439032Y-6245000D01*
X15439032Y-6215000D02*
X15409032Y-6245000D01*
X15409032Y-8955000D02*
X15439032Y-8985000D01*
X15439032Y-8955000D02*
X15409032Y-8985000D01*
X15409032Y-9215000D02*
X15439032Y-9245000D01*
X15439032Y-9215000D02*
X15409032Y-9245000D01*
X15409032Y-11955000D02*
X15439032Y-11985000D01*
X15439032Y-11955000D02*
X15409032Y-11985000D01*
X15409032Y-12215000D02*
X15439032Y-12245000D01*
X15439032Y-12215000D02*
X15409032Y-12245000D01*
X15560484Y-5955000D02*
X15590484Y-5985000D01*
X15590484Y-5955000D02*
X15560484Y-5985000D01*
X15560484Y-6215000D02*
X15590484Y-6245000D01*
X15590484Y-6215000D02*
X15560484Y-6245000D01*
X15560484Y-8955000D02*
X15590484Y-8985000D01*
X15590484Y-8955000D02*
X15560484Y-8985000D01*
X15560484Y-9215000D02*
X15590484Y-9245000D01*
X15590484Y-9215000D02*
X15560484Y-9245000D01*
X15560484Y-11955000D02*
X15590484Y-11985000D01*
X15590484Y-11955000D02*
X15560484Y-11985000D01*
X15560484Y-12215000D02*
X15590484Y-12245000D01*
X15590484Y-12215000D02*
X15560484Y-12245000D01*
X15711935Y-5955000D02*
X15741935Y-5985000D01*
X15741935Y-5955000D02*
X15711935Y-5985000D01*
X15711935Y-6215000D02*
X15741935Y-6245000D01*
X15741935Y-6215000D02*
X15711935Y-6245000D01*
X15711935Y-8955000D02*
X15741935Y-8985000D01*
X15741935Y-8955000D02*
X15711935Y-8985000D01*
X15711935Y-9215000D02*
X15741935Y-9245000D01*
X15741935Y-9215000D02*
X15711935Y-9245000D01*
X15711935Y-11955000D02*
X15741935Y-11985000D01*
X15741935Y-11955000D02*
X15711935Y-11985000D01*
X15711935Y-12215000D02*
X15741935Y-12245000D01*
X15741935Y-12215000D02*
X15711935Y-12245000D01*
X15863387Y-5955000D02*
X15893387Y-5985000D01*
X15893387Y-5955000D02*
X15863387Y-5985000D01*
X15863387Y-6215000D02*
X15893387Y-6245000D01*
X15893387Y-6215000D02*
X15863387Y-6245000D01*
X15863387Y-8955000D02*
X15893387Y-8985000D01*
X15893387Y-8955000D02*
X15863387Y-8985000D01*
X15863387Y-9215000D02*
X15893387Y-9245000D01*
X15893387Y-9215000D02*
X15863387Y-9245000D01*
X15863387Y-11955000D02*
X15893387Y-11985000D01*
X15893387Y-11955000D02*
X15863387Y-11985000D01*
X15863387Y-12215000D02*
X15893387Y-12245000D01*
X15893387Y-12215000D02*
X15863387Y-12245000D01*
X16014839Y-5955000D02*
X16044839Y-5985000D01*
X16044839Y-5955000D02*
X16014839Y-5985000D01*
X16014839Y-6215000D02*
X16044839Y-6245000D01*
X16044839Y-6215000D02*
X16014839Y-6245000D01*
X16014839Y-8955000D02*
X16044839Y-8985000D01*
X16044839Y-8955000D02*
X16014839Y-8985000D01*
X16014839Y-9215000D02*
X16044839Y-9245000D01*
X16044839Y-9215000D02*
X16014839Y-9245000D01*
X16014839Y-11955000D02*
X16044839Y-11985000D01*
X16044839Y-11955000D02*
X16014839Y-11985000D01*
X16014839Y-12215000D02*
X16044839Y-12245000D01*
X16044839Y-12215000D02*
X16014839Y-12245000D01*
X16166290Y-5955000D02*
X16196290Y-5985000D01*
X16196290Y-5955000D02*
X16166290Y-5985000D01*
X16166290Y-6215000D02*
X16196290Y-6245000D01*
X16196290Y-6215000D02*
X16166290Y-6245000D01*
X16166290Y-8955000D02*
X16196290Y-8985000D01*
X16196290Y-8955000D02*
X16166290Y-8985000D01*
X16166290Y-9215000D02*
X16196290Y-9245000D01*
X16196290Y-9215000D02*
X16166290Y-9245000D01*
X16166290Y-11955000D02*
X16196290Y-11985000D01*
X16196290Y-11955000D02*
X16166290Y-11985000D01*
X16166290Y-12215000D02*
X16196290Y-12245000D01*
X16196290Y-12215000D02*
X16166290Y-12245000D01*
X16317742Y-5955000D02*
X16347742Y-5985000D01*
X16347742Y-5955000D02*
X16317742Y-5985000D01*
X16317742Y-6215000D02*
X16347742Y-6245000D01*
X16347742Y-6215000D02*
X16317742Y-6245000D01*
X16317742Y-8955000D02*
X16347742Y-8985000D01*
X16347742Y-8955000D02*
X16317742Y-8985000D01*
X16317742Y-9215000D02*
X16347742Y-9245000D01*
X16347742Y-9215000D02*
X16317742Y-9245000D01*
X16317742Y-11955000D02*
X16347742Y-11985000D01*
X16347742Y-11955000D02*
X16317742Y-11985000D01*
X16317742Y-12215000D02*
X16347742Y-12245000D01*
X16347742Y-12215000D02*
X16317742Y-12245000D01*
X16469193Y-5955000D02*
X16499193Y-5985000D01*
X16499193Y-5955000D02*
X16469193Y-5985000D01*
X16469193Y-6215000D02*
X16499193Y-6245000D01*
X16499193Y-6215000D02*
X16469193Y-6245000D01*
X16469193Y-8955000D02*
X16499193Y-8985000D01*
X16499193Y-8955000D02*
X16469193Y-8985000D01*
X16469193Y-9215000D02*
X16499193Y-9245000D01*
X16499193Y-9215000D02*
X16469193Y-9245000D01*
X16469193Y-11955000D02*
X16499193Y-11985000D01*
X16499193Y-11955000D02*
X16469193Y-11985000D01*
X16469193Y-12215000D02*
X16499193Y-12245000D01*
X16499193Y-12215000D02*
X16469193Y-12245000D01*
X16620645Y-5955000D02*
X16650645Y-5985000D01*
X16650645Y-5955000D02*
X16620645Y-5985000D01*
X16620645Y-6215000D02*
X16650645Y-6245000D01*
X16650645Y-6215000D02*
X16620645Y-6245000D01*
X16620645Y-8955000D02*
X16650645Y-8985000D01*
X16650645Y-8955000D02*
X16620645Y-8985000D01*
X16620645Y-9215000D02*
X16650645Y-9245000D01*
X16650645Y-9215000D02*
X16620645Y-9245000D01*
X16620645Y-11955000D02*
X16650645Y-11985000D01*
X16650645Y-11955000D02*
X16620645Y-11985000D01*
X16620645Y-12215000D02*
X16650645Y-12245000D01*
X16650645Y-12215000D02*
X16620645Y-12245000D01*
X16772097Y-5955000D02*
X16802097Y-5985000D01*
X16802097Y-5955000D02*
X16772097Y-5985000D01*
X16772097Y-6215000D02*
X16802097Y-6245000D01*
X16802097Y-6215000D02*
X16772097Y-6245000D01*
X16772097Y-8955000D02*
X16802097Y-8985000D01*
X16802097Y-8955000D02*
X16772097Y-8985000D01*
X16772097Y-9215000D02*
X16802097Y-9245000D01*
X16802097Y-9215000D02*
X16772097Y-9245000D01*
X16772097Y-11955000D02*
X16802097Y-11985000D01*
X16802097Y-11955000D02*
X16772097Y-11985000D01*
X16772097Y-12215000D02*
X16802097Y-12245000D01*
X16802097Y-12215000D02*
X16772097Y-12245000D01*
X16923548Y-5955000D02*
X16953548Y-5985000D01*
X16953548Y-5955000D02*
X16923548Y-5985000D01*
X16923548Y-6215000D02*
X16953548Y-6245000D01*
X16953548Y-6215000D02*
X16923548Y-6245000D01*
X16923548Y-8955000D02*
X16953548Y-8985000D01*
X16953548Y-8955000D02*
X16923548Y-8985000D01*
X16923548Y-9215000D02*
X16953548Y-9245000D01*
X16953548Y-9215000D02*
X16923548Y-9245000D01*
X16923548Y-11955000D02*
X16953548Y-11985000D01*
X16953548Y-11955000D02*
X16923548Y-11985000D01*
X16923548Y-12215000D02*
X16953548Y-12245000D01*
X16953548Y-12215000D02*
X16923548Y-12245000D01*
X17033109Y-8970664D02*
X17063109Y-9000664D01*
X17063109Y-8970664D02*
X17033109Y-9000664D01*
X17033109Y-9199336D02*
X17063109Y-9229336D01*
X17063109Y-9199336D02*
X17033109Y-9229336D01*
X17075000Y-5955000D02*
X17105000Y-5985000D01*
X17105000Y-5955000D02*
X17075000Y-5985000D01*
X17075000Y-6215000D02*
X17105000Y-6245000D01*
X17105000Y-6215000D02*
X17075000Y-6245000D01*
X17085000Y-11985000D02*
X17115000Y-12015000D01*
X17115000Y-11985000D02*
X17085000Y-12015000D01*
X17085000Y-12185000D02*
X17115000Y-12215000D01*
X17115000Y-12185000D02*
X17085000Y-12215000D01*
X17085664Y-8867520D02*
X17115664Y-8897520D01*
X17115664Y-8867520D02*
X17085664Y-8897520D01*
X17085664Y-9302481D02*
X17115664Y-9332481D01*
X17115664Y-9302481D02*
X17085664Y-9332481D01*
X17100659Y-9181644D02*
X17130659Y-9211644D01*
X17130659Y-9181644D02*
X17100659Y-9211644D01*
X17135000Y-5885000D02*
X17165000Y-5915000D01*
X17165000Y-5885000D02*
X17135000Y-5915000D01*
X17137098Y-6295715D02*
X17167098Y-6325715D01*
X17167098Y-6295715D02*
X17137098Y-6325715D01*
X17155000Y-9085000D02*
X17185000Y-9115000D01*
X17185000Y-9085000D02*
X17155000Y-9115000D01*
X17159205Y-5784594D02*
X17189205Y-5814594D01*
X17189205Y-5784594D02*
X17159205Y-5814594D01*
X17162327Y-6395868D02*
X17192327Y-6425868D01*
X17192327Y-6395868D02*
X17162327Y-6425868D01*
X17167520Y-8785664D02*
X17197520Y-8815664D01*
X17197520Y-8785664D02*
X17167520Y-8815664D01*
X17167520Y-9384336D02*
X17197520Y-9414336D01*
X17197520Y-9384336D02*
X17167520Y-9414336D01*
X17185814Y-8970000D02*
X17215814Y-9000000D01*
X17215814Y-8970000D02*
X17185814Y-9000000D01*
X17185814Y-9200000D02*
X17215814Y-9230000D01*
X17215814Y-9200000D02*
X17185814Y-9230000D01*
X17192987Y-5686993D02*
X17222987Y-5716993D01*
X17222987Y-5686993D02*
X17192987Y-5716993D01*
X17197104Y-6493119D02*
X17227104Y-6523119D01*
X17227104Y-6493119D02*
X17197104Y-6523119D01*
X17236031Y-5593108D02*
X17266031Y-5623108D01*
X17266031Y-5593108D02*
X17236031Y-5623108D01*
X17241105Y-6586560D02*
X17271105Y-6616560D01*
X17271105Y-6586560D02*
X17241105Y-6616560D01*
X17270000Y-8885814D02*
X17300000Y-8915814D01*
X17300000Y-8885814D02*
X17270000Y-8915814D01*
X17270000Y-9284186D02*
X17300000Y-9314186D01*
X17300000Y-9284186D02*
X17270000Y-9314186D01*
X17270664Y-8733109D02*
X17300664Y-8763109D01*
X17300664Y-8733109D02*
X17270664Y-8763109D01*
X17270664Y-9436891D02*
X17300664Y-9466891D01*
X17300664Y-9436891D02*
X17270664Y-9466891D01*
X17287936Y-5503816D02*
X17317936Y-5533816D01*
X17317936Y-5503816D02*
X17287936Y-5533816D01*
X17293919Y-6675317D02*
X17323919Y-6705317D01*
X17323919Y-6675317D02*
X17293919Y-6705317D01*
X17296745Y-6233656D02*
X17326745Y-6263656D01*
X17326745Y-6233656D02*
X17296745Y-6263656D01*
X17348216Y-5419950D02*
X17378216Y-5449950D01*
X17378216Y-5419950D02*
X17348216Y-5449950D01*
X17355053Y-6758563D02*
X17385053Y-6788563D01*
X17385053Y-6758563D02*
X17355053Y-6788563D01*
X17385000Y-8715000D02*
X17415000Y-8745000D01*
X17415000Y-8715000D02*
X17385000Y-8745000D01*
X17385000Y-8855000D02*
X17415000Y-8885000D01*
X17415000Y-8855000D02*
X17385000Y-8885000D01*
X17385000Y-9315000D02*
X17415000Y-9345000D01*
X17415000Y-9315000D02*
X17385000Y-9345000D01*
X17385000Y-9455000D02*
X17415000Y-9485000D01*
X17415000Y-9455000D02*
X17385000Y-9485000D01*
X17416309Y-5342293D02*
X17446309Y-5372293D01*
X17446309Y-5342293D02*
X17416309Y-5372293D01*
X17423935Y-6835520D02*
X17453935Y-6865520D01*
X17453935Y-6835520D02*
X17423935Y-6865520D01*
X17429851Y-6132439D02*
X17459851Y-6162439D01*
X17459851Y-6132439D02*
X17429851Y-6162439D01*
X17430598Y-6026881D02*
X17460598Y-6056881D01*
X17460598Y-6026881D02*
X17430598Y-6056881D01*
X17443803Y-6237074D02*
X17473803Y-6267074D01*
X17473803Y-6237074D02*
X17443803Y-6267074D01*
X17446029Y-5922454D02*
X17476029Y-5952454D01*
X17476029Y-5922454D02*
X17446029Y-5952454D01*
X17472181Y-6338748D02*
X17502181Y-6368748D01*
X17502181Y-6338748D02*
X17472181Y-6368748D01*
X17475842Y-5821191D02*
X17505842Y-5851191D01*
X17505842Y-5821191D02*
X17475842Y-5851191D01*
X17491579Y-5271571D02*
X17521579Y-5301571D01*
X17521579Y-5271571D02*
X17491579Y-5301571D01*
X17499336Y-8733109D02*
X17529336Y-8763109D01*
X17529336Y-8733109D02*
X17499336Y-8763109D01*
X17499336Y-9436891D02*
X17529336Y-9466891D01*
X17529336Y-9436891D02*
X17499336Y-9466891D01*
X17499924Y-6905470D02*
X17529924Y-6935470D01*
X17529924Y-6905470D02*
X17499924Y-6935470D01*
X17500000Y-8885814D02*
X17530000Y-8915814D01*
X17530000Y-8885814D02*
X17500000Y-8915814D01*
X17500000Y-9284186D02*
X17530000Y-9314186D01*
X17530000Y-9284186D02*
X17500000Y-9314186D01*
X17514433Y-6435484D02*
X17544433Y-6465484D01*
X17544433Y-6435484D02*
X17514433Y-6465484D01*
X17519459Y-5725063D02*
X17549459Y-5755063D01*
X17549459Y-5725063D02*
X17519459Y-5755063D01*
X17569737Y-6525398D02*
X17599737Y-6555398D01*
X17599737Y-6525398D02*
X17569737Y-6555398D01*
X17573323Y-5208443D02*
X17603323Y-5238443D01*
X17603323Y-5208443D02*
X17573323Y-5238443D01*
X17576029Y-5635940D02*
X17606029Y-5665940D01*
X17606029Y-5635940D02*
X17576029Y-5665940D01*
X17582309Y-6967759D02*
X17612309Y-6997759D01*
X17612309Y-6967759D02*
X17582309Y-6997759D01*
X17584186Y-8970000D02*
X17614186Y-9000000D01*
X17614186Y-8970000D02*
X17584186Y-9000000D01*
X17584186Y-9200000D02*
X17614186Y-9230000D01*
X17614186Y-9200000D02*
X17584186Y-9230000D01*
X17602481Y-8785664D02*
X17632481Y-8815664D01*
X17632481Y-8785664D02*
X17602481Y-8815664D01*
X17602481Y-9384336D02*
X17632481Y-9414336D01*
X17632481Y-9384336D02*
X17602481Y-9414336D01*
X17637016Y-6606741D02*
X17667016Y-6636741D01*
X17667016Y-6606741D02*
X17637016Y-6636741D01*
X17644453Y-5555558D02*
X17674453Y-5585558D01*
X17674453Y-5555558D02*
X17644453Y-5585558D01*
X17660779Y-5153500D02*
X17690779Y-5183500D01*
X17690779Y-5153500D02*
X17660779Y-5183500D01*
X17670321Y-7021806D02*
X17700321Y-7051806D01*
X17700321Y-7021806D02*
X17670321Y-7051806D01*
X17684336Y-8867520D02*
X17714336Y-8897520D01*
X17714336Y-8867520D02*
X17684336Y-8897520D01*
X17684336Y-9302481D02*
X17714336Y-9332481D01*
X17714336Y-9302481D02*
X17684336Y-9332481D01*
X17714961Y-6677928D02*
X17744961Y-6707928D01*
X17744961Y-6677928D02*
X17714961Y-6707928D01*
X17723398Y-5485481D02*
X17753398Y-5515481D01*
X17753398Y-5485481D02*
X17723398Y-5515481D01*
X17736891Y-8970664D02*
X17766891Y-9000664D01*
X17766891Y-8970664D02*
X17736891Y-9000664D01*
X17736891Y-9199336D02*
X17766891Y-9229336D01*
X17766891Y-9199336D02*
X17736891Y-9229336D01*
X17753129Y-5107254D02*
X17783129Y-5137254D01*
X17783129Y-5107254D02*
X17753129Y-5137254D01*
X17763138Y-7067106D02*
X17793138Y-7097106D01*
X17793138Y-7067106D02*
X17763138Y-7097106D01*
X17802055Y-6737574D02*
X17832055Y-6767574D01*
X17832055Y-6737574D02*
X17802055Y-6767574D01*
X17811327Y-5427073D02*
X17841327Y-5457073D01*
X17841327Y-5427073D02*
X17811327Y-5457073D01*
X17849511Y-5070137D02*
X17879511Y-5100137D01*
X17879511Y-5070137D02*
X17849511Y-5100137D01*
X17859895Y-7103237D02*
X17889895Y-7133237D01*
X17889895Y-7103237D02*
X17859895Y-7133237D01*
X17896603Y-6784519D02*
X17926603Y-6814519D01*
X17926603Y-6784519D02*
X17896603Y-6814519D01*
X17906529Y-5381470D02*
X17936529Y-5411470D01*
X17936529Y-5381470D02*
X17906529Y-5411470D01*
X17949026Y-5042495D02*
X17979026Y-5072495D01*
X17979026Y-5042495D02*
X17949026Y-5072495D01*
X17959687Y-7129861D02*
X17989687Y-7159861D01*
X17989687Y-7129861D02*
X17959687Y-7159861D01*
X17996763Y-6817849D02*
X18026763Y-6847849D01*
X18026763Y-6817849D02*
X17996763Y-6847849D01*
X18007152Y-5349561D02*
X18037152Y-5379561D01*
X18037152Y-5349561D02*
X18007152Y-5379561D01*
X18050744Y-5024587D02*
X18080744Y-5054587D01*
X18080744Y-5024587D02*
X18050744Y-5054587D01*
X18061582Y-7146729D02*
X18091582Y-7176729D01*
X18091582Y-7146729D02*
X18061582Y-7176729D01*
X18100588Y-6836914D02*
X18130588Y-6866914D01*
X18130588Y-6836914D02*
X18100588Y-6866914D01*
X18111236Y-5331967D02*
X18141236Y-5361967D01*
X18141236Y-5331967D02*
X18111236Y-5361967D01*
X18153715Y-5016580D02*
X18183715Y-5046580D01*
X18183715Y-5016580D02*
X18153715Y-5046580D01*
X18164630Y-7153684D02*
X18194630Y-7183684D01*
X18194630Y-7153684D02*
X18164630Y-7183684D01*
X18206056Y-6841344D02*
X18236056Y-6871344D01*
X18236056Y-6841344D02*
X18206056Y-6871344D01*
X18216755Y-5329029D02*
X18246755Y-5359029D01*
X18246755Y-5329029D02*
X18216755Y-5359029D01*
X18256978Y-5018548D02*
X18286978Y-5048548D01*
X18286978Y-5018548D02*
X18256978Y-5048548D01*
X18267868Y-7150661D02*
X18297868Y-7180661D01*
X18297868Y-7150661D02*
X18267868Y-7180661D01*
X18311114Y-6831053D02*
X18341114Y-6861053D01*
X18341114Y-6831053D02*
X18311114Y-6861053D01*
X18321657Y-5340806D02*
X18351657Y-5370806D01*
X18351657Y-5340806D02*
X18321657Y-5370806D01*
X18359570Y-5030474D02*
X18389570Y-5060474D01*
X18389570Y-5030474D02*
X18359570Y-5060474D01*
X18370332Y-7137688D02*
X18400332Y-7167688D01*
X18400332Y-7137688D02*
X18370332Y-7167688D01*
X18413717Y-6806241D02*
X18443717Y-6836241D01*
X18443717Y-6806241D02*
X18413717Y-6836241D01*
X18423899Y-5367067D02*
X18453899Y-5397067D01*
X18453899Y-5367067D02*
X18423899Y-5397067D01*
X18460531Y-5052245D02*
X18490531Y-5082245D01*
X18490531Y-5052245D02*
X18460531Y-5082245D01*
X18471066Y-7114887D02*
X18501066Y-7144887D01*
X18501066Y-7114887D02*
X18471066Y-7144887D01*
X18511868Y-6767391D02*
X18541868Y-6797391D01*
X18541868Y-6767391D02*
X18511868Y-6797391D01*
X18521491Y-5407303D02*
X18551491Y-5437303D01*
X18551491Y-5407303D02*
X18521491Y-5437303D01*
X18558920Y-5083659D02*
X18588920Y-5113659D01*
X18588920Y-5083659D02*
X18558920Y-5113659D01*
X18569129Y-7082469D02*
X18599129Y-7112469D01*
X18599129Y-7082469D02*
X18569129Y-7112469D01*
X18603658Y-6715258D02*
X18633658Y-6745258D01*
X18633658Y-6715258D02*
X18603658Y-6745258D01*
X18612534Y-5460728D02*
X18642534Y-5490728D01*
X18642534Y-5460728D02*
X18612534Y-5490728D01*
X18653818Y-5124422D02*
X18683818Y-5154422D01*
X18683818Y-5124422D02*
X18653818Y-5154422D01*
X18663605Y-7040739D02*
X18693605Y-7070739D01*
X18693605Y-7040739D02*
X18663605Y-7070739D01*
X18687298Y-6650859D02*
X18717298Y-6680859D01*
X18717298Y-6650859D02*
X18687298Y-6680859D01*
X18695255Y-5526305D02*
X18725255Y-5556305D01*
X18725255Y-5526305D02*
X18695255Y-5556305D01*
X18744338Y-5174154D02*
X18774338Y-5204154D01*
X18774338Y-5174154D02*
X18744338Y-5204154D01*
X18753613Y-6990085D02*
X18783613Y-7020085D01*
X18783613Y-6990085D02*
X18753613Y-7020085D01*
X18761162Y-6575446D02*
X18791162Y-6605446D01*
X18791162Y-6575446D02*
X18761162Y-6605446D01*
X18768044Y-5602756D02*
X18798044Y-5632756D01*
X18798044Y-5602756D02*
X18768044Y-5632756D01*
X18823812Y-6490486D02*
X18853812Y-6520486D01*
X18853812Y-6490486D02*
X18823812Y-6520486D01*
X18829485Y-5688593D02*
X18859485Y-5718593D01*
X18859485Y-5688593D02*
X18829485Y-5718593D01*
X18829637Y-5232390D02*
X18859637Y-5262390D01*
X18859637Y-5232390D02*
X18829637Y-5262390D01*
X18838312Y-6930981D02*
X18868312Y-6960981D01*
X18868312Y-6930981D02*
X18838312Y-6960981D01*
X18874028Y-6397635D02*
X18904028Y-6427635D01*
X18904028Y-6397635D02*
X18874028Y-6427635D01*
X18878383Y-5782146D02*
X18908383Y-5812146D01*
X18908383Y-5782146D02*
X18878383Y-5812146D01*
X18908916Y-5298587D02*
X18938916Y-5328587D01*
X18938916Y-5298587D02*
X18908916Y-5328587D01*
X18910833Y-6298698D02*
X18940833Y-6328698D01*
X18940833Y-6298698D02*
X18910833Y-6328698D01*
X18913784Y-5881593D02*
X18943784Y-5911593D01*
X18943784Y-5881593D02*
X18913784Y-5911593D01*
X18916911Y-6863978D02*
X18946911Y-6893978D01*
X18946911Y-6863978D02*
X18916911Y-6893978D01*
X18933510Y-6195602D02*
X18963510Y-6225602D01*
X18963510Y-6195602D02*
X18933510Y-6225602D01*
X18935000Y-5985000D02*
X18965000Y-6015000D01*
X18965000Y-5985000D02*
X18935000Y-6015000D01*
X18981436Y-5372126D02*
X19011436Y-5402126D01*
X19011436Y-5372126D02*
X18981436Y-5402126D01*
X18988676Y-6789702D02*
X19018676Y-6819702D01*
X19018676Y-6789702D02*
X18988676Y-6819702D01*
X19046520Y-5452321D02*
X19076520Y-5482321D01*
X19076520Y-5452321D02*
X19046520Y-5482321D01*
X19052938Y-6708846D02*
X19082938Y-6738846D01*
X19082938Y-6708846D02*
X19052938Y-6738846D01*
X19103561Y-5538423D02*
X19133561Y-5568423D01*
X19133561Y-5538423D02*
X19103561Y-5568423D01*
X19109096Y-6622166D02*
X19139096Y-6652166D01*
X19139096Y-6622166D02*
X19109096Y-6652166D01*
X19152025Y-5629629D02*
X19182025Y-5659629D01*
X19182025Y-5629629D02*
X19152025Y-5659629D01*
X19156626Y-6530470D02*
X19186626Y-6560470D01*
X19186626Y-6530470D02*
X19156626Y-6560470D01*
X19191460Y-5725086D02*
X19221460Y-5755086D01*
X19221460Y-5725086D02*
X19191460Y-5755086D01*
X19195084Y-6434615D02*
X19225084Y-6464615D01*
X19225084Y-6434615D02*
X19195084Y-6464615D01*
X19221498Y-5823904D02*
X19251498Y-5853904D01*
X19251498Y-5823904D02*
X19221498Y-5853904D01*
X19224111Y-6335495D02*
X19254111Y-6365495D01*
X19254111Y-6335495D02*
X19224111Y-6365495D01*
X19241859Y-5925159D02*
X19271859Y-5955159D01*
X19271859Y-5925159D02*
X19241859Y-5955159D01*
X19243437Y-6234037D02*
X19273437Y-6264037D01*
X19273437Y-6234037D02*
X19243437Y-6264037D01*
D11*
X6752619Y-14215476D02*
X6752619Y-14015476D01*
X6800238Y-14015476D01*
X6828809Y-14025000D01*
X6847857Y-14044048D01*
X6857381Y-14063095D01*
X6866905Y-14101190D01*
X6866905Y-14129762D01*
X6857381Y-14167857D01*
X6847857Y-14186905D01*
X6828809Y-14205952D01*
X6800238Y-14215476D01*
X6752619Y-14215476D01*
X6952619Y-14215476D02*
X6952619Y-14082143D01*
X6952619Y-14120238D02*
X6962143Y-14101190D01*
X6971667Y-14091667D01*
X6990714Y-14082143D01*
X7009762Y-14082143D01*
X7076428Y-14215476D02*
X7076428Y-14082143D01*
X7076428Y-14015476D02*
X7066905Y-14025000D01*
X7076428Y-14034524D01*
X7085952Y-14025000D01*
X7076428Y-14015476D01*
X7076428Y-14034524D01*
X7200238Y-14215476D02*
X7181190Y-14205952D01*
X7171667Y-14186905D01*
X7171667Y-14015476D01*
X7305000Y-14215476D02*
X7285952Y-14205952D01*
X7276428Y-14186905D01*
X7276428Y-14015476D01*
X7533571Y-14215476D02*
X7533571Y-14015476D01*
X7600238Y-14158333D01*
X7666905Y-14015476D01*
X7666905Y-14215476D01*
X7847857Y-14215476D02*
X7847857Y-14110714D01*
X7838333Y-14091667D01*
X7819286Y-14082143D01*
X7781190Y-14082143D01*
X7762143Y-14091667D01*
X7847857Y-14205952D02*
X7828809Y-14215476D01*
X7781190Y-14215476D01*
X7762143Y-14205952D01*
X7752619Y-14186905D01*
X7752619Y-14167857D01*
X7762143Y-14148809D01*
X7781190Y-14139286D01*
X7828809Y-14139286D01*
X7847857Y-14129762D01*
X7943095Y-14082143D02*
X7943095Y-14282143D01*
X7943095Y-14091667D02*
X7962143Y-14082143D01*
X8000238Y-14082143D01*
X8019286Y-14091667D01*
X8028809Y-14101190D01*
X8038333Y-14120238D01*
X8038333Y-14177381D01*
X8028809Y-14196428D01*
X8019286Y-14205952D01*
X8000238Y-14215476D01*
X7962143Y-14215476D01*
X7943095Y-14205952D01*
X8124048Y-14196428D02*
X8133571Y-14205952D01*
X8124048Y-14215476D01*
X8114524Y-14205952D01*
X8124048Y-14196428D01*
X8124048Y-14215476D01*
X8124048Y-14091667D02*
X8133571Y-14101190D01*
X8124048Y-14110714D01*
X8114524Y-14101190D01*
X8124048Y-14091667D01*
X8124048Y-14110714D01*
D12*
X6465000Y-14530000D02*
X6495000Y-14560000D01*
X6495000Y-14530000D02*
X6465000Y-14560000D01*
D11*
X6790714Y-14435476D02*
X6809762Y-14435476D01*
X6828809Y-14445000D01*
X6838333Y-14454524D01*
X6847857Y-14473571D01*
X6857381Y-14511667D01*
X6857381Y-14559286D01*
X6847857Y-14597381D01*
X6838333Y-14616428D01*
X6828809Y-14625952D01*
X6809762Y-14635476D01*
X6790714Y-14635476D01*
X6771667Y-14625952D01*
X6762143Y-14616428D01*
X6752619Y-14597381D01*
X6743095Y-14559286D01*
X6743095Y-14511667D01*
X6752619Y-14473571D01*
X6762143Y-14454524D01*
X6771667Y-14445000D01*
X6790714Y-14435476D01*
X6943095Y-14616428D02*
X6952619Y-14625952D01*
X6943095Y-14635476D01*
X6933571Y-14625952D01*
X6943095Y-14616428D01*
X6943095Y-14635476D01*
X7019286Y-14435476D02*
X7143095Y-14435476D01*
X7076428Y-14511667D01*
X7105000Y-14511667D01*
X7124048Y-14521190D01*
X7133571Y-14530714D01*
X7143095Y-14549762D01*
X7143095Y-14597381D01*
X7133571Y-14616428D01*
X7124048Y-14625952D01*
X7105000Y-14635476D01*
X7047857Y-14635476D01*
X7028809Y-14625952D01*
X7019286Y-14616428D01*
X7266905Y-14435476D02*
X7285952Y-14435476D01*
X7305000Y-14445000D01*
X7314524Y-14454524D01*
X7324048Y-14473571D01*
X7333571Y-14511667D01*
X7333571Y-14559286D01*
X7324048Y-14597381D01*
X7314524Y-14616428D01*
X7305000Y-14625952D01*
X7285952Y-14635476D01*
X7266905Y-14635476D01*
X7247857Y-14625952D01*
X7238333Y-14616428D01*
X7228809Y-14597381D01*
X7219286Y-14559286D01*
X7219286Y-14511667D01*
X7228809Y-14473571D01*
X7238333Y-14454524D01*
X7247857Y-14445000D01*
X7266905Y-14435476D01*
X7457381Y-14435476D02*
X7476428Y-14435476D01*
X7495476Y-14445000D01*
X7505000Y-14454524D01*
X7514524Y-14473571D01*
X7524048Y-14511667D01*
X7524048Y-14559286D01*
X7514524Y-14597381D01*
X7505000Y-14616428D01*
X7495476Y-14625952D01*
X7476428Y-14635476D01*
X7457381Y-14635476D01*
X7438333Y-14625952D01*
X7428809Y-14616428D01*
X7419286Y-14597381D01*
X7409762Y-14559286D01*
X7409762Y-14511667D01*
X7419286Y-14473571D01*
X7428809Y-14454524D01*
X7438333Y-14445000D01*
X7457381Y-14435476D01*
X7609762Y-14635476D02*
X7609762Y-14502143D01*
X7609762Y-14521190D02*
X7619286Y-14511667D01*
X7638333Y-14502143D01*
X7666905Y-14502143D01*
X7685952Y-14511667D01*
X7695476Y-14530714D01*
X7695476Y-14635476D01*
X7695476Y-14530714D02*
X7705000Y-14511667D01*
X7724048Y-14502143D01*
X7752619Y-14502143D01*
X7771667Y-14511667D01*
X7781190Y-14530714D01*
X7781190Y-14635476D01*
X7876428Y-14635476D02*
X7876428Y-14502143D01*
X7876428Y-14521190D02*
X7885952Y-14511667D01*
X7905000Y-14502143D01*
X7933571Y-14502143D01*
X7952619Y-14511667D01*
X7962143Y-14530714D01*
X7962143Y-14635476D01*
X7962143Y-14530714D02*
X7971667Y-14511667D01*
X7990714Y-14502143D01*
X8019286Y-14502143D01*
X8038333Y-14511667D01*
X8047857Y-14530714D01*
X8047857Y-14635476D01*
X8438333Y-14425952D02*
X8266905Y-14683095D01*
X8695476Y-14435476D02*
X8714524Y-14435476D01*
X8733571Y-14445000D01*
X8743095Y-14454524D01*
X8752619Y-14473571D01*
X8762143Y-14511667D01*
X8762143Y-14559286D01*
X8752619Y-14597381D01*
X8743095Y-14616428D01*
X8733571Y-14625952D01*
X8714524Y-14635476D01*
X8695476Y-14635476D01*
X8676429Y-14625952D01*
X8666905Y-14616428D01*
X8657381Y-14597381D01*
X8647857Y-14559286D01*
X8647857Y-14511667D01*
X8657381Y-14473571D01*
X8666905Y-14454524D01*
X8676429Y-14445000D01*
X8695476Y-14435476D01*
X8847857Y-14616428D02*
X8857381Y-14625952D01*
X8847857Y-14635476D01*
X8838333Y-14625952D01*
X8847857Y-14616428D01*
X8847857Y-14635476D01*
X8981190Y-14435476D02*
X9000238Y-14435476D01*
X9019286Y-14445000D01*
X9028810Y-14454524D01*
X9038333Y-14473571D01*
X9047857Y-14511667D01*
X9047857Y-14559286D01*
X9038333Y-14597381D01*
X9028810Y-14616428D01*
X9019286Y-14625952D01*
X9000238Y-14635476D01*
X8981190Y-14635476D01*
X8962143Y-14625952D01*
X8952619Y-14616428D01*
X8943095Y-14597381D01*
X8933571Y-14559286D01*
X8933571Y-14511667D01*
X8943095Y-14473571D01*
X8952619Y-14454524D01*
X8962143Y-14445000D01*
X8981190Y-14435476D01*
X9238333Y-14635476D02*
X9124048Y-14635476D01*
X9181190Y-14635476D02*
X9181190Y-14435476D01*
X9162143Y-14464048D01*
X9143095Y-14483095D01*
X9124048Y-14492619D01*
X9428810Y-14635476D02*
X9314524Y-14635476D01*
X9371667Y-14635476D02*
X9371667Y-14435476D01*
X9352619Y-14464048D01*
X9333571Y-14483095D01*
X9314524Y-14492619D01*
X9543095Y-14521190D02*
X9524048Y-14511667D01*
X9514524Y-14502143D01*
X9505000Y-14483095D01*
X9505000Y-14473571D01*
X9514524Y-14454524D01*
X9524048Y-14445000D01*
X9543095Y-14435476D01*
X9581190Y-14435476D01*
X9600238Y-14445000D01*
X9609762Y-14454524D01*
X9619286Y-14473571D01*
X9619286Y-14483095D01*
X9609762Y-14502143D01*
X9600238Y-14511667D01*
X9581190Y-14521190D01*
X9543095Y-14521190D01*
X9524048Y-14530714D01*
X9514524Y-14540238D01*
X9505000Y-14559286D01*
X9505000Y-14597381D01*
X9514524Y-14616428D01*
X9524048Y-14625952D01*
X9543095Y-14635476D01*
X9581190Y-14635476D01*
X9600238Y-14625952D01*
X9609762Y-14616428D01*
X9619286Y-14597381D01*
X9619286Y-14559286D01*
X9609762Y-14540238D01*
X9600238Y-14530714D01*
X9581190Y-14521190D01*
X9695476Y-14435476D02*
X9695476Y-14473571D01*
X9771667Y-14435476D02*
X9771667Y-14473571D01*
X10066905Y-14711667D02*
X10057381Y-14702143D01*
X10038333Y-14673571D01*
X10028810Y-14654524D01*
X10019286Y-14625952D01*
X10009762Y-14578333D01*
X10009762Y-14540238D01*
X10019286Y-14492619D01*
X10028810Y-14464048D01*
X10038333Y-14445000D01*
X10057381Y-14416428D01*
X10066905Y-14406905D01*
X10238333Y-14435476D02*
X10143095Y-14435476D01*
X10133571Y-14530714D01*
X10143095Y-14521190D01*
X10162143Y-14511667D01*
X10209762Y-14511667D01*
X10228810Y-14521190D01*
X10238333Y-14530714D01*
X10247857Y-14549762D01*
X10247857Y-14597381D01*
X10238333Y-14616428D01*
X10228810Y-14625952D01*
X10209762Y-14635476D01*
X10162143Y-14635476D01*
X10143095Y-14625952D01*
X10133571Y-14616428D01*
X10371667Y-14435476D02*
X10390714Y-14435476D01*
X10409762Y-14445000D01*
X10419286Y-14454524D01*
X10428810Y-14473571D01*
X10438333Y-14511667D01*
X10438333Y-14559286D01*
X10428810Y-14597381D01*
X10419286Y-14616428D01*
X10409762Y-14625952D01*
X10390714Y-14635476D01*
X10371667Y-14635476D01*
X10352619Y-14625952D01*
X10343095Y-14616428D01*
X10333571Y-14597381D01*
X10324048Y-14559286D01*
X10324048Y-14511667D01*
X10333571Y-14473571D01*
X10343095Y-14454524D01*
X10352619Y-14445000D01*
X10371667Y-14435476D01*
X10552619Y-14521190D02*
X10533571Y-14511667D01*
X10524048Y-14502143D01*
X10514524Y-14483095D01*
X10514524Y-14473571D01*
X10524048Y-14454524D01*
X10533571Y-14445000D01*
X10552619Y-14435476D01*
X10590714Y-14435476D01*
X10609762Y-14445000D01*
X10619286Y-14454524D01*
X10628810Y-14473571D01*
X10628810Y-14483095D01*
X10619286Y-14502143D01*
X10609762Y-14511667D01*
X10590714Y-14521190D01*
X10552619Y-14521190D01*
X10533571Y-14530714D01*
X10524048Y-14540238D01*
X10514524Y-14559286D01*
X10514524Y-14597381D01*
X10524048Y-14616428D01*
X10533571Y-14625952D01*
X10552619Y-14635476D01*
X10590714Y-14635476D01*
X10609762Y-14625952D01*
X10619286Y-14616428D01*
X10628810Y-14597381D01*
X10628810Y-14559286D01*
X10619286Y-14540238D01*
X10609762Y-14530714D01*
X10590714Y-14521190D01*
X10866905Y-14635476D02*
X10866905Y-14435476D01*
X10952619Y-14635476D02*
X10952619Y-14530714D01*
X10943095Y-14511667D01*
X10924048Y-14502143D01*
X10895476Y-14502143D01*
X10876429Y-14511667D01*
X10866905Y-14521190D01*
X11076429Y-14635476D02*
X11057381Y-14625952D01*
X11047857Y-14616428D01*
X11038333Y-14597381D01*
X11038333Y-14540238D01*
X11047857Y-14521190D01*
X11057381Y-14511667D01*
X11076429Y-14502143D01*
X11105000Y-14502143D01*
X11124048Y-14511667D01*
X11133571Y-14521190D01*
X11143095Y-14540238D01*
X11143095Y-14597381D01*
X11133571Y-14616428D01*
X11124048Y-14625952D01*
X11105000Y-14635476D01*
X11076429Y-14635476D01*
X11257381Y-14635476D02*
X11238333Y-14625952D01*
X11228809Y-14606905D01*
X11228809Y-14435476D01*
X11409762Y-14625952D02*
X11390714Y-14635476D01*
X11352619Y-14635476D01*
X11333571Y-14625952D01*
X11324048Y-14606905D01*
X11324048Y-14530714D01*
X11333571Y-14511667D01*
X11352619Y-14502143D01*
X11390714Y-14502143D01*
X11409762Y-14511667D01*
X11419286Y-14530714D01*
X11419286Y-14549762D01*
X11324048Y-14568809D01*
X11495476Y-14625952D02*
X11514524Y-14635476D01*
X11552619Y-14635476D01*
X11571667Y-14625952D01*
X11581190Y-14606905D01*
X11581190Y-14597381D01*
X11571667Y-14578333D01*
X11552619Y-14568809D01*
X11524048Y-14568809D01*
X11505000Y-14559286D01*
X11495476Y-14540238D01*
X11495476Y-14530714D01*
X11505000Y-14511667D01*
X11524048Y-14502143D01*
X11552619Y-14502143D01*
X11571667Y-14511667D01*
X11647857Y-14711667D02*
X11657381Y-14702143D01*
X11676428Y-14673571D01*
X11685952Y-14654524D01*
X11695476Y-14625952D01*
X11705000Y-14578333D01*
X11705000Y-14540238D01*
X11695476Y-14492619D01*
X11685952Y-14464048D01*
X11676428Y-14445000D01*
X11657381Y-14416428D01*
X11647857Y-14406905D01*
M02*
