M48
METRIC
T1C0.300
%
G90
G05
T1
X77.0Y-61.0
X77.0Y-91.0
X77.0Y-121.0
X78.515Y-59.7
X78.515Y-62.3
X78.515Y-89.7
X78.515Y-92.3
X78.515Y-119.7
X78.515Y-122.3
X80.029Y-59.7
X80.029Y-62.3
X80.029Y-89.7
X80.029Y-92.3
X80.029Y-119.7
X80.029Y-122.3
X81.544Y-59.7
X81.544Y-62.3
X81.544Y-89.7
X81.544Y-92.3
X81.544Y-119.7
X81.544Y-122.3
X83.058Y-59.7
X83.058Y-62.3
X83.058Y-89.7
X83.058Y-92.3
X83.058Y-119.7
X83.058Y-122.3
X84.573Y-59.7
X84.573Y-62.3
X84.573Y-89.7
X84.573Y-92.3
X84.573Y-119.7
X84.573Y-122.3
X86.087Y-59.7
X86.087Y-62.3
X86.087Y-89.7
X86.087Y-92.3
X86.087Y-119.7
X86.087Y-122.3
X87.602Y-59.7
X87.602Y-62.3
X87.602Y-89.7
X87.602Y-92.3
X87.602Y-119.7
X87.602Y-122.3
X89.116Y-59.7
X89.116Y-62.3
X89.116Y-89.7
X89.116Y-92.3
X89.116Y-119.7
X89.116Y-122.3
X90.631Y-59.7
X90.631Y-62.3
X90.631Y-89.7
X90.631Y-92.3
X90.631Y-119.7
X90.631Y-122.3
X92.145Y-59.7
X92.145Y-62.3
X92.145Y-89.7
X92.145Y-92.3
X92.145Y-119.7
X92.145Y-122.3
X93.66Y-59.7
X93.66Y-62.3
X93.66Y-89.7
X93.66Y-92.3
X93.66Y-119.7
X93.66Y-122.3
X95.174Y-59.7
X95.174Y-62.3
X95.174Y-89.7
X95.174Y-92.3
X95.174Y-119.7
X95.174Y-122.3
X96.689Y-59.7
X96.689Y-62.3
X96.689Y-89.7
X96.689Y-92.3
X96.689Y-119.7
X96.689Y-122.3
X98.203Y-59.7
X98.203Y-62.3
X98.203Y-89.7
X98.203Y-92.3
X98.203Y-119.7
X98.203Y-122.3
X99.718Y-59.7
X99.718Y-62.3
X99.718Y-89.7
X99.718Y-92.3
X99.718Y-119.7
X99.718Y-122.3
X101.232Y-59.7
X101.232Y-62.3
X101.232Y-89.7
X101.232Y-92.3
X101.232Y-119.7
X101.232Y-122.3
X102.747Y-59.7
X102.747Y-62.3
X102.747Y-89.7
X102.747Y-92.3
X102.747Y-119.7
X102.747Y-122.3
X104.261Y-59.7
X104.261Y-62.3
X104.261Y-89.7
X104.261Y-92.3
X104.261Y-119.7
X104.261Y-122.3
X105.776Y-59.7
X105.776Y-62.3
X105.776Y-89.7
X105.776Y-92.3
X105.776Y-119.7
X105.776Y-122.3
X107.29Y-59.7
X107.29Y-62.3
X107.29Y-89.7
X107.29Y-92.3
X107.29Y-119.7
X107.29Y-122.3
X108.805Y-59.7
X108.805Y-62.3
X108.805Y-89.7
X108.805Y-92.3
X108.805Y-119.7
X108.805Y-122.3
X110.319Y-59.7
X110.319Y-62.3
X110.319Y-89.7
X110.319Y-92.3
X110.319Y-119.7
X110.319Y-122.3
X111.834Y-59.7
X111.834Y-62.3
X111.834Y-89.7
X111.834Y-92.3
X111.834Y-119.7
X111.834Y-122.3
X113.348Y-59.7
X113.348Y-62.3
X113.348Y-89.7
X113.348Y-92.3
X113.348Y-119.7
X113.348Y-122.3
X114.863Y-59.7
X114.863Y-62.3
X114.863Y-89.7
X114.863Y-92.3
X114.863Y-119.7
X114.863Y-122.3
X116.377Y-59.7
X116.377Y-62.3
X116.377Y-89.7
X116.377Y-92.3
X116.377Y-119.7
X116.377Y-122.3
X117.892Y-59.7
X117.892Y-62.3
X117.892Y-89.7
X117.892Y-92.3
X117.892Y-119.7
X117.892Y-122.3
X119.406Y-59.7
X119.406Y-62.3
X119.406Y-89.7
X119.406Y-92.3
X119.406Y-119.7
X119.406Y-122.3
X120.921Y-59.7
X120.921Y-62.3
X120.921Y-89.7
X120.921Y-92.3
X120.921Y-119.7
X120.921Y-122.3
X122.435Y-59.7
X122.435Y-62.3
X122.435Y-89.7
X122.435Y-92.3
X122.435Y-119.7
X122.435Y-122.3
X123.95Y-59.7
X123.95Y-62.3
X123.95Y-89.7
X123.95Y-92.3
X123.95Y-119.7
X123.95Y-122.3
X125.465Y-59.7
X125.465Y-62.3
X125.465Y-89.7
X125.465Y-92.3
X125.465Y-119.7
X125.465Y-122.3
X126.979Y-59.7
X126.979Y-62.3
X126.979Y-89.7
X126.979Y-92.3
X126.979Y-119.7
X126.979Y-122.3
X128.494Y-59.7
X128.494Y-62.3
X128.494Y-89.7
X128.494Y-92.3
X128.494Y-119.7
X128.494Y-122.3
X130.008Y-59.7
X130.008Y-62.3
X130.008Y-89.7
X130.008Y-92.3
X130.008Y-119.7
X130.008Y-122.3
X131.523Y-59.7
X131.523Y-62.3
X131.523Y-89.7
X131.523Y-92.3
X131.523Y-119.7
X131.523Y-122.3
X133.037Y-59.7
X133.037Y-62.3
X133.037Y-89.7
X133.037Y-92.3
X133.037Y-119.7
X133.037Y-122.3
X134.552Y-59.7
X134.552Y-62.3
X134.552Y-89.7
X134.552Y-92.3
X134.552Y-119.7
X134.552Y-122.3
X136.066Y-59.7
X136.066Y-62.3
X136.066Y-89.7
X136.066Y-92.3
X136.066Y-119.7
X136.066Y-122.3
X137.581Y-59.7
X137.581Y-62.3
X137.581Y-89.7
X137.581Y-92.3
X137.581Y-119.7
X137.581Y-122.3
X139.095Y-59.7
X139.095Y-62.3
X139.095Y-89.7
X139.095Y-92.3
X139.095Y-119.7
X139.095Y-122.3
X140.61Y-59.7
X140.61Y-62.3
X140.61Y-89.7
X140.61Y-92.3
X140.61Y-119.7
X140.61Y-122.3
X142.124Y-59.7
X142.124Y-62.3
X142.124Y-89.7
X142.124Y-92.3
X142.124Y-119.7
X142.124Y-122.3
X143.639Y-59.7
X143.639Y-62.3
X143.639Y-89.7
X143.639Y-92.3
X143.639Y-119.7
X143.639Y-122.3
X145.153Y-59.7
X145.153Y-62.3
X145.153Y-89.7
X145.153Y-92.3
X145.153Y-119.7
X145.153Y-122.3
X146.668Y-59.7
X146.668Y-62.3
X146.668Y-89.7
X146.668Y-92.3
X146.668Y-119.7
X146.668Y-122.3
X148.182Y-59.7
X148.182Y-62.3
X148.182Y-89.7
X148.182Y-92.3
X148.182Y-119.7
X148.182Y-122.3
X149.697Y-59.7
X149.697Y-62.3
X149.697Y-89.7
X149.697Y-92.3
X149.697Y-119.7
X149.697Y-122.3
X151.211Y-59.7
X151.211Y-62.3
X151.211Y-89.7
X151.211Y-92.3
X151.211Y-119.7
X151.211Y-122.3
X152.726Y-59.7
X152.726Y-62.3
X152.726Y-89.7
X152.726Y-92.3
X152.726Y-119.7
X152.726Y-122.3
X154.24Y-59.7
X154.24Y-62.3
X154.24Y-89.7
X154.24Y-92.3
X154.24Y-119.7
X154.24Y-122.3
X155.755Y-59.7
X155.755Y-62.3
X155.755Y-89.7
X155.755Y-92.3
X155.755Y-119.7
X155.755Y-122.3
X157.269Y-59.7
X157.269Y-62.3
X157.269Y-89.7
X157.269Y-92.3
X157.269Y-119.7
X157.269Y-122.3
X158.784Y-59.7
X158.784Y-62.3
X158.784Y-89.7
X158.784Y-92.3
X158.784Y-119.7
X158.784Y-122.3
X160.298Y-59.7
X160.298Y-62.3
X160.298Y-89.7
X160.298Y-92.3
X160.298Y-119.7
X160.298Y-122.3
X161.813Y-59.7
X161.813Y-62.3
X161.813Y-89.7
X161.813Y-92.3
X161.813Y-119.7
X161.813Y-122.3
X163.327Y-59.7
X163.327Y-62.3
X163.327Y-89.7
X163.327Y-92.3
X163.327Y-119.7
X163.327Y-122.3
X164.842Y-59.7
X164.842Y-62.3
X164.842Y-89.7
X164.842Y-92.3
X164.842Y-119.7
X164.842Y-122.3
X166.356Y-59.7
X166.356Y-62.3
X166.356Y-89.7
X166.356Y-92.3
X166.356Y-119.7
X166.356Y-122.3
X167.871Y-59.7
X167.871Y-62.3
X167.871Y-89.7
X167.871Y-92.3
X167.871Y-119.7
X167.871Y-122.3
X169.385Y-59.7
X169.385Y-62.3
X169.385Y-89.7
X169.385Y-92.3
X169.385Y-119.7
X169.385Y-122.3
X170.481Y-89.857
X170.481Y-92.143
X170.9Y-59.7
X170.9Y-62.3
X171.0Y-120.0
X171.0Y-122.0
X171.007Y-88.825
X171.007Y-93.175
X171.157Y-91.966
X171.5Y-59.0
X171.521Y-63.107
X171.7Y-91.0
X171.742Y-57.996
X171.773Y-64.109
X171.825Y-88.007
X171.825Y-93.993
X172.008Y-89.85
X172.008Y-92.15
X172.08Y-57.02
X172.121Y-65.081
X172.51Y-56.081
X172.561Y-66.016
X172.85Y-89.008
X172.85Y-92.992
X172.857Y-87.481
X172.857Y-94.519
X173.029Y-55.188
X173.089Y-66.903
X173.117Y-62.487
X173.632Y-54.349
X173.701Y-67.736
X174.0Y-87.3
X174.0Y-88.7
X174.0Y-93.3
X174.0Y-94.7
X174.313Y-53.573
X174.389Y-68.505
X174.449Y-61.474
X174.456Y-60.419
X174.588Y-62.521
X174.61Y-59.375
X174.872Y-63.537
X174.908Y-58.362
X175.066Y-52.866
X175.143Y-87.481
X175.143Y-94.519
X175.149Y-69.205
X175.15Y-89.008
X175.15Y-92.992
X175.294Y-64.505
X175.345Y-57.401
X175.847Y-65.404
X175.883Y-52.234
X175.91Y-56.509
X175.973Y-69.828
X175.992Y-89.85
X175.992Y-92.15
X176.175Y-88.007
X176.175Y-93.993
X176.52Y-66.217
X176.595Y-55.706
X176.758Y-51.685
X176.853Y-70.368
X176.993Y-88.825
X176.993Y-93.175
X177.3Y-66.929
X177.384Y-55.005
X177.519Y-89.857
X177.519Y-92.143
X177.681Y-51.223
X177.781Y-70.821
X178.171Y-67.526
X178.263Y-54.421
X178.645Y-50.851
X178.749Y-71.182
X179.116Y-67.995
X179.215Y-53.965
X179.64Y-50.575
X179.747Y-71.449
X180.118Y-68.328
X180.222Y-53.646
X180.657Y-50.396
X180.766Y-71.617
X181.156Y-68.519
X181.262Y-53.47
X181.687Y-50.316
X181.796Y-71.687
X182.211Y-68.563
X182.318Y-53.44
X182.72Y-50.335
X182.829Y-71.657
X183.261Y-68.461
X183.367Y-53.558
X183.746Y-50.455
X183.853Y-71.527
X184.287Y-68.212
X184.389Y-53.821
X184.755Y-50.672
X184.861Y-71.299
X185.269Y-67.824
X185.365Y-54.223
X185.739Y-50.987
X185.841Y-70.975
X186.187Y-67.303
X186.275Y-54.757
X186.688Y-51.394
X186.786Y-70.557
X187.023Y-66.659
X187.103Y-55.413
X187.593Y-51.892
X187.686Y-70.051
X187.762Y-65.904
X187.83Y-56.178
X188.388Y-65.055
X188.445Y-57.036
X188.446Y-52.474
X188.533Y-69.46
X188.89Y-64.126
X188.934Y-57.971
X189.239Y-53.136
X189.258Y-63.137
X189.288Y-58.966
X189.319Y-68.79
X189.485Y-62.106
X189.5Y-60.0
X189.964Y-53.871
X190.037Y-68.047
X190.615Y-54.673
X190.679Y-67.238
X191.186Y-55.534
X191.241Y-66.372
X191.67Y-56.446
X191.716Y-65.455
X192.065Y-57.401
X192.101Y-64.496
X192.365Y-58.389
X192.391Y-63.505
X192.569Y-59.402
X192.584Y-62.49
T0
M30
