G04 #@! TF.GenerationSoftware,KiCad,Pcbnew,(6.0.1)*
G04 #@! TF.CreationDate,2023-07-16T14:40:23+02:00*
G04 #@! TF.ProjectId,panel,70616e65-6c2e-46b6-9963-61645f706362,rev?*
G04 #@! TF.SameCoordinates,Original*
G04 #@! TF.FileFunction,Copper,L1,Top*
G04 #@! TF.FilePolarity,Positive*
%FSLAX46Y46*%
G04 Gerber Fmt 4.6, Leading zero omitted, Abs format (unit mm)*
G04 Created by KiCad (PCBNEW (6.0.1)) date 2023-07-16 14:40:23*
%MOMM*%
%LPD*%
G01*
G04 APERTURE LIST*
G04 #@! TA.AperFunction,EtchedComponent*
%ADD10C,0.010000*%
G04 #@! TD*
G04 #@! TA.AperFunction,SMDPad,CuDef*
%ADD11R,5.080000X1.500000*%
G04 #@! TD*
G04 #@! TA.AperFunction,ViaPad*
%ADD12C,0.500000*%
G04 #@! TD*
G04 #@! TA.AperFunction,Conductor*
%ADD13C,1.000000*%
G04 #@! TD*
G04 APERTURE END LIST*
D10*
X194940018Y-94664310D02*
X194955269Y-94629415D01*
X194955269Y-94629415D02*
X195021235Y-94546123D01*
X195021235Y-94546123D02*
X195116618Y-94474897D01*
X195116618Y-94474897D02*
X195218406Y-94430847D01*
X195218406Y-94430847D02*
X195268587Y-94423678D01*
X195268587Y-94423678D02*
X195338647Y-94447715D01*
X195338647Y-94447715D02*
X195375717Y-94500439D01*
X195375717Y-94500439D02*
X195398164Y-94556969D01*
X195398164Y-94556969D02*
X195402300Y-94582854D01*
X195402300Y-94582854D02*
X195372283Y-94595458D01*
X195372283Y-94595458D02*
X195306961Y-94620346D01*
X195306961Y-94620346D02*
X195277445Y-94631265D01*
X195277445Y-94631265D02*
X195175348Y-94692492D01*
X195175348Y-94692492D02*
X195124423Y-94781139D01*
X195124423Y-94781139D02*
X195125989Y-94894807D01*
X195125989Y-94894807D02*
X195127994Y-94903226D01*
X195127994Y-94903226D02*
X195156767Y-94963912D01*
X195156767Y-94963912D02*
X195212859Y-95008526D01*
X195212859Y-95008526D02*
X195303163Y-95038998D01*
X195303163Y-95038998D02*
X195434571Y-95057256D01*
X195434571Y-95057256D02*
X195613974Y-95065229D01*
X195613974Y-95065229D02*
X195709433Y-95065977D01*
X195709433Y-95065977D02*
X195859913Y-95066348D01*
X195859913Y-95066348D02*
X195962495Y-95068777D01*
X195962495Y-95068777D02*
X196027672Y-95075240D01*
X196027672Y-95075240D02*
X196065938Y-95087712D01*
X196065938Y-95087712D02*
X196087785Y-95108167D01*
X196087785Y-95108167D02*
X196103707Y-95138581D01*
X196103707Y-95138581D02*
X196104509Y-95140339D01*
X196104509Y-95140339D02*
X196129272Y-95198909D01*
X196129272Y-95198909D02*
X196138391Y-95227925D01*
X196138391Y-95227925D02*
X196110822Y-95232384D01*
X196110822Y-95232384D02*
X196034620Y-95236201D01*
X196034620Y-95236201D02*
X195919541Y-95239101D01*
X195919541Y-95239101D02*
X195775341Y-95240809D01*
X195775341Y-95240809D02*
X195669814Y-95241149D01*
X195669814Y-95241149D02*
X195465613Y-95239412D01*
X195465613Y-95239412D02*
X195310697Y-95232618D01*
X195310697Y-95232618D02*
X195196024Y-95218393D01*
X195196024Y-95218393D02*
X195112551Y-95194362D01*
X195112551Y-95194362D02*
X195051236Y-95158152D01*
X195051236Y-95158152D02*
X195003034Y-95107388D01*
X195003034Y-95107388D02*
X194969393Y-95057261D01*
X194969393Y-95057261D02*
X194924619Y-94936725D01*
X194924619Y-94936725D02*
X194914521Y-94796443D01*
X194914521Y-94796443D02*
X194940018Y-94664310D01*
X194940018Y-94664310D02*
X194940018Y-94664310D01*
G36*
X195338647Y-94447715D02*
G01*
X195375717Y-94500439D01*
X195398164Y-94556969D01*
X195402300Y-94582854D01*
X195372283Y-94595458D01*
X195306961Y-94620346D01*
X195277445Y-94631265D01*
X195175348Y-94692492D01*
X195124423Y-94781139D01*
X195125989Y-94894807D01*
X195127994Y-94903226D01*
X195156767Y-94963912D01*
X195212859Y-95008526D01*
X195303163Y-95038998D01*
X195434571Y-95057256D01*
X195613974Y-95065229D01*
X195709433Y-95065977D01*
X195859913Y-95066348D01*
X195962495Y-95068777D01*
X196027672Y-95075240D01*
X196065938Y-95087712D01*
X196087785Y-95108167D01*
X196103707Y-95138581D01*
X196104509Y-95140339D01*
X196129272Y-95198909D01*
X196138391Y-95227925D01*
X196110822Y-95232384D01*
X196034620Y-95236201D01*
X195919541Y-95239101D01*
X195775341Y-95240809D01*
X195669814Y-95241149D01*
X195465613Y-95239412D01*
X195310697Y-95232618D01*
X195196024Y-95218393D01*
X195112551Y-95194362D01*
X195051236Y-95158152D01*
X195003034Y-95107388D01*
X194969393Y-95057261D01*
X194924619Y-94936725D01*
X194914521Y-94796443D01*
X194940018Y-94664310D01*
X194955269Y-94629415D01*
X195021235Y-94546123D01*
X195116618Y-94474897D01*
X195218406Y-94430847D01*
X195268587Y-94423678D01*
X195338647Y-94447715D01*
G37*
X195338647Y-94447715D02*
X195375717Y-94500439D01*
X195398164Y-94556969D01*
X195402300Y-94582854D01*
X195372283Y-94595458D01*
X195306961Y-94620346D01*
X195277445Y-94631265D01*
X195175348Y-94692492D01*
X195124423Y-94781139D01*
X195125989Y-94894807D01*
X195127994Y-94903226D01*
X195156767Y-94963912D01*
X195212859Y-95008526D01*
X195303163Y-95038998D01*
X195434571Y-95057256D01*
X195613974Y-95065229D01*
X195709433Y-95065977D01*
X195859913Y-95066348D01*
X195962495Y-95068777D01*
X196027672Y-95075240D01*
X196065938Y-95087712D01*
X196087785Y-95108167D01*
X196103707Y-95138581D01*
X196104509Y-95140339D01*
X196129272Y-95198909D01*
X196138391Y-95227925D01*
X196110822Y-95232384D01*
X196034620Y-95236201D01*
X195919541Y-95239101D01*
X195775341Y-95240809D01*
X195669814Y-95241149D01*
X195465613Y-95239412D01*
X195310697Y-95232618D01*
X195196024Y-95218393D01*
X195112551Y-95194362D01*
X195051236Y-95158152D01*
X195003034Y-95107388D01*
X194969393Y-95057261D01*
X194924619Y-94936725D01*
X194914521Y-94796443D01*
X194940018Y-94664310D01*
X194955269Y-94629415D01*
X195021235Y-94546123D01*
X195116618Y-94474897D01*
X195218406Y-94430847D01*
X195268587Y-94423678D01*
X195338647Y-94447715D01*
X194861903Y-104828100D02*
X194917522Y-104716550D01*
X194917522Y-104716550D02*
X195019931Y-104618092D01*
X195019931Y-104618092D02*
X195057864Y-104590977D01*
X195057864Y-104590977D02*
X195107500Y-104561438D01*
X195107500Y-104561438D02*
X195161412Y-104542272D01*
X195161412Y-104542272D02*
X195233364Y-104531307D01*
X195233364Y-104531307D02*
X195337122Y-104526371D01*
X195337122Y-104526371D02*
X195474101Y-104525287D01*
X195474101Y-104525287D02*
X195661815Y-104530182D01*
X195661815Y-104530182D02*
X195802758Y-104547196D01*
X195802758Y-104547196D02*
X195907908Y-104579823D01*
X195907908Y-104579823D02*
X195988243Y-104631558D01*
X195988243Y-104631558D02*
X196054741Y-104705896D01*
X196054741Y-104705896D02*
X196058678Y-104711358D01*
X196058678Y-104711358D02*
X196098953Y-104784620D01*
X196098953Y-104784620D02*
X196118880Y-104872840D01*
X196118880Y-104872840D02*
X196123793Y-104985038D01*
X196123793Y-104985038D02*
X196123793Y-105167433D01*
X196123793Y-105167433D02*
X196300857Y-105167509D01*
X196300857Y-105167509D02*
X196399470Y-105169207D01*
X196399470Y-105169207D02*
X196457314Y-105179550D01*
X196457314Y-105179550D02*
X196492006Y-105206578D01*
X196492006Y-105206578D02*
X196521164Y-105258332D01*
X196521164Y-105258332D02*
X196527121Y-105270761D01*
X196527121Y-105270761D02*
X196555039Y-105328923D01*
X196555039Y-105328923D02*
X196572672Y-105373956D01*
X196572672Y-105373956D02*
X196574194Y-105407441D01*
X196574194Y-105407441D02*
X196553781Y-105430962D01*
X196553781Y-105430962D02*
X196505607Y-105446100D01*
X196505607Y-105446100D02*
X196423846Y-105454437D01*
X196423846Y-105454437D02*
X196302672Y-105457556D01*
X196302672Y-105457556D02*
X196136260Y-105457040D01*
X196136260Y-105457040D02*
X195918785Y-105454471D01*
X195918785Y-105454471D02*
X195853736Y-105453668D01*
X195853736Y-105453668D02*
X195629502Y-105450778D01*
X195629502Y-105450778D02*
X195482821Y-105448188D01*
X195482821Y-105448188D02*
X195482821Y-105167586D01*
X195482821Y-105167586D02*
X195607326Y-105166009D01*
X195607326Y-105166009D02*
X195688787Y-105159000D01*
X195688787Y-105159000D02*
X195742515Y-105143142D01*
X195742515Y-105143142D02*
X195783823Y-105115019D01*
X195783823Y-105115019D02*
X195803971Y-105095925D01*
X195803971Y-105095925D02*
X195862921Y-105017865D01*
X195862921Y-105017865D02*
X195867720Y-104948753D01*
X195867720Y-104948753D02*
X195819038Y-104877440D01*
X195819038Y-104877440D02*
X195817241Y-104875632D01*
X195817241Y-104875632D02*
X195779618Y-104846617D01*
X195779618Y-104846617D02*
X195728484Y-104828967D01*
X195728484Y-104828967D02*
X195649738Y-104820064D01*
X195649738Y-104820064D02*
X195529276Y-104817291D01*
X195529276Y-104817291D02*
X195502588Y-104817241D01*
X195502588Y-104817241D02*
X195336583Y-104823942D01*
X195336583Y-104823942D02*
X195221505Y-104845752D01*
X195221505Y-104845752D02*
X195151254Y-104885235D01*
X195151254Y-104885235D02*
X195119729Y-104944956D01*
X195119729Y-104944956D02*
X195116552Y-104979472D01*
X195116552Y-104979472D02*
X195131460Y-105061389D01*
X195131460Y-105061389D02*
X195180548Y-105117579D01*
X195180548Y-105117579D02*
X195270362Y-105151402D01*
X195270362Y-105151402D02*
X195407445Y-105166220D01*
X195407445Y-105166220D02*
X195482821Y-105167586D01*
X195482821Y-105167586D02*
X195482821Y-105448188D01*
X195482821Y-105448188D02*
X195455952Y-105447713D01*
X195455952Y-105447713D02*
X195325382Y-105443753D01*
X195325382Y-105443753D02*
X195230087Y-105438174D01*
X195230087Y-105438174D02*
X195162364Y-105430254D01*
X195162364Y-105430254D02*
X195114507Y-105419269D01*
X195114507Y-105419269D02*
X195078813Y-105404499D01*
X195078813Y-105404499D02*
X195047578Y-105385218D01*
X195047578Y-105385218D02*
X195035824Y-105376951D01*
X195035824Y-105376951D02*
X194924797Y-105267288D01*
X194924797Y-105267288D02*
X194861847Y-105128635D01*
X194861847Y-105128635D02*
X194844297Y-104968246D01*
X194844297Y-104968246D02*
X194861903Y-104828100D01*
X194861903Y-104828100D02*
X194861903Y-104828100D01*
G36*
X195325382Y-105443753D02*
G01*
X195230087Y-105438174D01*
X195162364Y-105430254D01*
X195114507Y-105419269D01*
X195078813Y-105404499D01*
X195047578Y-105385218D01*
X195035824Y-105376951D01*
X194924797Y-105267288D01*
X194861847Y-105128635D01*
X194845525Y-104979472D01*
X195116552Y-104979472D01*
X195131460Y-105061389D01*
X195180548Y-105117579D01*
X195270362Y-105151402D01*
X195407445Y-105166220D01*
X195482821Y-105167586D01*
X195607326Y-105166009D01*
X195688787Y-105159000D01*
X195742515Y-105143142D01*
X195783823Y-105115019D01*
X195803971Y-105095925D01*
X195862921Y-105017865D01*
X195867720Y-104948753D01*
X195819038Y-104877440D01*
X195817241Y-104875632D01*
X195779618Y-104846617D01*
X195728484Y-104828967D01*
X195649738Y-104820064D01*
X195529276Y-104817291D01*
X195502588Y-104817241D01*
X195336583Y-104823942D01*
X195221505Y-104845752D01*
X195151254Y-104885235D01*
X195119729Y-104944956D01*
X195116552Y-104979472D01*
X194845525Y-104979472D01*
X194844297Y-104968246D01*
X194861903Y-104828100D01*
X194917522Y-104716550D01*
X195019931Y-104618092D01*
X195057864Y-104590977D01*
X195107500Y-104561438D01*
X195161412Y-104542272D01*
X195233364Y-104531307D01*
X195337122Y-104526371D01*
X195474101Y-104525287D01*
X195661815Y-104530182D01*
X195802758Y-104547196D01*
X195907908Y-104579823D01*
X195988243Y-104631558D01*
X196054741Y-104705896D01*
X196058678Y-104711358D01*
X196098953Y-104784620D01*
X196118880Y-104872840D01*
X196123793Y-104985038D01*
X196123793Y-105167433D01*
X196300857Y-105167509D01*
X196399470Y-105169207D01*
X196457314Y-105179550D01*
X196492006Y-105206578D01*
X196521164Y-105258332D01*
X196527121Y-105270761D01*
X196555039Y-105328923D01*
X196572672Y-105373956D01*
X196574194Y-105407441D01*
X196553781Y-105430962D01*
X196505607Y-105446100D01*
X196423846Y-105454437D01*
X196302672Y-105457556D01*
X196136260Y-105457040D01*
X195918785Y-105454471D01*
X195853736Y-105453668D01*
X195629502Y-105450778D01*
X195482821Y-105448188D01*
X195455952Y-105447713D01*
X195325382Y-105443753D01*
G37*
X195325382Y-105443753D02*
X195230087Y-105438174D01*
X195162364Y-105430254D01*
X195114507Y-105419269D01*
X195078813Y-105404499D01*
X195047578Y-105385218D01*
X195035824Y-105376951D01*
X194924797Y-105267288D01*
X194861847Y-105128635D01*
X194845525Y-104979472D01*
X195116552Y-104979472D01*
X195131460Y-105061389D01*
X195180548Y-105117579D01*
X195270362Y-105151402D01*
X195407445Y-105166220D01*
X195482821Y-105167586D01*
X195607326Y-105166009D01*
X195688787Y-105159000D01*
X195742515Y-105143142D01*
X195783823Y-105115019D01*
X195803971Y-105095925D01*
X195862921Y-105017865D01*
X195867720Y-104948753D01*
X195819038Y-104877440D01*
X195817241Y-104875632D01*
X195779618Y-104846617D01*
X195728484Y-104828967D01*
X195649738Y-104820064D01*
X195529276Y-104817291D01*
X195502588Y-104817241D01*
X195336583Y-104823942D01*
X195221505Y-104845752D01*
X195151254Y-104885235D01*
X195119729Y-104944956D01*
X195116552Y-104979472D01*
X194845525Y-104979472D01*
X194844297Y-104968246D01*
X194861903Y-104828100D01*
X194917522Y-104716550D01*
X195019931Y-104618092D01*
X195057864Y-104590977D01*
X195107500Y-104561438D01*
X195161412Y-104542272D01*
X195233364Y-104531307D01*
X195337122Y-104526371D01*
X195474101Y-104525287D01*
X195661815Y-104530182D01*
X195802758Y-104547196D01*
X195907908Y-104579823D01*
X195988243Y-104631558D01*
X196054741Y-104705896D01*
X196058678Y-104711358D01*
X196098953Y-104784620D01*
X196118880Y-104872840D01*
X196123793Y-104985038D01*
X196123793Y-105167433D01*
X196300857Y-105167509D01*
X196399470Y-105169207D01*
X196457314Y-105179550D01*
X196492006Y-105206578D01*
X196521164Y-105258332D01*
X196527121Y-105270761D01*
X196555039Y-105328923D01*
X196572672Y-105373956D01*
X196574194Y-105407441D01*
X196553781Y-105430962D01*
X196505607Y-105446100D01*
X196423846Y-105454437D01*
X196302672Y-105457556D01*
X196136260Y-105457040D01*
X195918785Y-105454471D01*
X195853736Y-105453668D01*
X195629502Y-105450778D01*
X195482821Y-105448188D01*
X195455952Y-105447713D01*
X195325382Y-105443753D01*
X194921920Y-98934057D02*
X194970859Y-98801435D01*
X194970859Y-98801435D02*
X195057419Y-98693990D01*
X195057419Y-98693990D02*
X195118352Y-98651968D01*
X195118352Y-98651968D02*
X195230161Y-98606157D01*
X195230161Y-98606157D02*
X195311006Y-98607109D01*
X195311006Y-98607109D02*
X195365378Y-98655192D01*
X195365378Y-98655192D02*
X195374624Y-98672983D01*
X195374624Y-98672983D02*
X195403450Y-98749796D01*
X195403450Y-98749796D02*
X195396065Y-98789024D01*
X195396065Y-98789024D02*
X195347658Y-98802311D01*
X195347658Y-98802311D02*
X195320920Y-98802988D01*
X195320920Y-98802988D02*
X195222548Y-98827314D01*
X195222548Y-98827314D02*
X195153734Y-98890719D01*
X195153734Y-98890719D02*
X195120498Y-98978846D01*
X195120498Y-98978846D02*
X195128861Y-99077337D01*
X195128861Y-99077337D02*
X195172296Y-99157398D01*
X195172296Y-99157398D02*
X195197072Y-99184439D01*
X195197072Y-99184439D02*
X195227129Y-99203606D01*
X195227129Y-99203606D02*
X195272565Y-99216554D01*
X195272565Y-99216554D02*
X195343476Y-99224936D01*
X195343476Y-99224936D02*
X195449960Y-99230407D01*
X195449960Y-99230407D02*
X195602112Y-99234622D01*
X195602112Y-99234622D02*
X195650287Y-99235713D01*
X195650287Y-99235713D02*
X195815095Y-99239693D01*
X195815095Y-99239693D02*
X195931088Y-99244219D01*
X195931088Y-99244219D02*
X196007833Y-99251005D01*
X196007833Y-99251005D02*
X196054893Y-99261769D01*
X196054893Y-99261769D02*
X196081835Y-99278227D01*
X196081835Y-99278227D02*
X196098223Y-99302094D01*
X196098223Y-99302094D02*
X196105463Y-99317374D01*
X196105463Y-99317374D02*
X196130220Y-99382267D01*
X196130220Y-99382267D02*
X196138391Y-99420466D01*
X196138391Y-99420466D02*
X196111103Y-99433088D01*
X196111103Y-99433088D02*
X196028603Y-99440792D01*
X196028603Y-99440792D02*
X195889941Y-99443620D01*
X195889941Y-99443620D02*
X195694162Y-99441614D01*
X195694162Y-99441614D02*
X195663965Y-99440989D01*
X195663965Y-99440989D02*
X195485349Y-99436579D01*
X195485349Y-99436579D02*
X195354923Y-99431365D01*
X195354923Y-99431365D02*
X195262492Y-99423945D01*
X195262492Y-99423945D02*
X195197858Y-99412918D01*
X195197858Y-99412918D02*
X195150825Y-99396883D01*
X195150825Y-99396883D02*
X195111196Y-99374439D01*
X195111196Y-99374439D02*
X195094215Y-99362698D01*
X195094215Y-99362698D02*
X195019080Y-99295381D01*
X195019080Y-99295381D02*
X194960638Y-99220090D01*
X194960638Y-99220090D02*
X194955536Y-99210872D01*
X194955536Y-99210872D02*
X194915260Y-99075867D01*
X194915260Y-99075867D02*
X194921920Y-98934057D01*
X194921920Y-98934057D02*
X194921920Y-98934057D01*
G36*
X195311006Y-98607109D02*
G01*
X195365378Y-98655192D01*
X195374624Y-98672983D01*
X195403450Y-98749796D01*
X195396065Y-98789024D01*
X195347658Y-98802311D01*
X195320920Y-98802988D01*
X195222548Y-98827314D01*
X195153734Y-98890719D01*
X195120498Y-98978846D01*
X195128861Y-99077337D01*
X195172296Y-99157398D01*
X195197072Y-99184439D01*
X195227129Y-99203606D01*
X195272565Y-99216554D01*
X195343476Y-99224936D01*
X195449960Y-99230407D01*
X195602112Y-99234622D01*
X195650287Y-99235713D01*
X195815095Y-99239693D01*
X195931088Y-99244219D01*
X196007833Y-99251005D01*
X196054893Y-99261769D01*
X196081835Y-99278227D01*
X196098223Y-99302094D01*
X196105463Y-99317374D01*
X196130220Y-99382267D01*
X196138391Y-99420466D01*
X196111103Y-99433088D01*
X196028603Y-99440792D01*
X195889941Y-99443620D01*
X195694162Y-99441614D01*
X195663965Y-99440989D01*
X195485349Y-99436579D01*
X195354923Y-99431365D01*
X195262492Y-99423945D01*
X195197858Y-99412918D01*
X195150825Y-99396883D01*
X195111196Y-99374439D01*
X195094215Y-99362698D01*
X195019080Y-99295381D01*
X194960638Y-99220090D01*
X194955536Y-99210872D01*
X194915260Y-99075867D01*
X194921920Y-98934057D01*
X194970859Y-98801435D01*
X195057419Y-98693990D01*
X195118352Y-98651968D01*
X195230161Y-98606157D01*
X195311006Y-98607109D01*
G37*
X195311006Y-98607109D02*
X195365378Y-98655192D01*
X195374624Y-98672983D01*
X195403450Y-98749796D01*
X195396065Y-98789024D01*
X195347658Y-98802311D01*
X195320920Y-98802988D01*
X195222548Y-98827314D01*
X195153734Y-98890719D01*
X195120498Y-98978846D01*
X195128861Y-99077337D01*
X195172296Y-99157398D01*
X195197072Y-99184439D01*
X195227129Y-99203606D01*
X195272565Y-99216554D01*
X195343476Y-99224936D01*
X195449960Y-99230407D01*
X195602112Y-99234622D01*
X195650287Y-99235713D01*
X195815095Y-99239693D01*
X195931088Y-99244219D01*
X196007833Y-99251005D01*
X196054893Y-99261769D01*
X196081835Y-99278227D01*
X196098223Y-99302094D01*
X196105463Y-99317374D01*
X196130220Y-99382267D01*
X196138391Y-99420466D01*
X196111103Y-99433088D01*
X196028603Y-99440792D01*
X195889941Y-99443620D01*
X195694162Y-99441614D01*
X195663965Y-99440989D01*
X195485349Y-99436579D01*
X195354923Y-99431365D01*
X195262492Y-99423945D01*
X195197858Y-99412918D01*
X195150825Y-99396883D01*
X195111196Y-99374439D01*
X195094215Y-99362698D01*
X195019080Y-99295381D01*
X194960638Y-99220090D01*
X194955536Y-99210872D01*
X194915260Y-99075867D01*
X194921920Y-98934057D01*
X194970859Y-98801435D01*
X195057419Y-98693990D01*
X195118352Y-98651968D01*
X195230161Y-98606157D01*
X195311006Y-98607109D01*
X194935156Y-95685594D02*
X194973393Y-95601531D01*
X194973393Y-95601531D02*
X195019726Y-95535550D01*
X195019726Y-95535550D02*
X195071532Y-95487206D01*
X195071532Y-95487206D02*
X195138363Y-95453828D01*
X195138363Y-95453828D02*
X195229769Y-95432747D01*
X195229769Y-95432747D02*
X195355301Y-95421293D01*
X195355301Y-95421293D02*
X195524508Y-95416797D01*
X195524508Y-95416797D02*
X195635933Y-95416322D01*
X195635933Y-95416322D02*
X196070627Y-95416322D01*
X196070627Y-95416322D02*
X196104509Y-95490684D01*
X196104509Y-95490684D02*
X196129272Y-95549254D01*
X196129272Y-95549254D02*
X196138391Y-95578270D01*
X196138391Y-95578270D02*
X196111257Y-95583821D01*
X196111257Y-95583821D02*
X196038094Y-95588225D01*
X196038094Y-95588225D02*
X195931263Y-95590922D01*
X195931263Y-95590922D02*
X195846437Y-95591494D01*
X195846437Y-95591494D02*
X195723887Y-95593954D01*
X195723887Y-95593954D02*
X195626668Y-95600588D01*
X195626668Y-95600588D02*
X195567134Y-95610274D01*
X195567134Y-95610274D02*
X195554483Y-95617968D01*
X195554483Y-95617968D02*
X195567402Y-95669689D01*
X195567402Y-95669689D02*
X195600539Y-95750883D01*
X195600539Y-95750883D02*
X195645461Y-95844898D01*
X195645461Y-95844898D02*
X195693735Y-95935083D01*
X195693735Y-95935083D02*
X195736928Y-96004785D01*
X195736928Y-96004785D02*
X195766608Y-96037352D01*
X195766608Y-96037352D02*
X195766929Y-96037481D01*
X195766929Y-96037481D02*
X195821857Y-96034680D01*
X195821857Y-96034680D02*
X195874292Y-96009561D01*
X195874292Y-96009561D02*
X195916881Y-95965459D01*
X195916881Y-95965459D02*
X195931126Y-95901091D01*
X195931126Y-95901091D02*
X195929466Y-95846079D01*
X195929466Y-95846079D02*
X195928245Y-95768165D01*
X195928245Y-95768165D02*
X195946498Y-95727268D01*
X195946498Y-95727268D02*
X195994726Y-95702705D01*
X195994726Y-95702705D02*
X196003820Y-95699608D01*
X196003820Y-95699608D02*
X196072598Y-95688960D01*
X196072598Y-95688960D02*
X196114360Y-95717435D01*
X196114360Y-95717435D02*
X196134263Y-95791656D01*
X196134263Y-95791656D02*
X196137944Y-95871832D01*
X196137944Y-95871832D02*
X196110658Y-96016110D01*
X196110658Y-96016110D02*
X196071690Y-96090797D01*
X196071690Y-96090797D02*
X195980148Y-96183037D01*
X195980148Y-96183037D02*
X195867782Y-96231957D01*
X195867782Y-96231957D02*
X195749051Y-96236346D01*
X195749051Y-96236346D02*
X195638411Y-96194999D01*
X195638411Y-96194999D02*
X195569080Y-96132803D01*
X195569080Y-96132803D02*
X195530265Y-96070706D01*
X195530265Y-96070706D02*
X195481125Y-95973105D01*
X195481125Y-95973105D02*
X195431292Y-95859368D01*
X195431292Y-95859368D02*
X195423677Y-95840410D01*
X195423677Y-95840410D02*
X195368545Y-95715479D01*
X195368545Y-95715479D02*
X195319954Y-95643461D01*
X195319954Y-95643461D02*
X195271647Y-95620300D01*
X195271647Y-95620300D02*
X195217370Y-95641936D01*
X195217370Y-95641936D02*
X195174943Y-95679080D01*
X195174943Y-95679080D02*
X195122702Y-95766873D01*
X195122702Y-95766873D02*
X195118784Y-95863470D01*
X195118784Y-95863470D02*
X195159041Y-95952056D01*
X195159041Y-95952056D02*
X195239326Y-96015814D01*
X195239326Y-96015814D02*
X195260040Y-96024183D01*
X195260040Y-96024183D02*
X195336225Y-96072904D01*
X195336225Y-96072904D02*
X195392785Y-96144035D01*
X195392785Y-96144035D02*
X195439201Y-96233793D01*
X195439201Y-96233793D02*
X195307584Y-96233793D01*
X195307584Y-96233793D02*
X195227168Y-96228510D01*
X195227168Y-96228510D02*
X195163786Y-96205858D01*
X195163786Y-96205858D02*
X195096163Y-96155633D01*
X195096163Y-96155633D02*
X195044076Y-96107418D01*
X195044076Y-96107418D02*
X194970322Y-96032446D01*
X194970322Y-96032446D02*
X194930702Y-95974194D01*
X194930702Y-95974194D02*
X194914810Y-95911628D01*
X194914810Y-95911628D02*
X194912184Y-95840807D01*
X194912184Y-95840807D02*
X194935156Y-95685594D01*
X194935156Y-95685594D02*
X194935156Y-95685594D01*
G36*
X196104509Y-95490684D02*
G01*
X196129272Y-95549254D01*
X196138391Y-95578270D01*
X196111257Y-95583821D01*
X196038094Y-95588225D01*
X195931263Y-95590922D01*
X195846437Y-95591494D01*
X195723887Y-95593954D01*
X195626668Y-95600588D01*
X195567134Y-95610274D01*
X195554483Y-95617968D01*
X195567402Y-95669689D01*
X195600539Y-95750883D01*
X195645461Y-95844898D01*
X195693735Y-95935083D01*
X195736928Y-96004785D01*
X195766608Y-96037352D01*
X195766929Y-96037481D01*
X195821857Y-96034680D01*
X195874292Y-96009561D01*
X195916881Y-95965459D01*
X195931126Y-95901091D01*
X195929466Y-95846079D01*
X195928245Y-95768165D01*
X195946498Y-95727268D01*
X195994726Y-95702705D01*
X196003820Y-95699608D01*
X196072598Y-95688960D01*
X196114360Y-95717435D01*
X196134263Y-95791656D01*
X196137944Y-95871832D01*
X196110658Y-96016110D01*
X196071690Y-96090797D01*
X195980148Y-96183037D01*
X195867782Y-96231957D01*
X195749051Y-96236346D01*
X195638411Y-96194999D01*
X195569080Y-96132803D01*
X195530265Y-96070706D01*
X195481125Y-95973105D01*
X195431292Y-95859368D01*
X195423677Y-95840410D01*
X195368545Y-95715479D01*
X195319954Y-95643461D01*
X195271647Y-95620300D01*
X195217370Y-95641936D01*
X195174943Y-95679080D01*
X195122702Y-95766873D01*
X195118784Y-95863470D01*
X195159041Y-95952056D01*
X195239326Y-96015814D01*
X195260040Y-96024183D01*
X195336225Y-96072904D01*
X195392785Y-96144035D01*
X195439201Y-96233793D01*
X195307584Y-96233793D01*
X195227168Y-96228510D01*
X195163786Y-96205858D01*
X195096163Y-96155633D01*
X195044076Y-96107418D01*
X194970322Y-96032446D01*
X194930702Y-95974194D01*
X194914810Y-95911628D01*
X194912184Y-95840807D01*
X194935156Y-95685594D01*
X194973393Y-95601531D01*
X195019726Y-95535550D01*
X195071532Y-95487206D01*
X195138363Y-95453828D01*
X195229769Y-95432747D01*
X195355301Y-95421293D01*
X195524508Y-95416797D01*
X195635933Y-95416322D01*
X196070627Y-95416322D01*
X196104509Y-95490684D01*
G37*
X196104509Y-95490684D02*
X196129272Y-95549254D01*
X196138391Y-95578270D01*
X196111257Y-95583821D01*
X196038094Y-95588225D01*
X195931263Y-95590922D01*
X195846437Y-95591494D01*
X195723887Y-95593954D01*
X195626668Y-95600588D01*
X195567134Y-95610274D01*
X195554483Y-95617968D01*
X195567402Y-95669689D01*
X195600539Y-95750883D01*
X195645461Y-95844898D01*
X195693735Y-95935083D01*
X195736928Y-96004785D01*
X195766608Y-96037352D01*
X195766929Y-96037481D01*
X195821857Y-96034680D01*
X195874292Y-96009561D01*
X195916881Y-95965459D01*
X195931126Y-95901091D01*
X195929466Y-95846079D01*
X195928245Y-95768165D01*
X195946498Y-95727268D01*
X195994726Y-95702705D01*
X196003820Y-95699608D01*
X196072598Y-95688960D01*
X196114360Y-95717435D01*
X196134263Y-95791656D01*
X196137944Y-95871832D01*
X196110658Y-96016110D01*
X196071690Y-96090797D01*
X195980148Y-96183037D01*
X195867782Y-96231957D01*
X195749051Y-96236346D01*
X195638411Y-96194999D01*
X195569080Y-96132803D01*
X195530265Y-96070706D01*
X195481125Y-95973105D01*
X195431292Y-95859368D01*
X195423677Y-95840410D01*
X195368545Y-95715479D01*
X195319954Y-95643461D01*
X195271647Y-95620300D01*
X195217370Y-95641936D01*
X195174943Y-95679080D01*
X195122702Y-95766873D01*
X195118784Y-95863470D01*
X195159041Y-95952056D01*
X195239326Y-96015814D01*
X195260040Y-96024183D01*
X195336225Y-96072904D01*
X195392785Y-96144035D01*
X195439201Y-96233793D01*
X195307584Y-96233793D01*
X195227168Y-96228510D01*
X195163786Y-96205858D01*
X195096163Y-96155633D01*
X195044076Y-96107418D01*
X194970322Y-96032446D01*
X194930702Y-95974194D01*
X194914810Y-95911628D01*
X194912184Y-95840807D01*
X194935156Y-95685594D01*
X194973393Y-95601531D01*
X195019726Y-95535550D01*
X195071532Y-95487206D01*
X195138363Y-95453828D01*
X195229769Y-95432747D01*
X195355301Y-95421293D01*
X195524508Y-95416797D01*
X195635933Y-95416322D01*
X196070627Y-95416322D01*
X196104509Y-95490684D01*
X195154455Y-97606086D02*
X195372661Y-97606457D01*
X195372661Y-97606457D02*
X195540519Y-97607892D01*
X195540519Y-97607892D02*
X195666070Y-97610998D01*
X195666070Y-97610998D02*
X195757355Y-97616378D01*
X195757355Y-97616378D02*
X195822415Y-97624638D01*
X195822415Y-97624638D02*
X195869291Y-97636384D01*
X195869291Y-97636384D02*
X195906024Y-97652219D01*
X195906024Y-97652219D02*
X195926991Y-97664210D01*
X195926991Y-97664210D02*
X196040694Y-97763510D01*
X196040694Y-97763510D02*
X196111965Y-97889412D01*
X196111965Y-97889412D02*
X196137538Y-98028709D01*
X196137538Y-98028709D02*
X196114150Y-98168195D01*
X196114150Y-98168195D02*
X196072119Y-98251257D01*
X196072119Y-98251257D02*
X195999411Y-98338455D01*
X195999411Y-98338455D02*
X195910612Y-98397883D01*
X195910612Y-98397883D02*
X195794320Y-98433739D01*
X195794320Y-98433739D02*
X195639135Y-98450219D01*
X195639135Y-98450219D02*
X195525287Y-98452553D01*
X195525287Y-98452553D02*
X195517106Y-98452239D01*
X195517106Y-98452239D02*
X195517106Y-98248276D01*
X195517106Y-98248276D02*
X195647657Y-98247030D01*
X195647657Y-98247030D02*
X195734080Y-98241322D01*
X195734080Y-98241322D02*
X195790618Y-98228196D01*
X195790618Y-98228196D02*
X195831514Y-98204694D01*
X195831514Y-98204694D02*
X195862362Y-98176614D01*
X195862362Y-98176614D02*
X195921905Y-98082312D01*
X195921905Y-98082312D02*
X195926992Y-97981060D01*
X195926992Y-97981060D02*
X195877279Y-97885364D01*
X195877279Y-97885364D02*
X195870543Y-97877916D01*
X195870543Y-97877916D02*
X195835502Y-97846126D01*
X195835502Y-97846126D02*
X195793811Y-97826192D01*
X195793811Y-97826192D02*
X195731762Y-97815400D01*
X195731762Y-97815400D02*
X195635644Y-97811035D01*
X195635644Y-97811035D02*
X195529379Y-97810345D01*
X195529379Y-97810345D02*
X195395880Y-97811841D01*
X195395880Y-97811841D02*
X195306822Y-97818036D01*
X195306822Y-97818036D02*
X195248293Y-97831486D01*
X195248293Y-97831486D02*
X195206382Y-97854749D01*
X195206382Y-97854749D02*
X195184123Y-97873825D01*
X195184123Y-97873825D02*
X195127985Y-97962437D01*
X195127985Y-97962437D02*
X195121235Y-98064492D01*
X195121235Y-98064492D02*
X195164114Y-98161905D01*
X195164114Y-98161905D02*
X195180032Y-98180704D01*
X195180032Y-98180704D02*
X195215382Y-98212707D01*
X195215382Y-98212707D02*
X195257502Y-98232682D01*
X195257502Y-98232682D02*
X195320251Y-98243407D01*
X195320251Y-98243407D02*
X195417487Y-98247661D01*
X195417487Y-98247661D02*
X195517106Y-98248276D01*
X195517106Y-98248276D02*
X195517106Y-98452239D01*
X195517106Y-98452239D02*
X195341947Y-98445496D01*
X195341947Y-98445496D02*
X195204195Y-98421528D01*
X195204195Y-98421528D02*
X195100632Y-98376452D01*
X195100632Y-98376452D02*
X195019856Y-98306072D01*
X195019856Y-98306072D02*
X194978455Y-98251257D01*
X194978455Y-98251257D02*
X194933728Y-98151624D01*
X194933728Y-98151624D02*
X194912967Y-98036145D01*
X194912967Y-98036145D02*
X194918525Y-97928801D01*
X194918525Y-97928801D02*
X194940943Y-97868736D01*
X194940943Y-97868736D02*
X194947323Y-97845165D01*
X194947323Y-97845165D02*
X194923535Y-97829523D01*
X194923535Y-97829523D02*
X194859788Y-97818605D01*
X194859788Y-97818605D02*
X194762687Y-97810345D01*
X194762687Y-97810345D02*
X194654541Y-97801301D01*
X194654541Y-97801301D02*
X194589475Y-97788739D01*
X194589475Y-97788739D02*
X194552268Y-97765881D01*
X194552268Y-97765881D02*
X194527699Y-97725949D01*
X194527699Y-97725949D02*
X194516819Y-97700862D01*
X194516819Y-97700862D02*
X194477072Y-97605977D01*
X194477072Y-97605977D02*
X195154455Y-97606086D01*
X195154455Y-97606086D02*
X195154455Y-97606086D01*
G36*
X195204195Y-98421528D02*
G01*
X195100632Y-98376452D01*
X195019856Y-98306072D01*
X194978455Y-98251257D01*
X194933728Y-98151624D01*
X194918063Y-98064492D01*
X195121235Y-98064492D01*
X195164114Y-98161905D01*
X195180032Y-98180704D01*
X195215382Y-98212707D01*
X195257502Y-98232682D01*
X195320251Y-98243407D01*
X195417487Y-98247661D01*
X195517106Y-98248276D01*
X195647657Y-98247030D01*
X195734080Y-98241322D01*
X195790618Y-98228196D01*
X195831514Y-98204694D01*
X195862362Y-98176614D01*
X195921905Y-98082312D01*
X195926992Y-97981060D01*
X195877279Y-97885364D01*
X195870543Y-97877916D01*
X195835502Y-97846126D01*
X195793811Y-97826192D01*
X195731762Y-97815400D01*
X195635644Y-97811035D01*
X195529379Y-97810345D01*
X195395880Y-97811841D01*
X195306822Y-97818036D01*
X195248293Y-97831486D01*
X195206382Y-97854749D01*
X195184123Y-97873825D01*
X195127985Y-97962437D01*
X195121235Y-98064492D01*
X194918063Y-98064492D01*
X194912967Y-98036145D01*
X194918525Y-97928801D01*
X194940943Y-97868736D01*
X194947323Y-97845165D01*
X194923535Y-97829523D01*
X194859788Y-97818605D01*
X194762687Y-97810345D01*
X194654541Y-97801301D01*
X194589475Y-97788739D01*
X194552268Y-97765881D01*
X194527699Y-97725949D01*
X194516819Y-97700862D01*
X194477072Y-97605977D01*
X195154455Y-97606086D01*
X195372661Y-97606457D01*
X195540519Y-97607892D01*
X195666070Y-97610998D01*
X195757355Y-97616378D01*
X195822415Y-97624638D01*
X195869291Y-97636384D01*
X195906024Y-97652219D01*
X195926991Y-97664210D01*
X196040694Y-97763510D01*
X196111965Y-97889412D01*
X196137538Y-98028709D01*
X196114150Y-98168195D01*
X196072119Y-98251257D01*
X195999411Y-98338455D01*
X195910612Y-98397883D01*
X195794320Y-98433739D01*
X195639135Y-98450219D01*
X195525287Y-98452553D01*
X195517106Y-98452239D01*
X195341947Y-98445496D01*
X195204195Y-98421528D01*
G37*
X195204195Y-98421528D02*
X195100632Y-98376452D01*
X195019856Y-98306072D01*
X194978455Y-98251257D01*
X194933728Y-98151624D01*
X194918063Y-98064492D01*
X195121235Y-98064492D01*
X195164114Y-98161905D01*
X195180032Y-98180704D01*
X195215382Y-98212707D01*
X195257502Y-98232682D01*
X195320251Y-98243407D01*
X195417487Y-98247661D01*
X195517106Y-98248276D01*
X195647657Y-98247030D01*
X195734080Y-98241322D01*
X195790618Y-98228196D01*
X195831514Y-98204694D01*
X195862362Y-98176614D01*
X195921905Y-98082312D01*
X195926992Y-97981060D01*
X195877279Y-97885364D01*
X195870543Y-97877916D01*
X195835502Y-97846126D01*
X195793811Y-97826192D01*
X195731762Y-97815400D01*
X195635644Y-97811035D01*
X195529379Y-97810345D01*
X195395880Y-97811841D01*
X195306822Y-97818036D01*
X195248293Y-97831486D01*
X195206382Y-97854749D01*
X195184123Y-97873825D01*
X195127985Y-97962437D01*
X195121235Y-98064492D01*
X194918063Y-98064492D01*
X194912967Y-98036145D01*
X194918525Y-97928801D01*
X194940943Y-97868736D01*
X194947323Y-97845165D01*
X194923535Y-97829523D01*
X194859788Y-97818605D01*
X194762687Y-97810345D01*
X194654541Y-97801301D01*
X194589475Y-97788739D01*
X194552268Y-97765881D01*
X194527699Y-97725949D01*
X194516819Y-97700862D01*
X194477072Y-97605977D01*
X195154455Y-97606086D01*
X195372661Y-97606457D01*
X195540519Y-97607892D01*
X195666070Y-97610998D01*
X195757355Y-97616378D01*
X195822415Y-97624638D01*
X195869291Y-97636384D01*
X195906024Y-97652219D01*
X195926991Y-97664210D01*
X196040694Y-97763510D01*
X196111965Y-97889412D01*
X196137538Y-98028709D01*
X196114150Y-98168195D01*
X196072119Y-98251257D01*
X195999411Y-98338455D01*
X195910612Y-98397883D01*
X195794320Y-98433739D01*
X195639135Y-98450219D01*
X195525287Y-98452553D01*
X195517106Y-98452239D01*
X195341947Y-98445496D01*
X195204195Y-98421528D01*
X194956540Y-93656561D02*
X195032034Y-93541050D01*
X195032034Y-93541050D02*
X195099617Y-93485336D01*
X195099617Y-93485336D02*
X195222255Y-93441196D01*
X195222255Y-93441196D02*
X195319298Y-93437691D01*
X195319298Y-93437691D02*
X195449056Y-93445632D01*
X195449056Y-93445632D02*
X195580039Y-93744885D01*
X195580039Y-93744885D02*
X195646958Y-93890389D01*
X195646958Y-93890389D02*
X195700790Y-93985463D01*
X195700790Y-93985463D02*
X195747416Y-94034899D01*
X195747416Y-94034899D02*
X195792720Y-94043489D01*
X195792720Y-94043489D02*
X195842582Y-94016028D01*
X195842582Y-94016028D02*
X195875632Y-93985747D01*
X195875632Y-93985747D02*
X195928633Y-93897637D01*
X195928633Y-93897637D02*
X195932347Y-93801804D01*
X195932347Y-93801804D02*
X195891041Y-93713788D01*
X195891041Y-93713788D02*
X195808983Y-93649131D01*
X195808983Y-93649131D02*
X195780008Y-93637567D01*
X195780008Y-93637567D02*
X195689509Y-93582175D01*
X195689509Y-93582175D02*
X195650940Y-93518447D01*
X195650940Y-93518447D02*
X195617946Y-93431034D01*
X195617946Y-93431034D02*
X195743034Y-93431034D01*
X195743034Y-93431034D02*
X195828156Y-93438762D01*
X195828156Y-93438762D02*
X195899938Y-93469034D01*
X195899938Y-93469034D02*
X195982356Y-93532482D01*
X195982356Y-93532482D02*
X195993066Y-93541912D01*
X195993066Y-93541912D02*
X196066391Y-93612487D01*
X196066391Y-93612487D02*
X196105742Y-93673153D01*
X196105742Y-93673153D02*
X196123845Y-93749050D01*
X196123845Y-93749050D02*
X196129774Y-93811970D01*
X196129774Y-93811970D02*
X196131251Y-93924513D01*
X196131251Y-93924513D02*
X196112535Y-94004630D01*
X196112535Y-94004630D02*
X196084747Y-94054610D01*
X196084747Y-94054610D02*
X196023641Y-94133162D01*
X196023641Y-94133162D02*
X195957554Y-94187537D01*
X195957554Y-94187537D02*
X195874441Y-94221948D01*
X195874441Y-94221948D02*
X195762254Y-94240612D01*
X195762254Y-94240612D02*
X195608946Y-94247744D01*
X195608946Y-94247744D02*
X195531136Y-94248313D01*
X195531136Y-94248313D02*
X195437853Y-94246378D01*
X195437853Y-94246378D02*
X195437853Y-94070101D01*
X195437853Y-94070101D02*
X195487896Y-94068056D01*
X195487896Y-94068056D02*
X195496092Y-94062961D01*
X195496092Y-94062961D02*
X195484958Y-94029334D01*
X195484958Y-94029334D02*
X195455493Y-93956970D01*
X195455493Y-93956970D02*
X195413601Y-93860253D01*
X195413601Y-93860253D02*
X195404597Y-93840027D01*
X195404597Y-93840027D02*
X195342442Y-93717797D01*
X195342442Y-93717797D02*
X195287815Y-93650453D01*
X195287815Y-93650453D02*
X195236649Y-93635652D01*
X195236649Y-93635652D02*
X195184876Y-93671053D01*
X195184876Y-93671053D02*
X195162000Y-93700289D01*
X195162000Y-93700289D02*
X195116250Y-93805784D01*
X195116250Y-93805784D02*
X195123808Y-93904524D01*
X195123808Y-93904524D02*
X195179651Y-93987188D01*
X195179651Y-93987188D02*
X195278753Y-94044452D01*
X195278753Y-94044452D02*
X195357414Y-94062812D01*
X195357414Y-94062812D02*
X195437853Y-94070101D01*
X195437853Y-94070101D02*
X195437853Y-94246378D01*
X195437853Y-94246378D02*
X195349351Y-94244541D01*
X195349351Y-94244541D02*
X195214853Y-94230641D01*
X195214853Y-94230641D02*
X195116916Y-94203106D01*
X195116916Y-94203106D02*
X195044811Y-94158428D01*
X195044811Y-94158428D02*
X194987813Y-94093099D01*
X194987813Y-94093099D02*
X194969393Y-94064617D01*
X194969393Y-94064617D02*
X194921422Y-93935237D01*
X194921422Y-93935237D02*
X194918403Y-93793588D01*
X194918403Y-93793588D02*
X194956540Y-93656561D01*
X194956540Y-93656561D02*
X194956540Y-93656561D01*
G36*
X195214853Y-94230641D02*
G01*
X195116916Y-94203106D01*
X195044811Y-94158428D01*
X194987813Y-94093099D01*
X194969393Y-94064617D01*
X194921422Y-93935237D01*
X194918663Y-93805784D01*
X195116250Y-93805784D01*
X195123808Y-93904524D01*
X195179651Y-93987188D01*
X195278753Y-94044452D01*
X195357414Y-94062812D01*
X195437853Y-94070101D01*
X195487896Y-94068056D01*
X195496092Y-94062961D01*
X195484958Y-94029334D01*
X195455493Y-93956970D01*
X195413601Y-93860253D01*
X195404597Y-93840027D01*
X195342442Y-93717797D01*
X195287815Y-93650453D01*
X195236649Y-93635652D01*
X195184876Y-93671053D01*
X195162000Y-93700289D01*
X195116250Y-93805784D01*
X194918663Y-93805784D01*
X194918403Y-93793588D01*
X194956540Y-93656561D01*
X195032034Y-93541050D01*
X195099617Y-93485336D01*
X195222255Y-93441196D01*
X195319298Y-93437691D01*
X195449056Y-93445632D01*
X195580039Y-93744885D01*
X195646958Y-93890389D01*
X195700790Y-93985463D01*
X195747416Y-94034899D01*
X195792720Y-94043489D01*
X195842582Y-94016028D01*
X195875632Y-93985747D01*
X195928633Y-93897637D01*
X195932347Y-93801804D01*
X195891041Y-93713788D01*
X195808983Y-93649131D01*
X195780008Y-93637567D01*
X195689509Y-93582175D01*
X195650940Y-93518447D01*
X195617946Y-93431034D01*
X195743034Y-93431034D01*
X195828156Y-93438762D01*
X195899938Y-93469034D01*
X195982356Y-93532482D01*
X195993066Y-93541912D01*
X196066391Y-93612487D01*
X196105742Y-93673153D01*
X196123845Y-93749050D01*
X196129774Y-93811970D01*
X196131251Y-93924513D01*
X196112535Y-94004630D01*
X196084747Y-94054610D01*
X196023641Y-94133162D01*
X195957554Y-94187537D01*
X195874441Y-94221948D01*
X195762254Y-94240612D01*
X195608946Y-94247744D01*
X195531136Y-94248313D01*
X195437853Y-94246378D01*
X195349351Y-94244541D01*
X195214853Y-94230641D01*
G37*
X195214853Y-94230641D02*
X195116916Y-94203106D01*
X195044811Y-94158428D01*
X194987813Y-94093099D01*
X194969393Y-94064617D01*
X194921422Y-93935237D01*
X194918663Y-93805784D01*
X195116250Y-93805784D01*
X195123808Y-93904524D01*
X195179651Y-93987188D01*
X195278753Y-94044452D01*
X195357414Y-94062812D01*
X195437853Y-94070101D01*
X195487896Y-94068056D01*
X195496092Y-94062961D01*
X195484958Y-94029334D01*
X195455493Y-93956970D01*
X195413601Y-93860253D01*
X195404597Y-93840027D01*
X195342442Y-93717797D01*
X195287815Y-93650453D01*
X195236649Y-93635652D01*
X195184876Y-93671053D01*
X195162000Y-93700289D01*
X195116250Y-93805784D01*
X194918663Y-93805784D01*
X194918403Y-93793588D01*
X194956540Y-93656561D01*
X195032034Y-93541050D01*
X195099617Y-93485336D01*
X195222255Y-93441196D01*
X195319298Y-93437691D01*
X195449056Y-93445632D01*
X195580039Y-93744885D01*
X195646958Y-93890389D01*
X195700790Y-93985463D01*
X195747416Y-94034899D01*
X195792720Y-94043489D01*
X195842582Y-94016028D01*
X195875632Y-93985747D01*
X195928633Y-93897637D01*
X195932347Y-93801804D01*
X195891041Y-93713788D01*
X195808983Y-93649131D01*
X195780008Y-93637567D01*
X195689509Y-93582175D01*
X195650940Y-93518447D01*
X195617946Y-93431034D01*
X195743034Y-93431034D01*
X195828156Y-93438762D01*
X195899938Y-93469034D01*
X195982356Y-93532482D01*
X195993066Y-93541912D01*
X196066391Y-93612487D01*
X196105742Y-93673153D01*
X196123845Y-93749050D01*
X196129774Y-93811970D01*
X196131251Y-93924513D01*
X196112535Y-94004630D01*
X196084747Y-94054610D01*
X196023641Y-94133162D01*
X195957554Y-94187537D01*
X195874441Y-94221948D01*
X195762254Y-94240612D01*
X195608946Y-94247744D01*
X195531136Y-94248313D01*
X195437853Y-94246378D01*
X195349351Y-94244541D01*
X195214853Y-94230641D01*
X194866015Y-105951779D02*
X194937968Y-105814939D01*
X194937968Y-105814939D02*
X195053766Y-105713949D01*
X195053766Y-105713949D02*
X195128213Y-105678075D01*
X195128213Y-105678075D02*
X195239992Y-105650161D01*
X195239992Y-105650161D02*
X195381227Y-105635871D01*
X195381227Y-105635871D02*
X195535371Y-105634516D01*
X195535371Y-105634516D02*
X195685879Y-105645405D01*
X195685879Y-105645405D02*
X195816205Y-105667847D01*
X195816205Y-105667847D02*
X195909803Y-105701150D01*
X195909803Y-105701150D02*
X195925922Y-105711385D01*
X195925922Y-105711385D02*
X196046249Y-105832618D01*
X196046249Y-105832618D02*
X196118317Y-105976613D01*
X196118317Y-105976613D02*
X196139408Y-106132861D01*
X196139408Y-106132861D02*
X196106802Y-106290852D01*
X196106802Y-106290852D02*
X196087253Y-106334820D01*
X196087253Y-106334820D02*
X196027012Y-106420444D01*
X196027012Y-106420444D02*
X195947135Y-106495592D01*
X195947135Y-106495592D02*
X195937004Y-106502694D01*
X195937004Y-106502694D02*
X195888181Y-106531561D01*
X195888181Y-106531561D02*
X195835990Y-106550643D01*
X195835990Y-106550643D02*
X195767285Y-106561916D01*
X195767285Y-106561916D02*
X195668918Y-106567355D01*
X195668918Y-106567355D02*
X195527744Y-106568938D01*
X195527744Y-106568938D02*
X195496092Y-106568965D01*
X195496092Y-106568965D02*
X195486019Y-106568893D01*
X195486019Y-106568893D02*
X195486019Y-106277011D01*
X195486019Y-106277011D02*
X195619256Y-106275313D01*
X195619256Y-106275313D02*
X195707674Y-106268628D01*
X195707674Y-106268628D02*
X195764785Y-106254575D01*
X195764785Y-106254575D02*
X195804102Y-106230771D01*
X195804102Y-106230771D02*
X195817241Y-106218621D01*
X195817241Y-106218621D02*
X195867172Y-106148764D01*
X195867172Y-106148764D02*
X195864895Y-106080941D01*
X195864895Y-106080941D02*
X195821584Y-106012365D01*
X195821584Y-106012365D02*
X195775346Y-105971465D01*
X195775346Y-105971465D02*
X195707857Y-105947242D01*
X195707857Y-105947242D02*
X195601433Y-105933639D01*
X195601433Y-105933639D02*
X195589020Y-105932706D01*
X195589020Y-105932706D02*
X195396147Y-105930384D01*
X195396147Y-105930384D02*
X195252900Y-105954650D01*
X195252900Y-105954650D02*
X195160160Y-106005176D01*
X195160160Y-106005176D02*
X195118807Y-106081632D01*
X195118807Y-106081632D02*
X195116552Y-106108924D01*
X195116552Y-106108924D02*
X195127893Y-106180589D01*
X195127893Y-106180589D02*
X195167184Y-106229610D01*
X195167184Y-106229610D02*
X195242326Y-106259582D01*
X195242326Y-106259582D02*
X195361222Y-106274101D01*
X195361222Y-106274101D02*
X195486019Y-106277011D01*
X195486019Y-106277011D02*
X195486019Y-106568893D01*
X195486019Y-106568893D02*
X195345659Y-106567878D01*
X195345659Y-106567878D02*
X195240549Y-106563312D01*
X195240549Y-106563312D02*
X195167714Y-106553312D01*
X195167714Y-106553312D02*
X195114108Y-106535921D01*
X195114108Y-106535921D02*
X195066681Y-106509184D01*
X195066681Y-106509184D02*
X195057864Y-106503276D01*
X195057864Y-106503276D02*
X194939007Y-106403968D01*
X194939007Y-106403968D02*
X194870008Y-106295758D01*
X194870008Y-106295758D02*
X194842619Y-106164019D01*
X194842619Y-106164019D02*
X194841281Y-106119283D01*
X194841281Y-106119283D02*
X194866015Y-105951779D01*
X194866015Y-105951779D02*
X194866015Y-105951779D01*
G36*
X195240549Y-106563312D02*
G01*
X195167714Y-106553312D01*
X195114108Y-106535921D01*
X195066681Y-106509184D01*
X195057864Y-106503276D01*
X194939007Y-106403968D01*
X194870008Y-106295758D01*
X194842619Y-106164019D01*
X194841281Y-106119283D01*
X194842811Y-106108924D01*
X195116552Y-106108924D01*
X195127893Y-106180589D01*
X195167184Y-106229610D01*
X195242326Y-106259582D01*
X195361222Y-106274101D01*
X195486019Y-106277011D01*
X195619256Y-106275313D01*
X195707674Y-106268628D01*
X195764785Y-106254575D01*
X195804102Y-106230771D01*
X195817241Y-106218621D01*
X195867172Y-106148764D01*
X195864895Y-106080941D01*
X195821584Y-106012365D01*
X195775346Y-105971465D01*
X195707857Y-105947242D01*
X195601433Y-105933639D01*
X195589020Y-105932706D01*
X195396147Y-105930384D01*
X195252900Y-105954650D01*
X195160160Y-106005176D01*
X195118807Y-106081632D01*
X195116552Y-106108924D01*
X194842811Y-106108924D01*
X194866015Y-105951779D01*
X194937968Y-105814939D01*
X195053766Y-105713949D01*
X195128213Y-105678075D01*
X195239992Y-105650161D01*
X195381227Y-105635871D01*
X195535371Y-105634516D01*
X195685879Y-105645405D01*
X195816205Y-105667847D01*
X195909803Y-105701150D01*
X195925922Y-105711385D01*
X196046249Y-105832618D01*
X196118317Y-105976613D01*
X196139408Y-106132861D01*
X196106802Y-106290852D01*
X196087253Y-106334820D01*
X196027012Y-106420444D01*
X195947135Y-106495592D01*
X195937004Y-106502694D01*
X195888181Y-106531561D01*
X195835990Y-106550643D01*
X195767285Y-106561916D01*
X195668918Y-106567355D01*
X195527744Y-106568938D01*
X195496092Y-106568965D01*
X195486019Y-106568893D01*
X195345659Y-106567878D01*
X195240549Y-106563312D01*
G37*
X195240549Y-106563312D02*
X195167714Y-106553312D01*
X195114108Y-106535921D01*
X195066681Y-106509184D01*
X195057864Y-106503276D01*
X194939007Y-106403968D01*
X194870008Y-106295758D01*
X194842619Y-106164019D01*
X194841281Y-106119283D01*
X194842811Y-106108924D01*
X195116552Y-106108924D01*
X195127893Y-106180589D01*
X195167184Y-106229610D01*
X195242326Y-106259582D01*
X195361222Y-106274101D01*
X195486019Y-106277011D01*
X195619256Y-106275313D01*
X195707674Y-106268628D01*
X195764785Y-106254575D01*
X195804102Y-106230771D01*
X195817241Y-106218621D01*
X195867172Y-106148764D01*
X195864895Y-106080941D01*
X195821584Y-106012365D01*
X195775346Y-105971465D01*
X195707857Y-105947242D01*
X195601433Y-105933639D01*
X195589020Y-105932706D01*
X195396147Y-105930384D01*
X195252900Y-105954650D01*
X195160160Y-106005176D01*
X195118807Y-106081632D01*
X195116552Y-106108924D01*
X194842811Y-106108924D01*
X194866015Y-105951779D01*
X194937968Y-105814939D01*
X195053766Y-105713949D01*
X195128213Y-105678075D01*
X195239992Y-105650161D01*
X195381227Y-105635871D01*
X195535371Y-105634516D01*
X195685879Y-105645405D01*
X195816205Y-105667847D01*
X195909803Y-105701150D01*
X195925922Y-105711385D01*
X196046249Y-105832618D01*
X196118317Y-105976613D01*
X196139408Y-106132861D01*
X196106802Y-106290852D01*
X196087253Y-106334820D01*
X196027012Y-106420444D01*
X195947135Y-106495592D01*
X195937004Y-106502694D01*
X195888181Y-106531561D01*
X195835990Y-106550643D01*
X195767285Y-106561916D01*
X195668918Y-106567355D01*
X195527744Y-106568938D01*
X195496092Y-106568965D01*
X195486019Y-106568893D01*
X195345659Y-106567878D01*
X195240549Y-106563312D01*
X194924360Y-99920056D02*
X194966842Y-99805657D01*
X194966842Y-99805657D02*
X194967658Y-99804348D01*
X194967658Y-99804348D02*
X195019730Y-99733597D01*
X195019730Y-99733597D02*
X195080584Y-99681364D01*
X195080584Y-99681364D02*
X195159887Y-99644629D01*
X195159887Y-99644629D02*
X195267309Y-99620366D01*
X195267309Y-99620366D02*
X195412517Y-99605555D01*
X195412517Y-99605555D02*
X195605179Y-99597171D01*
X195605179Y-99597171D02*
X195632628Y-99596436D01*
X195632628Y-99596436D02*
X196046521Y-99585880D01*
X196046521Y-99585880D02*
X196092456Y-99674709D01*
X196092456Y-99674709D02*
X196123498Y-99738982D01*
X196123498Y-99738982D02*
X196138206Y-99777790D01*
X196138206Y-99777790D02*
X196138391Y-99779585D01*
X196138391Y-99779585D02*
X196111250Y-99786300D01*
X196111250Y-99786300D02*
X196038041Y-99791635D01*
X196038041Y-99791635D02*
X195931081Y-99794917D01*
X195931081Y-99794917D02*
X195844469Y-99795632D01*
X195844469Y-99795632D02*
X195704162Y-99795649D01*
X195704162Y-99795649D02*
X195616051Y-99802063D01*
X195616051Y-99802063D02*
X195574025Y-99824420D01*
X195574025Y-99824420D02*
X195571975Y-99872268D01*
X195571975Y-99872268D02*
X195603790Y-99955151D01*
X195603790Y-99955151D02*
X195662272Y-100080287D01*
X195662272Y-100080287D02*
X195710845Y-100172303D01*
X195710845Y-100172303D02*
X195752986Y-100219629D01*
X195752986Y-100219629D02*
X195798916Y-100233542D01*
X195798916Y-100233542D02*
X195801189Y-100233563D01*
X195801189Y-100233563D02*
X195880311Y-100210605D01*
X195880311Y-100210605D02*
X195923055Y-100142630D01*
X195923055Y-100142630D02*
X195929246Y-100038602D01*
X195929246Y-100038602D02*
X195928172Y-99963670D01*
X195928172Y-99963670D02*
X195949753Y-99924161D01*
X195949753Y-99924161D02*
X196001591Y-99899522D01*
X196001591Y-99899522D02*
X196067632Y-99885341D01*
X196067632Y-99885341D02*
X196105104Y-99905777D01*
X196105104Y-99905777D02*
X196110467Y-99913472D01*
X196110467Y-99913472D02*
X196132006Y-99985917D01*
X196132006Y-99985917D02*
X196135055Y-100087367D01*
X196135055Y-100087367D02*
X196120778Y-100191843D01*
X196120778Y-100191843D02*
X196094688Y-100265875D01*
X196094688Y-100265875D02*
X196007785Y-100368228D01*
X196007785Y-100368228D02*
X195886816Y-100426409D01*
X195886816Y-100426409D02*
X195792308Y-100437931D01*
X195792308Y-100437931D02*
X195707062Y-100429138D01*
X195707062Y-100429138D02*
X195637476Y-100397320D01*
X195637476Y-100397320D02*
X195575672Y-100334316D01*
X195575672Y-100334316D02*
X195513772Y-100231969D01*
X195513772Y-100231969D02*
X195443897Y-100082118D01*
X195443897Y-100082118D02*
X195439948Y-100072988D01*
X195439948Y-100072988D02*
X195377588Y-99938003D01*
X195377588Y-99938003D02*
X195326446Y-99854706D01*
X195326446Y-99854706D02*
X195280488Y-99819003D01*
X195280488Y-99819003D02*
X195233683Y-99826797D01*
X195233683Y-99826797D02*
X195179998Y-99873993D01*
X195179998Y-99873993D02*
X195167644Y-99888106D01*
X195167644Y-99888106D02*
X195119741Y-99982641D01*
X195119741Y-99982641D02*
X195121758Y-100080594D01*
X195121758Y-100080594D02*
X195168724Y-100165903D01*
X195168724Y-100165903D02*
X195255669Y-100222504D01*
X195255669Y-100222504D02*
X195272734Y-100227763D01*
X195272734Y-100227763D02*
X195355504Y-100278977D01*
X195355504Y-100278977D02*
X195395372Y-100343963D01*
X195395372Y-100343963D02*
X195434882Y-100437931D01*
X195434882Y-100437931D02*
X195332658Y-100437931D01*
X195332658Y-100437931D02*
X195184072Y-100409347D01*
X195184072Y-100409347D02*
X195047784Y-100324505D01*
X195047784Y-100324505D02*
X195002191Y-100280355D01*
X195002191Y-100280355D02*
X194943674Y-100179995D01*
X194943674Y-100179995D02*
X194917184Y-100052365D01*
X194917184Y-100052365D02*
X194924360Y-99920056D01*
X194924360Y-99920056D02*
X194924360Y-99920056D01*
G36*
X196092456Y-99674709D02*
G01*
X196123498Y-99738982D01*
X196138206Y-99777790D01*
X196138391Y-99779585D01*
X196111250Y-99786300D01*
X196038041Y-99791635D01*
X195931081Y-99794917D01*
X195844469Y-99795632D01*
X195704162Y-99795649D01*
X195616051Y-99802063D01*
X195574025Y-99824420D01*
X195571975Y-99872268D01*
X195603790Y-99955151D01*
X195662272Y-100080287D01*
X195710845Y-100172303D01*
X195752986Y-100219629D01*
X195798916Y-100233542D01*
X195801189Y-100233563D01*
X195880311Y-100210605D01*
X195923055Y-100142630D01*
X195929246Y-100038602D01*
X195928172Y-99963670D01*
X195949753Y-99924161D01*
X196001591Y-99899522D01*
X196067632Y-99885341D01*
X196105104Y-99905777D01*
X196110467Y-99913472D01*
X196132006Y-99985917D01*
X196135055Y-100087367D01*
X196120778Y-100191843D01*
X196094688Y-100265875D01*
X196007785Y-100368228D01*
X195886816Y-100426409D01*
X195792308Y-100437931D01*
X195707062Y-100429138D01*
X195637476Y-100397320D01*
X195575672Y-100334316D01*
X195513772Y-100231969D01*
X195443897Y-100082118D01*
X195439948Y-100072988D01*
X195377588Y-99938003D01*
X195326446Y-99854706D01*
X195280488Y-99819003D01*
X195233683Y-99826797D01*
X195179998Y-99873993D01*
X195167644Y-99888106D01*
X195119741Y-99982641D01*
X195121758Y-100080594D01*
X195168724Y-100165903D01*
X195255669Y-100222504D01*
X195272734Y-100227763D01*
X195355504Y-100278977D01*
X195395372Y-100343963D01*
X195434882Y-100437931D01*
X195332658Y-100437931D01*
X195184072Y-100409347D01*
X195047784Y-100324505D01*
X195002191Y-100280355D01*
X194943674Y-100179995D01*
X194917184Y-100052365D01*
X194924360Y-99920056D01*
X194966842Y-99805657D01*
X194967658Y-99804348D01*
X195019730Y-99733597D01*
X195080584Y-99681364D01*
X195159887Y-99644629D01*
X195267309Y-99620366D01*
X195412517Y-99605555D01*
X195605179Y-99597171D01*
X195632628Y-99596436D01*
X196046521Y-99585880D01*
X196092456Y-99674709D01*
G37*
X196092456Y-99674709D02*
X196123498Y-99738982D01*
X196138206Y-99777790D01*
X196138391Y-99779585D01*
X196111250Y-99786300D01*
X196038041Y-99791635D01*
X195931081Y-99794917D01*
X195844469Y-99795632D01*
X195704162Y-99795649D01*
X195616051Y-99802063D01*
X195574025Y-99824420D01*
X195571975Y-99872268D01*
X195603790Y-99955151D01*
X195662272Y-100080287D01*
X195710845Y-100172303D01*
X195752986Y-100219629D01*
X195798916Y-100233542D01*
X195801189Y-100233563D01*
X195880311Y-100210605D01*
X195923055Y-100142630D01*
X195929246Y-100038602D01*
X195928172Y-99963670D01*
X195949753Y-99924161D01*
X196001591Y-99899522D01*
X196067632Y-99885341D01*
X196105104Y-99905777D01*
X196110467Y-99913472D01*
X196132006Y-99985917D01*
X196135055Y-100087367D01*
X196120778Y-100191843D01*
X196094688Y-100265875D01*
X196007785Y-100368228D01*
X195886816Y-100426409D01*
X195792308Y-100437931D01*
X195707062Y-100429138D01*
X195637476Y-100397320D01*
X195575672Y-100334316D01*
X195513772Y-100231969D01*
X195443897Y-100082118D01*
X195439948Y-100072988D01*
X195377588Y-99938003D01*
X195326446Y-99854706D01*
X195280488Y-99819003D01*
X195233683Y-99826797D01*
X195179998Y-99873993D01*
X195167644Y-99888106D01*
X195119741Y-99982641D01*
X195121758Y-100080594D01*
X195168724Y-100165903D01*
X195255669Y-100222504D01*
X195272734Y-100227763D01*
X195355504Y-100278977D01*
X195395372Y-100343963D01*
X195434882Y-100437931D01*
X195332658Y-100437931D01*
X195184072Y-100409347D01*
X195047784Y-100324505D01*
X195002191Y-100280355D01*
X194943674Y-100179995D01*
X194917184Y-100052365D01*
X194924360Y-99920056D01*
X194966842Y-99805657D01*
X194967658Y-99804348D01*
X195019730Y-99733597D01*
X195080584Y-99681364D01*
X195159887Y-99644629D01*
X195267309Y-99620366D01*
X195412517Y-99605555D01*
X195605179Y-99597171D01*
X195632628Y-99596436D01*
X196046521Y-99585880D01*
X196092456Y-99674709D01*
X194877719Y-102582571D02*
X194931914Y-102488877D01*
X194931914Y-102488877D02*
X194985707Y-102423736D01*
X194985707Y-102423736D02*
X195042066Y-102376093D01*
X195042066Y-102376093D02*
X195110987Y-102343272D01*
X195110987Y-102343272D02*
X195202468Y-102322594D01*
X195202468Y-102322594D02*
X195326506Y-102311380D01*
X195326506Y-102311380D02*
X195493098Y-102306951D01*
X195493098Y-102306951D02*
X195612851Y-102306437D01*
X195612851Y-102306437D02*
X196053659Y-102306437D01*
X196053659Y-102306437D02*
X196109283Y-102430517D01*
X196109283Y-102430517D02*
X196164907Y-102554598D01*
X196164907Y-102554598D02*
X195682095Y-102569195D01*
X195682095Y-102569195D02*
X195501779Y-102575227D01*
X195501779Y-102575227D02*
X195370901Y-102581555D01*
X195370901Y-102581555D02*
X195280511Y-102589394D01*
X195280511Y-102589394D02*
X195221664Y-102599963D01*
X195221664Y-102599963D02*
X195185413Y-102614477D01*
X195185413Y-102614477D02*
X195162810Y-102634152D01*
X195162810Y-102634152D02*
X195157917Y-102640465D01*
X195157917Y-102640465D02*
X195119706Y-102736112D01*
X195119706Y-102736112D02*
X195134827Y-102832793D01*
X195134827Y-102832793D02*
X195174943Y-102890345D01*
X195174943Y-102890345D02*
X195203370Y-102913755D01*
X195203370Y-102913755D02*
X195240672Y-102929961D01*
X195240672Y-102929961D02*
X195297223Y-102940259D01*
X195297223Y-102940259D02*
X195383394Y-102945951D01*
X195383394Y-102945951D02*
X195509558Y-102948336D01*
X195509558Y-102948336D02*
X195641042Y-102948736D01*
X195641042Y-102948736D02*
X195805999Y-102948814D01*
X195805999Y-102948814D02*
X195922761Y-102951639D01*
X195922761Y-102951639D02*
X196001510Y-102961093D01*
X196001510Y-102961093D02*
X196052431Y-102981060D01*
X196052431Y-102981060D02*
X196085706Y-103015424D01*
X196085706Y-103015424D02*
X196111520Y-103068068D01*
X196111520Y-103068068D02*
X196138344Y-103138383D01*
X196138344Y-103138383D02*
X196167542Y-103215180D01*
X196167542Y-103215180D02*
X195649346Y-103206038D01*
X195649346Y-103206038D02*
X195462539Y-103202357D01*
X195462539Y-103202357D02*
X195324490Y-103198050D01*
X195324490Y-103198050D02*
X195225568Y-103191877D01*
X195225568Y-103191877D02*
X195156145Y-103182598D01*
X195156145Y-103182598D02*
X195106590Y-103168973D01*
X195106590Y-103168973D02*
X195067273Y-103149761D01*
X195067273Y-103149761D02*
X195032584Y-103126598D01*
X195032584Y-103126598D02*
X194921770Y-103014848D01*
X194921770Y-103014848D02*
X194857689Y-102878487D01*
X194857689Y-102878487D02*
X194842339Y-102730175D01*
X194842339Y-102730175D02*
X194877719Y-102582571D01*
X194877719Y-102582571D02*
X194877719Y-102582571D01*
G36*
X196109283Y-102430517D02*
G01*
X196164907Y-102554598D01*
X195682095Y-102569195D01*
X195501779Y-102575227D01*
X195370901Y-102581555D01*
X195280511Y-102589394D01*
X195221664Y-102599963D01*
X195185413Y-102614477D01*
X195162810Y-102634152D01*
X195157917Y-102640465D01*
X195119706Y-102736112D01*
X195134827Y-102832793D01*
X195174943Y-102890345D01*
X195203370Y-102913755D01*
X195240672Y-102929961D01*
X195297223Y-102940259D01*
X195383394Y-102945951D01*
X195509558Y-102948336D01*
X195641042Y-102948736D01*
X195805999Y-102948814D01*
X195922761Y-102951639D01*
X196001510Y-102961093D01*
X196052431Y-102981060D01*
X196085706Y-103015424D01*
X196111520Y-103068068D01*
X196138344Y-103138383D01*
X196167542Y-103215180D01*
X195649346Y-103206038D01*
X195462539Y-103202357D01*
X195324490Y-103198050D01*
X195225568Y-103191877D01*
X195156145Y-103182598D01*
X195106590Y-103168973D01*
X195067273Y-103149761D01*
X195032584Y-103126598D01*
X194921770Y-103014848D01*
X194857689Y-102878487D01*
X194842339Y-102730175D01*
X194877719Y-102582571D01*
X194931914Y-102488877D01*
X194985707Y-102423736D01*
X195042066Y-102376093D01*
X195110987Y-102343272D01*
X195202468Y-102322594D01*
X195326506Y-102311380D01*
X195493098Y-102306951D01*
X195612851Y-102306437D01*
X196053659Y-102306437D01*
X196109283Y-102430517D01*
G37*
X196109283Y-102430517D02*
X196164907Y-102554598D01*
X195682095Y-102569195D01*
X195501779Y-102575227D01*
X195370901Y-102581555D01*
X195280511Y-102589394D01*
X195221664Y-102599963D01*
X195185413Y-102614477D01*
X195162810Y-102634152D01*
X195157917Y-102640465D01*
X195119706Y-102736112D01*
X195134827Y-102832793D01*
X195174943Y-102890345D01*
X195203370Y-102913755D01*
X195240672Y-102929961D01*
X195297223Y-102940259D01*
X195383394Y-102945951D01*
X195509558Y-102948336D01*
X195641042Y-102948736D01*
X195805999Y-102948814D01*
X195922761Y-102951639D01*
X196001510Y-102961093D01*
X196052431Y-102981060D01*
X196085706Y-103015424D01*
X196111520Y-103068068D01*
X196138344Y-103138383D01*
X196167542Y-103215180D01*
X195649346Y-103206038D01*
X195462539Y-103202357D01*
X195324490Y-103198050D01*
X195225568Y-103191877D01*
X195156145Y-103182598D01*
X195106590Y-103168973D01*
X195067273Y-103149761D01*
X195032584Y-103126598D01*
X194921770Y-103014848D01*
X194857689Y-102878487D01*
X194842339Y-102730175D01*
X194877719Y-102582571D01*
X194931914Y-102488877D01*
X194985707Y-102423736D01*
X195042066Y-102376093D01*
X195110987Y-102343272D01*
X195202468Y-102322594D01*
X195326506Y-102311380D01*
X195493098Y-102306951D01*
X195612851Y-102306437D01*
X196053659Y-102306437D01*
X196109283Y-102430517D01*
X194723857Y-101255402D02*
X194843188Y-101246846D01*
X194843188Y-101246846D02*
X194913506Y-101237019D01*
X194913506Y-101237019D02*
X194944179Y-101223401D01*
X194944179Y-101223401D02*
X194944571Y-101203473D01*
X194944571Y-101203473D02*
X194940910Y-101197011D01*
X194940910Y-101197011D02*
X194914398Y-101111060D01*
X194914398Y-101111060D02*
X194915946Y-100999255D01*
X194915946Y-100999255D02*
X194943199Y-100885586D01*
X194943199Y-100885586D02*
X194978455Y-100814490D01*
X194978455Y-100814490D02*
X195034778Y-100741595D01*
X195034778Y-100741595D02*
X195098519Y-100688307D01*
X195098519Y-100688307D02*
X195179510Y-100651725D01*
X195179510Y-100651725D02*
X195287586Y-100628950D01*
X195287586Y-100628950D02*
X195432580Y-100617081D01*
X195432580Y-100617081D02*
X195624326Y-100613218D01*
X195624326Y-100613218D02*
X195661109Y-100613149D01*
X195661109Y-100613149D02*
X196074288Y-100613103D01*
X196074288Y-100613103D02*
X196106339Y-100705046D01*
X196106339Y-100705046D02*
X196128144Y-100770348D01*
X196128144Y-100770348D02*
X196138297Y-100806176D01*
X196138297Y-100806176D02*
X196138391Y-100807230D01*
X196138391Y-100807230D02*
X196110860Y-100810758D01*
X196110860Y-100810758D02*
X196034923Y-100813761D01*
X196034923Y-100813761D02*
X195920565Y-100816010D01*
X195920565Y-100816010D02*
X195777769Y-100817276D01*
X195777769Y-100817276D02*
X195690951Y-100817471D01*
X195690951Y-100817471D02*
X195519773Y-100817877D01*
X195519773Y-100817877D02*
X195397088Y-100819968D01*
X195397088Y-100819968D02*
X195313000Y-100825053D01*
X195313000Y-100825053D02*
X195257614Y-100834440D01*
X195257614Y-100834440D02*
X195221032Y-100849439D01*
X195221032Y-100849439D02*
X195193359Y-100871358D01*
X195193359Y-100871358D02*
X195180032Y-100885043D01*
X195180032Y-100885043D02*
X195126328Y-100979051D01*
X195126328Y-100979051D02*
X195122307Y-101081636D01*
X195122307Y-101081636D02*
X195167725Y-101174710D01*
X195167725Y-101174710D02*
X195184123Y-101191922D01*
X195184123Y-101191922D02*
X195214957Y-101217168D01*
X195214957Y-101217168D02*
X195251531Y-101234680D01*
X195251531Y-101234680D02*
X195304415Y-101245858D01*
X195304415Y-101245858D02*
X195384177Y-101252104D01*
X195384177Y-101252104D02*
X195501385Y-101254818D01*
X195501385Y-101254818D02*
X195662991Y-101255402D01*
X195662991Y-101255402D02*
X196074288Y-101255402D01*
X196074288Y-101255402D02*
X196106339Y-101347345D01*
X196106339Y-101347345D02*
X196128144Y-101412647D01*
X196128144Y-101412647D02*
X196138297Y-101448475D01*
X196138297Y-101448475D02*
X196138391Y-101449529D01*
X196138391Y-101449529D02*
X196110448Y-101452225D01*
X196110448Y-101452225D02*
X196031630Y-101454655D01*
X196031630Y-101454655D02*
X195909453Y-101456722D01*
X195909453Y-101456722D02*
X195751432Y-101458329D01*
X195751432Y-101458329D02*
X195565083Y-101459377D01*
X195565083Y-101459377D02*
X195357920Y-101459769D01*
X195357920Y-101459769D02*
X195348706Y-101459770D01*
X195348706Y-101459770D02*
X194559020Y-101459770D01*
X194559020Y-101459770D02*
X194518997Y-101364885D01*
X194518997Y-101364885D02*
X194478973Y-101270000D01*
X194478973Y-101270000D02*
X194723857Y-101255402D01*
X194723857Y-101255402D02*
X194723857Y-101255402D01*
G36*
X196106339Y-100705046D02*
G01*
X196128144Y-100770348D01*
X196138297Y-100806176D01*
X196138391Y-100807230D01*
X196110860Y-100810758D01*
X196034923Y-100813761D01*
X195920565Y-100816010D01*
X195777769Y-100817276D01*
X195690951Y-100817471D01*
X195519773Y-100817877D01*
X195397088Y-100819968D01*
X195313000Y-100825053D01*
X195257614Y-100834440D01*
X195221032Y-100849439D01*
X195193359Y-100871358D01*
X195180032Y-100885043D01*
X195126328Y-100979051D01*
X195122307Y-101081636D01*
X195167725Y-101174710D01*
X195184123Y-101191922D01*
X195214957Y-101217168D01*
X195251531Y-101234680D01*
X195304415Y-101245858D01*
X195384177Y-101252104D01*
X195501385Y-101254818D01*
X195662991Y-101255402D01*
X196074288Y-101255402D01*
X196106339Y-101347345D01*
X196128144Y-101412647D01*
X196138297Y-101448475D01*
X196138391Y-101449529D01*
X196110448Y-101452225D01*
X196031630Y-101454655D01*
X195909453Y-101456722D01*
X195751432Y-101458329D01*
X195565083Y-101459377D01*
X195357920Y-101459769D01*
X195348706Y-101459770D01*
X194559020Y-101459770D01*
X194518997Y-101364885D01*
X194478973Y-101270000D01*
X194723857Y-101255402D01*
X194843188Y-101246846D01*
X194913506Y-101237019D01*
X194944179Y-101223401D01*
X194944571Y-101203473D01*
X194940910Y-101197011D01*
X194914398Y-101111060D01*
X194915946Y-100999255D01*
X194943199Y-100885586D01*
X194978455Y-100814490D01*
X195034778Y-100741595D01*
X195098519Y-100688307D01*
X195179510Y-100651725D01*
X195287586Y-100628950D01*
X195432580Y-100617081D01*
X195624326Y-100613218D01*
X195661109Y-100613149D01*
X196074288Y-100613103D01*
X196106339Y-100705046D01*
G37*
X196106339Y-100705046D02*
X196128144Y-100770348D01*
X196138297Y-100806176D01*
X196138391Y-100807230D01*
X196110860Y-100810758D01*
X196034923Y-100813761D01*
X195920565Y-100816010D01*
X195777769Y-100817276D01*
X195690951Y-100817471D01*
X195519773Y-100817877D01*
X195397088Y-100819968D01*
X195313000Y-100825053D01*
X195257614Y-100834440D01*
X195221032Y-100849439D01*
X195193359Y-100871358D01*
X195180032Y-100885043D01*
X195126328Y-100979051D01*
X195122307Y-101081636D01*
X195167725Y-101174710D01*
X195184123Y-101191922D01*
X195214957Y-101217168D01*
X195251531Y-101234680D01*
X195304415Y-101245858D01*
X195384177Y-101252104D01*
X195501385Y-101254818D01*
X195662991Y-101255402D01*
X196074288Y-101255402D01*
X196106339Y-101347345D01*
X196128144Y-101412647D01*
X196138297Y-101448475D01*
X196138391Y-101449529D01*
X196110448Y-101452225D01*
X196031630Y-101454655D01*
X195909453Y-101456722D01*
X195751432Y-101458329D01*
X195565083Y-101459377D01*
X195357920Y-101459769D01*
X195348706Y-101459770D01*
X194559020Y-101459770D01*
X194518997Y-101364885D01*
X194478973Y-101270000D01*
X194723857Y-101255402D01*
X194843188Y-101246846D01*
X194913506Y-101237019D01*
X194944179Y-101223401D01*
X194944571Y-101203473D01*
X194940910Y-101197011D01*
X194914398Y-101111060D01*
X194915946Y-100999255D01*
X194943199Y-100885586D01*
X194978455Y-100814490D01*
X195034778Y-100741595D01*
X195098519Y-100688307D01*
X195179510Y-100651725D01*
X195287586Y-100628950D01*
X195432580Y-100617081D01*
X195624326Y-100613218D01*
X195661109Y-100613149D01*
X196074288Y-100613103D01*
X196106339Y-100705046D01*
X194939840Y-96419876D02*
X195016653Y-96415421D01*
X195016653Y-96415421D02*
X195133391Y-96411929D01*
X195133391Y-96411929D02*
X195280821Y-96409685D01*
X195280821Y-96409685D02*
X195435455Y-96408965D01*
X195435455Y-96408965D02*
X195958727Y-96408965D01*
X195958727Y-96408965D02*
X196051117Y-96501355D01*
X196051117Y-96501355D02*
X196108047Y-96565022D01*
X196108047Y-96565022D02*
X196131107Y-96620911D01*
X196131107Y-96620911D02*
X196129647Y-96697298D01*
X196129647Y-96697298D02*
X196125934Y-96727620D01*
X196125934Y-96727620D02*
X196115126Y-96822390D01*
X196115126Y-96822390D02*
X196108933Y-96900778D01*
X196108933Y-96900778D02*
X196108361Y-96919885D01*
X196108361Y-96919885D02*
X196112102Y-96984301D01*
X196112102Y-96984301D02*
X196121494Y-97076429D01*
X196121494Y-97076429D02*
X196125934Y-97112150D01*
X196125934Y-97112150D02*
X196132801Y-97199886D01*
X196132801Y-97199886D02*
X196117885Y-97258847D01*
X196117885Y-97258847D02*
X196071835Y-97317310D01*
X196071835Y-97317310D02*
X196051117Y-97338415D01*
X196051117Y-97338415D02*
X195958727Y-97430805D01*
X195958727Y-97430805D02*
X194979947Y-97430805D01*
X194979947Y-97430805D02*
X194946066Y-97356442D01*
X194946066Y-97356442D02*
X194920970Y-97292410D01*
X194920970Y-97292410D02*
X194912184Y-97254948D01*
X194912184Y-97254948D02*
X194939950Y-97245343D01*
X194939950Y-97245343D02*
X195017530Y-97236365D01*
X195017530Y-97236365D02*
X195136348Y-97228614D01*
X195136348Y-97228614D02*
X195287828Y-97222686D01*
X195287828Y-97222686D02*
X195415805Y-97219827D01*
X195415805Y-97219827D02*
X195919425Y-97211839D01*
X195919425Y-97211839D02*
X195929278Y-97142152D01*
X195929278Y-97142152D02*
X195922389Y-97078771D01*
X195922389Y-97078771D02*
X195900083Y-97047714D01*
X195900083Y-97047714D02*
X195858379Y-97039033D01*
X195858379Y-97039033D02*
X195769544Y-97031622D01*
X195769544Y-97031622D02*
X195644834Y-97026069D01*
X195644834Y-97026069D02*
X195495507Y-97022964D01*
X195495507Y-97022964D02*
X195418661Y-97022516D01*
X195418661Y-97022516D02*
X194976287Y-97022069D01*
X194976287Y-97022069D02*
X194944235Y-96930126D01*
X194944235Y-96930126D02*
X194922443Y-96865051D01*
X194922443Y-96865051D02*
X194912281Y-96829653D01*
X194912281Y-96829653D02*
X194912184Y-96828632D01*
X194912184Y-96828632D02*
X194939809Y-96825080D01*
X194939809Y-96825080D02*
X195016411Y-96821177D01*
X195016411Y-96821177D02*
X195132579Y-96817249D01*
X195132579Y-96817249D02*
X195278904Y-96813624D01*
X195278904Y-96813624D02*
X195415805Y-96811092D01*
X195415805Y-96811092D02*
X195919425Y-96803103D01*
X195919425Y-96803103D02*
X195919425Y-96627931D01*
X195919425Y-96627931D02*
X195459965Y-96619893D01*
X195459965Y-96619893D02*
X195000505Y-96611854D01*
X195000505Y-96611854D02*
X194956344Y-96526457D01*
X194956344Y-96526457D02*
X194926019Y-96463407D01*
X194926019Y-96463407D02*
X194912258Y-96426090D01*
X194912258Y-96426090D02*
X194912184Y-96425013D01*
X194912184Y-96425013D02*
X194939840Y-96419876D01*
X194939840Y-96419876D02*
X194939840Y-96419876D01*
G36*
X196051117Y-96501355D02*
G01*
X196108047Y-96565022D01*
X196131107Y-96620911D01*
X196129647Y-96697298D01*
X196125934Y-96727620D01*
X196115126Y-96822390D01*
X196108933Y-96900778D01*
X196108361Y-96919885D01*
X196112102Y-96984301D01*
X196121494Y-97076429D01*
X196125934Y-97112150D01*
X196132801Y-97199886D01*
X196117885Y-97258847D01*
X196071835Y-97317310D01*
X196051117Y-97338415D01*
X195958727Y-97430805D01*
X194979947Y-97430805D01*
X194946066Y-97356442D01*
X194920970Y-97292410D01*
X194912184Y-97254948D01*
X194939950Y-97245343D01*
X195017530Y-97236365D01*
X195136348Y-97228614D01*
X195287828Y-97222686D01*
X195415805Y-97219827D01*
X195919425Y-97211839D01*
X195929278Y-97142152D01*
X195922389Y-97078771D01*
X195900083Y-97047714D01*
X195858379Y-97039033D01*
X195769544Y-97031622D01*
X195644834Y-97026069D01*
X195495507Y-97022964D01*
X195418661Y-97022516D01*
X194976287Y-97022069D01*
X194944235Y-96930126D01*
X194922443Y-96865051D01*
X194912281Y-96829653D01*
X194912184Y-96828632D01*
X194939809Y-96825080D01*
X195016411Y-96821177D01*
X195132579Y-96817249D01*
X195278904Y-96813624D01*
X195415805Y-96811092D01*
X195919425Y-96803103D01*
X195919425Y-96627931D01*
X195459965Y-96619893D01*
X195000505Y-96611854D01*
X194956344Y-96526457D01*
X194926019Y-96463407D01*
X194912258Y-96426090D01*
X194912184Y-96425013D01*
X194939840Y-96419876D01*
X195016653Y-96415421D01*
X195133391Y-96411929D01*
X195280821Y-96409685D01*
X195435455Y-96408965D01*
X195958727Y-96408965D01*
X196051117Y-96501355D01*
G37*
X196051117Y-96501355D02*
X196108047Y-96565022D01*
X196131107Y-96620911D01*
X196129647Y-96697298D01*
X196125934Y-96727620D01*
X196115126Y-96822390D01*
X196108933Y-96900778D01*
X196108361Y-96919885D01*
X196112102Y-96984301D01*
X196121494Y-97076429D01*
X196125934Y-97112150D01*
X196132801Y-97199886D01*
X196117885Y-97258847D01*
X196071835Y-97317310D01*
X196051117Y-97338415D01*
X195958727Y-97430805D01*
X194979947Y-97430805D01*
X194946066Y-97356442D01*
X194920970Y-97292410D01*
X194912184Y-97254948D01*
X194939950Y-97245343D01*
X195017530Y-97236365D01*
X195136348Y-97228614D01*
X195287828Y-97222686D01*
X195415805Y-97219827D01*
X195919425Y-97211839D01*
X195929278Y-97142152D01*
X195922389Y-97078771D01*
X195900083Y-97047714D01*
X195858379Y-97039033D01*
X195769544Y-97031622D01*
X195644834Y-97026069D01*
X195495507Y-97022964D01*
X195418661Y-97022516D01*
X194976287Y-97022069D01*
X194944235Y-96930126D01*
X194922443Y-96865051D01*
X194912281Y-96829653D01*
X194912184Y-96828632D01*
X194939809Y-96825080D01*
X195016411Y-96821177D01*
X195132579Y-96817249D01*
X195278904Y-96813624D01*
X195415805Y-96811092D01*
X195919425Y-96803103D01*
X195919425Y-96627931D01*
X195459965Y-96619893D01*
X195000505Y-96611854D01*
X194956344Y-96526457D01*
X194926019Y-96463407D01*
X194912258Y-96426090D01*
X194912184Y-96425013D01*
X194939840Y-96419876D01*
X195016653Y-96415421D01*
X195133391Y-96411929D01*
X195280821Y-96409685D01*
X195435455Y-96408965D01*
X195958727Y-96408965D01*
X196051117Y-96501355D01*
X194884676Y-103684448D02*
X194962111Y-103569342D01*
X194962111Y-103569342D02*
X195073949Y-103480389D01*
X195073949Y-103480389D02*
X195216265Y-103427251D01*
X195216265Y-103427251D02*
X195321015Y-103416503D01*
X195321015Y-103416503D02*
X195364726Y-103417724D01*
X195364726Y-103417724D02*
X195398194Y-103427944D01*
X195398194Y-103427944D02*
X195428179Y-103456039D01*
X195428179Y-103456039D02*
X195461440Y-103510884D01*
X195461440Y-103510884D02*
X195504738Y-103601355D01*
X195504738Y-103601355D02*
X195564833Y-103736328D01*
X195564833Y-103736328D02*
X195565134Y-103737011D01*
X195565134Y-103737011D02*
X195622037Y-103861249D01*
X195622037Y-103861249D02*
X195672565Y-103963127D01*
X195672565Y-103963127D02*
X195711280Y-104032233D01*
X195711280Y-104032233D02*
X195732740Y-104058154D01*
X195732740Y-104058154D02*
X195732913Y-104058161D01*
X195732913Y-104058161D02*
X195779644Y-104035315D01*
X195779644Y-104035315D02*
X195831154Y-103981891D01*
X195831154Y-103981891D02*
X195868261Y-103920558D01*
X195868261Y-103920558D02*
X195875632Y-103889485D01*
X195875632Y-103889485D02*
X195850138Y-103804711D01*
X195850138Y-103804711D02*
X195786291Y-103731707D01*
X195786291Y-103731707D02*
X195716094Y-103696087D01*
X195716094Y-103696087D02*
X195664343Y-103661820D01*
X195664343Y-103661820D02*
X195605409Y-103594697D01*
X195605409Y-103594697D02*
X195554496Y-103515792D01*
X195554496Y-103515792D02*
X195526809Y-103446179D01*
X195526809Y-103446179D02*
X195525287Y-103431623D01*
X195525287Y-103431623D02*
X195550321Y-103415237D01*
X195550321Y-103415237D02*
X195614311Y-103414250D01*
X195614311Y-103414250D02*
X195700593Y-103426292D01*
X195700593Y-103426292D02*
X195792501Y-103448993D01*
X195792501Y-103448993D02*
X195873369Y-103479986D01*
X195873369Y-103479986D02*
X195876509Y-103481552D01*
X195876509Y-103481552D02*
X196006734Y-103574819D01*
X196006734Y-103574819D02*
X196095311Y-103695696D01*
X196095311Y-103695696D02*
X196138786Y-103832973D01*
X196138786Y-103832973D02*
X196133706Y-103975440D01*
X196133706Y-103975440D02*
X196076616Y-104111888D01*
X196076616Y-104111888D02*
X196072602Y-104117955D01*
X196072602Y-104117955D02*
X195975326Y-104225290D01*
X195975326Y-104225290D02*
X195848409Y-104295868D01*
X195848409Y-104295868D02*
X195681526Y-104334926D01*
X195681526Y-104334926D02*
X195634639Y-104340168D01*
X195634639Y-104340168D02*
X195413329Y-104349452D01*
X195413329Y-104349452D02*
X195310124Y-104338322D01*
X195310124Y-104338322D02*
X195310124Y-104058161D01*
X195310124Y-104058161D02*
X195374503Y-104054521D01*
X195374503Y-104054521D02*
X195393291Y-104034611D01*
X195393291Y-104034611D02*
X195379235Y-103984974D01*
X195379235Y-103984974D02*
X195346009Y-103906733D01*
X195346009Y-103906733D02*
X195304359Y-103819274D01*
X195304359Y-103819274D02*
X195303256Y-103817101D01*
X195303256Y-103817101D02*
X195264265Y-103742970D01*
X195264265Y-103742970D02*
X195238244Y-103713219D01*
X195238244Y-103713219D02*
X195210965Y-103720555D01*
X195210965Y-103720555D02*
X195175121Y-103751447D01*
X195175121Y-103751447D02*
X195123251Y-103830040D01*
X195123251Y-103830040D02*
X195119439Y-103914677D01*
X195119439Y-103914677D02*
X195157189Y-103990597D01*
X195157189Y-103990597D02*
X195230001Y-104043035D01*
X195230001Y-104043035D02*
X195310124Y-104058161D01*
X195310124Y-104058161D02*
X195310124Y-104338322D01*
X195310124Y-104338322D02*
X195236261Y-104330356D01*
X195236261Y-104330356D02*
X195095829Y-104281366D01*
X195095829Y-104281366D02*
X194997447Y-104213164D01*
X194997447Y-104213164D02*
X194898030Y-104090065D01*
X194898030Y-104090065D02*
X194848711Y-103954472D01*
X194848711Y-103954472D02*
X194845568Y-103816045D01*
X194845568Y-103816045D02*
X194884676Y-103684448D01*
X194884676Y-103684448D02*
X194884676Y-103684448D01*
G36*
X195095829Y-104281366D02*
G01*
X194997447Y-104213164D01*
X194898030Y-104090065D01*
X194848711Y-103954472D01*
X194847807Y-103914677D01*
X195119439Y-103914677D01*
X195157189Y-103990597D01*
X195230001Y-104043035D01*
X195310124Y-104058161D01*
X195374503Y-104054521D01*
X195393291Y-104034611D01*
X195379235Y-103984974D01*
X195346009Y-103906733D01*
X195304359Y-103819274D01*
X195303256Y-103817101D01*
X195264265Y-103742970D01*
X195238244Y-103713219D01*
X195210965Y-103720555D01*
X195175121Y-103751447D01*
X195123251Y-103830040D01*
X195119439Y-103914677D01*
X194847807Y-103914677D01*
X194845568Y-103816045D01*
X194884676Y-103684448D01*
X194962111Y-103569342D01*
X195073949Y-103480389D01*
X195216265Y-103427251D01*
X195321015Y-103416503D01*
X195364726Y-103417724D01*
X195398194Y-103427944D01*
X195428179Y-103456039D01*
X195461440Y-103510884D01*
X195504738Y-103601355D01*
X195564833Y-103736328D01*
X195565134Y-103737011D01*
X195622037Y-103861249D01*
X195672565Y-103963127D01*
X195711280Y-104032233D01*
X195732740Y-104058154D01*
X195732913Y-104058161D01*
X195779644Y-104035315D01*
X195831154Y-103981891D01*
X195868261Y-103920558D01*
X195875632Y-103889485D01*
X195850138Y-103804711D01*
X195786291Y-103731707D01*
X195716094Y-103696087D01*
X195664343Y-103661820D01*
X195605409Y-103594697D01*
X195554496Y-103515792D01*
X195526809Y-103446179D01*
X195525287Y-103431623D01*
X195550321Y-103415237D01*
X195614311Y-103414250D01*
X195700593Y-103426292D01*
X195792501Y-103448993D01*
X195873369Y-103479986D01*
X195876509Y-103481552D01*
X196006734Y-103574819D01*
X196095311Y-103695696D01*
X196138786Y-103832973D01*
X196133706Y-103975440D01*
X196076616Y-104111888D01*
X196072602Y-104117955D01*
X195975326Y-104225290D01*
X195848409Y-104295868D01*
X195681526Y-104334926D01*
X195634639Y-104340168D01*
X195413329Y-104349452D01*
X195310124Y-104338322D01*
X195236261Y-104330356D01*
X195095829Y-104281366D01*
G37*
X195095829Y-104281366D02*
X194997447Y-104213164D01*
X194898030Y-104090065D01*
X194848711Y-103954472D01*
X194847807Y-103914677D01*
X195119439Y-103914677D01*
X195157189Y-103990597D01*
X195230001Y-104043035D01*
X195310124Y-104058161D01*
X195374503Y-104054521D01*
X195393291Y-104034611D01*
X195379235Y-103984974D01*
X195346009Y-103906733D01*
X195304359Y-103819274D01*
X195303256Y-103817101D01*
X195264265Y-103742970D01*
X195238244Y-103713219D01*
X195210965Y-103720555D01*
X195175121Y-103751447D01*
X195123251Y-103830040D01*
X195119439Y-103914677D01*
X194847807Y-103914677D01*
X194845568Y-103816045D01*
X194884676Y-103684448D01*
X194962111Y-103569342D01*
X195073949Y-103480389D01*
X195216265Y-103427251D01*
X195321015Y-103416503D01*
X195364726Y-103417724D01*
X195398194Y-103427944D01*
X195428179Y-103456039D01*
X195461440Y-103510884D01*
X195504738Y-103601355D01*
X195564833Y-103736328D01*
X195565134Y-103737011D01*
X195622037Y-103861249D01*
X195672565Y-103963127D01*
X195711280Y-104032233D01*
X195732740Y-104058154D01*
X195732913Y-104058161D01*
X195779644Y-104035315D01*
X195831154Y-103981891D01*
X195868261Y-103920558D01*
X195875632Y-103889485D01*
X195850138Y-103804711D01*
X195786291Y-103731707D01*
X195716094Y-103696087D01*
X195664343Y-103661820D01*
X195605409Y-103594697D01*
X195554496Y-103515792D01*
X195526809Y-103446179D01*
X195525287Y-103431623D01*
X195550321Y-103415237D01*
X195614311Y-103414250D01*
X195700593Y-103426292D01*
X195792501Y-103448993D01*
X195873369Y-103479986D01*
X195876509Y-103481552D01*
X196006734Y-103574819D01*
X196095311Y-103695696D01*
X196138786Y-103832973D01*
X196133706Y-103975440D01*
X196076616Y-104111888D01*
X196072602Y-104117955D01*
X195975326Y-104225290D01*
X195848409Y-104295868D01*
X195681526Y-104334926D01*
X195634639Y-104340168D01*
X195413329Y-104349452D01*
X195310124Y-104338322D01*
X195236261Y-104330356D01*
X195095829Y-104281366D01*
X185452998Y-99790986D02*
X185453863Y-99632994D01*
X185453863Y-99632994D02*
X185456205Y-99518653D01*
X185456205Y-99518653D02*
X185460762Y-99440593D01*
X185460762Y-99440593D02*
X185468270Y-99391446D01*
X185468270Y-99391446D02*
X185479466Y-99363841D01*
X185479466Y-99363841D02*
X185495088Y-99350408D01*
X185495088Y-99350408D02*
X185515873Y-99343779D01*
X185515873Y-99343779D02*
X185518563Y-99343135D01*
X185518563Y-99343135D02*
X185567113Y-99333065D01*
X185567113Y-99333065D02*
X185662905Y-99314425D01*
X185662905Y-99314425D02*
X185795743Y-99289155D01*
X185795743Y-99289155D02*
X185955431Y-99259193D01*
X185955431Y-99259193D02*
X186131774Y-99226478D01*
X186131774Y-99226478D02*
X186137967Y-99225336D01*
X186137967Y-99225336D02*
X186310782Y-99192567D01*
X186310782Y-99192567D02*
X186463469Y-99161907D01*
X186463469Y-99161907D02*
X186586871Y-99135336D01*
X186586871Y-99135336D02*
X186671831Y-99114833D01*
X186671831Y-99114833D02*
X186709190Y-99102374D01*
X186709190Y-99102374D02*
X186709852Y-99101780D01*
X186709852Y-99101780D02*
X186728095Y-99065081D01*
X186728095Y-99065081D02*
X186758497Y-98989414D01*
X186758497Y-98989414D02*
X186794493Y-98891122D01*
X186794493Y-98891122D02*
X186794685Y-98890575D01*
X186794685Y-98890575D02*
X186841222Y-98766767D01*
X186841222Y-98766767D02*
X186900504Y-98620804D01*
X186900504Y-98620804D02*
X186960109Y-98483219D01*
X186960109Y-98483219D02*
X186963056Y-98476707D01*
X186963056Y-98476707D02*
X187064765Y-98252610D01*
X187064765Y-98252610D02*
X186725897Y-97756381D01*
X186725897Y-97756381D02*
X186622592Y-97604154D01*
X186622592Y-97604154D02*
X186530237Y-97466259D01*
X186530237Y-97466259D02*
X186454084Y-97350685D01*
X186454084Y-97350685D02*
X186399385Y-97265421D01*
X186399385Y-97265421D02*
X186371393Y-97218456D01*
X186371393Y-97218456D02*
X186369317Y-97213996D01*
X186369317Y-97213996D02*
X186378560Y-97179866D01*
X186378560Y-97179866D02*
X186423156Y-97116119D01*
X186423156Y-97116119D02*
X186505209Y-97020269D01*
X186505209Y-97020269D02*
X186626821Y-96889831D01*
X186626821Y-96889831D02*
X186756205Y-96756672D01*
X186756205Y-96756672D02*
X186883702Y-96628306D01*
X186883702Y-96628306D02*
X187000046Y-96513419D01*
X187000046Y-96513419D02*
X187098052Y-96418927D01*
X187098052Y-96418927D02*
X187170536Y-96351747D01*
X187170536Y-96351747D02*
X187210313Y-96318794D01*
X187210313Y-96318794D02*
X187212361Y-96317568D01*
X187212361Y-96317568D02*
X187239656Y-96313926D01*
X187239656Y-96313926D02*
X187284234Y-96327650D01*
X187284234Y-96327650D02*
X187352112Y-96362131D01*
X187352112Y-96362131D02*
X187449311Y-96420761D01*
X187449311Y-96420761D02*
X187581851Y-96506930D01*
X187581851Y-96506930D02*
X187752476Y-96621800D01*
X187752476Y-96621800D02*
X187902655Y-96723746D01*
X187902655Y-96723746D02*
X188037350Y-96814877D01*
X188037350Y-96814877D02*
X188148740Y-96889927D01*
X188148740Y-96889927D02*
X188229005Y-96943631D01*
X188229005Y-96943631D02*
X188270325Y-96970720D01*
X188270325Y-96970720D02*
X188273130Y-96972426D01*
X188273130Y-96972426D02*
X188312721Y-96969118D01*
X188312721Y-96969118D02*
X188389669Y-96944047D01*
X188389669Y-96944047D02*
X188489432Y-96902202D01*
X188489432Y-96902202D02*
X188521291Y-96887288D01*
X188521291Y-96887288D02*
X188663226Y-96822214D01*
X188663226Y-96822214D02*
X188824273Y-96752788D01*
X188824273Y-96752788D02*
X188963621Y-96696391D01*
X188963621Y-96696391D02*
X189067044Y-96655753D01*
X189067044Y-96655753D02*
X189145642Y-96623474D01*
X189145642Y-96623474D02*
X189186720Y-96604822D01*
X189186720Y-96604822D02*
X189189885Y-96602503D01*
X189189885Y-96602503D02*
X189195128Y-96568197D01*
X189195128Y-96568197D02*
X189209494Y-96487331D01*
X189209494Y-96487331D02*
X189230937Y-96370657D01*
X189230937Y-96370657D02*
X189257413Y-96228925D01*
X189257413Y-96228925D02*
X189286877Y-96072890D01*
X189286877Y-96072890D02*
X189317283Y-95913302D01*
X189317283Y-95913302D02*
X189346588Y-95760915D01*
X189346588Y-95760915D02*
X189372745Y-95626479D01*
X189372745Y-95626479D02*
X189393710Y-95520748D01*
X189393710Y-95520748D02*
X189407439Y-95454474D01*
X189407439Y-95454474D02*
X189411320Y-95438218D01*
X189411320Y-95438218D02*
X189420900Y-95421427D01*
X189420900Y-95421427D02*
X189442536Y-95408751D01*
X189442536Y-95408751D02*
X189483531Y-95399622D01*
X189483531Y-95399622D02*
X189551189Y-95393469D01*
X189551189Y-95393469D02*
X189652812Y-95389720D01*
X189652812Y-95389720D02*
X189795703Y-95387808D01*
X189795703Y-95387808D02*
X189987165Y-95387160D01*
X189987165Y-95387160D02*
X190065645Y-95387126D01*
X190065645Y-95387126D02*
X190703906Y-95387126D01*
X190703906Y-95387126D02*
X190734160Y-95540402D01*
X190734160Y-95540402D02*
X190750564Y-95625678D01*
X190750564Y-95625678D02*
X190774509Y-95752930D01*
X190774509Y-95752930D02*
X190803107Y-95906685D01*
X190803107Y-95906685D02*
X190833467Y-96071466D01*
X190833467Y-96071466D02*
X190841806Y-96117011D01*
X190841806Y-96117011D02*
X190871370Y-96269068D01*
X190871370Y-96269068D02*
X190900442Y-96401532D01*
X190900442Y-96401532D02*
X190926329Y-96503286D01*
X190926329Y-96503286D02*
X190946337Y-96563212D01*
X190946337Y-96563212D02*
X190952301Y-96573195D01*
X190952301Y-96573195D02*
X190994534Y-96597707D01*
X190994534Y-96597707D02*
X191076370Y-96632852D01*
X191076370Y-96632852D02*
X191181683Y-96671827D01*
X191181683Y-96671827D02*
X191204368Y-96679558D01*
X191204368Y-96679558D02*
X191345018Y-96730640D01*
X191345018Y-96730640D02*
X191503714Y-96794046D01*
X191503714Y-96794046D02*
X191646225Y-96856096D01*
X191646225Y-96856096D02*
X191646886Y-96856402D01*
X191646886Y-96856402D02*
X191870440Y-96959733D01*
X191870440Y-96959733D02*
X192870232Y-96280039D01*
X192870232Y-96280039D02*
X193307300Y-96716379D01*
X193307300Y-96716379D02*
X193437381Y-96848351D01*
X193437381Y-96848351D02*
X193552048Y-96968721D01*
X193552048Y-96968721D02*
X193645181Y-97070727D01*
X193645181Y-97070727D02*
X193710658Y-97147609D01*
X193710658Y-97147609D02*
X193742357Y-97192607D01*
X193742357Y-97192607D02*
X193744368Y-97199062D01*
X193744368Y-97199062D02*
X193728529Y-97236960D01*
X193728529Y-97236960D02*
X193684496Y-97314292D01*
X193684496Y-97314292D02*
X193617490Y-97422611D01*
X193617490Y-97422611D02*
X193532734Y-97553468D01*
X193532734Y-97553468D02*
X193437816Y-97694948D01*
X193437816Y-97694948D02*
X193340998Y-97838539D01*
X193340998Y-97838539D02*
X193256751Y-97966565D01*
X193256751Y-97966565D02*
X193190258Y-98070895D01*
X193190258Y-98070895D02*
X193146702Y-98143400D01*
X193146702Y-98143400D02*
X193131264Y-98175842D01*
X193131264Y-98175842D02*
X193144328Y-98215424D01*
X193144328Y-98215424D02*
X193178750Y-98290481D01*
X193178750Y-98290481D02*
X193227380Y-98385532D01*
X193227380Y-98385532D02*
X193232785Y-98395608D01*
X193232785Y-98395608D02*
X193296980Y-98523609D01*
X193296980Y-98523609D02*
X193328463Y-98611382D01*
X193328463Y-98611382D02*
X193328798Y-98665972D01*
X193328798Y-98665972D02*
X193299548Y-98694425D01*
X193299548Y-98694425D02*
X193299138Y-98694590D01*
X193299138Y-98694590D02*
X193264498Y-98708812D01*
X193264498Y-98708812D02*
X193182269Y-98742731D01*
X193182269Y-98742731D02*
X193058814Y-98793716D01*
X193058814Y-98793716D02*
X192900498Y-98859138D01*
X192900498Y-98859138D02*
X192713686Y-98936366D01*
X192713686Y-98936366D02*
X192504742Y-99022771D01*
X192504742Y-99022771D02*
X192302446Y-99106449D01*
X192302446Y-99106449D02*
X192079200Y-99198412D01*
X192079200Y-99198412D02*
X191872392Y-99282850D01*
X191872392Y-99282850D02*
X191688362Y-99357231D01*
X191688362Y-99357231D02*
X191533451Y-99419026D01*
X191533451Y-99419026D02*
X191413996Y-99465703D01*
X191413996Y-99465703D02*
X191336339Y-99494732D01*
X191336339Y-99494732D02*
X191307356Y-99503678D01*
X191307356Y-99503678D02*
X191274110Y-99481244D01*
X191274110Y-99481244D02*
X191221123Y-99422561D01*
X191221123Y-99422561D02*
X191162704Y-99344311D01*
X191162704Y-99344311D02*
X190977952Y-99121466D01*
X190977952Y-99121466D02*
X190766182Y-98947282D01*
X190766182Y-98947282D02*
X190531856Y-98823846D01*
X190531856Y-98823846D02*
X190279434Y-98753246D01*
X190279434Y-98753246D02*
X190013377Y-98737569D01*
X190013377Y-98737569D02*
X189890575Y-98748964D01*
X189890575Y-98748964D02*
X189635793Y-98811050D01*
X189635793Y-98811050D02*
X189410801Y-98917977D01*
X189410801Y-98917977D02*
X189217817Y-99063111D01*
X189217817Y-99063111D02*
X189059061Y-99239822D01*
X189059061Y-99239822D02*
X188936750Y-99441478D01*
X188936750Y-99441478D02*
X188853105Y-99661446D01*
X188853105Y-99661446D02*
X188810344Y-99893094D01*
X188810344Y-99893094D02*
X188810687Y-100129791D01*
X188810687Y-100129791D02*
X188856352Y-100364905D01*
X188856352Y-100364905D02*
X188949559Y-100591804D01*
X188949559Y-100591804D02*
X189092527Y-100803856D01*
X189092527Y-100803856D02*
X189173383Y-100892364D01*
X189173383Y-100892364D02*
X189381007Y-101062111D01*
X189381007Y-101062111D02*
X189607895Y-101180301D01*
X189607895Y-101180301D02*
X189847433Y-101247722D01*
X189847433Y-101247722D02*
X190093007Y-101265160D01*
X190093007Y-101265160D02*
X190338003Y-101233402D01*
X190338003Y-101233402D02*
X190575808Y-101153235D01*
X190575808Y-101153235D02*
X190799807Y-101025445D01*
X190799807Y-101025445D02*
X191003387Y-100850820D01*
X191003387Y-100850820D02*
X191162704Y-100655688D01*
X191162704Y-100655688D02*
X191223602Y-100574409D01*
X191223602Y-100574409D02*
X191276015Y-100516991D01*
X191276015Y-100516991D02*
X191307406Y-100496322D01*
X191307406Y-100496322D02*
X191341639Y-100507144D01*
X191341639Y-100507144D02*
X191423419Y-100537923D01*
X191423419Y-100537923D02*
X191546407Y-100586126D01*
X191546407Y-100586126D02*
X191704263Y-100649222D01*
X191704263Y-100649222D02*
X191890649Y-100724678D01*
X191890649Y-100724678D02*
X192099226Y-100809962D01*
X192099226Y-100809962D02*
X192302496Y-100893781D01*
X192302496Y-100893781D02*
X192525933Y-100986255D01*
X192525933Y-100986255D02*
X192732984Y-101071911D01*
X192732984Y-101071911D02*
X192917286Y-101148118D01*
X192917286Y-101148118D02*
X193072475Y-101212247D01*
X193072475Y-101212247D02*
X193192188Y-101261668D01*
X193192188Y-101261668D02*
X193270061Y-101293752D01*
X193270061Y-101293752D02*
X193299138Y-101305641D01*
X193299138Y-101305641D02*
X193328677Y-101333726D01*
X193328677Y-101333726D02*
X193328591Y-101388051D01*
X193328591Y-101388051D02*
X193297326Y-101475605D01*
X193297326Y-101475605D02*
X193233329Y-101603381D01*
X193233329Y-101603381D02*
X193232785Y-101604392D01*
X193232785Y-101604392D02*
X193183121Y-101700598D01*
X193183121Y-101700598D02*
X193146945Y-101778369D01*
X193146945Y-101778369D02*
X193131408Y-101822223D01*
X193131408Y-101822223D02*
X193131264Y-101824158D01*
X193131264Y-101824158D02*
X193147024Y-101857171D01*
X193147024Y-101857171D02*
X193190850Y-101930054D01*
X193190850Y-101930054D02*
X193257557Y-102034678D01*
X193257557Y-102034678D02*
X193341964Y-102162910D01*
X193341964Y-102162910D02*
X193437816Y-102305052D01*
X193437816Y-102305052D02*
X193534867Y-102449767D01*
X193534867Y-102449767D02*
X193619270Y-102580196D01*
X193619270Y-102580196D02*
X193685801Y-102687890D01*
X193685801Y-102687890D02*
X193729238Y-102764402D01*
X193729238Y-102764402D02*
X193744368Y-102800938D01*
X193744368Y-102800938D02*
X193724482Y-102834582D01*
X193724482Y-102834582D02*
X193668903Y-102902224D01*
X193668903Y-102902224D02*
X193583754Y-102997107D01*
X193583754Y-102997107D02*
X193475153Y-103112470D01*
X193475153Y-103112470D02*
X193349221Y-103241555D01*
X193349221Y-103241555D02*
X193307149Y-103283771D01*
X193307149Y-103283771D02*
X192869931Y-103720261D01*
X192869931Y-103720261D02*
X192382340Y-103388023D01*
X192382340Y-103388023D02*
X192232605Y-103287054D01*
X192232605Y-103287054D02*
X192098220Y-103198438D01*
X192098220Y-103198438D02*
X191986969Y-103127146D01*
X191986969Y-103127146D02*
X191906639Y-103078150D01*
X191906639Y-103078150D02*
X191865014Y-103056422D01*
X191865014Y-103056422D02*
X191862053Y-103055785D01*
X191862053Y-103055785D02*
X191822818Y-103067240D01*
X191822818Y-103067240D02*
X191743895Y-103098051D01*
X191743895Y-103098051D02*
X191638509Y-103142884D01*
X191638509Y-103142884D02*
X191567954Y-103174353D01*
X191567954Y-103174353D02*
X191432876Y-103233192D01*
X191432876Y-103233192D02*
X191296409Y-103288604D01*
X191296409Y-103288604D02*
X191181103Y-103331564D01*
X191181103Y-103331564D02*
X191145977Y-103343234D01*
X191145977Y-103343234D02*
X191052174Y-103376389D01*
X191052174Y-103376389D02*
X190979694Y-103408799D01*
X190979694Y-103408799D02*
X190952301Y-103426601D01*
X190952301Y-103426601D02*
X190935536Y-103465886D01*
X190935536Y-103465886D02*
X190911770Y-103551626D01*
X190911770Y-103551626D02*
X190883697Y-103672697D01*
X190883697Y-103672697D02*
X190854009Y-103817973D01*
X190854009Y-103817973D02*
X190841806Y-103882988D01*
X190841806Y-103882988D02*
X190811468Y-104048087D01*
X190811468Y-104048087D02*
X190782093Y-104206448D01*
X190782093Y-104206448D02*
X190756569Y-104342596D01*
X190756569Y-104342596D02*
X190737785Y-104441057D01*
X190737785Y-104441057D02*
X190734160Y-104459598D01*
X190734160Y-104459598D02*
X190703906Y-104612873D01*
X190703906Y-104612873D02*
X190065645Y-104612873D01*
X190065645Y-104612873D02*
X189855770Y-104612529D01*
X189855770Y-104612529D02*
X189696980Y-104611116D01*
X189696980Y-104611116D02*
X189581973Y-104608064D01*
X189581973Y-104608064D02*
X189503446Y-104602803D01*
X189503446Y-104602803D02*
X189454096Y-104594763D01*
X189454096Y-104594763D02*
X189426619Y-104583373D01*
X189426619Y-104583373D02*
X189413713Y-104568063D01*
X189413713Y-104568063D02*
X189411320Y-104561782D01*
X189411320Y-104561782D02*
X189402833Y-104523896D01*
X189402833Y-104523896D02*
X189385900Y-104440195D01*
X189385900Y-104440195D02*
X189362566Y-104321433D01*
X189362566Y-104321433D02*
X189334875Y-104178361D01*
X189334875Y-104178361D02*
X189304873Y-104021732D01*
X189304873Y-104021732D02*
X189274604Y-103862297D01*
X189274604Y-103862297D02*
X189246115Y-103710809D01*
X189246115Y-103710809D02*
X189221449Y-103578019D01*
X189221449Y-103578019D02*
X189202651Y-103474681D01*
X189202651Y-103474681D02*
X189191767Y-103411545D01*
X189191767Y-103411545D02*
X189189885Y-103397497D01*
X189189885Y-103397497D02*
X189164704Y-103384770D01*
X189164704Y-103384770D02*
X189097622Y-103356600D01*
X189097622Y-103356600D02*
X189001333Y-103318252D01*
X189001333Y-103318252D02*
X188963621Y-103303609D01*
X188963621Y-103303609D02*
X188817921Y-103244548D01*
X188817921Y-103244548D02*
X188656951Y-103175000D01*
X188656951Y-103175000D02*
X188521291Y-103112712D01*
X188521291Y-103112712D02*
X188417561Y-103066879D01*
X188417561Y-103066879D02*
X188332326Y-103036387D01*
X188332326Y-103036387D02*
X188280126Y-103026208D01*
X188280126Y-103026208D02*
X188273130Y-103027831D01*
X188273130Y-103027831D02*
X188240102Y-103049343D01*
X188240102Y-103049343D02*
X188166643Y-103098465D01*
X188166643Y-103098465D02*
X188060577Y-103169923D01*
X188060577Y-103169923D02*
X187929726Y-103258445D01*
X187929726Y-103258445D02*
X187781912Y-103358759D01*
X187781912Y-103358759D02*
X187752734Y-103378594D01*
X187752734Y-103378594D02*
X187579863Y-103494988D01*
X187579863Y-103494988D02*
X187448226Y-103580548D01*
X187448226Y-103580548D02*
X187351761Y-103638684D01*
X187351761Y-103638684D02*
X187284408Y-103672808D01*
X187284408Y-103672808D02*
X187240106Y-103686331D01*
X187240106Y-103686331D02*
X187212794Y-103682664D01*
X187212794Y-103682664D02*
X187212620Y-103682570D01*
X187212620Y-103682570D02*
X187176746Y-103653707D01*
X187176746Y-103653707D02*
X187107391Y-103589867D01*
X187107391Y-103589867D02*
X187011745Y-103497969D01*
X187011745Y-103497969D02*
X186896999Y-103384933D01*
X186896999Y-103384933D02*
X186770341Y-103257679D01*
X186770341Y-103257679D02*
X186756205Y-103243328D01*
X186756205Y-103243328D02*
X186600903Y-103082957D01*
X186600903Y-103082957D02*
X186486870Y-102959195D01*
X186486870Y-102959195D02*
X186412002Y-102869555D01*
X186412002Y-102869555D02*
X186374196Y-102811552D01*
X186374196Y-102811552D02*
X186369317Y-102786004D01*
X186369317Y-102786004D02*
X186390603Y-102748718D01*
X186390603Y-102748718D02*
X186439773Y-102671343D01*
X186439773Y-102671343D02*
X186511575Y-102561867D01*
X186511575Y-102561867D02*
X186600755Y-102428280D01*
X186600755Y-102428280D02*
X186702063Y-102278570D01*
X186702063Y-102278570D02*
X186725897Y-102243618D01*
X186725897Y-102243618D02*
X187064765Y-101747390D01*
X187064765Y-101747390D02*
X186963056Y-101523293D01*
X186963056Y-101523293D02*
X186903783Y-101387011D01*
X186903783Y-101387011D02*
X186844170Y-101240724D01*
X186844170Y-101240724D02*
X186796640Y-101114965D01*
X186796640Y-101114965D02*
X186794685Y-101109425D01*
X186794685Y-101109425D02*
X186758677Y-101011057D01*
X186758677Y-101011057D02*
X186728229Y-100935229D01*
X186728229Y-100935229D02*
X186709905Y-100898282D01*
X186709905Y-100898282D02*
X186709852Y-100898220D01*
X186709852Y-100898220D02*
X186676729Y-100886496D01*
X186676729Y-100886496D02*
X186595267Y-100866568D01*
X186595267Y-100866568D02*
X186474625Y-100840413D01*
X186474625Y-100840413D02*
X186323959Y-100810010D01*
X186323959Y-100810010D02*
X186152428Y-100777337D01*
X186152428Y-100777337D02*
X186137967Y-100774664D01*
X186137967Y-100774664D02*
X185961235Y-100741890D01*
X185961235Y-100741890D02*
X185800810Y-100711802D01*
X185800810Y-100711802D02*
X185666888Y-100686339D01*
X185666888Y-100686339D02*
X185569663Y-100667441D01*
X185569663Y-100667441D02*
X185519332Y-100657047D01*
X185519332Y-100657047D02*
X185518563Y-100656865D01*
X185518563Y-100656865D02*
X185497153Y-100650539D01*
X185497153Y-100650539D02*
X185480988Y-100638239D01*
X185480988Y-100638239D02*
X185469331Y-100612594D01*
X185469331Y-100612594D02*
X185461445Y-100566235D01*
X185461445Y-100566235D02*
X185456593Y-100491792D01*
X185456593Y-100491792D02*
X185454039Y-100381895D01*
X185454039Y-100381895D02*
X185453045Y-100229175D01*
X185453045Y-100229175D02*
X185452874Y-100026262D01*
X185452874Y-100026262D02*
X185452874Y-100000000D01*
X185452874Y-100000000D02*
X185452998Y-99790986D01*
X185452998Y-99790986D02*
X185452998Y-99790986D01*
G36*
X190734160Y-95540402D02*
G01*
X190750564Y-95625678D01*
X190774509Y-95752930D01*
X190803107Y-95906685D01*
X190833467Y-96071466D01*
X190841806Y-96117011D01*
X190871370Y-96269068D01*
X190900442Y-96401532D01*
X190926329Y-96503286D01*
X190946337Y-96563212D01*
X190952301Y-96573195D01*
X190994534Y-96597707D01*
X191076370Y-96632852D01*
X191181683Y-96671827D01*
X191204368Y-96679558D01*
X191345018Y-96730640D01*
X191503714Y-96794046D01*
X191646225Y-96856096D01*
X191646886Y-96856402D01*
X191870440Y-96959733D01*
X192870232Y-96280039D01*
X193307300Y-96716379D01*
X193437381Y-96848351D01*
X193552048Y-96968721D01*
X193645181Y-97070727D01*
X193710658Y-97147609D01*
X193742357Y-97192607D01*
X193744368Y-97199062D01*
X193728529Y-97236960D01*
X193684496Y-97314292D01*
X193617490Y-97422611D01*
X193532734Y-97553468D01*
X193437816Y-97694948D01*
X193340998Y-97838539D01*
X193256751Y-97966565D01*
X193190258Y-98070895D01*
X193146702Y-98143400D01*
X193131264Y-98175842D01*
X193144328Y-98215424D01*
X193178750Y-98290481D01*
X193227380Y-98385532D01*
X193232785Y-98395608D01*
X193296980Y-98523609D01*
X193328463Y-98611382D01*
X193328798Y-98665972D01*
X193299548Y-98694425D01*
X193299138Y-98694590D01*
X193264498Y-98708812D01*
X193182269Y-98742731D01*
X193058814Y-98793716D01*
X192900498Y-98859138D01*
X192713686Y-98936366D01*
X192504742Y-99022771D01*
X192302446Y-99106449D01*
X192079200Y-99198412D01*
X191872392Y-99282850D01*
X191688362Y-99357231D01*
X191533451Y-99419026D01*
X191413996Y-99465703D01*
X191336339Y-99494732D01*
X191307356Y-99503678D01*
X191274110Y-99481244D01*
X191221123Y-99422561D01*
X191162704Y-99344311D01*
X190977952Y-99121466D01*
X190766182Y-98947282D01*
X190531856Y-98823846D01*
X190279434Y-98753246D01*
X190013377Y-98737569D01*
X189890575Y-98748964D01*
X189635793Y-98811050D01*
X189410801Y-98917977D01*
X189217817Y-99063111D01*
X189059061Y-99239822D01*
X188936750Y-99441478D01*
X188853105Y-99661446D01*
X188810344Y-99893094D01*
X188810687Y-100129791D01*
X188856352Y-100364905D01*
X188949559Y-100591804D01*
X189092527Y-100803856D01*
X189173383Y-100892364D01*
X189381007Y-101062111D01*
X189607895Y-101180301D01*
X189847433Y-101247722D01*
X190093007Y-101265160D01*
X190338003Y-101233402D01*
X190575808Y-101153235D01*
X190799807Y-101025445D01*
X191003387Y-100850820D01*
X191162704Y-100655688D01*
X191223602Y-100574409D01*
X191276015Y-100516991D01*
X191307406Y-100496322D01*
X191341639Y-100507144D01*
X191423419Y-100537923D01*
X191546407Y-100586126D01*
X191704263Y-100649222D01*
X191890649Y-100724678D01*
X192099226Y-100809962D01*
X192302496Y-100893781D01*
X192525933Y-100986255D01*
X192732984Y-101071911D01*
X192917286Y-101148118D01*
X193072475Y-101212247D01*
X193192188Y-101261668D01*
X193270061Y-101293752D01*
X193299138Y-101305641D01*
X193328677Y-101333726D01*
X193328591Y-101388051D01*
X193297326Y-101475605D01*
X193233329Y-101603381D01*
X193232785Y-101604392D01*
X193183121Y-101700598D01*
X193146945Y-101778369D01*
X193131408Y-101822223D01*
X193131264Y-101824158D01*
X193147024Y-101857171D01*
X193190850Y-101930054D01*
X193257557Y-102034678D01*
X193341964Y-102162910D01*
X193437816Y-102305052D01*
X193534867Y-102449767D01*
X193619270Y-102580196D01*
X193685801Y-102687890D01*
X193729238Y-102764402D01*
X193744368Y-102800938D01*
X193724482Y-102834582D01*
X193668903Y-102902224D01*
X193583754Y-102997107D01*
X193475153Y-103112470D01*
X193349221Y-103241555D01*
X193307149Y-103283771D01*
X192869931Y-103720261D01*
X192382340Y-103388023D01*
X192232605Y-103287054D01*
X192098220Y-103198438D01*
X191986969Y-103127146D01*
X191906639Y-103078150D01*
X191865014Y-103056422D01*
X191862053Y-103055785D01*
X191822818Y-103067240D01*
X191743895Y-103098051D01*
X191638509Y-103142884D01*
X191567954Y-103174353D01*
X191432876Y-103233192D01*
X191296409Y-103288604D01*
X191181103Y-103331564D01*
X191145977Y-103343234D01*
X191052174Y-103376389D01*
X190979694Y-103408799D01*
X190952301Y-103426601D01*
X190935536Y-103465886D01*
X190911770Y-103551626D01*
X190883697Y-103672697D01*
X190854009Y-103817973D01*
X190841806Y-103882988D01*
X190811468Y-104048087D01*
X190782093Y-104206448D01*
X190756569Y-104342596D01*
X190737785Y-104441057D01*
X190734160Y-104459598D01*
X190703906Y-104612873D01*
X190065645Y-104612873D01*
X189855770Y-104612529D01*
X189696980Y-104611116D01*
X189581973Y-104608064D01*
X189503446Y-104602803D01*
X189454096Y-104594763D01*
X189426619Y-104583373D01*
X189413713Y-104568063D01*
X189411320Y-104561782D01*
X189402833Y-104523896D01*
X189385900Y-104440195D01*
X189362566Y-104321433D01*
X189334875Y-104178361D01*
X189304873Y-104021732D01*
X189274604Y-103862297D01*
X189246115Y-103710809D01*
X189221449Y-103578019D01*
X189202651Y-103474681D01*
X189191767Y-103411545D01*
X189189885Y-103397497D01*
X189164704Y-103384770D01*
X189097622Y-103356600D01*
X189001333Y-103318252D01*
X188963621Y-103303609D01*
X188817921Y-103244548D01*
X188656951Y-103175000D01*
X188521291Y-103112712D01*
X188417561Y-103066879D01*
X188332326Y-103036387D01*
X188280126Y-103026208D01*
X188273130Y-103027831D01*
X188240102Y-103049343D01*
X188166643Y-103098465D01*
X188060577Y-103169923D01*
X187929726Y-103258445D01*
X187781912Y-103358759D01*
X187752734Y-103378594D01*
X187579863Y-103494988D01*
X187448226Y-103580548D01*
X187351761Y-103638684D01*
X187284408Y-103672808D01*
X187240106Y-103686331D01*
X187212794Y-103682664D01*
X187212620Y-103682570D01*
X187176746Y-103653707D01*
X187107391Y-103589867D01*
X187011745Y-103497969D01*
X186896999Y-103384933D01*
X186770341Y-103257679D01*
X186756205Y-103243328D01*
X186600903Y-103082957D01*
X186486870Y-102959195D01*
X186412002Y-102869555D01*
X186374196Y-102811552D01*
X186369317Y-102786004D01*
X186390603Y-102748718D01*
X186439773Y-102671343D01*
X186511575Y-102561867D01*
X186600755Y-102428280D01*
X186702063Y-102278570D01*
X186725897Y-102243618D01*
X187064765Y-101747390D01*
X186963056Y-101523293D01*
X186903783Y-101387011D01*
X186844170Y-101240724D01*
X186796640Y-101114965D01*
X186794685Y-101109425D01*
X186758677Y-101011057D01*
X186728229Y-100935229D01*
X186709905Y-100898282D01*
X186709852Y-100898220D01*
X186676729Y-100886496D01*
X186595267Y-100866568D01*
X186474625Y-100840413D01*
X186323959Y-100810010D01*
X186152428Y-100777337D01*
X186137967Y-100774664D01*
X185961235Y-100741890D01*
X185800810Y-100711802D01*
X185666888Y-100686339D01*
X185569663Y-100667441D01*
X185519332Y-100657047D01*
X185518563Y-100656865D01*
X185497153Y-100650539D01*
X185480988Y-100638239D01*
X185469331Y-100612594D01*
X185461445Y-100566235D01*
X185456593Y-100491792D01*
X185454039Y-100381895D01*
X185453045Y-100229175D01*
X185452874Y-100026262D01*
X185452874Y-100000000D01*
X185452998Y-99790986D01*
X185453863Y-99632994D01*
X185456205Y-99518653D01*
X185460762Y-99440593D01*
X185468270Y-99391446D01*
X185479466Y-99363841D01*
X185495088Y-99350408D01*
X185515873Y-99343779D01*
X185518563Y-99343135D01*
X185567113Y-99333065D01*
X185662905Y-99314425D01*
X185795743Y-99289155D01*
X185955431Y-99259193D01*
X186131774Y-99226478D01*
X186137967Y-99225336D01*
X186310782Y-99192567D01*
X186463469Y-99161907D01*
X186586871Y-99135336D01*
X186671831Y-99114833D01*
X186709190Y-99102374D01*
X186709852Y-99101780D01*
X186728095Y-99065081D01*
X186758497Y-98989414D01*
X186794493Y-98891122D01*
X186794685Y-98890575D01*
X186841222Y-98766767D01*
X186900504Y-98620804D01*
X186960109Y-98483219D01*
X186963056Y-98476707D01*
X187064765Y-98252610D01*
X186725897Y-97756381D01*
X186622592Y-97604154D01*
X186530237Y-97466259D01*
X186454084Y-97350685D01*
X186399385Y-97265421D01*
X186371393Y-97218456D01*
X186369317Y-97213996D01*
X186378560Y-97179866D01*
X186423156Y-97116119D01*
X186505209Y-97020269D01*
X186626821Y-96889831D01*
X186756205Y-96756672D01*
X186883702Y-96628306D01*
X187000046Y-96513419D01*
X187098052Y-96418927D01*
X187170536Y-96351747D01*
X187210313Y-96318794D01*
X187212361Y-96317568D01*
X187239656Y-96313926D01*
X187284234Y-96327650D01*
X187352112Y-96362131D01*
X187449311Y-96420761D01*
X187581851Y-96506930D01*
X187752476Y-96621800D01*
X187902655Y-96723746D01*
X188037350Y-96814877D01*
X188148740Y-96889927D01*
X188229005Y-96943631D01*
X188270325Y-96970720D01*
X188273130Y-96972426D01*
X188312721Y-96969118D01*
X188389669Y-96944047D01*
X188489432Y-96902202D01*
X188521291Y-96887288D01*
X188663226Y-96822214D01*
X188824273Y-96752788D01*
X188963621Y-96696391D01*
X189067044Y-96655753D01*
X189145642Y-96623474D01*
X189186720Y-96604822D01*
X189189885Y-96602503D01*
X189195128Y-96568197D01*
X189209494Y-96487331D01*
X189230937Y-96370657D01*
X189257413Y-96228925D01*
X189286877Y-96072890D01*
X189317283Y-95913302D01*
X189346588Y-95760915D01*
X189372745Y-95626479D01*
X189393710Y-95520748D01*
X189407439Y-95454474D01*
X189411320Y-95438218D01*
X189420900Y-95421427D01*
X189442536Y-95408751D01*
X189483531Y-95399622D01*
X189551189Y-95393469D01*
X189652812Y-95389720D01*
X189795703Y-95387808D01*
X189987165Y-95387160D01*
X190065645Y-95387126D01*
X190703906Y-95387126D01*
X190734160Y-95540402D01*
G37*
X190734160Y-95540402D02*
X190750564Y-95625678D01*
X190774509Y-95752930D01*
X190803107Y-95906685D01*
X190833467Y-96071466D01*
X190841806Y-96117011D01*
X190871370Y-96269068D01*
X190900442Y-96401532D01*
X190926329Y-96503286D01*
X190946337Y-96563212D01*
X190952301Y-96573195D01*
X190994534Y-96597707D01*
X191076370Y-96632852D01*
X191181683Y-96671827D01*
X191204368Y-96679558D01*
X191345018Y-96730640D01*
X191503714Y-96794046D01*
X191646225Y-96856096D01*
X191646886Y-96856402D01*
X191870440Y-96959733D01*
X192870232Y-96280039D01*
X193307300Y-96716379D01*
X193437381Y-96848351D01*
X193552048Y-96968721D01*
X193645181Y-97070727D01*
X193710658Y-97147609D01*
X193742357Y-97192607D01*
X193744368Y-97199062D01*
X193728529Y-97236960D01*
X193684496Y-97314292D01*
X193617490Y-97422611D01*
X193532734Y-97553468D01*
X193437816Y-97694948D01*
X193340998Y-97838539D01*
X193256751Y-97966565D01*
X193190258Y-98070895D01*
X193146702Y-98143400D01*
X193131264Y-98175842D01*
X193144328Y-98215424D01*
X193178750Y-98290481D01*
X193227380Y-98385532D01*
X193232785Y-98395608D01*
X193296980Y-98523609D01*
X193328463Y-98611382D01*
X193328798Y-98665972D01*
X193299548Y-98694425D01*
X193299138Y-98694590D01*
X193264498Y-98708812D01*
X193182269Y-98742731D01*
X193058814Y-98793716D01*
X192900498Y-98859138D01*
X192713686Y-98936366D01*
X192504742Y-99022771D01*
X192302446Y-99106449D01*
X192079200Y-99198412D01*
X191872392Y-99282850D01*
X191688362Y-99357231D01*
X191533451Y-99419026D01*
X191413996Y-99465703D01*
X191336339Y-99494732D01*
X191307356Y-99503678D01*
X191274110Y-99481244D01*
X191221123Y-99422561D01*
X191162704Y-99344311D01*
X190977952Y-99121466D01*
X190766182Y-98947282D01*
X190531856Y-98823846D01*
X190279434Y-98753246D01*
X190013377Y-98737569D01*
X189890575Y-98748964D01*
X189635793Y-98811050D01*
X189410801Y-98917977D01*
X189217817Y-99063111D01*
X189059061Y-99239822D01*
X188936750Y-99441478D01*
X188853105Y-99661446D01*
X188810344Y-99893094D01*
X188810687Y-100129791D01*
X188856352Y-100364905D01*
X188949559Y-100591804D01*
X189092527Y-100803856D01*
X189173383Y-100892364D01*
X189381007Y-101062111D01*
X189607895Y-101180301D01*
X189847433Y-101247722D01*
X190093007Y-101265160D01*
X190338003Y-101233402D01*
X190575808Y-101153235D01*
X190799807Y-101025445D01*
X191003387Y-100850820D01*
X191162704Y-100655688D01*
X191223602Y-100574409D01*
X191276015Y-100516991D01*
X191307406Y-100496322D01*
X191341639Y-100507144D01*
X191423419Y-100537923D01*
X191546407Y-100586126D01*
X191704263Y-100649222D01*
X191890649Y-100724678D01*
X192099226Y-100809962D01*
X192302496Y-100893781D01*
X192525933Y-100986255D01*
X192732984Y-101071911D01*
X192917286Y-101148118D01*
X193072475Y-101212247D01*
X193192188Y-101261668D01*
X193270061Y-101293752D01*
X193299138Y-101305641D01*
X193328677Y-101333726D01*
X193328591Y-101388051D01*
X193297326Y-101475605D01*
X193233329Y-101603381D01*
X193232785Y-101604392D01*
X193183121Y-101700598D01*
X193146945Y-101778369D01*
X193131408Y-101822223D01*
X193131264Y-101824158D01*
X193147024Y-101857171D01*
X193190850Y-101930054D01*
X193257557Y-102034678D01*
X193341964Y-102162910D01*
X193437816Y-102305052D01*
X193534867Y-102449767D01*
X193619270Y-102580196D01*
X193685801Y-102687890D01*
X193729238Y-102764402D01*
X193744368Y-102800938D01*
X193724482Y-102834582D01*
X193668903Y-102902224D01*
X193583754Y-102997107D01*
X193475153Y-103112470D01*
X193349221Y-103241555D01*
X193307149Y-103283771D01*
X192869931Y-103720261D01*
X192382340Y-103388023D01*
X192232605Y-103287054D01*
X192098220Y-103198438D01*
X191986969Y-103127146D01*
X191906639Y-103078150D01*
X191865014Y-103056422D01*
X191862053Y-103055785D01*
X191822818Y-103067240D01*
X191743895Y-103098051D01*
X191638509Y-103142884D01*
X191567954Y-103174353D01*
X191432876Y-103233192D01*
X191296409Y-103288604D01*
X191181103Y-103331564D01*
X191145977Y-103343234D01*
X191052174Y-103376389D01*
X190979694Y-103408799D01*
X190952301Y-103426601D01*
X190935536Y-103465886D01*
X190911770Y-103551626D01*
X190883697Y-103672697D01*
X190854009Y-103817973D01*
X190841806Y-103882988D01*
X190811468Y-104048087D01*
X190782093Y-104206448D01*
X190756569Y-104342596D01*
X190737785Y-104441057D01*
X190734160Y-104459598D01*
X190703906Y-104612873D01*
X190065645Y-104612873D01*
X189855770Y-104612529D01*
X189696980Y-104611116D01*
X189581973Y-104608064D01*
X189503446Y-104602803D01*
X189454096Y-104594763D01*
X189426619Y-104583373D01*
X189413713Y-104568063D01*
X189411320Y-104561782D01*
X189402833Y-104523896D01*
X189385900Y-104440195D01*
X189362566Y-104321433D01*
X189334875Y-104178361D01*
X189304873Y-104021732D01*
X189274604Y-103862297D01*
X189246115Y-103710809D01*
X189221449Y-103578019D01*
X189202651Y-103474681D01*
X189191767Y-103411545D01*
X189189885Y-103397497D01*
X189164704Y-103384770D01*
X189097622Y-103356600D01*
X189001333Y-103318252D01*
X188963621Y-103303609D01*
X188817921Y-103244548D01*
X188656951Y-103175000D01*
X188521291Y-103112712D01*
X188417561Y-103066879D01*
X188332326Y-103036387D01*
X188280126Y-103026208D01*
X188273130Y-103027831D01*
X188240102Y-103049343D01*
X188166643Y-103098465D01*
X188060577Y-103169923D01*
X187929726Y-103258445D01*
X187781912Y-103358759D01*
X187752734Y-103378594D01*
X187579863Y-103494988D01*
X187448226Y-103580548D01*
X187351761Y-103638684D01*
X187284408Y-103672808D01*
X187240106Y-103686331D01*
X187212794Y-103682664D01*
X187212620Y-103682570D01*
X187176746Y-103653707D01*
X187107391Y-103589867D01*
X187011745Y-103497969D01*
X186896999Y-103384933D01*
X186770341Y-103257679D01*
X186756205Y-103243328D01*
X186600903Y-103082957D01*
X186486870Y-102959195D01*
X186412002Y-102869555D01*
X186374196Y-102811552D01*
X186369317Y-102786004D01*
X186390603Y-102748718D01*
X186439773Y-102671343D01*
X186511575Y-102561867D01*
X186600755Y-102428280D01*
X186702063Y-102278570D01*
X186725897Y-102243618D01*
X187064765Y-101747390D01*
X186963056Y-101523293D01*
X186903783Y-101387011D01*
X186844170Y-101240724D01*
X186796640Y-101114965D01*
X186794685Y-101109425D01*
X186758677Y-101011057D01*
X186728229Y-100935229D01*
X186709905Y-100898282D01*
X186709852Y-100898220D01*
X186676729Y-100886496D01*
X186595267Y-100866568D01*
X186474625Y-100840413D01*
X186323959Y-100810010D01*
X186152428Y-100777337D01*
X186137967Y-100774664D01*
X185961235Y-100741890D01*
X185800810Y-100711802D01*
X185666888Y-100686339D01*
X185569663Y-100667441D01*
X185519332Y-100657047D01*
X185518563Y-100656865D01*
X185497153Y-100650539D01*
X185480988Y-100638239D01*
X185469331Y-100612594D01*
X185461445Y-100566235D01*
X185456593Y-100491792D01*
X185454039Y-100381895D01*
X185453045Y-100229175D01*
X185452874Y-100026262D01*
X185452874Y-100000000D01*
X185452998Y-99790986D01*
X185453863Y-99632994D01*
X185456205Y-99518653D01*
X185460762Y-99440593D01*
X185468270Y-99391446D01*
X185479466Y-99363841D01*
X185495088Y-99350408D01*
X185515873Y-99343779D01*
X185518563Y-99343135D01*
X185567113Y-99333065D01*
X185662905Y-99314425D01*
X185795743Y-99289155D01*
X185955431Y-99259193D01*
X186131774Y-99226478D01*
X186137967Y-99225336D01*
X186310782Y-99192567D01*
X186463469Y-99161907D01*
X186586871Y-99135336D01*
X186671831Y-99114833D01*
X186709190Y-99102374D01*
X186709852Y-99101780D01*
X186728095Y-99065081D01*
X186758497Y-98989414D01*
X186794493Y-98891122D01*
X186794685Y-98890575D01*
X186841222Y-98766767D01*
X186900504Y-98620804D01*
X186960109Y-98483219D01*
X186963056Y-98476707D01*
X187064765Y-98252610D01*
X186725897Y-97756381D01*
X186622592Y-97604154D01*
X186530237Y-97466259D01*
X186454084Y-97350685D01*
X186399385Y-97265421D01*
X186371393Y-97218456D01*
X186369317Y-97213996D01*
X186378560Y-97179866D01*
X186423156Y-97116119D01*
X186505209Y-97020269D01*
X186626821Y-96889831D01*
X186756205Y-96756672D01*
X186883702Y-96628306D01*
X187000046Y-96513419D01*
X187098052Y-96418927D01*
X187170536Y-96351747D01*
X187210313Y-96318794D01*
X187212361Y-96317568D01*
X187239656Y-96313926D01*
X187284234Y-96327650D01*
X187352112Y-96362131D01*
X187449311Y-96420761D01*
X187581851Y-96506930D01*
X187752476Y-96621800D01*
X187902655Y-96723746D01*
X188037350Y-96814877D01*
X188148740Y-96889927D01*
X188229005Y-96943631D01*
X188270325Y-96970720D01*
X188273130Y-96972426D01*
X188312721Y-96969118D01*
X188389669Y-96944047D01*
X188489432Y-96902202D01*
X188521291Y-96887288D01*
X188663226Y-96822214D01*
X188824273Y-96752788D01*
X188963621Y-96696391D01*
X189067044Y-96655753D01*
X189145642Y-96623474D01*
X189186720Y-96604822D01*
X189189885Y-96602503D01*
X189195128Y-96568197D01*
X189209494Y-96487331D01*
X189230937Y-96370657D01*
X189257413Y-96228925D01*
X189286877Y-96072890D01*
X189317283Y-95913302D01*
X189346588Y-95760915D01*
X189372745Y-95626479D01*
X189393710Y-95520748D01*
X189407439Y-95454474D01*
X189411320Y-95438218D01*
X189420900Y-95421427D01*
X189442536Y-95408751D01*
X189483531Y-95399622D01*
X189551189Y-95393469D01*
X189652812Y-95389720D01*
X189795703Y-95387808D01*
X189987165Y-95387160D01*
X190065645Y-95387126D01*
X190703906Y-95387126D01*
X190734160Y-95540402D01*
D11*
X73000000Y-121000000D03*
X73000000Y-125250000D03*
X73000000Y-116750000D03*
X73000000Y-61000000D03*
X73000000Y-65250000D03*
X73000000Y-56750000D03*
X73000000Y-91000000D03*
X73000000Y-86750000D03*
X73000000Y-95250000D03*
D12*
X77000000Y-61000000D03*
X77000000Y-91000000D03*
X77000000Y-121000000D03*
X96688709Y-89700000D03*
X90630645Y-119700000D03*
X130008064Y-62300000D03*
X157269354Y-122300000D03*
X191670249Y-56446289D03*
X137580645Y-122300000D03*
X137580645Y-62300000D03*
X160298387Y-119700000D03*
X122435483Y-92300000D03*
X90630645Y-59700000D03*
X143638709Y-119700000D03*
X139095161Y-59700000D03*
X146667741Y-92300000D03*
X171006637Y-88825195D03*
X134551612Y-89700000D03*
X176174805Y-88006637D03*
X130008064Y-89700000D03*
X151211290Y-122300000D03*
X149696774Y-89700000D03*
X128493548Y-122300000D03*
X173089188Y-66903171D03*
X155754838Y-89700000D03*
X171773265Y-64108681D03*
X120920967Y-119700000D03*
X191185608Y-55534234D03*
X83058064Y-119700000D03*
X128493548Y-89700000D03*
X173632158Y-54349495D03*
X170900000Y-59700000D03*
X166356451Y-122300000D03*
X154240322Y-92300000D03*
X92145161Y-62300000D03*
X158783870Y-119700000D03*
X178263267Y-54420728D03*
X143638709Y-59700000D03*
X161812903Y-59700000D03*
X123950000Y-122300000D03*
X108804838Y-59700000D03*
X120920967Y-59700000D03*
X185364909Y-54223025D03*
X149696774Y-92300000D03*
X176174805Y-93993363D03*
X151211290Y-59700000D03*
X133037096Y-62300000D03*
X123950000Y-119700000D03*
X105775806Y-89700000D03*
X183366571Y-53558059D03*
X171520977Y-63107147D03*
X78514516Y-92300000D03*
X98203225Y-59700000D03*
X166356451Y-119700000D03*
X113348387Y-119700000D03*
X98203225Y-62300000D03*
X175143363Y-94518909D03*
X177681288Y-51222540D03*
X169385483Y-119700000D03*
X192100839Y-64496148D03*
X134551612Y-122300000D03*
X184287169Y-68212410D03*
X152725806Y-62300000D03*
X110319354Y-62300000D03*
X158783870Y-59700000D03*
X146667741Y-122300000D03*
X190036762Y-68047018D03*
X93659677Y-119700000D03*
X178645110Y-50851369D03*
X188388121Y-65054863D03*
X173029356Y-55188155D03*
X182719783Y-50335483D03*
X113348387Y-59700000D03*
X188446365Y-52473900D03*
X114862903Y-62300000D03*
X95174193Y-92300000D03*
X123950000Y-92300000D03*
X149696774Y-119700000D03*
X101232258Y-89700000D03*
X155754838Y-62300000D03*
X87601612Y-92300000D03*
X145153225Y-92300000D03*
X185739201Y-50986590D03*
X142124193Y-122300000D03*
X90630645Y-92300000D03*
X133037096Y-122300000D03*
X89116129Y-122300000D03*
X167870967Y-122300000D03*
X164841935Y-122300000D03*
X89116129Y-92300000D03*
X182210558Y-68563443D03*
X110319354Y-92300000D03*
X136066129Y-62300000D03*
X169385483Y-122300000D03*
X191240958Y-66371656D03*
X114862903Y-89700000D03*
X89116129Y-119700000D03*
X142124193Y-92300000D03*
X113348387Y-62300000D03*
X107290322Y-92300000D03*
X87601612Y-62300000D03*
X185841287Y-70974694D03*
X187102546Y-55413048D03*
X98203225Y-89700000D03*
X151211290Y-92300000D03*
X119406451Y-92300000D03*
X126979032Y-119700000D03*
X152725806Y-122300000D03*
X119406451Y-122300000D03*
X175149238Y-69204698D03*
X176993363Y-93174805D03*
X95174193Y-89700000D03*
X105775806Y-92300000D03*
X187593384Y-51891539D03*
X167870967Y-119700000D03*
X96688709Y-59700000D03*
X152725806Y-59700000D03*
X131522580Y-62300000D03*
X137580645Y-119700000D03*
X187022984Y-66658589D03*
X187686129Y-70050853D03*
X125464516Y-89700000D03*
X99717741Y-122300000D03*
X143638709Y-89700000D03*
X80029032Y-59700000D03*
X172510310Y-56081079D03*
X139095161Y-122300000D03*
X181796297Y-71686838D03*
X161812903Y-119700000D03*
X192064601Y-57400861D03*
X87601612Y-122300000D03*
X107290322Y-119700000D03*
X116377419Y-92300000D03*
X158783870Y-122300000D03*
X174389352Y-68505201D03*
X78514516Y-119700000D03*
X163327419Y-122300000D03*
X157269354Y-119700000D03*
X167870967Y-92300000D03*
X95174193Y-122300000D03*
X174313089Y-53572928D03*
X174000000Y-94700000D03*
X190679379Y-67238460D03*
X126979032Y-122300000D03*
X99717741Y-92300000D03*
X119406451Y-59700000D03*
X104261290Y-119700000D03*
X146667741Y-89700000D03*
X152725806Y-119700000D03*
X108804838Y-62300000D03*
X166356451Y-89700000D03*
X84572580Y-122300000D03*
X102746774Y-122300000D03*
X142124193Y-59700000D03*
X104261290Y-59700000D03*
X192364983Y-58389037D03*
X189964362Y-53871259D03*
X125464516Y-119700000D03*
X174610285Y-59374542D03*
X130008064Y-59700000D03*
X152725806Y-92300000D03*
X173117446Y-62486562D03*
X90630645Y-62300000D03*
X174871805Y-63537485D03*
X161812903Y-92300000D03*
X178748947Y-71182370D03*
X101232258Y-62300000D03*
X140609677Y-122300000D03*
X80029032Y-62300000D03*
X110319354Y-89700000D03*
X157269354Y-59700000D03*
X95174193Y-119700000D03*
X92145161Y-119700000D03*
X78514516Y-62300000D03*
X81543548Y-122300000D03*
X122435483Y-119700000D03*
X105775806Y-119700000D03*
X184755312Y-50672452D03*
X170481091Y-92143363D03*
X166356451Y-59700000D03*
X86087096Y-92300000D03*
X186275335Y-54757283D03*
X80029032Y-122300000D03*
X176993363Y-88825195D03*
X84572580Y-89700000D03*
X107290322Y-89700000D03*
X95174193Y-59700000D03*
X160298387Y-92300000D03*
X120920967Y-122300000D03*
X92145161Y-92300000D03*
X140609677Y-62300000D03*
X117891935Y-89700000D03*
X167870967Y-59700000D03*
X174588026Y-62520738D03*
X172856637Y-94518909D03*
X131522580Y-59700000D03*
X181687148Y-50315800D03*
X107290322Y-122300000D03*
X188533118Y-69459809D03*
X192584365Y-62490374D03*
X154240322Y-62300000D03*
X134551612Y-62300000D03*
X151211290Y-119700000D03*
X111833870Y-92300000D03*
X107290322Y-59700000D03*
X96688709Y-119700000D03*
X114862903Y-59700000D03*
X116377419Y-62300000D03*
X84572580Y-59700000D03*
X154240322Y-122300000D03*
X139095161Y-89700000D03*
X174000000Y-87300000D03*
X175294325Y-64504844D03*
X181155882Y-68519140D03*
X81543548Y-62300000D03*
X96688709Y-92300000D03*
X78514516Y-59700000D03*
X101232258Y-122300000D03*
X116377419Y-119700000D03*
X170900000Y-62300000D03*
X172850000Y-92991858D03*
X125464516Y-59700000D03*
X83058064Y-62300000D03*
X140609677Y-89700000D03*
X163327419Y-62300000D03*
X170481091Y-89856637D03*
X171000000Y-122000000D03*
X180657435Y-50395873D03*
X169385483Y-89700000D03*
X175065790Y-52865707D03*
X86087096Y-59700000D03*
X111833870Y-89700000D03*
X113348387Y-89700000D03*
X184388990Y-53820674D03*
X176757788Y-51685001D03*
X172856637Y-87481091D03*
X172008142Y-92150000D03*
X81543548Y-89700000D03*
X134551612Y-119700000D03*
X84572580Y-92300000D03*
X140609677Y-92300000D03*
X126979032Y-62300000D03*
X83058064Y-122300000D03*
X189485100Y-62106018D03*
X101232258Y-59700000D03*
X105775806Y-122300000D03*
X187830441Y-56177557D03*
X183853319Y-71526880D03*
X188444854Y-57035930D03*
X84572580Y-119700000D03*
X128493548Y-62300000D03*
X81543548Y-59700000D03*
X179116025Y-67995191D03*
X133037096Y-119700000D03*
X172850000Y-89008142D03*
X86087096Y-89700000D03*
X110319354Y-122300000D03*
X189319108Y-68789779D03*
X175143363Y-87481091D03*
X113348387Y-122300000D03*
X116377419Y-122300000D03*
X130008064Y-119700000D03*
X155754838Y-59700000D03*
X158783870Y-62300000D03*
X95174193Y-62300000D03*
X134551612Y-92300000D03*
X98203225Y-122300000D03*
X136066129Y-119700000D03*
X137580645Y-89700000D03*
X111833870Y-62300000D03*
X167870967Y-62300000D03*
X148182258Y-62300000D03*
X86087096Y-119700000D03*
X184860657Y-71298866D03*
X93659677Y-62300000D03*
X189239158Y-53135867D03*
X140609677Y-119700000D03*
X154240322Y-59700000D03*
X164841935Y-62300000D03*
X169385483Y-92300000D03*
X164841935Y-92300000D03*
X149696774Y-62300000D03*
X99717741Y-89700000D03*
X158783870Y-89700000D03*
X177299610Y-66929278D03*
X117891935Y-92300000D03*
X105775806Y-59700000D03*
X130008064Y-92300000D03*
X169385483Y-62300000D03*
X177518909Y-92143363D03*
X187761624Y-65904456D03*
X176853209Y-70368059D03*
X131522580Y-119700000D03*
X86087096Y-62300000D03*
X83058064Y-59700000D03*
X104261290Y-92300000D03*
X111833870Y-122300000D03*
X176594528Y-55705581D03*
X177383975Y-55004809D03*
X125464516Y-122300000D03*
X105775806Y-62300000D03*
X171742046Y-57995941D03*
X175344587Y-57400628D03*
X176520158Y-66217406D03*
X114862903Y-122300000D03*
X182317554Y-53440294D03*
X126979032Y-92300000D03*
X136066129Y-122300000D03*
X87601612Y-119700000D03*
X90630645Y-122300000D03*
X164841935Y-59700000D03*
X101232258Y-119700000D03*
X110319354Y-59700000D03*
X128493548Y-92300000D03*
X128493548Y-59700000D03*
X183745697Y-50454738D03*
X174000000Y-88700000D03*
X102746774Y-59700000D03*
X149696774Y-59700000D03*
X78514516Y-122300000D03*
X148182258Y-92300000D03*
X151211290Y-89700000D03*
X83058064Y-92300000D03*
X175991858Y-92150000D03*
X169385483Y-59700000D03*
X93659677Y-89700000D03*
X152725806Y-89700000D03*
X157269354Y-62300000D03*
X90630645Y-89700000D03*
X136066129Y-89700000D03*
X140609677Y-59700000D03*
X171700000Y-91000000D03*
X171825195Y-88006637D03*
X192568590Y-59401591D03*
X151211290Y-62300000D03*
X161812903Y-62300000D03*
X136066129Y-59700000D03*
X92145161Y-89700000D03*
X93659677Y-92300000D03*
X175991858Y-89850000D03*
X154240322Y-89700000D03*
X104261290Y-122300000D03*
X130008064Y-122300000D03*
X99717741Y-59700000D03*
X126979032Y-59700000D03*
X119406451Y-89700000D03*
X178170550Y-67525742D03*
X143638709Y-122300000D03*
X188890280Y-64126346D03*
X116377419Y-59700000D03*
X179746865Y-71448607D03*
X172121039Y-65081191D03*
X172561049Y-66015596D03*
X172008142Y-89850000D03*
X175910293Y-56509402D03*
X145153225Y-59700000D03*
X87601612Y-59700000D03*
X166356451Y-62300000D03*
X101232258Y-92300000D03*
X161812903Y-89700000D03*
X102746774Y-62300000D03*
X143638709Y-92300000D03*
X107290322Y-62300000D03*
X143638709Y-62300000D03*
X81543548Y-119700000D03*
X148182258Y-59700000D03*
X116377419Y-89700000D03*
X175973087Y-69827589D03*
X164841935Y-119700000D03*
X145153225Y-62300000D03*
X139095161Y-119700000D03*
X89116129Y-59700000D03*
X120920967Y-89700000D03*
X173700525Y-67735631D03*
X175150000Y-92991858D03*
X177781384Y-70821063D03*
X111833870Y-59700000D03*
X186688179Y-51394221D03*
X160298387Y-59700000D03*
X131522580Y-92300000D03*
X139095161Y-62300000D03*
X134551612Y-59700000D03*
X191716258Y-65454698D03*
X146667741Y-62300000D03*
X175883234Y-52234433D03*
X125464516Y-92300000D03*
X117891935Y-59700000D03*
X171006637Y-93174805D03*
X114862903Y-92300000D03*
X160298387Y-62300000D03*
X123950000Y-89700000D03*
X171500000Y-59000000D03*
X146667741Y-119700000D03*
X185268684Y-67823907D03*
X160298387Y-122300000D03*
X157269354Y-92300000D03*
X163327419Y-59700000D03*
X145153225Y-119700000D03*
X113348387Y-92300000D03*
X163327419Y-92300000D03*
X137580645Y-59700000D03*
X174908421Y-58361911D03*
X122435483Y-122300000D03*
X133037096Y-59700000D03*
X155754838Y-122300000D03*
X131522580Y-122300000D03*
X179640256Y-50574953D03*
X186186578Y-67302584D03*
X131522580Y-89700000D03*
X125464516Y-62300000D03*
X179215290Y-53964704D03*
X188933825Y-57971458D03*
X122435483Y-59700000D03*
X117891935Y-122300000D03*
X98203225Y-119700000D03*
X93659677Y-59700000D03*
X174448513Y-61474390D03*
X126979032Y-89700000D03*
X102746774Y-119700000D03*
X158783870Y-92300000D03*
X119406451Y-119700000D03*
X123950000Y-59700000D03*
X81543548Y-92300000D03*
X189287837Y-58965934D03*
X171825195Y-93993363D03*
X104261290Y-89700000D03*
X174455981Y-60418810D03*
X145153225Y-89700000D03*
X80029032Y-92300000D03*
X148182258Y-122300000D03*
X174000000Y-93300000D03*
X111833870Y-119700000D03*
X163327419Y-89700000D03*
X108804838Y-119700000D03*
X182828676Y-71656608D03*
X80029032Y-119700000D03*
X146667741Y-59700000D03*
X189258328Y-63136979D03*
X139095161Y-92300000D03*
X128493548Y-119700000D03*
X93659677Y-122300000D03*
X78514516Y-89700000D03*
X102746774Y-89700000D03*
X84572580Y-62300000D03*
X108804838Y-92300000D03*
X117891935Y-62300000D03*
X145153225Y-122300000D03*
X92145161Y-59700000D03*
X96688709Y-122300000D03*
X180117634Y-68328486D03*
X192391112Y-63504955D03*
X183261137Y-68460532D03*
X149696774Y-122300000D03*
X154240322Y-119700000D03*
X99717741Y-119700000D03*
X181262355Y-53469669D03*
X177518909Y-89856637D03*
X190615204Y-54673211D03*
X164841935Y-89700000D03*
X157269354Y-89700000D03*
X163327419Y-119700000D03*
X167870967Y-89700000D03*
X186786051Y-70557391D03*
X123950000Y-62300000D03*
X180765819Y-71617288D03*
X119406451Y-62300000D03*
X92145161Y-122300000D03*
X98203225Y-92300000D03*
X80029032Y-89700000D03*
X110319354Y-119700000D03*
X171000000Y-120000000D03*
X161812903Y-122300000D03*
X155754838Y-119700000D03*
X142124193Y-119700000D03*
X102746774Y-92300000D03*
X133037096Y-92300000D03*
X142124193Y-62300000D03*
X89116129Y-89700000D03*
X83058064Y-89700000D03*
X122435483Y-62300000D03*
X108804838Y-122300000D03*
X166356451Y-92300000D03*
X133037096Y-89700000D03*
X114862903Y-119700000D03*
X117891935Y-119700000D03*
X137580645Y-92300000D03*
X120920967Y-92300000D03*
X180221515Y-53645614D03*
X189500000Y-60000000D03*
X171156594Y-91966443D03*
X155754838Y-92300000D03*
X172079867Y-57019929D03*
X87601612Y-89700000D03*
X136066129Y-92300000D03*
X99717741Y-62300000D03*
X104261290Y-62300000D03*
X148182258Y-89700000D03*
X96688709Y-62300000D03*
X142124193Y-89700000D03*
X89116129Y-62300000D03*
X148182258Y-119700000D03*
X86087096Y-122300000D03*
X122435483Y-89700000D03*
X175150000Y-89008142D03*
X175847365Y-65403984D03*
X120920967Y-62300000D03*
X160298387Y-89700000D03*
X108804838Y-89700000D03*
D13*
X73000000Y-91000000D02*
X77000000Y-91000000D01*
X73000000Y-61000000D02*
X77000000Y-61000000D01*
X73000000Y-121000000D02*
X77000000Y-121000000D01*
G04 #@! TA.AperFunction,Conductor*
G36*
X73810365Y-85231756D02*
G01*
X73826240Y-85244419D01*
X73864607Y-85280448D01*
X73871551Y-85284265D01*
X73871553Y-85284267D01*
X73912224Y-85306626D01*
X74008632Y-85359627D01*
X74016304Y-85361597D01*
X74016307Y-85361598D01*
X74160145Y-85398529D01*
X74160148Y-85398529D01*
X74167823Y-85400500D01*
X74290925Y-85400500D01*
X74348690Y-85393203D01*
X74405193Y-85386065D01*
X74405196Y-85386064D01*
X74413058Y-85385071D01*
X74420425Y-85382154D01*
X74420426Y-85382154D01*
X74542801Y-85333702D01*
X74565871Y-85324568D01*
X74569908Y-85321635D01*
X74637964Y-85306626D01*
X74690037Y-85321916D01*
X74751684Y-85355807D01*
X74758632Y-85359627D01*
X74766307Y-85361598D01*
X74766308Y-85361598D01*
X74910145Y-85398529D01*
X74910148Y-85398529D01*
X74917823Y-85400500D01*
X75040925Y-85400500D01*
X75098690Y-85393203D01*
X75155193Y-85386065D01*
X75155196Y-85386064D01*
X75163058Y-85385071D01*
X75170425Y-85382154D01*
X75170426Y-85382154D01*
X75292801Y-85333702D01*
X75315871Y-85324568D01*
X75319908Y-85321635D01*
X75387964Y-85306626D01*
X75440037Y-85321916D01*
X75501684Y-85355807D01*
X75508632Y-85359627D01*
X75516307Y-85361598D01*
X75516308Y-85361598D01*
X75660145Y-85398529D01*
X75660148Y-85398529D01*
X75667823Y-85400500D01*
X75790925Y-85400500D01*
X75848690Y-85393203D01*
X75905193Y-85386065D01*
X75905196Y-85386064D01*
X75913058Y-85385071D01*
X75920425Y-85382154D01*
X75920426Y-85382154D01*
X75977322Y-85359627D01*
X76065871Y-85324568D01*
X76188185Y-85235702D01*
X76255053Y-85211843D01*
X76328081Y-85230206D01*
X76358225Y-85248679D01*
X76358231Y-85248682D01*
X76362448Y-85251266D01*
X76492975Y-85305332D01*
X76533012Y-85321916D01*
X76566038Y-85335596D01*
X76640070Y-85353369D01*
X76775502Y-85385884D01*
X76775508Y-85385885D01*
X76780315Y-85387039D01*
X76926306Y-85398529D01*
X76986823Y-85403292D01*
X76988031Y-85403435D01*
X76988641Y-85403435D01*
X76991754Y-85403680D01*
X77000000Y-85404986D01*
X77021689Y-85401551D01*
X77041398Y-85400000D01*
X78782125Y-85400000D01*
X78850246Y-85420002D01*
X78871220Y-85436905D01*
X81172358Y-87738043D01*
X81172359Y-87738045D01*
X81261955Y-87827641D01*
X81281522Y-87837611D01*
X81298380Y-87847943D01*
X81316140Y-87860846D01*
X81337026Y-87867632D01*
X81355293Y-87875199D01*
X81366014Y-87880662D01*
X81366016Y-87880663D01*
X81374852Y-87885165D01*
X81384645Y-87886716D01*
X81384648Y-87886717D01*
X81394064Y-87888208D01*
X81396543Y-87888600D01*
X81415753Y-87893212D01*
X81436646Y-87900000D01*
X162958602Y-87900000D01*
X162978311Y-87901551D01*
X163000000Y-87904986D01*
X163008246Y-87903680D01*
X163011359Y-87903435D01*
X163011969Y-87903435D01*
X163013177Y-87903292D01*
X163073694Y-87898529D01*
X163219685Y-87887039D01*
X163224492Y-87885885D01*
X163224498Y-87885884D01*
X163366617Y-87851764D01*
X163433962Y-87835596D01*
X163442299Y-87832143D01*
X163546889Y-87788820D01*
X163637552Y-87751266D01*
X163674155Y-87728836D01*
X163742689Y-87710299D01*
X163810365Y-87731756D01*
X163826240Y-87744419D01*
X163864607Y-87780448D01*
X163871551Y-87784265D01*
X163871553Y-87784267D01*
X163937697Y-87820630D01*
X164008632Y-87859627D01*
X164016304Y-87861597D01*
X164016307Y-87861598D01*
X164160145Y-87898529D01*
X164160148Y-87898529D01*
X164167823Y-87900500D01*
X164290925Y-87900500D01*
X164353761Y-87892562D01*
X164405193Y-87886065D01*
X164405196Y-87886064D01*
X164413058Y-87885071D01*
X164420425Y-87882154D01*
X164420426Y-87882154D01*
X164503885Y-87849110D01*
X164565871Y-87824568D01*
X164569908Y-87821635D01*
X164637964Y-87806626D01*
X164690037Y-87821916D01*
X164751684Y-87855807D01*
X164758632Y-87859627D01*
X164766307Y-87861598D01*
X164766308Y-87861598D01*
X164910145Y-87898529D01*
X164910148Y-87898529D01*
X164917823Y-87900500D01*
X165040925Y-87900500D01*
X165103761Y-87892562D01*
X165155193Y-87886065D01*
X165155196Y-87886064D01*
X165163058Y-87885071D01*
X165170425Y-87882154D01*
X165170426Y-87882154D01*
X165253885Y-87849110D01*
X165315871Y-87824568D01*
X165319908Y-87821635D01*
X165387964Y-87806626D01*
X165440037Y-87821916D01*
X165501684Y-87855807D01*
X165508632Y-87859627D01*
X165516307Y-87861598D01*
X165516308Y-87861598D01*
X165660145Y-87898529D01*
X165660148Y-87898529D01*
X165667823Y-87900500D01*
X165790925Y-87900500D01*
X165853761Y-87892562D01*
X165905193Y-87886065D01*
X165905196Y-87886064D01*
X165913058Y-87885071D01*
X165920425Y-87882154D01*
X165920426Y-87882154D01*
X165977322Y-87859627D01*
X166065871Y-87824568D01*
X166101520Y-87798668D01*
X166160055Y-87756140D01*
X166188185Y-87735702D01*
X166255053Y-87711843D01*
X166328081Y-87730206D01*
X166358225Y-87748679D01*
X166358231Y-87748682D01*
X166362448Y-87751266D01*
X166453111Y-87788820D01*
X166557702Y-87832143D01*
X166566038Y-87835596D01*
X166633383Y-87851764D01*
X166775502Y-87885884D01*
X166775508Y-87885885D01*
X166780315Y-87887039D01*
X166926306Y-87898529D01*
X166986823Y-87903292D01*
X166988031Y-87903435D01*
X166988641Y-87903435D01*
X166991754Y-87903680D01*
X167000000Y-87904986D01*
X167021689Y-87901551D01*
X167041398Y-87900000D01*
X170979795Y-87900000D01*
X170989459Y-87900371D01*
X171022603Y-87902921D01*
X171022606Y-87902921D01*
X171032489Y-87903681D01*
X171042127Y-87901349D01*
X171042130Y-87901349D01*
X171073526Y-87893753D01*
X171083441Y-87891771D01*
X171110867Y-87887427D01*
X171115356Y-87886716D01*
X171125148Y-87885165D01*
X171133981Y-87880665D01*
X171140073Y-87878685D01*
X171146004Y-87876216D01*
X171155643Y-87873884D01*
X171164088Y-87868688D01*
X171164091Y-87868687D01*
X171191596Y-87851764D01*
X171200420Y-87846812D01*
X171229211Y-87832143D01*
X171229215Y-87832140D01*
X171238045Y-87827641D01*
X171245055Y-87820631D01*
X171250237Y-87816866D01*
X171255116Y-87812684D01*
X171263561Y-87807488D01*
X171271067Y-87798668D01*
X171289657Y-87780878D01*
X171297184Y-87775023D01*
X171571052Y-87561972D01*
X171580831Y-87555084D01*
X171908040Y-87347121D01*
X171918429Y-87341191D01*
X172263884Y-87165196D01*
X172274789Y-87160278D01*
X172440003Y-87095014D01*
X172635377Y-87017836D01*
X172646688Y-87013978D01*
X172798864Y-86970016D01*
X173019162Y-86906374D01*
X173030799Y-86903603D01*
X173411804Y-86831805D01*
X173423651Y-86830151D01*
X173736305Y-86801531D01*
X173809729Y-86794810D01*
X173821676Y-86794286D01*
X174012622Y-86794992D01*
X174209380Y-86795719D01*
X174221326Y-86796331D01*
X174607139Y-86834522D01*
X174618974Y-86836264D01*
X174999435Y-86910874D01*
X175011051Y-86913731D01*
X175235719Y-86980437D01*
X175382711Y-87024080D01*
X175393992Y-87028021D01*
X175753541Y-87173132D01*
X175764393Y-87178123D01*
X175930060Y-87264071D01*
X176108535Y-87356664D01*
X176118879Y-87362670D01*
X176444547Y-87573046D01*
X176454273Y-87580004D01*
X176758529Y-87820323D01*
X176767543Y-87828167D01*
X176842981Y-87900371D01*
X177047621Y-88096240D01*
X177055861Y-88104912D01*
X177309265Y-88398349D01*
X177316645Y-88407764D01*
X177541072Y-88723900D01*
X177547526Y-88733972D01*
X177740967Y-89069977D01*
X177746436Y-89080616D01*
X177907136Y-89433439D01*
X177911572Y-89444549D01*
X178038086Y-89811018D01*
X178041449Y-89822498D01*
X178052668Y-89868855D01*
X178127573Y-90178371D01*
X178132643Y-90199322D01*
X178134901Y-90211064D01*
X178136344Y-90221124D01*
X178155705Y-90356111D01*
X178145577Y-90426382D01*
X178099065Y-90480021D01*
X178030981Y-90500000D01*
X175838409Y-90500000D01*
X175770288Y-90479998D01*
X175723795Y-90426342D01*
X175720976Y-90419667D01*
X175643767Y-90221124D01*
X175643766Y-90221122D01*
X175642074Y-90216771D01*
X175616955Y-90172821D01*
X175510588Y-89986717D01*
X175510586Y-89986715D01*
X175508269Y-89982660D01*
X175341329Y-89770898D01*
X175144923Y-89586138D01*
X174987524Y-89476946D01*
X174927207Y-89435102D01*
X174927204Y-89435100D01*
X174923365Y-89432437D01*
X174919172Y-89430369D01*
X174685710Y-89315238D01*
X174685707Y-89315237D01*
X174681522Y-89313173D01*
X174627596Y-89295911D01*
X174429152Y-89232389D01*
X174429154Y-89232389D01*
X174424707Y-89230966D01*
X174279210Y-89207271D01*
X174163175Y-89188373D01*
X174163174Y-89188373D01*
X174158563Y-89187622D01*
X174023749Y-89185857D01*
X173893611Y-89184153D01*
X173893608Y-89184153D01*
X173888934Y-89184092D01*
X173621746Y-89220455D01*
X173362867Y-89295911D01*
X173358614Y-89297871D01*
X173358613Y-89297872D01*
X173325423Y-89313173D01*
X173117985Y-89408803D01*
X173072101Y-89438886D01*
X172896393Y-89554085D01*
X172896388Y-89554089D01*
X172892480Y-89556651D01*
X172691304Y-89736207D01*
X172518879Y-89943527D01*
X172378991Y-90174055D01*
X172377182Y-90178369D01*
X172377181Y-90178371D01*
X172288558Y-90389714D01*
X172274714Y-90422727D01*
X172208338Y-90684082D01*
X172181322Y-90952376D01*
X172182929Y-90985839D01*
X172194260Y-91221717D01*
X172246866Y-91486187D01*
X172337986Y-91739976D01*
X172465617Y-91977510D01*
X172468412Y-91981254D01*
X172468414Y-91981256D01*
X172555888Y-92098398D01*
X172626956Y-92193569D01*
X172630263Y-92196847D01*
X172630268Y-92196853D01*
X172734967Y-92300641D01*
X172818459Y-92383407D01*
X172822226Y-92386169D01*
X172822227Y-92386170D01*
X172939072Y-92471845D01*
X173035917Y-92542855D01*
X173040048Y-92545029D01*
X173040049Y-92545029D01*
X173270420Y-92666233D01*
X173270426Y-92666235D01*
X173274555Y-92668408D01*
X173278963Y-92669947D01*
X173278969Y-92669950D01*
X173524714Y-92755768D01*
X173529130Y-92757310D01*
X173533723Y-92758182D01*
X173789460Y-92806735D01*
X173789463Y-92806735D01*
X173794049Y-92807606D01*
X173928771Y-92812900D01*
X174058825Y-92818010D01*
X174058831Y-92818010D01*
X174063493Y-92818193D01*
X174146763Y-92809074D01*
X174326888Y-92789347D01*
X174326893Y-92789346D01*
X174331541Y-92788837D01*
X174336065Y-92787646D01*
X174587783Y-92721374D01*
X174587785Y-92721373D01*
X174592306Y-92720183D01*
X174840060Y-92613740D01*
X174844031Y-92611283D01*
X174844038Y-92611279D01*
X175065375Y-92474310D01*
X175065377Y-92474308D01*
X175069358Y-92471845D01*
X175173826Y-92383407D01*
X175271593Y-92300641D01*
X175271594Y-92300640D01*
X175275165Y-92297617D01*
X175369693Y-92189829D01*
X175449876Y-92098398D01*
X175449879Y-92098393D01*
X175452958Y-92094883D01*
X175463786Y-92078050D01*
X175559408Y-91929388D01*
X175598833Y-91868095D01*
X175709584Y-91622238D01*
X175710852Y-91617743D01*
X175710855Y-91617734D01*
X175718170Y-91591797D01*
X175755912Y-91531664D01*
X175820174Y-91501482D01*
X175839439Y-91500000D01*
X178030981Y-91500000D01*
X178099102Y-91520002D01*
X178145595Y-91573658D01*
X178155705Y-91643889D01*
X178134902Y-91788930D01*
X178132645Y-91800669D01*
X178089848Y-91977510D01*
X178041449Y-92177502D01*
X178038086Y-92188982D01*
X177911572Y-92555451D01*
X177907136Y-92566561D01*
X177746436Y-92919384D01*
X177740967Y-92930023D01*
X177547526Y-93266028D01*
X177541072Y-93276100D01*
X177316645Y-93592236D01*
X177309265Y-93601651D01*
X177055861Y-93895088D01*
X177047621Y-93903760D01*
X176915444Y-94030272D01*
X176771696Y-94167859D01*
X176767548Y-94171829D01*
X176758529Y-94179677D01*
X176619233Y-94289701D01*
X176454277Y-94419993D01*
X176444547Y-94426954D01*
X176118879Y-94637330D01*
X176108535Y-94643336D01*
X175930060Y-94735929D01*
X175764393Y-94821877D01*
X175753541Y-94826868D01*
X175393992Y-94971979D01*
X175382711Y-94975920D01*
X175301608Y-95000000D01*
X175011051Y-95086269D01*
X174999435Y-95089126D01*
X174618974Y-95163736D01*
X174607139Y-95165478D01*
X174221326Y-95203669D01*
X174209380Y-95204281D01*
X174012622Y-95205008D01*
X173821676Y-95205714D01*
X173809729Y-95205190D01*
X173736305Y-95198469D01*
X173423651Y-95169849D01*
X173411804Y-95168195D01*
X173030799Y-95096397D01*
X173019162Y-95093626D01*
X172798864Y-95029984D01*
X172646688Y-94986022D01*
X172635377Y-94982164D01*
X172274789Y-94839722D01*
X172263884Y-94834804D01*
X171918429Y-94658809D01*
X171908040Y-94652879D01*
X171580831Y-94444916D01*
X171571051Y-94438027D01*
X171354794Y-94269794D01*
X171289656Y-94219121D01*
X171271067Y-94201332D01*
X171269987Y-94200063D01*
X171263561Y-94192512D01*
X171255116Y-94187316D01*
X171250237Y-94183134D01*
X171245055Y-94179369D01*
X171238045Y-94172359D01*
X171229215Y-94167860D01*
X171229211Y-94167857D01*
X171200420Y-94153188D01*
X171191596Y-94148236D01*
X171164091Y-94131313D01*
X171164088Y-94131312D01*
X171155643Y-94126116D01*
X171146004Y-94123784D01*
X171140073Y-94121315D01*
X171133981Y-94119335D01*
X171125148Y-94114835D01*
X171115350Y-94113283D01*
X171103461Y-94111400D01*
X171083441Y-94108229D01*
X171073526Y-94106247D01*
X171042130Y-94098651D01*
X171042127Y-94098651D01*
X171032489Y-94096319D01*
X171022606Y-94097079D01*
X171022603Y-94097079D01*
X170989459Y-94099629D01*
X170979795Y-94100000D01*
X167041398Y-94100000D01*
X167021689Y-94098449D01*
X167000000Y-94095014D01*
X166991754Y-94096320D01*
X166988641Y-94096565D01*
X166988031Y-94096565D01*
X166986823Y-94096708D01*
X166951349Y-94099500D01*
X166780315Y-94112961D01*
X166775508Y-94114115D01*
X166775502Y-94114116D01*
X166650223Y-94144193D01*
X166566038Y-94164404D01*
X166561467Y-94166297D01*
X166561465Y-94166298D01*
X166529907Y-94179370D01*
X166362448Y-94248734D01*
X166340873Y-94261955D01*
X166325845Y-94271164D01*
X166257311Y-94289701D01*
X166189635Y-94268244D01*
X166173759Y-94255580D01*
X166169221Y-94251318D01*
X166135393Y-94219552D01*
X166128449Y-94215735D01*
X166128447Y-94215733D01*
X166010498Y-94150890D01*
X165991368Y-94140373D01*
X165983696Y-94138403D01*
X165983693Y-94138402D01*
X165839855Y-94101471D01*
X165839852Y-94101471D01*
X165832177Y-94099500D01*
X165709075Y-94099500D01*
X165655667Y-94106247D01*
X165594807Y-94113935D01*
X165594804Y-94113936D01*
X165586942Y-94114929D01*
X165579575Y-94117846D01*
X165579574Y-94117846D01*
X165533493Y-94136091D01*
X165434129Y-94175432D01*
X165430092Y-94178365D01*
X165362036Y-94193374D01*
X165309963Y-94178084D01*
X165248315Y-94144192D01*
X165248314Y-94144191D01*
X165241368Y-94140373D01*
X165233693Y-94138402D01*
X165233692Y-94138402D01*
X165089855Y-94101471D01*
X165089852Y-94101471D01*
X165082177Y-94099500D01*
X164959075Y-94099500D01*
X164905667Y-94106247D01*
X164844807Y-94113935D01*
X164844804Y-94113936D01*
X164836942Y-94114929D01*
X164829575Y-94117846D01*
X164829574Y-94117846D01*
X164783493Y-94136091D01*
X164684129Y-94175432D01*
X164680092Y-94178365D01*
X164612036Y-94193374D01*
X164559963Y-94178084D01*
X164498315Y-94144192D01*
X164498314Y-94144191D01*
X164491368Y-94140373D01*
X164483693Y-94138402D01*
X164483692Y-94138402D01*
X164339855Y-94101471D01*
X164339852Y-94101471D01*
X164332177Y-94099500D01*
X164209075Y-94099500D01*
X164155667Y-94106247D01*
X164094807Y-94113935D01*
X164094804Y-94113936D01*
X164086942Y-94114929D01*
X164079575Y-94117846D01*
X164079574Y-94117846D01*
X164068408Y-94122267D01*
X163934129Y-94175432D01*
X163927718Y-94180090D01*
X163927716Y-94180091D01*
X163873403Y-94219552D01*
X163835843Y-94246841D01*
X163811815Y-94264298D01*
X163744947Y-94288157D01*
X163671919Y-94269794D01*
X163641775Y-94251321D01*
X163641767Y-94251317D01*
X163637552Y-94248734D01*
X163470093Y-94179370D01*
X163438535Y-94166298D01*
X163438533Y-94166297D01*
X163433962Y-94164404D01*
X163349777Y-94144193D01*
X163224498Y-94114116D01*
X163224492Y-94114115D01*
X163219685Y-94112961D01*
X163048651Y-94099500D01*
X163013177Y-94096708D01*
X163011969Y-94096565D01*
X163011359Y-94096565D01*
X163008246Y-94096320D01*
X163000000Y-94095014D01*
X162978311Y-94098449D01*
X162958602Y-94100000D01*
X81436646Y-94100000D01*
X81415753Y-94106788D01*
X81396543Y-94111400D01*
X81394064Y-94111792D01*
X81384648Y-94113283D01*
X81384645Y-94113284D01*
X81374852Y-94114835D01*
X81366016Y-94119337D01*
X81366014Y-94119338D01*
X81355293Y-94124801D01*
X81337026Y-94132368D01*
X81316140Y-94139154D01*
X81308116Y-94144984D01*
X81298381Y-94152057D01*
X81281522Y-94162389D01*
X81261955Y-94172359D01*
X81172359Y-94261955D01*
X81172358Y-94261957D01*
X78871220Y-96563095D01*
X78808908Y-96597121D01*
X78782125Y-96600000D01*
X77041398Y-96600000D01*
X77021689Y-96598449D01*
X77000000Y-96595014D01*
X76991754Y-96596320D01*
X76988641Y-96596565D01*
X76988031Y-96596565D01*
X76986823Y-96596708D01*
X76964703Y-96598449D01*
X76780315Y-96612961D01*
X76775508Y-96614115D01*
X76775502Y-96614116D01*
X76650223Y-96644193D01*
X76566038Y-96664404D01*
X76561467Y-96666297D01*
X76561465Y-96666298D01*
X76528166Y-96680091D01*
X76362448Y-96748734D01*
X76337050Y-96764298D01*
X76325845Y-96771164D01*
X76257311Y-96789701D01*
X76189635Y-96768244D01*
X76173759Y-96755580D01*
X76169221Y-96751318D01*
X76135393Y-96719552D01*
X76128449Y-96715735D01*
X76128447Y-96715733D01*
X76032979Y-96663249D01*
X75991368Y-96640373D01*
X75983696Y-96638403D01*
X75983693Y-96638402D01*
X75839855Y-96601471D01*
X75839852Y-96601471D01*
X75832177Y-96599500D01*
X75709075Y-96599500D01*
X75651310Y-96606797D01*
X75594807Y-96613935D01*
X75594804Y-96613936D01*
X75586942Y-96614929D01*
X75579575Y-96617846D01*
X75579574Y-96617846D01*
X75527656Y-96638402D01*
X75434129Y-96675432D01*
X75430092Y-96678365D01*
X75362036Y-96693374D01*
X75309963Y-96678084D01*
X75248315Y-96644192D01*
X75248314Y-96644191D01*
X75241368Y-96640373D01*
X75233693Y-96638402D01*
X75233692Y-96638402D01*
X75089855Y-96601471D01*
X75089852Y-96601471D01*
X75082177Y-96599500D01*
X74959075Y-96599500D01*
X74901310Y-96606797D01*
X74844807Y-96613935D01*
X74844804Y-96613936D01*
X74836942Y-96614929D01*
X74829575Y-96617846D01*
X74829574Y-96617846D01*
X74777656Y-96638402D01*
X74684129Y-96675432D01*
X74680092Y-96678365D01*
X74612036Y-96693374D01*
X74559963Y-96678084D01*
X74498315Y-96644192D01*
X74498314Y-96644191D01*
X74491368Y-96640373D01*
X74483693Y-96638402D01*
X74483692Y-96638402D01*
X74339855Y-96601471D01*
X74339852Y-96601471D01*
X74332177Y-96599500D01*
X74209075Y-96599500D01*
X74151310Y-96606797D01*
X74094807Y-96613935D01*
X74094804Y-96613936D01*
X74086942Y-96614929D01*
X74079575Y-96617846D01*
X74079574Y-96617846D01*
X74044867Y-96631588D01*
X73934129Y-96675432D01*
X73835843Y-96746841D01*
X73811815Y-96764298D01*
X73744947Y-96788157D01*
X73671919Y-96769794D01*
X73641775Y-96751321D01*
X73641767Y-96751317D01*
X73637552Y-96748734D01*
X73471834Y-96680091D01*
X73438535Y-96666298D01*
X73438533Y-96666297D01*
X73433962Y-96664404D01*
X73349777Y-96644193D01*
X73224498Y-96614116D01*
X73224492Y-96614115D01*
X73219685Y-96612961D01*
X73035297Y-96598449D01*
X73013177Y-96596708D01*
X73011969Y-96596565D01*
X73011359Y-96596565D01*
X73008246Y-96596320D01*
X73000000Y-96595014D01*
X72978311Y-96598449D01*
X72958602Y-96600000D01*
X70526000Y-96600000D01*
X70457879Y-96579998D01*
X70411386Y-96526342D01*
X70400000Y-96474000D01*
X70400000Y-92276500D01*
X70420002Y-92208379D01*
X70473658Y-92161886D01*
X70526000Y-92150500D01*
X75322833Y-92150499D01*
X75571518Y-92150499D01*
X75576412Y-92149724D01*
X75655506Y-92137198D01*
X75655508Y-92137197D01*
X75665304Y-92135646D01*
X75778342Y-92078050D01*
X75868050Y-91988342D01*
X75877754Y-91969297D01*
X75926503Y-91917682D01*
X75990021Y-91900500D01*
X77047192Y-91900500D01*
X77128037Y-91892003D01*
X77181693Y-91886364D01*
X77181695Y-91886364D01*
X77188256Y-91885674D01*
X77368284Y-91827179D01*
X77434534Y-91788930D01*
X77526495Y-91735836D01*
X77532216Y-91732533D01*
X77672888Y-91605871D01*
X77748731Y-91501482D01*
X77780270Y-91458072D01*
X77780271Y-91458071D01*
X77784151Y-91452730D01*
X77861144Y-91279803D01*
X77900500Y-91094646D01*
X77900500Y-90905354D01*
X77861144Y-90720197D01*
X77784151Y-90547270D01*
X77749808Y-90500000D01*
X77676767Y-90399468D01*
X77672888Y-90394129D01*
X77540996Y-90275372D01*
X77537124Y-90271886D01*
X77537123Y-90271885D01*
X77532216Y-90267467D01*
X77514488Y-90257232D01*
X77374007Y-90176125D01*
X77374006Y-90176124D01*
X77368284Y-90172821D01*
X77188256Y-90114326D01*
X77181695Y-90113636D01*
X77181693Y-90113636D01*
X77128037Y-90107997D01*
X77047192Y-90099500D01*
X75990021Y-90099500D01*
X75921900Y-90079498D01*
X75877754Y-90030703D01*
X75877528Y-90030259D01*
X75868050Y-90011658D01*
X75778342Y-89921950D01*
X75665304Y-89864354D01*
X75655515Y-89862804D01*
X75655513Y-89862803D01*
X75628151Y-89858470D01*
X75571519Y-89849500D01*
X75322927Y-89849500D01*
X70526000Y-89849501D01*
X70457879Y-89829499D01*
X70411386Y-89775843D01*
X70400000Y-89723501D01*
X70400000Y-85526000D01*
X70420002Y-85457879D01*
X70473658Y-85411386D01*
X70526000Y-85400000D01*
X72958602Y-85400000D01*
X72978311Y-85401551D01*
X73000000Y-85404986D01*
X73008246Y-85403680D01*
X73011359Y-85403435D01*
X73011969Y-85403435D01*
X73013177Y-85403292D01*
X73073694Y-85398529D01*
X73219685Y-85387039D01*
X73224492Y-85385885D01*
X73224498Y-85385884D01*
X73359930Y-85353369D01*
X73433962Y-85335596D01*
X73466989Y-85321916D01*
X73507025Y-85305332D01*
X73637552Y-85251266D01*
X73674155Y-85228836D01*
X73742689Y-85210299D01*
X73810365Y-85231756D01*
G37*
G04 #@! TD.AperFunction*
G04 #@! TA.AperFunction,Conductor*
G36*
X182032826Y-49379333D02*
G01*
X182205996Y-49384798D01*
X182700075Y-49400392D01*
X182707345Y-49400833D01*
X183165878Y-49442044D01*
X183372253Y-49460593D01*
X183379519Y-49461459D01*
X184039835Y-49559716D01*
X184047039Y-49561003D01*
X184700526Y-49697426D01*
X184707642Y-49699129D01*
X185352106Y-49873257D01*
X185359113Y-49875370D01*
X185992385Y-50086619D01*
X185999256Y-50089135D01*
X186619197Y-50336789D01*
X186625911Y-50339700D01*
X187230436Y-50622930D01*
X187236969Y-50626226D01*
X187824014Y-50944061D01*
X187830344Y-50947730D01*
X188352767Y-51271138D01*
X188397963Y-51299117D01*
X188404071Y-51303148D01*
X188950326Y-51686890D01*
X188956189Y-51691268D01*
X189268069Y-51938601D01*
X189425119Y-52063147D01*
X189479261Y-52106084D01*
X189484853Y-52110790D01*
X189940905Y-52517744D01*
X189982948Y-52555261D01*
X189988256Y-52560281D01*
X190223996Y-52796613D01*
X190459728Y-53032937D01*
X190464743Y-53038266D01*
X190686350Y-53287867D01*
X190870787Y-53495601D01*
X190907958Y-53537468D01*
X190912648Y-53543069D01*
X191222352Y-53935616D01*
X191326151Y-54067180D01*
X191330515Y-54073054D01*
X191712896Y-54620286D01*
X191716911Y-54626404D01*
X191806262Y-54771550D01*
X192037734Y-55147565D01*
X192066861Y-55194881D01*
X192070510Y-55201213D01*
X192096056Y-55248679D01*
X192386891Y-55789089D01*
X192390170Y-55795631D01*
X192671875Y-56400850D01*
X192674769Y-56407571D01*
X192920869Y-57028131D01*
X192923363Y-57034993D01*
X193133037Y-57668840D01*
X193135119Y-57675809D01*
X193196424Y-57904986D01*
X193307633Y-58320720D01*
X193309318Y-58327841D01*
X193444101Y-58981666D01*
X193445370Y-58988871D01*
X193520820Y-59504797D01*
X193541971Y-59649431D01*
X193542818Y-59656690D01*
X193560957Y-59864354D01*
X193600908Y-60321737D01*
X193601333Y-60329041D01*
X193602533Y-60370340D01*
X193584518Y-60439013D01*
X193532235Y-60487045D01*
X193476586Y-60500000D01*
X188497460Y-60500000D01*
X188429339Y-60479998D01*
X188382846Y-60426342D01*
X188372333Y-60388810D01*
X188340087Y-60116366D01*
X188326083Y-59998047D01*
X188227969Y-59504797D01*
X188091458Y-59020765D01*
X187917391Y-58548936D01*
X187706842Y-58092219D01*
X187475018Y-57678269D01*
X187462319Y-57655593D01*
X187462318Y-57655591D01*
X187461107Y-57653429D01*
X187181704Y-57235272D01*
X186870353Y-56840326D01*
X186868563Y-56838389D01*
X186530638Y-56472824D01*
X186528975Y-56471025D01*
X186456651Y-56404169D01*
X186161494Y-56131329D01*
X186161488Y-56131324D01*
X186159674Y-56129647D01*
X185764728Y-55818296D01*
X185730808Y-55795631D01*
X185548899Y-55674084D01*
X185346571Y-55538893D01*
X184907781Y-55293158D01*
X184451064Y-55082609D01*
X183979235Y-54908542D01*
X183651179Y-54816021D01*
X183497583Y-54772702D01*
X183497578Y-54772701D01*
X183495203Y-54772031D01*
X183001953Y-54673917D01*
X182806015Y-54650726D01*
X182504979Y-54615096D01*
X182504971Y-54615095D01*
X182502526Y-54614806D01*
X182000000Y-54595062D01*
X181497474Y-54614806D01*
X181495029Y-54615095D01*
X181495021Y-54615096D01*
X181193985Y-54650726D01*
X180998047Y-54673917D01*
X180504797Y-54772031D01*
X180502422Y-54772701D01*
X180502417Y-54772702D01*
X180348821Y-54816021D01*
X180020765Y-54908542D01*
X179548936Y-55082609D01*
X179092219Y-55293158D01*
X178653429Y-55538893D01*
X178451101Y-55674084D01*
X178269193Y-55795631D01*
X178235272Y-55818296D01*
X177840326Y-56129647D01*
X177838512Y-56131324D01*
X177838506Y-56131329D01*
X177543349Y-56404169D01*
X177471025Y-56471025D01*
X177469362Y-56472824D01*
X177131438Y-56838389D01*
X177129647Y-56840326D01*
X176818296Y-57235272D01*
X176538893Y-57653429D01*
X176537682Y-57655591D01*
X176537681Y-57655593D01*
X176524982Y-57678269D01*
X176293158Y-58092219D01*
X176082609Y-58548936D01*
X175908542Y-59020765D01*
X175772031Y-59504797D01*
X175673917Y-59998047D01*
X175659913Y-60116366D01*
X175627038Y-60394129D01*
X175614806Y-60497474D01*
X175595062Y-61000000D01*
X175604276Y-61234504D01*
X175614806Y-61502526D01*
X175615095Y-61504971D01*
X175615096Y-61504979D01*
X175627560Y-61610286D01*
X175673917Y-62001953D01*
X175772031Y-62495203D01*
X175908542Y-62979235D01*
X176082609Y-63451064D01*
X176293158Y-63907781D01*
X176485549Y-64251318D01*
X176530278Y-64331187D01*
X176538893Y-64346571D01*
X176818296Y-64764728D01*
X177129647Y-65159674D01*
X177131324Y-65161488D01*
X177131329Y-65161494D01*
X177242524Y-65281784D01*
X177471025Y-65528975D01*
X177472824Y-65530638D01*
X177686585Y-65728236D01*
X177840326Y-65870353D01*
X178235272Y-66181704D01*
X178237333Y-66183081D01*
X178237337Y-66183084D01*
X178274169Y-66207694D01*
X178653429Y-66461107D01*
X179092219Y-66706842D01*
X179548936Y-66917391D01*
X180020765Y-67091458D01*
X180347483Y-67183602D01*
X180502417Y-67227298D01*
X180502422Y-67227299D01*
X180504797Y-67227969D01*
X180998047Y-67326083D01*
X181193985Y-67349274D01*
X181495021Y-67384904D01*
X181495029Y-67384905D01*
X181497474Y-67385194D01*
X182000000Y-67404938D01*
X182502526Y-67385194D01*
X182504971Y-67384905D01*
X182504979Y-67384904D01*
X182806015Y-67349274D01*
X183001953Y-67326083D01*
X183495203Y-67227969D01*
X183497578Y-67227299D01*
X183497583Y-67227298D01*
X183652517Y-67183602D01*
X183979235Y-67091458D01*
X184451064Y-66917391D01*
X184907781Y-66706842D01*
X185346571Y-66461107D01*
X185725831Y-66207694D01*
X185762663Y-66183084D01*
X185762667Y-66183081D01*
X185764728Y-66181704D01*
X186159674Y-65870353D01*
X186313416Y-65728236D01*
X186527176Y-65530638D01*
X186528975Y-65528975D01*
X186757476Y-65281784D01*
X186868671Y-65161494D01*
X186868676Y-65161488D01*
X186870353Y-65159674D01*
X187181704Y-64764728D01*
X187461107Y-64346571D01*
X187469723Y-64331187D01*
X187514451Y-64251318D01*
X187706842Y-63907781D01*
X187917391Y-63451064D01*
X188091458Y-62979235D01*
X188227969Y-62495203D01*
X188326083Y-62001953D01*
X188372333Y-61611190D01*
X188400204Y-61545893D01*
X188458952Y-61506029D01*
X188497460Y-61500000D01*
X193476586Y-61500000D01*
X193544707Y-61520002D01*
X193591200Y-61573658D01*
X193602533Y-61629660D01*
X193601333Y-61670959D01*
X193600908Y-61678263D01*
X193578578Y-61933905D01*
X193559660Y-62150500D01*
X193542819Y-62343301D01*
X193541972Y-62350561D01*
X193520471Y-62497583D01*
X193445370Y-63011127D01*
X193444101Y-63018334D01*
X193309318Y-63672159D01*
X193307634Y-63679275D01*
X193135119Y-64324191D01*
X193133037Y-64331160D01*
X192923368Y-64964992D01*
X192920869Y-64971869D01*
X192674769Y-65592429D01*
X192671875Y-65599150D01*
X192390170Y-66204369D01*
X192386891Y-66210911D01*
X192245303Y-66474000D01*
X192075401Y-66789701D01*
X192070515Y-66798779D01*
X192066866Y-66805110D01*
X191997747Y-66917391D01*
X191716911Y-67373596D01*
X191712896Y-67379714D01*
X191330515Y-67926946D01*
X191326151Y-67932820D01*
X190991755Y-68356664D01*
X190912656Y-68456921D01*
X190907966Y-68462523D01*
X190868368Y-68507123D01*
X190464743Y-68961734D01*
X190459728Y-68967063D01*
X189991612Y-69436355D01*
X189988264Y-69439711D01*
X189982956Y-69444731D01*
X189844735Y-69568072D01*
X189484860Y-69889204D01*
X189479268Y-69893910D01*
X189345492Y-70000000D01*
X188956189Y-70308732D01*
X188950326Y-70313110D01*
X188404071Y-70696852D01*
X188397969Y-70700879D01*
X187830345Y-71052270D01*
X187824014Y-71055939D01*
X187236969Y-71373774D01*
X187230436Y-71377070D01*
X186625911Y-71660300D01*
X186619197Y-71663211D01*
X185999256Y-71910865D01*
X185992385Y-71913381D01*
X185359113Y-72124630D01*
X185352106Y-72126743D01*
X184707642Y-72300871D01*
X184700526Y-72302574D01*
X184047039Y-72438997D01*
X184039835Y-72440284D01*
X183379519Y-72538541D01*
X183372253Y-72539407D01*
X183165878Y-72557956D01*
X182707345Y-72599167D01*
X182700075Y-72599608D01*
X182205996Y-72615202D01*
X182032826Y-72620667D01*
X182025508Y-72620686D01*
X181635820Y-72610344D01*
X181358141Y-72602975D01*
X181350844Y-72602568D01*
X181217335Y-72591244D01*
X180685662Y-72546146D01*
X180678392Y-72545316D01*
X180017611Y-72450376D01*
X180010400Y-72449126D01*
X179356225Y-72315981D01*
X179349100Y-72314314D01*
X179111436Y-72251377D01*
X178703758Y-72143418D01*
X178696747Y-72141341D01*
X178652244Y-72126743D01*
X178422489Y-72051380D01*
X178062423Y-71933272D01*
X178055539Y-71930790D01*
X177713790Y-71796252D01*
X177434365Y-71686249D01*
X177427641Y-71683374D01*
X176821715Y-71403188D01*
X176815164Y-71399925D01*
X176769545Y-71375521D01*
X176226507Y-71085025D01*
X176220158Y-71081387D01*
X175844136Y-70851210D01*
X175650789Y-70732855D01*
X175644683Y-70728869D01*
X175096491Y-70347860D01*
X175090606Y-70343511D01*
X174565468Y-69931330D01*
X174559846Y-69926647D01*
X174153928Y-69568072D01*
X174059521Y-69484675D01*
X174054198Y-69479691D01*
X173817274Y-69244543D01*
X173580360Y-69009405D01*
X173575319Y-69004102D01*
X173129599Y-68507123D01*
X173124873Y-68501535D01*
X172708755Y-67979517D01*
X172704362Y-67973665D01*
X172319250Y-67428373D01*
X172315204Y-67422276D01*
X171962400Y-66855551D01*
X171958714Y-66849229D01*
X171639396Y-66262964D01*
X171636084Y-66256439D01*
X171497582Y-65962740D01*
X171351333Y-65652612D01*
X171348409Y-65645913D01*
X171328257Y-65595831D01*
X171099208Y-65026615D01*
X171096676Y-65019754D01*
X171056394Y-64900000D01*
X170894904Y-64419903D01*
X170889533Y-64397112D01*
X170888607Y-64390461D01*
X170888606Y-64390459D01*
X170887440Y-64382084D01*
X170885765Y-64378638D01*
X170885165Y-64374852D01*
X170858591Y-64322698D01*
X170857611Y-64320729D01*
X170832039Y-64268129D01*
X170829381Y-64265369D01*
X170827641Y-64261955D01*
X170786333Y-64220647D01*
X170784681Y-64218964D01*
X170760031Y-64193374D01*
X170744136Y-64176872D01*
X170740755Y-64175069D01*
X170738045Y-64172359D01*
X170722433Y-64164404D01*
X170685985Y-64145833D01*
X170683894Y-64144743D01*
X170639805Y-64121229D01*
X170632335Y-64117245D01*
X170628563Y-64116575D01*
X170625148Y-64114835D01*
X170593667Y-64109849D01*
X170567448Y-64105696D01*
X170565124Y-64105305D01*
X170517346Y-64096818D01*
X170517342Y-64096818D01*
X170507581Y-64095084D01*
X170483417Y-64098449D01*
X170480925Y-64098796D01*
X170463546Y-64100000D01*
X167041398Y-64100000D01*
X167021689Y-64098449D01*
X167000000Y-64095014D01*
X166991754Y-64096320D01*
X166988641Y-64096565D01*
X166988031Y-64096565D01*
X166986823Y-64096708D01*
X166964703Y-64098449D01*
X166780315Y-64112961D01*
X166775508Y-64114115D01*
X166775502Y-64114116D01*
X166646929Y-64144984D01*
X166566038Y-64164404D01*
X166561467Y-64166297D01*
X166561465Y-64166298D01*
X166529907Y-64179370D01*
X166362448Y-64248734D01*
X166340873Y-64261955D01*
X166325845Y-64271164D01*
X166257311Y-64289701D01*
X166189635Y-64268244D01*
X166173759Y-64255580D01*
X166169221Y-64251318D01*
X166135393Y-64219552D01*
X166128449Y-64215735D01*
X166128447Y-64215733D01*
X166012621Y-64152057D01*
X165991368Y-64140373D01*
X165983696Y-64138403D01*
X165983693Y-64138402D01*
X165839855Y-64101471D01*
X165839852Y-64101471D01*
X165832177Y-64099500D01*
X165709075Y-64099500D01*
X165660029Y-64105696D01*
X165594807Y-64113935D01*
X165594804Y-64113936D01*
X165586942Y-64114929D01*
X165579575Y-64117846D01*
X165579574Y-64117846D01*
X165533493Y-64136091D01*
X165434129Y-64175432D01*
X165430092Y-64178365D01*
X165362036Y-64193374D01*
X165309963Y-64178084D01*
X165248315Y-64144192D01*
X165248314Y-64144191D01*
X165241368Y-64140373D01*
X165233693Y-64138402D01*
X165233692Y-64138402D01*
X165089855Y-64101471D01*
X165089852Y-64101471D01*
X165082177Y-64099500D01*
X164959075Y-64099500D01*
X164910029Y-64105696D01*
X164844807Y-64113935D01*
X164844804Y-64113936D01*
X164836942Y-64114929D01*
X164829575Y-64117846D01*
X164829574Y-64117846D01*
X164783493Y-64136091D01*
X164684129Y-64175432D01*
X164680092Y-64178365D01*
X164612036Y-64193374D01*
X164559963Y-64178084D01*
X164498315Y-64144192D01*
X164498314Y-64144191D01*
X164491368Y-64140373D01*
X164483693Y-64138402D01*
X164483692Y-64138402D01*
X164339855Y-64101471D01*
X164339852Y-64101471D01*
X164332177Y-64099500D01*
X164209075Y-64099500D01*
X164160029Y-64105696D01*
X164094807Y-64113935D01*
X164094804Y-64113936D01*
X164086942Y-64114929D01*
X164079575Y-64117846D01*
X164079574Y-64117846D01*
X164075806Y-64119338D01*
X163934129Y-64175432D01*
X163927718Y-64180090D01*
X163927716Y-64180091D01*
X163865936Y-64224977D01*
X163835843Y-64246841D01*
X163811815Y-64264298D01*
X163744947Y-64288157D01*
X163671919Y-64269794D01*
X163641775Y-64251321D01*
X163641767Y-64251317D01*
X163637552Y-64248734D01*
X163470093Y-64179370D01*
X163438535Y-64166298D01*
X163438533Y-64166297D01*
X163433962Y-64164404D01*
X163353071Y-64144984D01*
X163224498Y-64114116D01*
X163224492Y-64114115D01*
X163219685Y-64112961D01*
X163035297Y-64098449D01*
X163013177Y-64096708D01*
X163011969Y-64096565D01*
X163011359Y-64096565D01*
X163008246Y-64096320D01*
X163000000Y-64095014D01*
X162978311Y-64098449D01*
X162958602Y-64100000D01*
X81436646Y-64100000D01*
X81415753Y-64106788D01*
X81396543Y-64111400D01*
X81394064Y-64111792D01*
X81384648Y-64113283D01*
X81384645Y-64113284D01*
X81374852Y-64114835D01*
X81366016Y-64119337D01*
X81366014Y-64119338D01*
X81355293Y-64124801D01*
X81337026Y-64132368D01*
X81316140Y-64139154D01*
X81308116Y-64144984D01*
X81298381Y-64152057D01*
X81281522Y-64162389D01*
X81261955Y-64172359D01*
X81172359Y-64261955D01*
X81172358Y-64261957D01*
X78871220Y-66563095D01*
X78808908Y-66597121D01*
X78782125Y-66600000D01*
X77041398Y-66600000D01*
X77021689Y-66598449D01*
X77000000Y-66595014D01*
X76991754Y-66596320D01*
X76988641Y-66596565D01*
X76988031Y-66596565D01*
X76986823Y-66596708D01*
X76964703Y-66598449D01*
X76780315Y-66612961D01*
X76775508Y-66614115D01*
X76775502Y-66614116D01*
X76650223Y-66644193D01*
X76566038Y-66664404D01*
X76561467Y-66666297D01*
X76561465Y-66666298D01*
X76528166Y-66680091D01*
X76362448Y-66748734D01*
X76337050Y-66764298D01*
X76325845Y-66771164D01*
X76257311Y-66789701D01*
X76189635Y-66768244D01*
X76173759Y-66755580D01*
X76169221Y-66751318D01*
X76135393Y-66719552D01*
X76128449Y-66715735D01*
X76128447Y-66715733D01*
X76032979Y-66663249D01*
X75991368Y-66640373D01*
X75983696Y-66638403D01*
X75983693Y-66638402D01*
X75839855Y-66601471D01*
X75839852Y-66601471D01*
X75832177Y-66599500D01*
X75709075Y-66599500D01*
X75651310Y-66606797D01*
X75594807Y-66613935D01*
X75594804Y-66613936D01*
X75586942Y-66614929D01*
X75579575Y-66617846D01*
X75579574Y-66617846D01*
X75527656Y-66638402D01*
X75434129Y-66675432D01*
X75430092Y-66678365D01*
X75362036Y-66693374D01*
X75309963Y-66678084D01*
X75248315Y-66644192D01*
X75248314Y-66644191D01*
X75241368Y-66640373D01*
X75233693Y-66638402D01*
X75233692Y-66638402D01*
X75089855Y-66601471D01*
X75089852Y-66601471D01*
X75082177Y-66599500D01*
X74959075Y-66599500D01*
X74901310Y-66606797D01*
X74844807Y-66613935D01*
X74844804Y-66613936D01*
X74836942Y-66614929D01*
X74829575Y-66617846D01*
X74829574Y-66617846D01*
X74777656Y-66638402D01*
X74684129Y-66675432D01*
X74680092Y-66678365D01*
X74612036Y-66693374D01*
X74559963Y-66678084D01*
X74498315Y-66644192D01*
X74498314Y-66644191D01*
X74491368Y-66640373D01*
X74483693Y-66638402D01*
X74483692Y-66638402D01*
X74339855Y-66601471D01*
X74339852Y-66601471D01*
X74332177Y-66599500D01*
X74209075Y-66599500D01*
X74151310Y-66606797D01*
X74094807Y-66613935D01*
X74094804Y-66613936D01*
X74086942Y-66614929D01*
X74079575Y-66617846D01*
X74079574Y-66617846D01*
X74044867Y-66631588D01*
X73934129Y-66675432D01*
X73927718Y-66680090D01*
X73927716Y-66680091D01*
X73878659Y-66715733D01*
X73835843Y-66746841D01*
X73811815Y-66764298D01*
X73744947Y-66788157D01*
X73671919Y-66769794D01*
X73641775Y-66751321D01*
X73641767Y-66751317D01*
X73637552Y-66748734D01*
X73471834Y-66680091D01*
X73438535Y-66666298D01*
X73438533Y-66666297D01*
X73433962Y-66664404D01*
X73349777Y-66644193D01*
X73224498Y-66614116D01*
X73224492Y-66614115D01*
X73219685Y-66612961D01*
X73035297Y-66598449D01*
X73013177Y-66596708D01*
X73011969Y-66596565D01*
X73011359Y-66596565D01*
X73008246Y-66596320D01*
X73000000Y-66595014D01*
X72978311Y-66598449D01*
X72958602Y-66600000D01*
X70526000Y-66600000D01*
X70457879Y-66579998D01*
X70411386Y-66526342D01*
X70400000Y-66474000D01*
X70400000Y-62276500D01*
X70420002Y-62208379D01*
X70473658Y-62161886D01*
X70526000Y-62150500D01*
X75322833Y-62150499D01*
X75571518Y-62150499D01*
X75576412Y-62149724D01*
X75655506Y-62137198D01*
X75655508Y-62137197D01*
X75665304Y-62135646D01*
X75778342Y-62078050D01*
X75868050Y-61988342D01*
X75877754Y-61969297D01*
X75926503Y-61917682D01*
X75990021Y-61900500D01*
X77047192Y-61900500D01*
X77128037Y-61892003D01*
X77181693Y-61886364D01*
X77181695Y-61886364D01*
X77188256Y-61885674D01*
X77368284Y-61827179D01*
X77532216Y-61732533D01*
X77592489Y-61678263D01*
X77667985Y-61610286D01*
X77667986Y-61610284D01*
X77672888Y-61605871D01*
X77749768Y-61500054D01*
X77780270Y-61458072D01*
X77780271Y-61458071D01*
X77784151Y-61452730D01*
X77861144Y-61279803D01*
X77900500Y-61094646D01*
X77900500Y-60905354D01*
X77861144Y-60720197D01*
X77784151Y-60547270D01*
X77749808Y-60500000D01*
X77676767Y-60399468D01*
X77672888Y-60394129D01*
X77596543Y-60325387D01*
X77537124Y-60271886D01*
X77537123Y-60271885D01*
X77532216Y-60267467D01*
X77368284Y-60172821D01*
X77188256Y-60114326D01*
X77181695Y-60113636D01*
X77181693Y-60113636D01*
X77128037Y-60107997D01*
X77047192Y-60099500D01*
X75990021Y-60099500D01*
X75921900Y-60079498D01*
X75877754Y-60030703D01*
X75877528Y-60030259D01*
X75868050Y-60011658D01*
X75778342Y-59921950D01*
X75665304Y-59864354D01*
X75655515Y-59862804D01*
X75655513Y-59862803D01*
X75628151Y-59858470D01*
X75571519Y-59849500D01*
X75322927Y-59849500D01*
X70526000Y-59849501D01*
X70457879Y-59829499D01*
X70411386Y-59775843D01*
X70400000Y-59723501D01*
X70400000Y-55526000D01*
X70420002Y-55457879D01*
X70473658Y-55411386D01*
X70526000Y-55400000D01*
X72958602Y-55400000D01*
X72978311Y-55401551D01*
X73000000Y-55404986D01*
X73008246Y-55403680D01*
X73011359Y-55403435D01*
X73011969Y-55403435D01*
X73013177Y-55403292D01*
X73073694Y-55398529D01*
X73219685Y-55387039D01*
X73224492Y-55385885D01*
X73224498Y-55385884D01*
X73359930Y-55353369D01*
X73433962Y-55335596D01*
X73466989Y-55321916D01*
X73507025Y-55305332D01*
X73637552Y-55251266D01*
X73674155Y-55228836D01*
X73742689Y-55210299D01*
X73810365Y-55231756D01*
X73826240Y-55244419D01*
X73864607Y-55280448D01*
X73871551Y-55284265D01*
X73871553Y-55284267D01*
X73912224Y-55306626D01*
X74008632Y-55359627D01*
X74016304Y-55361597D01*
X74016307Y-55361598D01*
X74160145Y-55398529D01*
X74160148Y-55398529D01*
X74167823Y-55400500D01*
X74290925Y-55400500D01*
X74348690Y-55393203D01*
X74405193Y-55386065D01*
X74405196Y-55386064D01*
X74413058Y-55385071D01*
X74420425Y-55382154D01*
X74420426Y-55382154D01*
X74542801Y-55333702D01*
X74565871Y-55324568D01*
X74569908Y-55321635D01*
X74637964Y-55306626D01*
X74690037Y-55321916D01*
X74751684Y-55355807D01*
X74758632Y-55359627D01*
X74766307Y-55361598D01*
X74766308Y-55361598D01*
X74910145Y-55398529D01*
X74910148Y-55398529D01*
X74917823Y-55400500D01*
X75040925Y-55400500D01*
X75098690Y-55393203D01*
X75155193Y-55386065D01*
X75155196Y-55386064D01*
X75163058Y-55385071D01*
X75170425Y-55382154D01*
X75170426Y-55382154D01*
X75292801Y-55333702D01*
X75315871Y-55324568D01*
X75319908Y-55321635D01*
X75387964Y-55306626D01*
X75440037Y-55321916D01*
X75501684Y-55355807D01*
X75508632Y-55359627D01*
X75516307Y-55361598D01*
X75516308Y-55361598D01*
X75660145Y-55398529D01*
X75660148Y-55398529D01*
X75667823Y-55400500D01*
X75790925Y-55400500D01*
X75848690Y-55393203D01*
X75905193Y-55386065D01*
X75905196Y-55386064D01*
X75913058Y-55385071D01*
X75920425Y-55382154D01*
X75920426Y-55382154D01*
X75977322Y-55359627D01*
X76065871Y-55324568D01*
X76109104Y-55293158D01*
X76160055Y-55256140D01*
X76188185Y-55235702D01*
X76255053Y-55211843D01*
X76328081Y-55230206D01*
X76358225Y-55248679D01*
X76358231Y-55248682D01*
X76362448Y-55251266D01*
X76492975Y-55305332D01*
X76533012Y-55321916D01*
X76566038Y-55335596D01*
X76640070Y-55353369D01*
X76775502Y-55385884D01*
X76775508Y-55385885D01*
X76780315Y-55387039D01*
X76926306Y-55398529D01*
X76986823Y-55403292D01*
X76988031Y-55403435D01*
X76988641Y-55403435D01*
X76991754Y-55403680D01*
X77000000Y-55404986D01*
X77021689Y-55401551D01*
X77041398Y-55400000D01*
X78782125Y-55400000D01*
X78850246Y-55420002D01*
X78871220Y-55436905D01*
X81172358Y-57738043D01*
X81172359Y-57738045D01*
X81261955Y-57827641D01*
X81281522Y-57837611D01*
X81298380Y-57847943D01*
X81316140Y-57860846D01*
X81337026Y-57867632D01*
X81355293Y-57875199D01*
X81366014Y-57880662D01*
X81366016Y-57880663D01*
X81374852Y-57885165D01*
X81384645Y-57886716D01*
X81384648Y-57886717D01*
X81394064Y-57888208D01*
X81396543Y-57888600D01*
X81415753Y-57893212D01*
X81436646Y-57900000D01*
X162958602Y-57900000D01*
X162978311Y-57901551D01*
X163000000Y-57904986D01*
X163008246Y-57903680D01*
X163011359Y-57903435D01*
X163011969Y-57903435D01*
X163013177Y-57903292D01*
X163073694Y-57898529D01*
X163219685Y-57887039D01*
X163224492Y-57885885D01*
X163224498Y-57885884D01*
X163359930Y-57853369D01*
X163433962Y-57835596D01*
X163442304Y-57832141D01*
X163507025Y-57805332D01*
X163637552Y-57751266D01*
X163674155Y-57728836D01*
X163742689Y-57710299D01*
X163810365Y-57731756D01*
X163826240Y-57744419D01*
X163864607Y-57780448D01*
X163871551Y-57784265D01*
X163871553Y-57784267D01*
X163912224Y-57806626D01*
X164008632Y-57859627D01*
X164016304Y-57861597D01*
X164016307Y-57861598D01*
X164160145Y-57898529D01*
X164160148Y-57898529D01*
X164167823Y-57900500D01*
X164290925Y-57900500D01*
X164348690Y-57893203D01*
X164405193Y-57886065D01*
X164405196Y-57886064D01*
X164413058Y-57885071D01*
X164420425Y-57882154D01*
X164420426Y-57882154D01*
X164491113Y-57854167D01*
X164565871Y-57824568D01*
X164569908Y-57821635D01*
X164637964Y-57806626D01*
X164690037Y-57821916D01*
X164751684Y-57855807D01*
X164758632Y-57859627D01*
X164766307Y-57861598D01*
X164766308Y-57861598D01*
X164910145Y-57898529D01*
X164910148Y-57898529D01*
X164917823Y-57900500D01*
X165040925Y-57900500D01*
X165098690Y-57893203D01*
X165155193Y-57886065D01*
X165155196Y-57886064D01*
X165163058Y-57885071D01*
X165170425Y-57882154D01*
X165170426Y-57882154D01*
X165241113Y-57854167D01*
X165315871Y-57824568D01*
X165319908Y-57821635D01*
X165387964Y-57806626D01*
X165440037Y-57821916D01*
X165501684Y-57855807D01*
X165508632Y-57859627D01*
X165516307Y-57861598D01*
X165516308Y-57861598D01*
X165660145Y-57898529D01*
X165660148Y-57898529D01*
X165667823Y-57900500D01*
X165790925Y-57900500D01*
X165848690Y-57893203D01*
X165905193Y-57886065D01*
X165905196Y-57886064D01*
X165913058Y-57885071D01*
X165920425Y-57882154D01*
X165920426Y-57882154D01*
X165977322Y-57859627D01*
X166065871Y-57824568D01*
X166128105Y-57779353D01*
X166160055Y-57756140D01*
X166188185Y-57735702D01*
X166255053Y-57711843D01*
X166328081Y-57730206D01*
X166358225Y-57748679D01*
X166358231Y-57748682D01*
X166362448Y-57751266D01*
X166492975Y-57805332D01*
X166557697Y-57832141D01*
X166566038Y-57835596D01*
X166640070Y-57853369D01*
X166775502Y-57885884D01*
X166775508Y-57885885D01*
X166780315Y-57887039D01*
X166926306Y-57898529D01*
X166986823Y-57903292D01*
X166988031Y-57903435D01*
X166988641Y-57903435D01*
X166991754Y-57903680D01*
X167000000Y-57904986D01*
X167021689Y-57901551D01*
X167041398Y-57900000D01*
X170463546Y-57900000D01*
X170480925Y-57901204D01*
X170507581Y-57904916D01*
X170517342Y-57903182D01*
X170517346Y-57903182D01*
X170565124Y-57894695D01*
X170567448Y-57894304D01*
X170594784Y-57889974D01*
X170625148Y-57885165D01*
X170628563Y-57883425D01*
X170632335Y-57882755D01*
X170667671Y-57863909D01*
X170683894Y-57855257D01*
X170685985Y-57854167D01*
X170730495Y-57831488D01*
X170738045Y-57827641D01*
X170740755Y-57824931D01*
X170744136Y-57823128D01*
X170784681Y-57781036D01*
X170786333Y-57779353D01*
X170827641Y-57738045D01*
X170829381Y-57734631D01*
X170832039Y-57731871D01*
X170857611Y-57679271D01*
X170858591Y-57677302D01*
X170885165Y-57625148D01*
X170885765Y-57621362D01*
X170887440Y-57617916D01*
X170889533Y-57602888D01*
X170894904Y-57580095D01*
X170914590Y-57521572D01*
X171096678Y-56980241D01*
X171099210Y-56973381D01*
X171348412Y-56354080D01*
X171351336Y-56347380D01*
X171444295Y-56150258D01*
X171636085Y-55743559D01*
X171639396Y-55737036D01*
X171958714Y-55150771D01*
X171962400Y-55144449D01*
X172315204Y-54577724D01*
X172319250Y-54571627D01*
X172704362Y-54026335D01*
X172708755Y-54020483D01*
X173124873Y-53498465D01*
X173129599Y-53492877D01*
X173575319Y-52995898D01*
X173580360Y-52990595D01*
X174010534Y-52563645D01*
X174054198Y-52520309D01*
X174059521Y-52515325D01*
X174559846Y-52073353D01*
X174565468Y-52068670D01*
X175090606Y-51656489D01*
X175096491Y-51652140D01*
X175352725Y-51474050D01*
X175644683Y-51271131D01*
X175650789Y-51267145D01*
X176220158Y-50918613D01*
X176226507Y-50914975D01*
X176557647Y-50737833D01*
X176815168Y-50600073D01*
X176821715Y-50596812D01*
X177427641Y-50316626D01*
X177434369Y-50313749D01*
X177552330Y-50267311D01*
X178004926Y-50089135D01*
X178055539Y-50069210D01*
X178062423Y-50066728D01*
X178474289Y-49931629D01*
X178696752Y-49858658D01*
X178703758Y-49856582D01*
X179111436Y-49748623D01*
X179349100Y-49685686D01*
X179356225Y-49684019D01*
X180010400Y-49550874D01*
X180017611Y-49549624D01*
X180678392Y-49454684D01*
X180685662Y-49453854D01*
X181217335Y-49408756D01*
X181350844Y-49397432D01*
X181358141Y-49397025D01*
X181635820Y-49389656D01*
X182025508Y-49379314D01*
X182032826Y-49379333D01*
G37*
G04 #@! TD.AperFunction*
G04 #@! TA.AperFunction,Conductor*
G36*
X73810365Y-115231756D02*
G01*
X73826240Y-115244419D01*
X73864607Y-115280448D01*
X73871551Y-115284265D01*
X73871553Y-115284267D01*
X73912224Y-115306626D01*
X74008632Y-115359627D01*
X74016304Y-115361597D01*
X74016307Y-115361598D01*
X74160145Y-115398529D01*
X74160148Y-115398529D01*
X74167823Y-115400500D01*
X74290925Y-115400500D01*
X74348690Y-115393203D01*
X74405193Y-115386065D01*
X74405196Y-115386064D01*
X74413058Y-115385071D01*
X74420425Y-115382154D01*
X74420426Y-115382154D01*
X74542801Y-115333702D01*
X74565871Y-115324568D01*
X74569908Y-115321635D01*
X74637964Y-115306626D01*
X74690037Y-115321916D01*
X74751684Y-115355807D01*
X74758632Y-115359627D01*
X74766307Y-115361598D01*
X74766308Y-115361598D01*
X74910145Y-115398529D01*
X74910148Y-115398529D01*
X74917823Y-115400500D01*
X75040925Y-115400500D01*
X75098690Y-115393203D01*
X75155193Y-115386065D01*
X75155196Y-115386064D01*
X75163058Y-115385071D01*
X75170425Y-115382154D01*
X75170426Y-115382154D01*
X75292801Y-115333702D01*
X75315871Y-115324568D01*
X75319908Y-115321635D01*
X75387964Y-115306626D01*
X75440037Y-115321916D01*
X75501684Y-115355807D01*
X75508632Y-115359627D01*
X75516307Y-115361598D01*
X75516308Y-115361598D01*
X75660145Y-115398529D01*
X75660148Y-115398529D01*
X75667823Y-115400500D01*
X75790925Y-115400500D01*
X75848690Y-115393203D01*
X75905193Y-115386065D01*
X75905196Y-115386064D01*
X75913058Y-115385071D01*
X75920425Y-115382154D01*
X75920426Y-115382154D01*
X75977322Y-115359627D01*
X76065871Y-115324568D01*
X76188185Y-115235702D01*
X76255053Y-115211843D01*
X76328081Y-115230206D01*
X76358225Y-115248679D01*
X76358231Y-115248682D01*
X76362448Y-115251266D01*
X76492975Y-115305332D01*
X76533012Y-115321916D01*
X76566038Y-115335596D01*
X76640070Y-115353369D01*
X76775502Y-115385884D01*
X76775508Y-115385885D01*
X76780315Y-115387039D01*
X76926306Y-115398529D01*
X76986823Y-115403292D01*
X76988031Y-115403435D01*
X76988641Y-115403435D01*
X76991754Y-115403680D01*
X77000000Y-115404986D01*
X77021689Y-115401551D01*
X77041398Y-115400000D01*
X78782125Y-115400000D01*
X78850246Y-115420002D01*
X78871220Y-115436905D01*
X81172358Y-117738043D01*
X81172359Y-117738045D01*
X81261955Y-117827641D01*
X81281522Y-117837611D01*
X81298380Y-117847943D01*
X81316140Y-117860846D01*
X81337026Y-117867632D01*
X81355293Y-117875199D01*
X81366014Y-117880662D01*
X81366016Y-117880663D01*
X81374852Y-117885165D01*
X81384645Y-117886716D01*
X81384648Y-117886717D01*
X81394064Y-117888208D01*
X81396543Y-117888600D01*
X81415753Y-117893212D01*
X81436646Y-117900000D01*
X165208602Y-117900000D01*
X165228311Y-117901551D01*
X165250000Y-117904986D01*
X165258246Y-117903680D01*
X165261359Y-117903435D01*
X165261969Y-117903435D01*
X165263177Y-117903292D01*
X165323694Y-117898529D01*
X165469685Y-117887039D01*
X165474492Y-117885885D01*
X165474498Y-117885884D01*
X165609930Y-117853369D01*
X165683962Y-117835596D01*
X165692304Y-117832141D01*
X165757025Y-117805332D01*
X165887552Y-117751266D01*
X165924155Y-117728836D01*
X165992689Y-117710299D01*
X166060365Y-117731756D01*
X166076240Y-117744419D01*
X166114607Y-117780448D01*
X166121551Y-117784265D01*
X166121553Y-117784267D01*
X166162224Y-117806626D01*
X166258632Y-117859627D01*
X166266304Y-117861597D01*
X166266307Y-117861598D01*
X166410145Y-117898529D01*
X166410148Y-117898529D01*
X166417823Y-117900500D01*
X166540925Y-117900500D01*
X166598690Y-117893203D01*
X166655193Y-117886065D01*
X166655196Y-117886064D01*
X166663058Y-117885071D01*
X166670425Y-117882154D01*
X166670426Y-117882154D01*
X166739464Y-117854820D01*
X166815871Y-117824568D01*
X166819908Y-117821635D01*
X166887964Y-117806626D01*
X166940037Y-117821916D01*
X167001684Y-117855807D01*
X167008632Y-117859627D01*
X167016307Y-117861598D01*
X167016308Y-117861598D01*
X167160145Y-117898529D01*
X167160148Y-117898529D01*
X167167823Y-117900500D01*
X167290925Y-117900500D01*
X167348690Y-117893203D01*
X167405193Y-117886065D01*
X167405196Y-117886064D01*
X167413058Y-117885071D01*
X167420425Y-117882154D01*
X167420426Y-117882154D01*
X167489464Y-117854820D01*
X167565871Y-117824568D01*
X167569908Y-117821635D01*
X167637964Y-117806626D01*
X167690037Y-117821916D01*
X167751684Y-117855807D01*
X167758632Y-117859627D01*
X167766307Y-117861598D01*
X167766308Y-117861598D01*
X167910145Y-117898529D01*
X167910148Y-117898529D01*
X167917823Y-117900500D01*
X168040925Y-117900500D01*
X168098690Y-117893203D01*
X168155193Y-117886065D01*
X168155196Y-117886064D01*
X168163058Y-117885071D01*
X168170425Y-117882154D01*
X168170426Y-117882154D01*
X168227322Y-117859627D01*
X168315871Y-117824568D01*
X168438185Y-117735702D01*
X168505053Y-117711843D01*
X168578081Y-117730206D01*
X168608225Y-117748679D01*
X168608231Y-117748682D01*
X168612448Y-117751266D01*
X168742975Y-117805332D01*
X168807697Y-117832141D01*
X168816038Y-117835596D01*
X168890070Y-117853369D01*
X169025502Y-117885884D01*
X169025508Y-117885885D01*
X169030315Y-117887039D01*
X169176306Y-117898529D01*
X169236823Y-117903292D01*
X169238031Y-117903435D01*
X169238641Y-117903435D01*
X169241754Y-117903680D01*
X169250000Y-117904986D01*
X169271689Y-117901551D01*
X169291398Y-117900000D01*
X170747191Y-117900000D01*
X170815312Y-117920002D01*
X170845580Y-117947288D01*
X172654101Y-120207939D01*
X172667559Y-120228798D01*
X172667855Y-120229206D01*
X172672359Y-120238045D01*
X172696556Y-120262242D01*
X172700819Y-120267004D01*
X172700840Y-120266984D01*
X172704227Y-120270596D01*
X172707318Y-120274460D01*
X172710971Y-120277789D01*
X172710976Y-120277794D01*
X172721566Y-120287443D01*
X172725796Y-120291482D01*
X172761955Y-120327641D01*
X172770405Y-120331947D01*
X172777416Y-120338335D01*
X172824044Y-120359428D01*
X172829268Y-120361939D01*
X172874852Y-120385165D01*
X172884219Y-120386648D01*
X172892861Y-120390558D01*
X172902715Y-120391653D01*
X172907331Y-120392919D01*
X172967734Y-120430228D01*
X172998377Y-120494272D01*
X173000000Y-120514430D01*
X173000000Y-121485570D01*
X172979998Y-121553691D01*
X172926342Y-121600184D01*
X172907331Y-121607081D01*
X172902715Y-121608347D01*
X172892861Y-121609442D01*
X172884219Y-121613352D01*
X172874852Y-121614835D01*
X172829275Y-121638058D01*
X172824044Y-121640572D01*
X172777416Y-121661665D01*
X172770405Y-121668053D01*
X172761955Y-121672359D01*
X172725796Y-121708518D01*
X172721566Y-121712557D01*
X172710976Y-121722206D01*
X172710971Y-121722211D01*
X172707318Y-121725540D01*
X172704227Y-121729404D01*
X172700840Y-121733016D01*
X172700819Y-121732996D01*
X172696556Y-121737758D01*
X172672359Y-121761955D01*
X172667855Y-121770794D01*
X172667559Y-121771202D01*
X172654101Y-121792061D01*
X170845580Y-124052712D01*
X170787407Y-124093410D01*
X170747191Y-124100000D01*
X169291398Y-124100000D01*
X169271689Y-124098449D01*
X169250000Y-124095014D01*
X169241754Y-124096320D01*
X169238641Y-124096565D01*
X169238031Y-124096565D01*
X169236823Y-124096708D01*
X169214703Y-124098449D01*
X169030315Y-124112961D01*
X169025508Y-124114115D01*
X169025502Y-124114116D01*
X168900223Y-124144193D01*
X168816038Y-124164404D01*
X168811467Y-124166297D01*
X168811465Y-124166298D01*
X168779907Y-124179370D01*
X168612448Y-124248734D01*
X168590873Y-124261955D01*
X168575845Y-124271164D01*
X168507311Y-124289701D01*
X168439635Y-124268244D01*
X168423759Y-124255580D01*
X168419221Y-124251318D01*
X168385393Y-124219552D01*
X168378449Y-124215735D01*
X168378447Y-124215733D01*
X168249755Y-124144984D01*
X168241368Y-124140373D01*
X168233696Y-124138403D01*
X168233693Y-124138402D01*
X168089855Y-124101471D01*
X168089852Y-124101471D01*
X168082177Y-124099500D01*
X167959075Y-124099500D01*
X167901416Y-124106784D01*
X167844807Y-124113935D01*
X167844804Y-124113936D01*
X167836942Y-124114929D01*
X167829575Y-124117846D01*
X167829574Y-124117846D01*
X167783493Y-124136091D01*
X167684129Y-124175432D01*
X167680092Y-124178365D01*
X167612036Y-124193374D01*
X167559963Y-124178084D01*
X167498315Y-124144192D01*
X167498314Y-124144191D01*
X167491368Y-124140373D01*
X167483693Y-124138402D01*
X167483692Y-124138402D01*
X167339855Y-124101471D01*
X167339852Y-124101471D01*
X167332177Y-124099500D01*
X167209075Y-124099500D01*
X167151416Y-124106784D01*
X167094807Y-124113935D01*
X167094804Y-124113936D01*
X167086942Y-124114929D01*
X167079575Y-124117846D01*
X167079574Y-124117846D01*
X167033493Y-124136091D01*
X166934129Y-124175432D01*
X166930092Y-124178365D01*
X166862036Y-124193374D01*
X166809963Y-124178084D01*
X166748315Y-124144192D01*
X166748314Y-124144191D01*
X166741368Y-124140373D01*
X166733693Y-124138402D01*
X166733692Y-124138402D01*
X166589855Y-124101471D01*
X166589852Y-124101471D01*
X166582177Y-124099500D01*
X166459075Y-124099500D01*
X166401416Y-124106784D01*
X166344807Y-124113935D01*
X166344804Y-124113936D01*
X166336942Y-124114929D01*
X166329575Y-124117846D01*
X166329574Y-124117846D01*
X166325806Y-124119338D01*
X166184129Y-124175432D01*
X166085843Y-124246841D01*
X166061815Y-124264298D01*
X165994947Y-124288157D01*
X165921919Y-124269794D01*
X165891775Y-124251321D01*
X165891767Y-124251317D01*
X165887552Y-124248734D01*
X165720093Y-124179370D01*
X165688535Y-124166298D01*
X165688533Y-124166297D01*
X165683962Y-124164404D01*
X165599777Y-124144193D01*
X165474498Y-124114116D01*
X165474492Y-124114115D01*
X165469685Y-124112961D01*
X165285297Y-124098449D01*
X165263177Y-124096708D01*
X165261969Y-124096565D01*
X165261359Y-124096565D01*
X165258246Y-124096320D01*
X165250000Y-124095014D01*
X165228311Y-124098449D01*
X165208602Y-124100000D01*
X81436646Y-124100000D01*
X81415753Y-124106788D01*
X81396543Y-124111400D01*
X81394064Y-124111792D01*
X81384648Y-124113283D01*
X81384645Y-124113284D01*
X81374852Y-124114835D01*
X81366016Y-124119337D01*
X81366014Y-124119338D01*
X81355293Y-124124801D01*
X81337026Y-124132368D01*
X81316140Y-124139154D01*
X81308116Y-124144984D01*
X81298381Y-124152057D01*
X81281522Y-124162389D01*
X81261955Y-124172359D01*
X81172359Y-124261955D01*
X81172358Y-124261957D01*
X78871220Y-126563095D01*
X78808908Y-126597121D01*
X78782125Y-126600000D01*
X77041398Y-126600000D01*
X77021689Y-126598449D01*
X77000000Y-126595014D01*
X76991754Y-126596320D01*
X76988641Y-126596565D01*
X76988031Y-126596565D01*
X76986823Y-126596708D01*
X76964703Y-126598449D01*
X76780315Y-126612961D01*
X76775508Y-126614115D01*
X76775502Y-126614116D01*
X76650223Y-126644193D01*
X76566038Y-126664404D01*
X76561467Y-126666297D01*
X76561465Y-126666298D01*
X76528166Y-126680091D01*
X76362448Y-126748734D01*
X76337050Y-126764298D01*
X76325845Y-126771164D01*
X76257311Y-126789701D01*
X76189635Y-126768244D01*
X76173759Y-126755580D01*
X76169221Y-126751318D01*
X76135393Y-126719552D01*
X76128449Y-126715735D01*
X76128447Y-126715733D01*
X76032979Y-126663249D01*
X75991368Y-126640373D01*
X75983696Y-126638403D01*
X75983693Y-126638402D01*
X75839855Y-126601471D01*
X75839852Y-126601471D01*
X75832177Y-126599500D01*
X75709075Y-126599500D01*
X75651310Y-126606797D01*
X75594807Y-126613935D01*
X75594804Y-126613936D01*
X75586942Y-126614929D01*
X75579575Y-126617846D01*
X75579574Y-126617846D01*
X75527656Y-126638402D01*
X75434129Y-126675432D01*
X75430092Y-126678365D01*
X75362036Y-126693374D01*
X75309963Y-126678084D01*
X75248315Y-126644192D01*
X75248314Y-126644191D01*
X75241368Y-126640373D01*
X75233693Y-126638402D01*
X75233692Y-126638402D01*
X75089855Y-126601471D01*
X75089852Y-126601471D01*
X75082177Y-126599500D01*
X74959075Y-126599500D01*
X74901310Y-126606797D01*
X74844807Y-126613935D01*
X74844804Y-126613936D01*
X74836942Y-126614929D01*
X74829575Y-126617846D01*
X74829574Y-126617846D01*
X74777656Y-126638402D01*
X74684129Y-126675432D01*
X74680092Y-126678365D01*
X74612036Y-126693374D01*
X74559963Y-126678084D01*
X74498315Y-126644192D01*
X74498314Y-126644191D01*
X74491368Y-126640373D01*
X74483693Y-126638402D01*
X74483692Y-126638402D01*
X74339855Y-126601471D01*
X74339852Y-126601471D01*
X74332177Y-126599500D01*
X74209075Y-126599500D01*
X74151310Y-126606797D01*
X74094807Y-126613935D01*
X74094804Y-126613936D01*
X74086942Y-126614929D01*
X74079575Y-126617846D01*
X74079574Y-126617846D01*
X74044867Y-126631588D01*
X73934129Y-126675432D01*
X73835843Y-126746841D01*
X73811815Y-126764298D01*
X73744947Y-126788157D01*
X73671919Y-126769794D01*
X73641775Y-126751321D01*
X73641767Y-126751317D01*
X73637552Y-126748734D01*
X73471834Y-126680091D01*
X73438535Y-126666298D01*
X73438533Y-126666297D01*
X73433962Y-126664404D01*
X73349777Y-126644193D01*
X73224498Y-126614116D01*
X73224492Y-126614115D01*
X73219685Y-126612961D01*
X73035297Y-126598449D01*
X73013177Y-126596708D01*
X73011969Y-126596565D01*
X73011359Y-126596565D01*
X73008246Y-126596320D01*
X73000000Y-126595014D01*
X72978311Y-126598449D01*
X72958602Y-126600000D01*
X70526000Y-126600000D01*
X70457879Y-126579998D01*
X70411386Y-126526342D01*
X70400000Y-126474000D01*
X70400000Y-122276500D01*
X70420002Y-122208379D01*
X70473658Y-122161886D01*
X70526000Y-122150500D01*
X75322833Y-122150499D01*
X75571518Y-122150499D01*
X75576412Y-122149724D01*
X75655506Y-122137198D01*
X75655508Y-122137197D01*
X75665304Y-122135646D01*
X75778342Y-122078050D01*
X75868050Y-121988342D01*
X75877754Y-121969297D01*
X75926503Y-121917682D01*
X75990021Y-121900500D01*
X77047192Y-121900500D01*
X77128037Y-121892003D01*
X77181693Y-121886364D01*
X77181695Y-121886364D01*
X77188256Y-121885674D01*
X77368284Y-121827179D01*
X77446511Y-121782015D01*
X77526495Y-121735836D01*
X77532216Y-121732533D01*
X77537124Y-121728114D01*
X77667985Y-121610286D01*
X77667986Y-121610284D01*
X77672888Y-121605871D01*
X77710799Y-121553691D01*
X77780270Y-121458072D01*
X77780271Y-121458071D01*
X77784151Y-121452730D01*
X77861144Y-121279803D01*
X77900500Y-121094646D01*
X77900500Y-120905354D01*
X77861144Y-120720197D01*
X77784151Y-120547270D01*
X77760292Y-120514430D01*
X77676767Y-120399468D01*
X77672888Y-120394129D01*
X77666738Y-120388591D01*
X77537124Y-120271886D01*
X77537123Y-120271885D01*
X77532216Y-120267467D01*
X77465239Y-120228798D01*
X77374007Y-120176125D01*
X77374006Y-120176124D01*
X77368284Y-120172821D01*
X77188256Y-120114326D01*
X77181695Y-120113636D01*
X77181693Y-120113636D01*
X77128037Y-120107997D01*
X77047192Y-120099500D01*
X75990021Y-120099500D01*
X75921900Y-120079498D01*
X75877754Y-120030703D01*
X75877528Y-120030259D01*
X75868050Y-120011658D01*
X75778342Y-119921950D01*
X75665304Y-119864354D01*
X75655515Y-119862804D01*
X75655513Y-119862803D01*
X75628151Y-119858470D01*
X75571519Y-119849500D01*
X75322927Y-119849500D01*
X70526000Y-119849501D01*
X70457879Y-119829499D01*
X70411386Y-119775843D01*
X70400000Y-119723501D01*
X70400000Y-115526000D01*
X70420002Y-115457879D01*
X70473658Y-115411386D01*
X70526000Y-115400000D01*
X72958602Y-115400000D01*
X72978311Y-115401551D01*
X73000000Y-115404986D01*
X73008246Y-115403680D01*
X73011359Y-115403435D01*
X73011969Y-115403435D01*
X73013177Y-115403292D01*
X73073694Y-115398529D01*
X73219685Y-115387039D01*
X73224492Y-115385885D01*
X73224498Y-115385884D01*
X73359930Y-115353369D01*
X73433962Y-115335596D01*
X73466989Y-115321916D01*
X73507025Y-115305332D01*
X73637552Y-115251266D01*
X73674155Y-115228836D01*
X73742689Y-115210299D01*
X73810365Y-115231756D01*
G37*
G04 #@! TD.AperFunction*
M02*
