G04 #@! TF.GenerationSoftware,KiCad,Pcbnew,(6.0.1)*
G04 #@! TF.CreationDate,2023-07-16T14:40:23+02:00*
G04 #@! TF.ProjectId,panel,70616e65-6c2e-46b6-9963-61645f706362,rev?*
G04 #@! TF.SameCoordinates,Original*
G04 #@! TF.FileFunction,Legend,Bot*
G04 #@! TF.FilePolarity,Positive*
%FSLAX46Y46*%
G04 Gerber Fmt 4.6, Leading zero omitted, Abs format (unit mm)*
G04 Created by KiCad (PCBNEW (6.0.1)) date 2023-07-16 14:40:23*
%MOMM*%
%LPD*%
G01*
G04 APERTURE LIST*
%ADD10C,0.300000*%
%ADD11C,0.500000*%
%ADD12R,5.080000X1.500000*%
G04 APERTURE END LIST*
D10*
X178000000Y-121000000D02*
X173000000Y-121000000D01*
X177000000Y-91000000D02*
G75*
G03*
X177000000Y-91000000I-3000000J0D01*
G01*
X191000000Y-61000000D02*
G75*
G03*
X191000000Y-61000000I-9000000J0D01*
G01*
%LPC*%
D11*
X168000000Y-126250000D03*
X166500000Y-126250000D03*
X166500000Y-124750000D03*
X168000000Y-124750000D03*
X167250000Y-124750000D03*
X167250000Y-126250000D03*
X75750000Y-127250000D03*
X74250000Y-128750000D03*
X75000000Y-127250000D03*
X74250000Y-127250000D03*
X75000000Y-128750000D03*
X75750000Y-128750000D03*
X168000000Y-115750000D03*
X166500000Y-117250000D03*
X167250000Y-115750000D03*
X167250000Y-117250000D03*
X168000000Y-117250000D03*
X166500000Y-115750000D03*
X75750000Y-114750000D03*
X74250000Y-114750000D03*
X75000000Y-114750000D03*
X74250000Y-113250000D03*
X75750000Y-113250000D03*
X75000000Y-113250000D03*
D12*
X73000000Y-125250000D03*
X73000000Y-116750000D03*
D11*
X165000000Y-94750000D03*
X164250000Y-96250000D03*
X165750000Y-96250000D03*
X164250000Y-94750000D03*
X165000000Y-96250000D03*
X165750000Y-94750000D03*
X165000000Y-55750000D03*
X164250000Y-57250000D03*
X165750000Y-57250000D03*
X165000000Y-57250000D03*
X165750000Y-55750000D03*
X164250000Y-55750000D03*
X75000000Y-84750000D03*
X75750000Y-84750000D03*
X74250000Y-84750000D03*
X75000000Y-83250000D03*
X75750000Y-83250000D03*
X74250000Y-83250000D03*
X165750000Y-66250000D03*
X165000000Y-64750000D03*
X164250000Y-66250000D03*
X165750000Y-64750000D03*
X165000000Y-66250000D03*
X164250000Y-64750000D03*
X74250000Y-67250000D03*
X75750000Y-68750000D03*
X75000000Y-68750000D03*
X74250000Y-68750000D03*
X75750000Y-67250000D03*
X75000000Y-67250000D03*
X74250000Y-53250000D03*
X75000000Y-54750000D03*
X75750000Y-54750000D03*
X75000000Y-53250000D03*
X74250000Y-54750000D03*
X75750000Y-53250000D03*
D12*
X73000000Y-56750000D03*
X73000000Y-65250000D03*
D11*
X164250000Y-85750000D03*
X165000000Y-85750000D03*
X165750000Y-87250000D03*
X165000000Y-87250000D03*
X164250000Y-87250000D03*
X165750000Y-85750000D03*
X74250000Y-97250000D03*
X75000000Y-98750000D03*
X75000000Y-97250000D03*
X75750000Y-98750000D03*
X75750000Y-97250000D03*
X74250000Y-98750000D03*
D12*
X73000000Y-86750000D03*
X73000000Y-95250000D03*
M02*
