M48
METRIC
T1C0.500
%
G90
G05
T1
X74.25Y-53.25
X74.25Y-54.75
X74.25Y-67.25
X74.25Y-68.75
X74.25Y-83.25
X74.25Y-84.75
X74.25Y-97.25
X74.25Y-98.75
X74.25Y-113.25
X74.25Y-114.75
X74.25Y-127.25
X74.25Y-128.75
X75.0Y-53.25
X75.0Y-54.75
X75.0Y-67.25
X75.0Y-68.75
X75.0Y-83.25
X75.0Y-84.75
X75.0Y-97.25
X75.0Y-98.75
X75.0Y-113.25
X75.0Y-114.75
X75.0Y-127.25
X75.0Y-128.75
X75.75Y-53.25
X75.75Y-54.75
X75.75Y-67.25
X75.75Y-68.75
X75.75Y-83.25
X75.75Y-84.75
X75.75Y-97.25
X75.75Y-98.75
X75.75Y-113.25
X75.75Y-114.75
X75.75Y-127.25
X75.75Y-128.75
X164.25Y-55.75
X164.25Y-57.25
X164.25Y-64.75
X164.25Y-66.25
X164.25Y-85.75
X164.25Y-87.25
X164.25Y-94.75
X164.25Y-96.25
X165.0Y-55.75
X165.0Y-57.25
X165.0Y-64.75
X165.0Y-66.25
X165.0Y-85.75
X165.0Y-87.25
X165.0Y-94.75
X165.0Y-96.25
X165.75Y-55.75
X165.75Y-57.25
X165.75Y-64.75
X165.75Y-66.25
X165.75Y-85.75
X165.75Y-87.25
X165.75Y-94.75
X165.75Y-96.25
X166.5Y-115.75
X166.5Y-117.25
X166.5Y-124.75
X166.5Y-126.25
X167.25Y-115.75
X167.25Y-117.25
X167.25Y-124.75
X167.25Y-126.25
X168.0Y-115.75
X168.0Y-117.25
X168.0Y-124.75
X168.0Y-126.25
T0
M30
