G04 #@! TF.GenerationSoftware,KiCad,Pcbnew,(6.0.1)*
G04 #@! TF.CreationDate,2023-07-16T14:40:23+02:00*
G04 #@! TF.ProjectId,panel,70616e65-6c2e-46b6-9963-61645f706362,rev?*
G04 #@! TF.SameCoordinates,Original*
G04 #@! TF.FileFunction,Copper,L3,Inr*
G04 #@! TF.FilePolarity,Positive*
%FSLAX46Y46*%
G04 Gerber Fmt 4.6, Leading zero omitted, Abs format (unit mm)*
G04 Created by KiCad (PCBNEW (6.0.1)) date 2023-07-16 14:40:23*
%MOMM*%
%LPD*%
G01*
G04 APERTURE LIST*
G04 #@! TA.AperFunction,ViaPad*
%ADD10C,0.500000*%
G04 #@! TD*
G04 APERTURE END LIST*
D10*
X77000000Y-61000000D03*
X77000000Y-91000000D03*
X77000000Y-121000000D03*
X96688709Y-89700000D03*
X90630645Y-119700000D03*
X130008064Y-62300000D03*
X157269354Y-122300000D03*
X191670249Y-56446289D03*
X137580645Y-122300000D03*
X137580645Y-62300000D03*
X160298387Y-119700000D03*
X122435483Y-92300000D03*
X90630645Y-59700000D03*
X143638709Y-119700000D03*
X139095161Y-59700000D03*
X146667741Y-92300000D03*
X171006637Y-88825195D03*
X134551612Y-89700000D03*
X176174805Y-88006637D03*
X130008064Y-89700000D03*
X151211290Y-122300000D03*
X149696774Y-89700000D03*
X128493548Y-122300000D03*
X173089188Y-66903171D03*
X155754838Y-89700000D03*
X171773265Y-64108681D03*
X120920967Y-119700000D03*
X191185608Y-55534234D03*
X83058064Y-119700000D03*
X128493548Y-89700000D03*
X173632158Y-54349495D03*
X170900000Y-59700000D03*
X166356451Y-122300000D03*
X154240322Y-92300000D03*
X92145161Y-62300000D03*
X158783870Y-119700000D03*
X178263267Y-54420728D03*
X143638709Y-59700000D03*
X161812903Y-59700000D03*
X123950000Y-122300000D03*
X108804838Y-59700000D03*
X120920967Y-59700000D03*
X185364909Y-54223025D03*
X149696774Y-92300000D03*
X176174805Y-93993363D03*
X151211290Y-59700000D03*
X133037096Y-62300000D03*
X123950000Y-119700000D03*
X105775806Y-89700000D03*
X183366571Y-53558059D03*
X171520977Y-63107147D03*
X78514516Y-92300000D03*
X98203225Y-59700000D03*
X166356451Y-119700000D03*
X113348387Y-119700000D03*
X98203225Y-62300000D03*
X175143363Y-94518909D03*
X177681288Y-51222540D03*
X169385483Y-119700000D03*
X192100839Y-64496148D03*
X134551612Y-122300000D03*
X184287169Y-68212410D03*
X152725806Y-62300000D03*
X110319354Y-62300000D03*
X158783870Y-59700000D03*
X146667741Y-122300000D03*
X190036762Y-68047018D03*
X93659677Y-119700000D03*
X178645110Y-50851369D03*
X188388121Y-65054863D03*
X173029356Y-55188155D03*
X182719783Y-50335483D03*
X113348387Y-59700000D03*
X188446365Y-52473900D03*
X114862903Y-62300000D03*
X95174193Y-92300000D03*
X123950000Y-92300000D03*
X149696774Y-119700000D03*
X101232258Y-89700000D03*
X155754838Y-62300000D03*
X87601612Y-92300000D03*
X145153225Y-92300000D03*
X185739201Y-50986590D03*
X142124193Y-122300000D03*
X90630645Y-92300000D03*
X133037096Y-122300000D03*
X89116129Y-122300000D03*
X167870967Y-122300000D03*
X164841935Y-122300000D03*
X89116129Y-92300000D03*
X182210558Y-68563443D03*
X110319354Y-92300000D03*
X136066129Y-62300000D03*
X169385483Y-122300000D03*
X191240958Y-66371656D03*
X114862903Y-89700000D03*
X89116129Y-119700000D03*
X142124193Y-92300000D03*
X113348387Y-62300000D03*
X107290322Y-92300000D03*
X87601612Y-62300000D03*
X185841287Y-70974694D03*
X187102546Y-55413048D03*
X98203225Y-89700000D03*
X151211290Y-92300000D03*
X119406451Y-92300000D03*
X126979032Y-119700000D03*
X152725806Y-122300000D03*
X119406451Y-122300000D03*
X175149238Y-69204698D03*
X176993363Y-93174805D03*
X95174193Y-89700000D03*
X105775806Y-92300000D03*
X187593384Y-51891539D03*
X167870967Y-119700000D03*
X96688709Y-59700000D03*
X152725806Y-59700000D03*
X131522580Y-62300000D03*
X137580645Y-119700000D03*
X187022984Y-66658589D03*
X187686129Y-70050853D03*
X125464516Y-89700000D03*
X99717741Y-122300000D03*
X143638709Y-89700000D03*
X80029032Y-59700000D03*
X172510310Y-56081079D03*
X139095161Y-122300000D03*
X181796297Y-71686838D03*
X161812903Y-119700000D03*
X192064601Y-57400861D03*
X87601612Y-122300000D03*
X107290322Y-119700000D03*
X116377419Y-92300000D03*
X158783870Y-122300000D03*
X174389352Y-68505201D03*
X78514516Y-119700000D03*
X163327419Y-122300000D03*
X157269354Y-119700000D03*
X167870967Y-92300000D03*
X95174193Y-122300000D03*
X174313089Y-53572928D03*
X174000000Y-94700000D03*
X190679379Y-67238460D03*
X126979032Y-122300000D03*
X99717741Y-92300000D03*
X119406451Y-59700000D03*
X104261290Y-119700000D03*
X146667741Y-89700000D03*
X152725806Y-119700000D03*
X108804838Y-62300000D03*
X166356451Y-89700000D03*
X84572580Y-122300000D03*
X102746774Y-122300000D03*
X142124193Y-59700000D03*
X104261290Y-59700000D03*
X192364983Y-58389037D03*
X189964362Y-53871259D03*
X125464516Y-119700000D03*
X174610285Y-59374542D03*
X130008064Y-59700000D03*
X152725806Y-92300000D03*
X173117446Y-62486562D03*
X90630645Y-62300000D03*
X174871805Y-63537485D03*
X161812903Y-92300000D03*
X178748947Y-71182370D03*
X101232258Y-62300000D03*
X140609677Y-122300000D03*
X80029032Y-62300000D03*
X110319354Y-89700000D03*
X157269354Y-59700000D03*
X95174193Y-119700000D03*
X92145161Y-119700000D03*
X78514516Y-62300000D03*
X81543548Y-122300000D03*
X122435483Y-119700000D03*
X105775806Y-119700000D03*
X184755312Y-50672452D03*
X170481091Y-92143363D03*
X166356451Y-59700000D03*
X86087096Y-92300000D03*
X186275335Y-54757283D03*
X80029032Y-122300000D03*
X176993363Y-88825195D03*
X84572580Y-89700000D03*
X107290322Y-89700000D03*
X95174193Y-59700000D03*
X160298387Y-92300000D03*
X120920967Y-122300000D03*
X92145161Y-92300000D03*
X140609677Y-62300000D03*
X117891935Y-89700000D03*
X167870967Y-59700000D03*
X174588026Y-62520738D03*
X172856637Y-94518909D03*
X131522580Y-59700000D03*
X181687148Y-50315800D03*
X107290322Y-122300000D03*
X188533118Y-69459809D03*
X192584365Y-62490374D03*
X154240322Y-62300000D03*
X134551612Y-62300000D03*
X151211290Y-119700000D03*
X111833870Y-92300000D03*
X107290322Y-59700000D03*
X96688709Y-119700000D03*
X114862903Y-59700000D03*
X116377419Y-62300000D03*
X84572580Y-59700000D03*
X154240322Y-122300000D03*
X139095161Y-89700000D03*
X174000000Y-87300000D03*
X175294325Y-64504844D03*
X181155882Y-68519140D03*
X81543548Y-62300000D03*
X96688709Y-92300000D03*
X78514516Y-59700000D03*
X101232258Y-122300000D03*
X116377419Y-119700000D03*
X170900000Y-62300000D03*
X172850000Y-92991858D03*
X125464516Y-59700000D03*
X83058064Y-62300000D03*
X140609677Y-89700000D03*
X163327419Y-62300000D03*
X170481091Y-89856637D03*
X171000000Y-122000000D03*
X180657435Y-50395873D03*
X169385483Y-89700000D03*
X175065790Y-52865707D03*
X86087096Y-59700000D03*
X111833870Y-89700000D03*
X113348387Y-89700000D03*
X184388990Y-53820674D03*
X176757788Y-51685001D03*
X172856637Y-87481091D03*
X172008142Y-92150000D03*
X81543548Y-89700000D03*
X134551612Y-119700000D03*
X84572580Y-92300000D03*
X140609677Y-92300000D03*
X126979032Y-62300000D03*
X83058064Y-122300000D03*
X189485100Y-62106018D03*
X101232258Y-59700000D03*
X105775806Y-122300000D03*
X187830441Y-56177557D03*
X183853319Y-71526880D03*
X188444854Y-57035930D03*
X84572580Y-119700000D03*
X128493548Y-62300000D03*
X81543548Y-59700000D03*
X179116025Y-67995191D03*
X133037096Y-119700000D03*
X172850000Y-89008142D03*
X86087096Y-89700000D03*
X110319354Y-122300000D03*
X189319108Y-68789779D03*
X175143363Y-87481091D03*
X113348387Y-122300000D03*
X116377419Y-122300000D03*
X130008064Y-119700000D03*
X155754838Y-59700000D03*
X158783870Y-62300000D03*
X95174193Y-62300000D03*
X134551612Y-92300000D03*
X98203225Y-122300000D03*
X136066129Y-119700000D03*
X137580645Y-89700000D03*
X111833870Y-62300000D03*
X167870967Y-62300000D03*
X148182258Y-62300000D03*
X86087096Y-119700000D03*
X184860657Y-71298866D03*
X93659677Y-62300000D03*
X189239158Y-53135867D03*
X140609677Y-119700000D03*
X154240322Y-59700000D03*
X164841935Y-62300000D03*
X169385483Y-92300000D03*
X164841935Y-92300000D03*
X149696774Y-62300000D03*
X99717741Y-89700000D03*
X158783870Y-89700000D03*
X177299610Y-66929278D03*
X117891935Y-92300000D03*
X105775806Y-59700000D03*
X130008064Y-92300000D03*
X169385483Y-62300000D03*
X177518909Y-92143363D03*
X187761624Y-65904456D03*
X176853209Y-70368059D03*
X131522580Y-119700000D03*
X86087096Y-62300000D03*
X83058064Y-59700000D03*
X104261290Y-92300000D03*
X111833870Y-122300000D03*
X176594528Y-55705581D03*
X177383975Y-55004809D03*
X125464516Y-122300000D03*
X105775806Y-62300000D03*
X171742046Y-57995941D03*
X175344587Y-57400628D03*
X176520158Y-66217406D03*
X114862903Y-122300000D03*
X182317554Y-53440294D03*
X126979032Y-92300000D03*
X136066129Y-122300000D03*
X87601612Y-119700000D03*
X90630645Y-122300000D03*
X164841935Y-59700000D03*
X101232258Y-119700000D03*
X110319354Y-59700000D03*
X128493548Y-92300000D03*
X128493548Y-59700000D03*
X183745697Y-50454738D03*
X174000000Y-88700000D03*
X102746774Y-59700000D03*
X149696774Y-59700000D03*
X78514516Y-122300000D03*
X148182258Y-92300000D03*
X151211290Y-89700000D03*
X83058064Y-92300000D03*
X175991858Y-92150000D03*
X169385483Y-59700000D03*
X93659677Y-89700000D03*
X152725806Y-89700000D03*
X157269354Y-62300000D03*
X90630645Y-89700000D03*
X136066129Y-89700000D03*
X140609677Y-59700000D03*
X171700000Y-91000000D03*
X171825195Y-88006637D03*
X192568590Y-59401591D03*
X151211290Y-62300000D03*
X161812903Y-62300000D03*
X136066129Y-59700000D03*
X92145161Y-89700000D03*
X93659677Y-92300000D03*
X175991858Y-89850000D03*
X154240322Y-89700000D03*
X104261290Y-122300000D03*
X130008064Y-122300000D03*
X99717741Y-59700000D03*
X126979032Y-59700000D03*
X119406451Y-89700000D03*
X178170550Y-67525742D03*
X143638709Y-122300000D03*
X188890280Y-64126346D03*
X116377419Y-59700000D03*
X179746865Y-71448607D03*
X172121039Y-65081191D03*
X172561049Y-66015596D03*
X172008142Y-89850000D03*
X175910293Y-56509402D03*
X145153225Y-59700000D03*
X87601612Y-59700000D03*
X166356451Y-62300000D03*
X101232258Y-92300000D03*
X161812903Y-89700000D03*
X102746774Y-62300000D03*
X143638709Y-92300000D03*
X107290322Y-62300000D03*
X143638709Y-62300000D03*
X81543548Y-119700000D03*
X148182258Y-59700000D03*
X116377419Y-89700000D03*
X175973087Y-69827589D03*
X164841935Y-119700000D03*
X145153225Y-62300000D03*
X139095161Y-119700000D03*
X89116129Y-59700000D03*
X120920967Y-89700000D03*
X173700525Y-67735631D03*
X175150000Y-92991858D03*
X177781384Y-70821063D03*
X111833870Y-59700000D03*
X186688179Y-51394221D03*
X160298387Y-59700000D03*
X131522580Y-92300000D03*
X139095161Y-62300000D03*
X134551612Y-59700000D03*
X191716258Y-65454698D03*
X146667741Y-62300000D03*
X175883234Y-52234433D03*
X125464516Y-92300000D03*
X117891935Y-59700000D03*
X171006637Y-93174805D03*
X114862903Y-92300000D03*
X160298387Y-62300000D03*
X123950000Y-89700000D03*
X171500000Y-59000000D03*
X146667741Y-119700000D03*
X185268684Y-67823907D03*
X160298387Y-122300000D03*
X157269354Y-92300000D03*
X163327419Y-59700000D03*
X145153225Y-119700000D03*
X113348387Y-92300000D03*
X163327419Y-92300000D03*
X137580645Y-59700000D03*
X174908421Y-58361911D03*
X122435483Y-122300000D03*
X133037096Y-59700000D03*
X155754838Y-122300000D03*
X131522580Y-122300000D03*
X179640256Y-50574953D03*
X186186578Y-67302584D03*
X131522580Y-89700000D03*
X125464516Y-62300000D03*
X179215290Y-53964704D03*
X188933825Y-57971458D03*
X122435483Y-59700000D03*
X117891935Y-122300000D03*
X98203225Y-119700000D03*
X93659677Y-59700000D03*
X174448513Y-61474390D03*
X126979032Y-89700000D03*
X102746774Y-119700000D03*
X158783870Y-92300000D03*
X119406451Y-119700000D03*
X123950000Y-59700000D03*
X81543548Y-92300000D03*
X189287837Y-58965934D03*
X171825195Y-93993363D03*
X104261290Y-89700000D03*
X174455981Y-60418810D03*
X145153225Y-89700000D03*
X80029032Y-92300000D03*
X148182258Y-122300000D03*
X174000000Y-93300000D03*
X111833870Y-119700000D03*
X163327419Y-89700000D03*
X108804838Y-119700000D03*
X182828676Y-71656608D03*
X80029032Y-119700000D03*
X146667741Y-59700000D03*
X189258328Y-63136979D03*
X139095161Y-92300000D03*
X128493548Y-119700000D03*
X93659677Y-122300000D03*
X78514516Y-89700000D03*
X102746774Y-89700000D03*
X84572580Y-62300000D03*
X108804838Y-92300000D03*
X117891935Y-62300000D03*
X145153225Y-122300000D03*
X92145161Y-59700000D03*
X96688709Y-122300000D03*
X180117634Y-68328486D03*
X192391112Y-63504955D03*
X183261137Y-68460532D03*
X149696774Y-122300000D03*
X154240322Y-119700000D03*
X99717741Y-119700000D03*
X181262355Y-53469669D03*
X177518909Y-89856637D03*
X190615204Y-54673211D03*
X164841935Y-89700000D03*
X157269354Y-89700000D03*
X163327419Y-119700000D03*
X167870967Y-89700000D03*
X186786051Y-70557391D03*
X123950000Y-62300000D03*
X180765819Y-71617288D03*
X119406451Y-62300000D03*
X92145161Y-122300000D03*
X98203225Y-92300000D03*
X80029032Y-89700000D03*
X110319354Y-119700000D03*
X171000000Y-120000000D03*
X161812903Y-122300000D03*
X155754838Y-119700000D03*
X142124193Y-119700000D03*
X102746774Y-92300000D03*
X133037096Y-92300000D03*
X142124193Y-62300000D03*
X89116129Y-89700000D03*
X83058064Y-89700000D03*
X122435483Y-62300000D03*
X108804838Y-122300000D03*
X166356451Y-92300000D03*
X133037096Y-89700000D03*
X114862903Y-119700000D03*
X117891935Y-119700000D03*
X137580645Y-92300000D03*
X120920967Y-92300000D03*
X180221515Y-53645614D03*
X189500000Y-60000000D03*
X171156594Y-91966443D03*
X155754838Y-92300000D03*
X172079867Y-57019929D03*
X87601612Y-89700000D03*
X136066129Y-92300000D03*
X99717741Y-62300000D03*
X104261290Y-62300000D03*
X148182258Y-89700000D03*
X96688709Y-62300000D03*
X142124193Y-89700000D03*
X89116129Y-62300000D03*
X148182258Y-119700000D03*
X86087096Y-122300000D03*
X122435483Y-89700000D03*
X175150000Y-89008142D03*
X175847365Y-65403984D03*
X120920967Y-62300000D03*
X160298387Y-89700000D03*
X108804838Y-89700000D03*
G04 #@! TA.AperFunction,Conductor*
G36*
X73810365Y-85231756D02*
G01*
X73826240Y-85244419D01*
X73864607Y-85280448D01*
X73871551Y-85284265D01*
X73871553Y-85284267D01*
X73912224Y-85306626D01*
X74008632Y-85359627D01*
X74016304Y-85361597D01*
X74016307Y-85361598D01*
X74160145Y-85398529D01*
X74160148Y-85398529D01*
X74167823Y-85400500D01*
X74290925Y-85400500D01*
X74348690Y-85393203D01*
X74405193Y-85386065D01*
X74405196Y-85386064D01*
X74413058Y-85385071D01*
X74420425Y-85382154D01*
X74420426Y-85382154D01*
X74542801Y-85333702D01*
X74565871Y-85324568D01*
X74569908Y-85321635D01*
X74637964Y-85306626D01*
X74690037Y-85321916D01*
X74751684Y-85355807D01*
X74758632Y-85359627D01*
X74766307Y-85361598D01*
X74766308Y-85361598D01*
X74910145Y-85398529D01*
X74910148Y-85398529D01*
X74917823Y-85400500D01*
X75040925Y-85400500D01*
X75098690Y-85393203D01*
X75155193Y-85386065D01*
X75155196Y-85386064D01*
X75163058Y-85385071D01*
X75170425Y-85382154D01*
X75170426Y-85382154D01*
X75292801Y-85333702D01*
X75315871Y-85324568D01*
X75319908Y-85321635D01*
X75387964Y-85306626D01*
X75440037Y-85321916D01*
X75501684Y-85355807D01*
X75508632Y-85359627D01*
X75516307Y-85361598D01*
X75516308Y-85361598D01*
X75660145Y-85398529D01*
X75660148Y-85398529D01*
X75667823Y-85400500D01*
X75790925Y-85400500D01*
X75848690Y-85393203D01*
X75905193Y-85386065D01*
X75905196Y-85386064D01*
X75913058Y-85385071D01*
X75920425Y-85382154D01*
X75920426Y-85382154D01*
X75977322Y-85359627D01*
X76065871Y-85324568D01*
X76188185Y-85235702D01*
X76255053Y-85211843D01*
X76328081Y-85230206D01*
X76358225Y-85248679D01*
X76358231Y-85248682D01*
X76362448Y-85251266D01*
X76492975Y-85305332D01*
X76533012Y-85321916D01*
X76566038Y-85335596D01*
X76640070Y-85353369D01*
X76775502Y-85385884D01*
X76775508Y-85385885D01*
X76780315Y-85387039D01*
X76926306Y-85398529D01*
X76986823Y-85403292D01*
X76988031Y-85403435D01*
X76988641Y-85403435D01*
X76991754Y-85403680D01*
X77000000Y-85404986D01*
X77021689Y-85401551D01*
X77041398Y-85400000D01*
X78782125Y-85400000D01*
X78850246Y-85420002D01*
X78871220Y-85436905D01*
X81172358Y-87738043D01*
X81172359Y-87738045D01*
X81261955Y-87827641D01*
X81281522Y-87837611D01*
X81298380Y-87847943D01*
X81316140Y-87860846D01*
X81337026Y-87867632D01*
X81355293Y-87875199D01*
X81366014Y-87880662D01*
X81366016Y-87880663D01*
X81374852Y-87885165D01*
X81384645Y-87886716D01*
X81384648Y-87886717D01*
X81394064Y-87888208D01*
X81396543Y-87888600D01*
X81415753Y-87893212D01*
X81436646Y-87900000D01*
X162958602Y-87900000D01*
X162978311Y-87901551D01*
X163000000Y-87904986D01*
X163008246Y-87903680D01*
X163011359Y-87903435D01*
X163011969Y-87903435D01*
X163013177Y-87903292D01*
X163073694Y-87898529D01*
X163219685Y-87887039D01*
X163224492Y-87885885D01*
X163224498Y-87885884D01*
X163366617Y-87851764D01*
X163433962Y-87835596D01*
X163442299Y-87832143D01*
X163546889Y-87788820D01*
X163637552Y-87751266D01*
X163674155Y-87728836D01*
X163742689Y-87710299D01*
X163810365Y-87731756D01*
X163826240Y-87744419D01*
X163864607Y-87780448D01*
X163871551Y-87784265D01*
X163871553Y-87784267D01*
X163937697Y-87820630D01*
X164008632Y-87859627D01*
X164016304Y-87861597D01*
X164016307Y-87861598D01*
X164160145Y-87898529D01*
X164160148Y-87898529D01*
X164167823Y-87900500D01*
X164290925Y-87900500D01*
X164353761Y-87892562D01*
X164405193Y-87886065D01*
X164405196Y-87886064D01*
X164413058Y-87885071D01*
X164420425Y-87882154D01*
X164420426Y-87882154D01*
X164503885Y-87849110D01*
X164565871Y-87824568D01*
X164569908Y-87821635D01*
X164637964Y-87806626D01*
X164690037Y-87821916D01*
X164751684Y-87855807D01*
X164758632Y-87859627D01*
X164766307Y-87861598D01*
X164766308Y-87861598D01*
X164910145Y-87898529D01*
X164910148Y-87898529D01*
X164917823Y-87900500D01*
X165040925Y-87900500D01*
X165103761Y-87892562D01*
X165155193Y-87886065D01*
X165155196Y-87886064D01*
X165163058Y-87885071D01*
X165170425Y-87882154D01*
X165170426Y-87882154D01*
X165253885Y-87849110D01*
X165315871Y-87824568D01*
X165319908Y-87821635D01*
X165387964Y-87806626D01*
X165440037Y-87821916D01*
X165501684Y-87855807D01*
X165508632Y-87859627D01*
X165516307Y-87861598D01*
X165516308Y-87861598D01*
X165660145Y-87898529D01*
X165660148Y-87898529D01*
X165667823Y-87900500D01*
X165790925Y-87900500D01*
X165853761Y-87892562D01*
X165905193Y-87886065D01*
X165905196Y-87886064D01*
X165913058Y-87885071D01*
X165920425Y-87882154D01*
X165920426Y-87882154D01*
X165977322Y-87859627D01*
X166065871Y-87824568D01*
X166101520Y-87798668D01*
X166160055Y-87756140D01*
X166188185Y-87735702D01*
X166255053Y-87711843D01*
X166328081Y-87730206D01*
X166358225Y-87748679D01*
X166358231Y-87748682D01*
X166362448Y-87751266D01*
X166453111Y-87788820D01*
X166557702Y-87832143D01*
X166566038Y-87835596D01*
X166633383Y-87851764D01*
X166775502Y-87885884D01*
X166775508Y-87885885D01*
X166780315Y-87887039D01*
X166926306Y-87898529D01*
X166986823Y-87903292D01*
X166988031Y-87903435D01*
X166988641Y-87903435D01*
X166991754Y-87903680D01*
X167000000Y-87904986D01*
X167021689Y-87901551D01*
X167041398Y-87900000D01*
X170979795Y-87900000D01*
X170989459Y-87900371D01*
X171022603Y-87902921D01*
X171022606Y-87902921D01*
X171032489Y-87903681D01*
X171042127Y-87901349D01*
X171042130Y-87901349D01*
X171073526Y-87893753D01*
X171083441Y-87891771D01*
X171110867Y-87887427D01*
X171115356Y-87886716D01*
X171125148Y-87885165D01*
X171133981Y-87880665D01*
X171140073Y-87878685D01*
X171146004Y-87876216D01*
X171155643Y-87873884D01*
X171164088Y-87868688D01*
X171164091Y-87868687D01*
X171191596Y-87851764D01*
X171200420Y-87846812D01*
X171229211Y-87832143D01*
X171229215Y-87832140D01*
X171238045Y-87827641D01*
X171245055Y-87820631D01*
X171250237Y-87816866D01*
X171255116Y-87812684D01*
X171263561Y-87807488D01*
X171271067Y-87798668D01*
X171289657Y-87780878D01*
X171297184Y-87775023D01*
X171571052Y-87561972D01*
X171580831Y-87555084D01*
X171908040Y-87347121D01*
X171918429Y-87341191D01*
X172263884Y-87165196D01*
X172274789Y-87160278D01*
X172440003Y-87095014D01*
X172635377Y-87017836D01*
X172646688Y-87013978D01*
X172798864Y-86970016D01*
X173019162Y-86906374D01*
X173030799Y-86903603D01*
X173411804Y-86831805D01*
X173423651Y-86830151D01*
X173736305Y-86801531D01*
X173809729Y-86794810D01*
X173821676Y-86794286D01*
X174012622Y-86794992D01*
X174209380Y-86795719D01*
X174221326Y-86796331D01*
X174607139Y-86834522D01*
X174618974Y-86836264D01*
X174999435Y-86910874D01*
X175011051Y-86913731D01*
X175235719Y-86980437D01*
X175382711Y-87024080D01*
X175393992Y-87028021D01*
X175753541Y-87173132D01*
X175764393Y-87178123D01*
X175930060Y-87264071D01*
X176108535Y-87356664D01*
X176118879Y-87362670D01*
X176444547Y-87573046D01*
X176454273Y-87580004D01*
X176758529Y-87820323D01*
X176767543Y-87828167D01*
X176842981Y-87900371D01*
X177047621Y-88096240D01*
X177055861Y-88104912D01*
X177309265Y-88398349D01*
X177316645Y-88407764D01*
X177541072Y-88723900D01*
X177547526Y-88733972D01*
X177740967Y-89069977D01*
X177746436Y-89080616D01*
X177907136Y-89433439D01*
X177911572Y-89444549D01*
X178038086Y-89811018D01*
X178041449Y-89822498D01*
X178127573Y-90178371D01*
X178132643Y-90199322D01*
X178134901Y-90211064D01*
X178136344Y-90221124D01*
X178155705Y-90356111D01*
X178145577Y-90426382D01*
X178099065Y-90480021D01*
X178030981Y-90500000D01*
X175838409Y-90500000D01*
X175770288Y-90479998D01*
X175723795Y-90426342D01*
X175720976Y-90419667D01*
X175643767Y-90221124D01*
X175643766Y-90221122D01*
X175642074Y-90216771D01*
X175609157Y-90159178D01*
X175510588Y-89986717D01*
X175510586Y-89986715D01*
X175508269Y-89982660D01*
X175341329Y-89770898D01*
X175144923Y-89586138D01*
X174987524Y-89476946D01*
X174927207Y-89435102D01*
X174927204Y-89435100D01*
X174923365Y-89432437D01*
X174919172Y-89430369D01*
X174685710Y-89315238D01*
X174685707Y-89315237D01*
X174681522Y-89313173D01*
X174627596Y-89295911D01*
X174429152Y-89232389D01*
X174429154Y-89232389D01*
X174424707Y-89230966D01*
X174279210Y-89207271D01*
X174163175Y-89188373D01*
X174163174Y-89188373D01*
X174158563Y-89187622D01*
X174023749Y-89185857D01*
X173893611Y-89184153D01*
X173893608Y-89184153D01*
X173888934Y-89184092D01*
X173621746Y-89220455D01*
X173362867Y-89295911D01*
X173358614Y-89297871D01*
X173358613Y-89297872D01*
X173325423Y-89313173D01*
X173117985Y-89408803D01*
X173072101Y-89438886D01*
X172896393Y-89554085D01*
X172896388Y-89554089D01*
X172892480Y-89556651D01*
X172691304Y-89736207D01*
X172518879Y-89943527D01*
X172378991Y-90174055D01*
X172377182Y-90178369D01*
X172377181Y-90178371D01*
X172288731Y-90389301D01*
X172274714Y-90422727D01*
X172273563Y-90427259D01*
X172273562Y-90427262D01*
X172263477Y-90466972D01*
X172208338Y-90684082D01*
X172181322Y-90952376D01*
X172182929Y-90985839D01*
X172194260Y-91221717D01*
X172246866Y-91486187D01*
X172337986Y-91739976D01*
X172465617Y-91977510D01*
X172468412Y-91981254D01*
X172468414Y-91981256D01*
X172555888Y-92098398D01*
X172626956Y-92193569D01*
X172630263Y-92196847D01*
X172630268Y-92196853D01*
X172734967Y-92300641D01*
X172818459Y-92383407D01*
X172822226Y-92386169D01*
X172822227Y-92386170D01*
X172939072Y-92471845D01*
X173035917Y-92542855D01*
X173040048Y-92545029D01*
X173040049Y-92545029D01*
X173270420Y-92666233D01*
X173270426Y-92666235D01*
X173274555Y-92668408D01*
X173278963Y-92669947D01*
X173278969Y-92669950D01*
X173524714Y-92755768D01*
X173529130Y-92757310D01*
X173533723Y-92758182D01*
X173789460Y-92806735D01*
X173789463Y-92806735D01*
X173794049Y-92807606D01*
X173928771Y-92812900D01*
X174058825Y-92818010D01*
X174058831Y-92818010D01*
X174063493Y-92818193D01*
X174146763Y-92809074D01*
X174326888Y-92789347D01*
X174326893Y-92789346D01*
X174331541Y-92788837D01*
X174336065Y-92787646D01*
X174587783Y-92721374D01*
X174587785Y-92721373D01*
X174592306Y-92720183D01*
X174840060Y-92613740D01*
X174844031Y-92611283D01*
X174844038Y-92611279D01*
X175065375Y-92474310D01*
X175065377Y-92474308D01*
X175069358Y-92471845D01*
X175173826Y-92383407D01*
X175271593Y-92300641D01*
X175271594Y-92300640D01*
X175275165Y-92297617D01*
X175369693Y-92189829D01*
X175449876Y-92098398D01*
X175449879Y-92098393D01*
X175452958Y-92094883D01*
X175598833Y-91868095D01*
X175696318Y-91651688D01*
X175707664Y-91626501D01*
X175707665Y-91626497D01*
X175709584Y-91622238D01*
X175710852Y-91617743D01*
X175710855Y-91617734D01*
X175718170Y-91591797D01*
X175755912Y-91531664D01*
X175820174Y-91501482D01*
X175839439Y-91500000D01*
X178030981Y-91500000D01*
X178099102Y-91520002D01*
X178145595Y-91573658D01*
X178155705Y-91643889D01*
X178134902Y-91788930D01*
X178132645Y-91800669D01*
X178089848Y-91977510D01*
X178041449Y-92177502D01*
X178038086Y-92188982D01*
X177911572Y-92555451D01*
X177907136Y-92566561D01*
X177746436Y-92919384D01*
X177740967Y-92930023D01*
X177547526Y-93266028D01*
X177541072Y-93276100D01*
X177316645Y-93592236D01*
X177309265Y-93601651D01*
X177055861Y-93895088D01*
X177047621Y-93903760D01*
X176915444Y-94030272D01*
X176771696Y-94167859D01*
X176767548Y-94171829D01*
X176758529Y-94179677D01*
X176619233Y-94289701D01*
X176454277Y-94419993D01*
X176444547Y-94426954D01*
X176118879Y-94637330D01*
X176108535Y-94643336D01*
X175930060Y-94735929D01*
X175764393Y-94821877D01*
X175753541Y-94826868D01*
X175393992Y-94971979D01*
X175382711Y-94975920D01*
X175301608Y-95000000D01*
X175011051Y-95086269D01*
X174999435Y-95089126D01*
X174618974Y-95163736D01*
X174607139Y-95165478D01*
X174221326Y-95203669D01*
X174209380Y-95204281D01*
X174012622Y-95205008D01*
X173821676Y-95205714D01*
X173809729Y-95205190D01*
X173736305Y-95198469D01*
X173423651Y-95169849D01*
X173411804Y-95168195D01*
X173030799Y-95096397D01*
X173019162Y-95093626D01*
X172798864Y-95029984D01*
X172646688Y-94986022D01*
X172635377Y-94982164D01*
X172274789Y-94839722D01*
X172263884Y-94834804D01*
X171918429Y-94658809D01*
X171908040Y-94652879D01*
X171580831Y-94444916D01*
X171571051Y-94438027D01*
X171354794Y-94269794D01*
X171289656Y-94219121D01*
X171271067Y-94201332D01*
X171269987Y-94200063D01*
X171263561Y-94192512D01*
X171255116Y-94187316D01*
X171250237Y-94183134D01*
X171245055Y-94179369D01*
X171238045Y-94172359D01*
X171229215Y-94167860D01*
X171229211Y-94167857D01*
X171200420Y-94153188D01*
X171191596Y-94148236D01*
X171164091Y-94131313D01*
X171164088Y-94131312D01*
X171155643Y-94126116D01*
X171146004Y-94123784D01*
X171140073Y-94121315D01*
X171133981Y-94119335D01*
X171125148Y-94114835D01*
X171115350Y-94113283D01*
X171103461Y-94111400D01*
X171083441Y-94108229D01*
X171073526Y-94106247D01*
X171042130Y-94098651D01*
X171042127Y-94098651D01*
X171032489Y-94096319D01*
X171022606Y-94097079D01*
X171022603Y-94097079D01*
X170989459Y-94099629D01*
X170979795Y-94100000D01*
X167041398Y-94100000D01*
X167021689Y-94098449D01*
X167000000Y-94095014D01*
X166991754Y-94096320D01*
X166988641Y-94096565D01*
X166988031Y-94096565D01*
X166986823Y-94096708D01*
X166951349Y-94099500D01*
X166780315Y-94112961D01*
X166775508Y-94114115D01*
X166775502Y-94114116D01*
X166650223Y-94144193D01*
X166566038Y-94164404D01*
X166561467Y-94166297D01*
X166561465Y-94166298D01*
X166529907Y-94179370D01*
X166362448Y-94248734D01*
X166340873Y-94261955D01*
X166325845Y-94271164D01*
X166257311Y-94289701D01*
X166189635Y-94268244D01*
X166173759Y-94255580D01*
X166169221Y-94251318D01*
X166135393Y-94219552D01*
X166128449Y-94215735D01*
X166128447Y-94215733D01*
X166010498Y-94150890D01*
X165991368Y-94140373D01*
X165983696Y-94138403D01*
X165983693Y-94138402D01*
X165839855Y-94101471D01*
X165839852Y-94101471D01*
X165832177Y-94099500D01*
X165709075Y-94099500D01*
X165655667Y-94106247D01*
X165594807Y-94113935D01*
X165594804Y-94113936D01*
X165586942Y-94114929D01*
X165579575Y-94117846D01*
X165579574Y-94117846D01*
X165533493Y-94136091D01*
X165434129Y-94175432D01*
X165430092Y-94178365D01*
X165362036Y-94193374D01*
X165309963Y-94178084D01*
X165248315Y-94144192D01*
X165248314Y-94144191D01*
X165241368Y-94140373D01*
X165233693Y-94138402D01*
X165233692Y-94138402D01*
X165089855Y-94101471D01*
X165089852Y-94101471D01*
X165082177Y-94099500D01*
X164959075Y-94099500D01*
X164905667Y-94106247D01*
X164844807Y-94113935D01*
X164844804Y-94113936D01*
X164836942Y-94114929D01*
X164829575Y-94117846D01*
X164829574Y-94117846D01*
X164783493Y-94136091D01*
X164684129Y-94175432D01*
X164680092Y-94178365D01*
X164612036Y-94193374D01*
X164559963Y-94178084D01*
X164498315Y-94144192D01*
X164498314Y-94144191D01*
X164491368Y-94140373D01*
X164483693Y-94138402D01*
X164483692Y-94138402D01*
X164339855Y-94101471D01*
X164339852Y-94101471D01*
X164332177Y-94099500D01*
X164209075Y-94099500D01*
X164155667Y-94106247D01*
X164094807Y-94113935D01*
X164094804Y-94113936D01*
X164086942Y-94114929D01*
X164079575Y-94117846D01*
X164079574Y-94117846D01*
X164068408Y-94122267D01*
X163934129Y-94175432D01*
X163927718Y-94180090D01*
X163927716Y-94180091D01*
X163873403Y-94219552D01*
X163835843Y-94246841D01*
X163811815Y-94264298D01*
X163744947Y-94288157D01*
X163671919Y-94269794D01*
X163641775Y-94251321D01*
X163641767Y-94251317D01*
X163637552Y-94248734D01*
X163470093Y-94179370D01*
X163438535Y-94166298D01*
X163438533Y-94166297D01*
X163433962Y-94164404D01*
X163349777Y-94144193D01*
X163224498Y-94114116D01*
X163224492Y-94114115D01*
X163219685Y-94112961D01*
X163048651Y-94099500D01*
X163013177Y-94096708D01*
X163011969Y-94096565D01*
X163011359Y-94096565D01*
X163008246Y-94096320D01*
X163000000Y-94095014D01*
X162978311Y-94098449D01*
X162958602Y-94100000D01*
X81436646Y-94100000D01*
X81415753Y-94106788D01*
X81396543Y-94111400D01*
X81394064Y-94111792D01*
X81384648Y-94113283D01*
X81384645Y-94113284D01*
X81374852Y-94114835D01*
X81366016Y-94119337D01*
X81366014Y-94119338D01*
X81355293Y-94124801D01*
X81337026Y-94132368D01*
X81316140Y-94139154D01*
X81308116Y-94144984D01*
X81298381Y-94152057D01*
X81281522Y-94162389D01*
X81261955Y-94172359D01*
X81172359Y-94261955D01*
X81172358Y-94261957D01*
X78871220Y-96563095D01*
X78808908Y-96597121D01*
X78782125Y-96600000D01*
X77041398Y-96600000D01*
X77021689Y-96598449D01*
X77000000Y-96595014D01*
X76991754Y-96596320D01*
X76988641Y-96596565D01*
X76988031Y-96596565D01*
X76986823Y-96596708D01*
X76964703Y-96598449D01*
X76780315Y-96612961D01*
X76775508Y-96614115D01*
X76775502Y-96614116D01*
X76650223Y-96644193D01*
X76566038Y-96664404D01*
X76561467Y-96666297D01*
X76561465Y-96666298D01*
X76528166Y-96680091D01*
X76362448Y-96748734D01*
X76337050Y-96764298D01*
X76325845Y-96771164D01*
X76257311Y-96789701D01*
X76189635Y-96768244D01*
X76173759Y-96755580D01*
X76169221Y-96751318D01*
X76135393Y-96719552D01*
X76128449Y-96715735D01*
X76128447Y-96715733D01*
X76032979Y-96663249D01*
X75991368Y-96640373D01*
X75983696Y-96638403D01*
X75983693Y-96638402D01*
X75839855Y-96601471D01*
X75839852Y-96601471D01*
X75832177Y-96599500D01*
X75709075Y-96599500D01*
X75651310Y-96606797D01*
X75594807Y-96613935D01*
X75594804Y-96613936D01*
X75586942Y-96614929D01*
X75579575Y-96617846D01*
X75579574Y-96617846D01*
X75527656Y-96638402D01*
X75434129Y-96675432D01*
X75430092Y-96678365D01*
X75362036Y-96693374D01*
X75309963Y-96678084D01*
X75248315Y-96644192D01*
X75248314Y-96644191D01*
X75241368Y-96640373D01*
X75233693Y-96638402D01*
X75233692Y-96638402D01*
X75089855Y-96601471D01*
X75089852Y-96601471D01*
X75082177Y-96599500D01*
X74959075Y-96599500D01*
X74901310Y-96606797D01*
X74844807Y-96613935D01*
X74844804Y-96613936D01*
X74836942Y-96614929D01*
X74829575Y-96617846D01*
X74829574Y-96617846D01*
X74777656Y-96638402D01*
X74684129Y-96675432D01*
X74680092Y-96678365D01*
X74612036Y-96693374D01*
X74559963Y-96678084D01*
X74498315Y-96644192D01*
X74498314Y-96644191D01*
X74491368Y-96640373D01*
X74483693Y-96638402D01*
X74483692Y-96638402D01*
X74339855Y-96601471D01*
X74339852Y-96601471D01*
X74332177Y-96599500D01*
X74209075Y-96599500D01*
X74151310Y-96606797D01*
X74094807Y-96613935D01*
X74094804Y-96613936D01*
X74086942Y-96614929D01*
X74079575Y-96617846D01*
X74079574Y-96617846D01*
X74044867Y-96631588D01*
X73934129Y-96675432D01*
X73835843Y-96746841D01*
X73811815Y-96764298D01*
X73744947Y-96788157D01*
X73671919Y-96769794D01*
X73641775Y-96751321D01*
X73641767Y-96751317D01*
X73637552Y-96748734D01*
X73471834Y-96680091D01*
X73438535Y-96666298D01*
X73438533Y-96666297D01*
X73433962Y-96664404D01*
X73349777Y-96644193D01*
X73224498Y-96614116D01*
X73224492Y-96614115D01*
X73219685Y-96612961D01*
X73035297Y-96598449D01*
X73013177Y-96596708D01*
X73011969Y-96596565D01*
X73011359Y-96596565D01*
X73008246Y-96596320D01*
X73000000Y-96595014D01*
X72978311Y-96598449D01*
X72958602Y-96600000D01*
X70526000Y-96600000D01*
X70457879Y-96579998D01*
X70411386Y-96526342D01*
X70400000Y-96474000D01*
X70400000Y-90993138D01*
X76344758Y-90993138D01*
X76362035Y-91149633D01*
X76416143Y-91297490D01*
X76420380Y-91303796D01*
X76420382Y-91303799D01*
X76460709Y-91363811D01*
X76503958Y-91428172D01*
X76620410Y-91534135D01*
X76627085Y-91537759D01*
X76752099Y-91605637D01*
X76752101Y-91605638D01*
X76758776Y-91609262D01*
X76766125Y-91611190D01*
X76903719Y-91647287D01*
X76903721Y-91647287D01*
X76911069Y-91649215D01*
X76994380Y-91650524D01*
X77060898Y-91651569D01*
X77060901Y-91651569D01*
X77068495Y-91651688D01*
X77221968Y-91616538D01*
X77362625Y-91545795D01*
X77437780Y-91481607D01*
X77476574Y-91448474D01*
X77476576Y-91448471D01*
X77482348Y-91443542D01*
X77574224Y-91315683D01*
X77632950Y-91169598D01*
X77655134Y-91013723D01*
X77655278Y-91000000D01*
X77636363Y-90843694D01*
X77580710Y-90696412D01*
X77491531Y-90566657D01*
X77416717Y-90500000D01*
X77379648Y-90466972D01*
X77379645Y-90466970D01*
X77373976Y-90461919D01*
X77234831Y-90388245D01*
X77218122Y-90384048D01*
X77089498Y-90351740D01*
X77089496Y-90351740D01*
X77082128Y-90349889D01*
X77074530Y-90349849D01*
X77074528Y-90349849D01*
X77007319Y-90349497D01*
X76924684Y-90349065D01*
X76917305Y-90350837D01*
X76917301Y-90350837D01*
X76778967Y-90384048D01*
X76778963Y-90384049D01*
X76771588Y-90385820D01*
X76631679Y-90458032D01*
X76625957Y-90463024D01*
X76625955Y-90463025D01*
X76518759Y-90556538D01*
X76518756Y-90556541D01*
X76513034Y-90561533D01*
X76508667Y-90567747D01*
X76426905Y-90684082D01*
X76422501Y-90690348D01*
X76365309Y-90837039D01*
X76344758Y-90993138D01*
X70400000Y-90993138D01*
X70400000Y-85526000D01*
X70420002Y-85457879D01*
X70473658Y-85411386D01*
X70526000Y-85400000D01*
X72958602Y-85400000D01*
X72978311Y-85401551D01*
X73000000Y-85404986D01*
X73008246Y-85403680D01*
X73011359Y-85403435D01*
X73011969Y-85403435D01*
X73013177Y-85403292D01*
X73073694Y-85398529D01*
X73219685Y-85387039D01*
X73224492Y-85385885D01*
X73224498Y-85385884D01*
X73359930Y-85353369D01*
X73433962Y-85335596D01*
X73466989Y-85321916D01*
X73507025Y-85305332D01*
X73637552Y-85251266D01*
X73674155Y-85228836D01*
X73742689Y-85210299D01*
X73810365Y-85231756D01*
G37*
G04 #@! TD.AperFunction*
G04 #@! TA.AperFunction,Conductor*
G36*
X182032826Y-49379333D02*
G01*
X182205996Y-49384798D01*
X182700075Y-49400392D01*
X182707345Y-49400833D01*
X183165878Y-49442044D01*
X183372253Y-49460593D01*
X183379519Y-49461459D01*
X184039835Y-49559716D01*
X184047039Y-49561003D01*
X184700526Y-49697426D01*
X184707642Y-49699129D01*
X185352106Y-49873257D01*
X185359113Y-49875370D01*
X185992385Y-50086619D01*
X185999256Y-50089135D01*
X186619197Y-50336789D01*
X186625911Y-50339700D01*
X187230436Y-50622930D01*
X187236969Y-50626226D01*
X187824014Y-50944061D01*
X187830344Y-50947730D01*
X188352767Y-51271138D01*
X188397963Y-51299117D01*
X188404071Y-51303148D01*
X188950326Y-51686890D01*
X188956189Y-51691268D01*
X189268069Y-51938601D01*
X189425119Y-52063147D01*
X189479261Y-52106084D01*
X189484853Y-52110790D01*
X189940905Y-52517744D01*
X189982948Y-52555261D01*
X189988256Y-52560281D01*
X190223996Y-52796613D01*
X190459728Y-53032937D01*
X190464743Y-53038266D01*
X190686350Y-53287867D01*
X190870787Y-53495601D01*
X190907958Y-53537468D01*
X190912648Y-53543069D01*
X191222352Y-53935616D01*
X191326151Y-54067180D01*
X191330515Y-54073054D01*
X191712896Y-54620286D01*
X191716911Y-54626404D01*
X191806262Y-54771550D01*
X192037734Y-55147565D01*
X192066861Y-55194881D01*
X192070510Y-55201213D01*
X192096056Y-55248679D01*
X192386891Y-55789089D01*
X192390170Y-55795631D01*
X192671875Y-56400850D01*
X192674769Y-56407571D01*
X192920869Y-57028131D01*
X192923363Y-57034993D01*
X193133037Y-57668840D01*
X193135119Y-57675809D01*
X193196424Y-57904986D01*
X193307633Y-58320720D01*
X193309318Y-58327841D01*
X193444101Y-58981666D01*
X193445370Y-58988871D01*
X193520820Y-59504797D01*
X193541971Y-59649431D01*
X193542819Y-59656699D01*
X193600908Y-60321737D01*
X193601333Y-60329041D01*
X193602533Y-60370340D01*
X193584518Y-60439013D01*
X193532235Y-60487045D01*
X193476586Y-60500000D01*
X188497460Y-60500000D01*
X188429339Y-60479998D01*
X188382846Y-60426342D01*
X188372333Y-60388810D01*
X188326373Y-60000499D01*
X188326083Y-59998047D01*
X188227969Y-59504797D01*
X188091458Y-59020765D01*
X187917391Y-58548936D01*
X187706842Y-58092219D01*
X187475018Y-57678269D01*
X187462319Y-57655593D01*
X187462318Y-57655591D01*
X187461107Y-57653429D01*
X187181704Y-57235272D01*
X186870353Y-56840326D01*
X186868563Y-56838389D01*
X186530638Y-56472824D01*
X186528975Y-56471025D01*
X186456651Y-56404169D01*
X186161494Y-56131329D01*
X186161488Y-56131324D01*
X186159674Y-56129647D01*
X185764728Y-55818296D01*
X185730808Y-55795631D01*
X185548899Y-55674084D01*
X185346571Y-55538893D01*
X184907781Y-55293158D01*
X184451064Y-55082609D01*
X183979235Y-54908542D01*
X183651179Y-54816021D01*
X183497583Y-54772702D01*
X183497578Y-54772701D01*
X183495203Y-54772031D01*
X183001953Y-54673917D01*
X182806015Y-54650726D01*
X182504979Y-54615096D01*
X182504971Y-54615095D01*
X182502526Y-54614806D01*
X182000000Y-54595062D01*
X181497474Y-54614806D01*
X181495029Y-54615095D01*
X181495021Y-54615096D01*
X181193985Y-54650726D01*
X180998047Y-54673917D01*
X180504797Y-54772031D01*
X180502422Y-54772701D01*
X180502417Y-54772702D01*
X180348821Y-54816021D01*
X180020765Y-54908542D01*
X179548936Y-55082609D01*
X179092219Y-55293158D01*
X178653429Y-55538893D01*
X178451101Y-55674084D01*
X178269193Y-55795631D01*
X178235272Y-55818296D01*
X177840326Y-56129647D01*
X177838512Y-56131324D01*
X177838506Y-56131329D01*
X177543349Y-56404169D01*
X177471025Y-56471025D01*
X177469362Y-56472824D01*
X177131438Y-56838389D01*
X177129647Y-56840326D01*
X176818296Y-57235272D01*
X176538893Y-57653429D01*
X176537682Y-57655591D01*
X176537681Y-57655593D01*
X176524982Y-57678269D01*
X176293158Y-58092219D01*
X176082609Y-58548936D01*
X175908542Y-59020765D01*
X175772031Y-59504797D01*
X175673917Y-59998047D01*
X175673627Y-60000499D01*
X175619887Y-60454549D01*
X175614806Y-60497474D01*
X175595062Y-61000000D01*
X175604276Y-61234504D01*
X175614806Y-61502526D01*
X175615095Y-61504971D01*
X175615096Y-61504979D01*
X175632168Y-61649215D01*
X175673917Y-62001953D01*
X175772031Y-62495203D01*
X175908542Y-62979235D01*
X176082609Y-63451064D01*
X176293158Y-63907781D01*
X176485549Y-64251318D01*
X176530278Y-64331187D01*
X176538893Y-64346571D01*
X176818296Y-64764728D01*
X177129647Y-65159674D01*
X177131324Y-65161488D01*
X177131329Y-65161494D01*
X177242524Y-65281784D01*
X177471025Y-65528975D01*
X177472824Y-65530638D01*
X177686585Y-65728236D01*
X177840326Y-65870353D01*
X178235272Y-66181704D01*
X178237333Y-66183081D01*
X178237337Y-66183084D01*
X178274169Y-66207694D01*
X178653429Y-66461107D01*
X179092219Y-66706842D01*
X179548936Y-66917391D01*
X180020765Y-67091458D01*
X180347483Y-67183602D01*
X180502417Y-67227298D01*
X180502422Y-67227299D01*
X180504797Y-67227969D01*
X180998047Y-67326083D01*
X181193985Y-67349274D01*
X181495021Y-67384904D01*
X181495029Y-67384905D01*
X181497474Y-67385194D01*
X182000000Y-67404938D01*
X182502526Y-67385194D01*
X182504971Y-67384905D01*
X182504979Y-67384904D01*
X182806015Y-67349274D01*
X183001953Y-67326083D01*
X183495203Y-67227969D01*
X183497578Y-67227299D01*
X183497583Y-67227298D01*
X183652517Y-67183602D01*
X183979235Y-67091458D01*
X184451064Y-66917391D01*
X184907781Y-66706842D01*
X185346571Y-66461107D01*
X185725831Y-66207694D01*
X185762663Y-66183084D01*
X185762667Y-66183081D01*
X185764728Y-66181704D01*
X186159674Y-65870353D01*
X186313416Y-65728236D01*
X186527176Y-65530638D01*
X186528975Y-65528975D01*
X186757476Y-65281784D01*
X186868671Y-65161494D01*
X186868676Y-65161488D01*
X186870353Y-65159674D01*
X187181704Y-64764728D01*
X187461107Y-64346571D01*
X187469723Y-64331187D01*
X187514451Y-64251318D01*
X187706842Y-63907781D01*
X187917391Y-63451064D01*
X188091458Y-62979235D01*
X188227969Y-62495203D01*
X188326083Y-62001953D01*
X188367832Y-61649215D01*
X188372333Y-61611190D01*
X188400204Y-61545893D01*
X188458952Y-61506029D01*
X188497460Y-61500000D01*
X193476586Y-61500000D01*
X193544707Y-61520002D01*
X193591200Y-61573658D01*
X193602533Y-61629660D01*
X193601333Y-61670959D01*
X193600908Y-61678263D01*
X193542819Y-62343301D01*
X193541972Y-62350561D01*
X193520471Y-62497583D01*
X193445370Y-63011127D01*
X193444101Y-63018334D01*
X193309318Y-63672159D01*
X193307634Y-63679275D01*
X193135119Y-64324191D01*
X193133037Y-64331160D01*
X192923368Y-64964992D01*
X192920869Y-64971869D01*
X192674769Y-65592429D01*
X192671875Y-65599150D01*
X192390170Y-66204369D01*
X192386891Y-66210911D01*
X192245303Y-66474000D01*
X192075401Y-66789701D01*
X192070515Y-66798779D01*
X192066866Y-66805110D01*
X191997747Y-66917391D01*
X191716911Y-67373596D01*
X191712896Y-67379714D01*
X191330515Y-67926946D01*
X191326151Y-67932820D01*
X190991755Y-68356664D01*
X190912656Y-68456921D01*
X190907966Y-68462523D01*
X190868368Y-68507123D01*
X190464743Y-68961734D01*
X190459728Y-68967063D01*
X189991612Y-69436355D01*
X189988264Y-69439711D01*
X189982956Y-69444731D01*
X189844735Y-69568072D01*
X189484860Y-69889204D01*
X189479268Y-69893910D01*
X189345492Y-70000000D01*
X188956189Y-70308732D01*
X188950326Y-70313110D01*
X188404071Y-70696852D01*
X188397969Y-70700879D01*
X187830345Y-71052270D01*
X187824014Y-71055939D01*
X187236969Y-71373774D01*
X187230436Y-71377070D01*
X186625911Y-71660300D01*
X186619197Y-71663211D01*
X185999256Y-71910865D01*
X185992385Y-71913381D01*
X185359113Y-72124630D01*
X185352106Y-72126743D01*
X184707642Y-72300871D01*
X184700526Y-72302574D01*
X184047039Y-72438997D01*
X184039835Y-72440284D01*
X183379519Y-72538541D01*
X183372253Y-72539407D01*
X183165878Y-72557956D01*
X182707345Y-72599167D01*
X182700075Y-72599608D01*
X182205996Y-72615202D01*
X182032826Y-72620667D01*
X182025508Y-72620686D01*
X181635820Y-72610344D01*
X181358141Y-72602975D01*
X181350844Y-72602568D01*
X181217335Y-72591244D01*
X180685662Y-72546146D01*
X180678392Y-72545316D01*
X180017611Y-72450376D01*
X180010400Y-72449126D01*
X179356225Y-72315981D01*
X179349100Y-72314314D01*
X179111436Y-72251377D01*
X178703758Y-72143418D01*
X178696747Y-72141341D01*
X178652244Y-72126743D01*
X178422489Y-72051380D01*
X178062423Y-71933272D01*
X178055539Y-71930790D01*
X177713790Y-71796252D01*
X177434365Y-71686249D01*
X177427641Y-71683374D01*
X176821715Y-71403188D01*
X176815164Y-71399925D01*
X176769545Y-71375521D01*
X176226507Y-71085025D01*
X176220158Y-71081387D01*
X175844136Y-70851210D01*
X175650789Y-70732855D01*
X175644683Y-70728869D01*
X175096491Y-70347860D01*
X175090606Y-70343511D01*
X174565468Y-69931330D01*
X174559846Y-69926647D01*
X174153928Y-69568072D01*
X174059521Y-69484675D01*
X174054198Y-69479691D01*
X173817274Y-69244543D01*
X173580360Y-69009405D01*
X173575319Y-69004102D01*
X173129599Y-68507123D01*
X173124873Y-68501535D01*
X172708755Y-67979517D01*
X172704362Y-67973665D01*
X172319250Y-67428373D01*
X172315204Y-67422276D01*
X171962400Y-66855551D01*
X171958714Y-66849229D01*
X171639396Y-66262964D01*
X171636084Y-66256439D01*
X171497582Y-65962740D01*
X171351333Y-65652612D01*
X171348409Y-65645913D01*
X171328257Y-65595831D01*
X171099208Y-65026615D01*
X171096676Y-65019754D01*
X171056394Y-64900000D01*
X170894904Y-64419903D01*
X170889533Y-64397112D01*
X170888607Y-64390461D01*
X170888606Y-64390459D01*
X170887440Y-64382084D01*
X170885765Y-64378638D01*
X170885165Y-64374852D01*
X170858591Y-64322698D01*
X170857611Y-64320729D01*
X170832039Y-64268129D01*
X170829381Y-64265369D01*
X170827641Y-64261955D01*
X170786333Y-64220647D01*
X170784681Y-64218964D01*
X170760031Y-64193374D01*
X170744136Y-64176872D01*
X170740755Y-64175069D01*
X170738045Y-64172359D01*
X170722433Y-64164404D01*
X170685985Y-64145833D01*
X170683894Y-64144743D01*
X170639805Y-64121229D01*
X170632335Y-64117245D01*
X170628563Y-64116575D01*
X170625148Y-64114835D01*
X170593667Y-64109849D01*
X170567448Y-64105696D01*
X170565124Y-64105305D01*
X170517346Y-64096818D01*
X170517342Y-64096818D01*
X170507581Y-64095084D01*
X170483417Y-64098449D01*
X170480925Y-64098796D01*
X170463546Y-64100000D01*
X167041398Y-64100000D01*
X167021689Y-64098449D01*
X167000000Y-64095014D01*
X166991754Y-64096320D01*
X166988641Y-64096565D01*
X166988031Y-64096565D01*
X166986823Y-64096708D01*
X166964703Y-64098449D01*
X166780315Y-64112961D01*
X166775508Y-64114115D01*
X166775502Y-64114116D01*
X166646929Y-64144984D01*
X166566038Y-64164404D01*
X166561467Y-64166297D01*
X166561465Y-64166298D01*
X166529907Y-64179370D01*
X166362448Y-64248734D01*
X166340873Y-64261955D01*
X166325845Y-64271164D01*
X166257311Y-64289701D01*
X166189635Y-64268244D01*
X166173759Y-64255580D01*
X166169221Y-64251318D01*
X166135393Y-64219552D01*
X166128449Y-64215735D01*
X166128447Y-64215733D01*
X166012621Y-64152057D01*
X165991368Y-64140373D01*
X165983696Y-64138403D01*
X165983693Y-64138402D01*
X165839855Y-64101471D01*
X165839852Y-64101471D01*
X165832177Y-64099500D01*
X165709075Y-64099500D01*
X165660029Y-64105696D01*
X165594807Y-64113935D01*
X165594804Y-64113936D01*
X165586942Y-64114929D01*
X165579575Y-64117846D01*
X165579574Y-64117846D01*
X165533493Y-64136091D01*
X165434129Y-64175432D01*
X165430092Y-64178365D01*
X165362036Y-64193374D01*
X165309963Y-64178084D01*
X165248315Y-64144192D01*
X165248314Y-64144191D01*
X165241368Y-64140373D01*
X165233693Y-64138402D01*
X165233692Y-64138402D01*
X165089855Y-64101471D01*
X165089852Y-64101471D01*
X165082177Y-64099500D01*
X164959075Y-64099500D01*
X164910029Y-64105696D01*
X164844807Y-64113935D01*
X164844804Y-64113936D01*
X164836942Y-64114929D01*
X164829575Y-64117846D01*
X164829574Y-64117846D01*
X164783493Y-64136091D01*
X164684129Y-64175432D01*
X164680092Y-64178365D01*
X164612036Y-64193374D01*
X164559963Y-64178084D01*
X164498315Y-64144192D01*
X164498314Y-64144191D01*
X164491368Y-64140373D01*
X164483693Y-64138402D01*
X164483692Y-64138402D01*
X164339855Y-64101471D01*
X164339852Y-64101471D01*
X164332177Y-64099500D01*
X164209075Y-64099500D01*
X164160029Y-64105696D01*
X164094807Y-64113935D01*
X164094804Y-64113936D01*
X164086942Y-64114929D01*
X164079575Y-64117846D01*
X164079574Y-64117846D01*
X164075806Y-64119338D01*
X163934129Y-64175432D01*
X163927718Y-64180090D01*
X163927716Y-64180091D01*
X163865936Y-64224977D01*
X163835843Y-64246841D01*
X163811815Y-64264298D01*
X163744947Y-64288157D01*
X163671919Y-64269794D01*
X163641775Y-64251321D01*
X163641767Y-64251317D01*
X163637552Y-64248734D01*
X163470093Y-64179370D01*
X163438535Y-64166298D01*
X163438533Y-64166297D01*
X163433962Y-64164404D01*
X163353071Y-64144984D01*
X163224498Y-64114116D01*
X163224492Y-64114115D01*
X163219685Y-64112961D01*
X163035297Y-64098449D01*
X163013177Y-64096708D01*
X163011969Y-64096565D01*
X163011359Y-64096565D01*
X163008246Y-64096320D01*
X163000000Y-64095014D01*
X162978311Y-64098449D01*
X162958602Y-64100000D01*
X81436646Y-64100000D01*
X81415753Y-64106788D01*
X81396543Y-64111400D01*
X81394064Y-64111792D01*
X81384648Y-64113283D01*
X81384645Y-64113284D01*
X81374852Y-64114835D01*
X81366016Y-64119337D01*
X81366014Y-64119338D01*
X81355293Y-64124801D01*
X81337026Y-64132368D01*
X81316140Y-64139154D01*
X81308116Y-64144984D01*
X81298381Y-64152057D01*
X81281522Y-64162389D01*
X81261955Y-64172359D01*
X81172359Y-64261955D01*
X81172358Y-64261957D01*
X78871220Y-66563095D01*
X78808908Y-66597121D01*
X78782125Y-66600000D01*
X77041398Y-66600000D01*
X77021689Y-66598449D01*
X77000000Y-66595014D01*
X76991754Y-66596320D01*
X76988641Y-66596565D01*
X76988031Y-66596565D01*
X76986823Y-66596708D01*
X76964703Y-66598449D01*
X76780315Y-66612961D01*
X76775508Y-66614115D01*
X76775502Y-66614116D01*
X76650223Y-66644193D01*
X76566038Y-66664404D01*
X76561467Y-66666297D01*
X76561465Y-66666298D01*
X76528166Y-66680091D01*
X76362448Y-66748734D01*
X76337050Y-66764298D01*
X76325845Y-66771164D01*
X76257311Y-66789701D01*
X76189635Y-66768244D01*
X76173759Y-66755580D01*
X76169221Y-66751318D01*
X76135393Y-66719552D01*
X76128449Y-66715735D01*
X76128447Y-66715733D01*
X76032979Y-66663249D01*
X75991368Y-66640373D01*
X75983696Y-66638403D01*
X75983693Y-66638402D01*
X75839855Y-66601471D01*
X75839852Y-66601471D01*
X75832177Y-66599500D01*
X75709075Y-66599500D01*
X75651310Y-66606797D01*
X75594807Y-66613935D01*
X75594804Y-66613936D01*
X75586942Y-66614929D01*
X75579575Y-66617846D01*
X75579574Y-66617846D01*
X75527656Y-66638402D01*
X75434129Y-66675432D01*
X75430092Y-66678365D01*
X75362036Y-66693374D01*
X75309963Y-66678084D01*
X75248315Y-66644192D01*
X75248314Y-66644191D01*
X75241368Y-66640373D01*
X75233693Y-66638402D01*
X75233692Y-66638402D01*
X75089855Y-66601471D01*
X75089852Y-66601471D01*
X75082177Y-66599500D01*
X74959075Y-66599500D01*
X74901310Y-66606797D01*
X74844807Y-66613935D01*
X74844804Y-66613936D01*
X74836942Y-66614929D01*
X74829575Y-66617846D01*
X74829574Y-66617846D01*
X74777656Y-66638402D01*
X74684129Y-66675432D01*
X74680092Y-66678365D01*
X74612036Y-66693374D01*
X74559963Y-66678084D01*
X74498315Y-66644192D01*
X74498314Y-66644191D01*
X74491368Y-66640373D01*
X74483693Y-66638402D01*
X74483692Y-66638402D01*
X74339855Y-66601471D01*
X74339852Y-66601471D01*
X74332177Y-66599500D01*
X74209075Y-66599500D01*
X74151310Y-66606797D01*
X74094807Y-66613935D01*
X74094804Y-66613936D01*
X74086942Y-66614929D01*
X74079575Y-66617846D01*
X74079574Y-66617846D01*
X74044867Y-66631588D01*
X73934129Y-66675432D01*
X73927718Y-66680090D01*
X73927716Y-66680091D01*
X73878659Y-66715733D01*
X73835843Y-66746841D01*
X73811815Y-66764298D01*
X73744947Y-66788157D01*
X73671919Y-66769794D01*
X73641775Y-66751321D01*
X73641767Y-66751317D01*
X73637552Y-66748734D01*
X73471834Y-66680091D01*
X73438535Y-66666298D01*
X73438533Y-66666297D01*
X73433962Y-66664404D01*
X73349777Y-66644193D01*
X73224498Y-66614116D01*
X73224492Y-66614115D01*
X73219685Y-66612961D01*
X73035297Y-66598449D01*
X73013177Y-66596708D01*
X73011969Y-66596565D01*
X73011359Y-66596565D01*
X73008246Y-66596320D01*
X73000000Y-66595014D01*
X72978311Y-66598449D01*
X72958602Y-66600000D01*
X70526000Y-66600000D01*
X70457879Y-66579998D01*
X70411386Y-66526342D01*
X70400000Y-66474000D01*
X70400000Y-60993138D01*
X76344758Y-60993138D01*
X76362035Y-61149633D01*
X76416143Y-61297490D01*
X76420380Y-61303796D01*
X76420382Y-61303799D01*
X76460709Y-61363811D01*
X76503958Y-61428172D01*
X76620410Y-61534135D01*
X76648171Y-61549208D01*
X76752099Y-61605637D01*
X76752101Y-61605638D01*
X76758776Y-61609262D01*
X76766125Y-61611190D01*
X76903719Y-61647287D01*
X76903721Y-61647287D01*
X76911069Y-61649215D01*
X76994380Y-61650524D01*
X77060898Y-61651569D01*
X77060901Y-61651569D01*
X77068495Y-61651688D01*
X77221968Y-61616538D01*
X77362625Y-61545795D01*
X77409185Y-61506029D01*
X77476574Y-61448474D01*
X77476576Y-61448471D01*
X77482348Y-61443542D01*
X77574224Y-61315683D01*
X77632950Y-61169598D01*
X77655134Y-61013723D01*
X77655278Y-61000000D01*
X77636363Y-60843694D01*
X77580710Y-60696412D01*
X77491531Y-60566657D01*
X77416717Y-60500000D01*
X77379648Y-60466972D01*
X77379645Y-60466970D01*
X77373976Y-60461919D01*
X77234831Y-60388245D01*
X77163548Y-60370340D01*
X77089498Y-60351740D01*
X77089496Y-60351740D01*
X77082128Y-60349889D01*
X77074530Y-60349849D01*
X77074528Y-60349849D01*
X77007319Y-60349497D01*
X76924684Y-60349065D01*
X76917305Y-60350837D01*
X76917301Y-60350837D01*
X76778967Y-60384048D01*
X76778963Y-60384049D01*
X76771588Y-60385820D01*
X76631679Y-60458032D01*
X76625957Y-60463024D01*
X76625955Y-60463025D01*
X76518759Y-60556538D01*
X76518756Y-60556541D01*
X76513034Y-60561533D01*
X76422501Y-60690348D01*
X76365309Y-60837039D01*
X76344758Y-60993138D01*
X70400000Y-60993138D01*
X70400000Y-55526000D01*
X70420002Y-55457879D01*
X70473658Y-55411386D01*
X70526000Y-55400000D01*
X72958602Y-55400000D01*
X72978311Y-55401551D01*
X73000000Y-55404986D01*
X73008246Y-55403680D01*
X73011359Y-55403435D01*
X73011969Y-55403435D01*
X73013177Y-55403292D01*
X73073694Y-55398529D01*
X73219685Y-55387039D01*
X73224492Y-55385885D01*
X73224498Y-55385884D01*
X73359930Y-55353369D01*
X73433962Y-55335596D01*
X73466989Y-55321916D01*
X73507025Y-55305332D01*
X73637552Y-55251266D01*
X73674155Y-55228836D01*
X73742689Y-55210299D01*
X73810365Y-55231756D01*
X73826240Y-55244419D01*
X73864607Y-55280448D01*
X73871551Y-55284265D01*
X73871553Y-55284267D01*
X73912224Y-55306626D01*
X74008632Y-55359627D01*
X74016304Y-55361597D01*
X74016307Y-55361598D01*
X74160145Y-55398529D01*
X74160148Y-55398529D01*
X74167823Y-55400500D01*
X74290925Y-55400500D01*
X74348690Y-55393203D01*
X74405193Y-55386065D01*
X74405196Y-55386064D01*
X74413058Y-55385071D01*
X74420425Y-55382154D01*
X74420426Y-55382154D01*
X74542801Y-55333702D01*
X74565871Y-55324568D01*
X74569908Y-55321635D01*
X74637964Y-55306626D01*
X74690037Y-55321916D01*
X74751684Y-55355807D01*
X74758632Y-55359627D01*
X74766307Y-55361598D01*
X74766308Y-55361598D01*
X74910145Y-55398529D01*
X74910148Y-55398529D01*
X74917823Y-55400500D01*
X75040925Y-55400500D01*
X75098690Y-55393203D01*
X75155193Y-55386065D01*
X75155196Y-55386064D01*
X75163058Y-55385071D01*
X75170425Y-55382154D01*
X75170426Y-55382154D01*
X75292801Y-55333702D01*
X75315871Y-55324568D01*
X75319908Y-55321635D01*
X75387964Y-55306626D01*
X75440037Y-55321916D01*
X75501684Y-55355807D01*
X75508632Y-55359627D01*
X75516307Y-55361598D01*
X75516308Y-55361598D01*
X75660145Y-55398529D01*
X75660148Y-55398529D01*
X75667823Y-55400500D01*
X75790925Y-55400500D01*
X75848690Y-55393203D01*
X75905193Y-55386065D01*
X75905196Y-55386064D01*
X75913058Y-55385071D01*
X75920425Y-55382154D01*
X75920426Y-55382154D01*
X75977322Y-55359627D01*
X76065871Y-55324568D01*
X76109104Y-55293158D01*
X76160055Y-55256140D01*
X76188185Y-55235702D01*
X76255053Y-55211843D01*
X76328081Y-55230206D01*
X76358225Y-55248679D01*
X76358231Y-55248682D01*
X76362448Y-55251266D01*
X76492975Y-55305332D01*
X76533012Y-55321916D01*
X76566038Y-55335596D01*
X76640070Y-55353369D01*
X76775502Y-55385884D01*
X76775508Y-55385885D01*
X76780315Y-55387039D01*
X76926306Y-55398529D01*
X76986823Y-55403292D01*
X76988031Y-55403435D01*
X76988641Y-55403435D01*
X76991754Y-55403680D01*
X77000000Y-55404986D01*
X77021689Y-55401551D01*
X77041398Y-55400000D01*
X78782125Y-55400000D01*
X78850246Y-55420002D01*
X78871220Y-55436905D01*
X81172358Y-57738043D01*
X81172359Y-57738045D01*
X81261955Y-57827641D01*
X81281522Y-57837611D01*
X81298380Y-57847943D01*
X81316140Y-57860846D01*
X81337026Y-57867632D01*
X81355293Y-57875199D01*
X81366014Y-57880662D01*
X81366016Y-57880663D01*
X81374852Y-57885165D01*
X81384645Y-57886716D01*
X81384648Y-57886717D01*
X81394064Y-57888208D01*
X81396543Y-57888600D01*
X81415753Y-57893212D01*
X81436646Y-57900000D01*
X162958602Y-57900000D01*
X162978311Y-57901551D01*
X163000000Y-57904986D01*
X163008246Y-57903680D01*
X163011359Y-57903435D01*
X163011969Y-57903435D01*
X163013177Y-57903292D01*
X163073694Y-57898529D01*
X163219685Y-57887039D01*
X163224492Y-57885885D01*
X163224498Y-57885884D01*
X163359930Y-57853369D01*
X163433962Y-57835596D01*
X163442304Y-57832141D01*
X163507025Y-57805332D01*
X163637552Y-57751266D01*
X163674155Y-57728836D01*
X163742689Y-57710299D01*
X163810365Y-57731756D01*
X163826240Y-57744419D01*
X163864607Y-57780448D01*
X163871551Y-57784265D01*
X163871553Y-57784267D01*
X163912224Y-57806626D01*
X164008632Y-57859627D01*
X164016304Y-57861597D01*
X164016307Y-57861598D01*
X164160145Y-57898529D01*
X164160148Y-57898529D01*
X164167823Y-57900500D01*
X164290925Y-57900500D01*
X164348690Y-57893203D01*
X164405193Y-57886065D01*
X164405196Y-57886064D01*
X164413058Y-57885071D01*
X164420425Y-57882154D01*
X164420426Y-57882154D01*
X164491113Y-57854167D01*
X164565871Y-57824568D01*
X164569908Y-57821635D01*
X164637964Y-57806626D01*
X164690037Y-57821916D01*
X164751684Y-57855807D01*
X164758632Y-57859627D01*
X164766307Y-57861598D01*
X164766308Y-57861598D01*
X164910145Y-57898529D01*
X164910148Y-57898529D01*
X164917823Y-57900500D01*
X165040925Y-57900500D01*
X165098690Y-57893203D01*
X165155193Y-57886065D01*
X165155196Y-57886064D01*
X165163058Y-57885071D01*
X165170425Y-57882154D01*
X165170426Y-57882154D01*
X165241113Y-57854167D01*
X165315871Y-57824568D01*
X165319908Y-57821635D01*
X165387964Y-57806626D01*
X165440037Y-57821916D01*
X165501684Y-57855807D01*
X165508632Y-57859627D01*
X165516307Y-57861598D01*
X165516308Y-57861598D01*
X165660145Y-57898529D01*
X165660148Y-57898529D01*
X165667823Y-57900500D01*
X165790925Y-57900500D01*
X165848690Y-57893203D01*
X165905193Y-57886065D01*
X165905196Y-57886064D01*
X165913058Y-57885071D01*
X165920425Y-57882154D01*
X165920426Y-57882154D01*
X165977322Y-57859627D01*
X166065871Y-57824568D01*
X166128105Y-57779353D01*
X166160055Y-57756140D01*
X166188185Y-57735702D01*
X166255053Y-57711843D01*
X166328081Y-57730206D01*
X166358225Y-57748679D01*
X166358231Y-57748682D01*
X166362448Y-57751266D01*
X166492975Y-57805332D01*
X166557697Y-57832141D01*
X166566038Y-57835596D01*
X166640070Y-57853369D01*
X166775502Y-57885884D01*
X166775508Y-57885885D01*
X166780315Y-57887039D01*
X166926306Y-57898529D01*
X166986823Y-57903292D01*
X166988031Y-57903435D01*
X166988641Y-57903435D01*
X166991754Y-57903680D01*
X167000000Y-57904986D01*
X167021689Y-57901551D01*
X167041398Y-57900000D01*
X170463546Y-57900000D01*
X170480925Y-57901204D01*
X170507581Y-57904916D01*
X170517342Y-57903182D01*
X170517346Y-57903182D01*
X170565124Y-57894695D01*
X170567448Y-57894304D01*
X170594784Y-57889974D01*
X170625148Y-57885165D01*
X170628563Y-57883425D01*
X170632335Y-57882755D01*
X170667671Y-57863909D01*
X170683894Y-57855257D01*
X170685985Y-57854167D01*
X170730495Y-57831488D01*
X170738045Y-57827641D01*
X170740755Y-57824931D01*
X170744136Y-57823128D01*
X170784681Y-57781036D01*
X170786333Y-57779353D01*
X170827641Y-57738045D01*
X170829381Y-57734631D01*
X170832039Y-57731871D01*
X170857611Y-57679271D01*
X170858591Y-57677302D01*
X170885165Y-57625148D01*
X170885765Y-57621362D01*
X170887440Y-57617916D01*
X170889533Y-57602888D01*
X170894904Y-57580095D01*
X170914590Y-57521572D01*
X171096678Y-56980241D01*
X171099210Y-56973381D01*
X171348412Y-56354080D01*
X171351336Y-56347380D01*
X171444295Y-56150258D01*
X171636085Y-55743559D01*
X171639396Y-55737036D01*
X171958714Y-55150771D01*
X171962400Y-55144449D01*
X172315204Y-54577724D01*
X172319250Y-54571627D01*
X172704362Y-54026335D01*
X172708755Y-54020483D01*
X173124873Y-53498465D01*
X173129599Y-53492877D01*
X173575319Y-52995898D01*
X173580360Y-52990595D01*
X174010534Y-52563645D01*
X174054198Y-52520309D01*
X174059521Y-52515325D01*
X174559846Y-52073353D01*
X174565468Y-52068670D01*
X175090606Y-51656489D01*
X175096491Y-51652140D01*
X175352725Y-51474050D01*
X175644683Y-51271131D01*
X175650789Y-51267145D01*
X176220158Y-50918613D01*
X176226507Y-50914975D01*
X176557647Y-50737833D01*
X176815168Y-50600073D01*
X176821715Y-50596812D01*
X177427641Y-50316626D01*
X177434369Y-50313749D01*
X177552330Y-50267311D01*
X178004926Y-50089135D01*
X178055539Y-50069210D01*
X178062423Y-50066728D01*
X178474289Y-49931629D01*
X178696752Y-49858658D01*
X178703758Y-49856582D01*
X179111436Y-49748623D01*
X179349100Y-49685686D01*
X179356225Y-49684019D01*
X180010400Y-49550874D01*
X180017611Y-49549624D01*
X180678392Y-49454684D01*
X180685662Y-49453854D01*
X181217335Y-49408756D01*
X181350844Y-49397432D01*
X181358141Y-49397025D01*
X181635820Y-49389656D01*
X182025508Y-49379314D01*
X182032826Y-49379333D01*
G37*
G04 #@! TD.AperFunction*
G04 #@! TA.AperFunction,Conductor*
G36*
X73810365Y-115231756D02*
G01*
X73826240Y-115244419D01*
X73864607Y-115280448D01*
X73871551Y-115284265D01*
X73871553Y-115284267D01*
X73912224Y-115306626D01*
X74008632Y-115359627D01*
X74016304Y-115361597D01*
X74016307Y-115361598D01*
X74160145Y-115398529D01*
X74160148Y-115398529D01*
X74167823Y-115400500D01*
X74290925Y-115400500D01*
X74348690Y-115393203D01*
X74405193Y-115386065D01*
X74405196Y-115386064D01*
X74413058Y-115385071D01*
X74420425Y-115382154D01*
X74420426Y-115382154D01*
X74542801Y-115333702D01*
X74565871Y-115324568D01*
X74569908Y-115321635D01*
X74637964Y-115306626D01*
X74690037Y-115321916D01*
X74751684Y-115355807D01*
X74758632Y-115359627D01*
X74766307Y-115361598D01*
X74766308Y-115361598D01*
X74910145Y-115398529D01*
X74910148Y-115398529D01*
X74917823Y-115400500D01*
X75040925Y-115400500D01*
X75098690Y-115393203D01*
X75155193Y-115386065D01*
X75155196Y-115386064D01*
X75163058Y-115385071D01*
X75170425Y-115382154D01*
X75170426Y-115382154D01*
X75292801Y-115333702D01*
X75315871Y-115324568D01*
X75319908Y-115321635D01*
X75387964Y-115306626D01*
X75440037Y-115321916D01*
X75501684Y-115355807D01*
X75508632Y-115359627D01*
X75516307Y-115361598D01*
X75516308Y-115361598D01*
X75660145Y-115398529D01*
X75660148Y-115398529D01*
X75667823Y-115400500D01*
X75790925Y-115400500D01*
X75848690Y-115393203D01*
X75905193Y-115386065D01*
X75905196Y-115386064D01*
X75913058Y-115385071D01*
X75920425Y-115382154D01*
X75920426Y-115382154D01*
X75977322Y-115359627D01*
X76065871Y-115324568D01*
X76188185Y-115235702D01*
X76255053Y-115211843D01*
X76328081Y-115230206D01*
X76358225Y-115248679D01*
X76358231Y-115248682D01*
X76362448Y-115251266D01*
X76492975Y-115305332D01*
X76533012Y-115321916D01*
X76566038Y-115335596D01*
X76640070Y-115353369D01*
X76775502Y-115385884D01*
X76775508Y-115385885D01*
X76780315Y-115387039D01*
X76926306Y-115398529D01*
X76986823Y-115403292D01*
X76988031Y-115403435D01*
X76988641Y-115403435D01*
X76991754Y-115403680D01*
X77000000Y-115404986D01*
X77021689Y-115401551D01*
X77041398Y-115400000D01*
X78782125Y-115400000D01*
X78850246Y-115420002D01*
X78871220Y-115436905D01*
X81172358Y-117738043D01*
X81172359Y-117738045D01*
X81261955Y-117827641D01*
X81281522Y-117837611D01*
X81298380Y-117847943D01*
X81316140Y-117860846D01*
X81337026Y-117867632D01*
X81355293Y-117875199D01*
X81366014Y-117880662D01*
X81366016Y-117880663D01*
X81374852Y-117885165D01*
X81384645Y-117886716D01*
X81384648Y-117886717D01*
X81394064Y-117888208D01*
X81396543Y-117888600D01*
X81415753Y-117893212D01*
X81436646Y-117900000D01*
X165208602Y-117900000D01*
X165228311Y-117901551D01*
X165250000Y-117904986D01*
X165258246Y-117903680D01*
X165261359Y-117903435D01*
X165261969Y-117903435D01*
X165263177Y-117903292D01*
X165323694Y-117898529D01*
X165469685Y-117887039D01*
X165474492Y-117885885D01*
X165474498Y-117885884D01*
X165609930Y-117853369D01*
X165683962Y-117835596D01*
X165692304Y-117832141D01*
X165757025Y-117805332D01*
X165887552Y-117751266D01*
X165924155Y-117728836D01*
X165992689Y-117710299D01*
X166060365Y-117731756D01*
X166076240Y-117744419D01*
X166114607Y-117780448D01*
X166121551Y-117784265D01*
X166121553Y-117784267D01*
X166162224Y-117806626D01*
X166258632Y-117859627D01*
X166266304Y-117861597D01*
X166266307Y-117861598D01*
X166410145Y-117898529D01*
X166410148Y-117898529D01*
X166417823Y-117900500D01*
X166540925Y-117900500D01*
X166598690Y-117893203D01*
X166655193Y-117886065D01*
X166655196Y-117886064D01*
X166663058Y-117885071D01*
X166670425Y-117882154D01*
X166670426Y-117882154D01*
X166739464Y-117854820D01*
X166815871Y-117824568D01*
X166819908Y-117821635D01*
X166887964Y-117806626D01*
X166940037Y-117821916D01*
X167001684Y-117855807D01*
X167008632Y-117859627D01*
X167016307Y-117861598D01*
X167016308Y-117861598D01*
X167160145Y-117898529D01*
X167160148Y-117898529D01*
X167167823Y-117900500D01*
X167290925Y-117900500D01*
X167348690Y-117893203D01*
X167405193Y-117886065D01*
X167405196Y-117886064D01*
X167413058Y-117885071D01*
X167420425Y-117882154D01*
X167420426Y-117882154D01*
X167489464Y-117854820D01*
X167565871Y-117824568D01*
X167569908Y-117821635D01*
X167637964Y-117806626D01*
X167690037Y-117821916D01*
X167751684Y-117855807D01*
X167758632Y-117859627D01*
X167766307Y-117861598D01*
X167766308Y-117861598D01*
X167910145Y-117898529D01*
X167910148Y-117898529D01*
X167917823Y-117900500D01*
X168040925Y-117900500D01*
X168098690Y-117893203D01*
X168155193Y-117886065D01*
X168155196Y-117886064D01*
X168163058Y-117885071D01*
X168170425Y-117882154D01*
X168170426Y-117882154D01*
X168227322Y-117859627D01*
X168315871Y-117824568D01*
X168438185Y-117735702D01*
X168505053Y-117711843D01*
X168578081Y-117730206D01*
X168608225Y-117748679D01*
X168608231Y-117748682D01*
X168612448Y-117751266D01*
X168742975Y-117805332D01*
X168807697Y-117832141D01*
X168816038Y-117835596D01*
X168890070Y-117853369D01*
X169025502Y-117885884D01*
X169025508Y-117885885D01*
X169030315Y-117887039D01*
X169176306Y-117898529D01*
X169236823Y-117903292D01*
X169238031Y-117903435D01*
X169238641Y-117903435D01*
X169241754Y-117903680D01*
X169250000Y-117904986D01*
X169271689Y-117901551D01*
X169291398Y-117900000D01*
X170747191Y-117900000D01*
X170815312Y-117920002D01*
X170845580Y-117947288D01*
X172654101Y-120207939D01*
X172667559Y-120228798D01*
X172667855Y-120229206D01*
X172672359Y-120238045D01*
X172696556Y-120262242D01*
X172700819Y-120267004D01*
X172700840Y-120266984D01*
X172704227Y-120270596D01*
X172707318Y-120274460D01*
X172710971Y-120277789D01*
X172710976Y-120277794D01*
X172721566Y-120287443D01*
X172725796Y-120291482D01*
X172761955Y-120327641D01*
X172770405Y-120331947D01*
X172777416Y-120338335D01*
X172824044Y-120359428D01*
X172829268Y-120361939D01*
X172874852Y-120385165D01*
X172884219Y-120386648D01*
X172892861Y-120390558D01*
X172902715Y-120391653D01*
X172907331Y-120392919D01*
X172967734Y-120430228D01*
X172998377Y-120494272D01*
X173000000Y-120514430D01*
X173000000Y-121485570D01*
X172979998Y-121553691D01*
X172926342Y-121600184D01*
X172907331Y-121607081D01*
X172902715Y-121608347D01*
X172892861Y-121609442D01*
X172884219Y-121613352D01*
X172874852Y-121614835D01*
X172829275Y-121638058D01*
X172824044Y-121640572D01*
X172777416Y-121661665D01*
X172770405Y-121668053D01*
X172761955Y-121672359D01*
X172725796Y-121708518D01*
X172721566Y-121712557D01*
X172710976Y-121722206D01*
X172710971Y-121722211D01*
X172707318Y-121725540D01*
X172704227Y-121729404D01*
X172700840Y-121733016D01*
X172700819Y-121732996D01*
X172696556Y-121737758D01*
X172672359Y-121761955D01*
X172667855Y-121770794D01*
X172667559Y-121771202D01*
X172654101Y-121792061D01*
X170845580Y-124052712D01*
X170787407Y-124093410D01*
X170747191Y-124100000D01*
X169291398Y-124100000D01*
X169271689Y-124098449D01*
X169250000Y-124095014D01*
X169241754Y-124096320D01*
X169238641Y-124096565D01*
X169238031Y-124096565D01*
X169236823Y-124096708D01*
X169214703Y-124098449D01*
X169030315Y-124112961D01*
X169025508Y-124114115D01*
X169025502Y-124114116D01*
X168900223Y-124144193D01*
X168816038Y-124164404D01*
X168811467Y-124166297D01*
X168811465Y-124166298D01*
X168779907Y-124179370D01*
X168612448Y-124248734D01*
X168590873Y-124261955D01*
X168575845Y-124271164D01*
X168507311Y-124289701D01*
X168439635Y-124268244D01*
X168423759Y-124255580D01*
X168419221Y-124251318D01*
X168385393Y-124219552D01*
X168378449Y-124215735D01*
X168378447Y-124215733D01*
X168249755Y-124144984D01*
X168241368Y-124140373D01*
X168233696Y-124138403D01*
X168233693Y-124138402D01*
X168089855Y-124101471D01*
X168089852Y-124101471D01*
X168082177Y-124099500D01*
X167959075Y-124099500D01*
X167901416Y-124106784D01*
X167844807Y-124113935D01*
X167844804Y-124113936D01*
X167836942Y-124114929D01*
X167829575Y-124117846D01*
X167829574Y-124117846D01*
X167783493Y-124136091D01*
X167684129Y-124175432D01*
X167680092Y-124178365D01*
X167612036Y-124193374D01*
X167559963Y-124178084D01*
X167498315Y-124144192D01*
X167498314Y-124144191D01*
X167491368Y-124140373D01*
X167483693Y-124138402D01*
X167483692Y-124138402D01*
X167339855Y-124101471D01*
X167339852Y-124101471D01*
X167332177Y-124099500D01*
X167209075Y-124099500D01*
X167151416Y-124106784D01*
X167094807Y-124113935D01*
X167094804Y-124113936D01*
X167086942Y-124114929D01*
X167079575Y-124117846D01*
X167079574Y-124117846D01*
X167033493Y-124136091D01*
X166934129Y-124175432D01*
X166930092Y-124178365D01*
X166862036Y-124193374D01*
X166809963Y-124178084D01*
X166748315Y-124144192D01*
X166748314Y-124144191D01*
X166741368Y-124140373D01*
X166733693Y-124138402D01*
X166733692Y-124138402D01*
X166589855Y-124101471D01*
X166589852Y-124101471D01*
X166582177Y-124099500D01*
X166459075Y-124099500D01*
X166401416Y-124106784D01*
X166344807Y-124113935D01*
X166344804Y-124113936D01*
X166336942Y-124114929D01*
X166329575Y-124117846D01*
X166329574Y-124117846D01*
X166325806Y-124119338D01*
X166184129Y-124175432D01*
X166085843Y-124246841D01*
X166061815Y-124264298D01*
X165994947Y-124288157D01*
X165921919Y-124269794D01*
X165891775Y-124251321D01*
X165891767Y-124251317D01*
X165887552Y-124248734D01*
X165720093Y-124179370D01*
X165688535Y-124166298D01*
X165688533Y-124166297D01*
X165683962Y-124164404D01*
X165599777Y-124144193D01*
X165474498Y-124114116D01*
X165474492Y-124114115D01*
X165469685Y-124112961D01*
X165285297Y-124098449D01*
X165263177Y-124096708D01*
X165261969Y-124096565D01*
X165261359Y-124096565D01*
X165258246Y-124096320D01*
X165250000Y-124095014D01*
X165228311Y-124098449D01*
X165208602Y-124100000D01*
X81436646Y-124100000D01*
X81415753Y-124106788D01*
X81396543Y-124111400D01*
X81394064Y-124111792D01*
X81384648Y-124113283D01*
X81384645Y-124113284D01*
X81374852Y-124114835D01*
X81366016Y-124119337D01*
X81366014Y-124119338D01*
X81355293Y-124124801D01*
X81337026Y-124132368D01*
X81316140Y-124139154D01*
X81308116Y-124144984D01*
X81298381Y-124152057D01*
X81281522Y-124162389D01*
X81261955Y-124172359D01*
X81172359Y-124261955D01*
X81172358Y-124261957D01*
X78871220Y-126563095D01*
X78808908Y-126597121D01*
X78782125Y-126600000D01*
X77041398Y-126600000D01*
X77021689Y-126598449D01*
X77000000Y-126595014D01*
X76991754Y-126596320D01*
X76988641Y-126596565D01*
X76988031Y-126596565D01*
X76986823Y-126596708D01*
X76964703Y-126598449D01*
X76780315Y-126612961D01*
X76775508Y-126614115D01*
X76775502Y-126614116D01*
X76650223Y-126644193D01*
X76566038Y-126664404D01*
X76561467Y-126666297D01*
X76561465Y-126666298D01*
X76528166Y-126680091D01*
X76362448Y-126748734D01*
X76337050Y-126764298D01*
X76325845Y-126771164D01*
X76257311Y-126789701D01*
X76189635Y-126768244D01*
X76173759Y-126755580D01*
X76169221Y-126751318D01*
X76135393Y-126719552D01*
X76128449Y-126715735D01*
X76128447Y-126715733D01*
X76032979Y-126663249D01*
X75991368Y-126640373D01*
X75983696Y-126638403D01*
X75983693Y-126638402D01*
X75839855Y-126601471D01*
X75839852Y-126601471D01*
X75832177Y-126599500D01*
X75709075Y-126599500D01*
X75651310Y-126606797D01*
X75594807Y-126613935D01*
X75594804Y-126613936D01*
X75586942Y-126614929D01*
X75579575Y-126617846D01*
X75579574Y-126617846D01*
X75527656Y-126638402D01*
X75434129Y-126675432D01*
X75430092Y-126678365D01*
X75362036Y-126693374D01*
X75309963Y-126678084D01*
X75248315Y-126644192D01*
X75248314Y-126644191D01*
X75241368Y-126640373D01*
X75233693Y-126638402D01*
X75233692Y-126638402D01*
X75089855Y-126601471D01*
X75089852Y-126601471D01*
X75082177Y-126599500D01*
X74959075Y-126599500D01*
X74901310Y-126606797D01*
X74844807Y-126613935D01*
X74844804Y-126613936D01*
X74836942Y-126614929D01*
X74829575Y-126617846D01*
X74829574Y-126617846D01*
X74777656Y-126638402D01*
X74684129Y-126675432D01*
X74680092Y-126678365D01*
X74612036Y-126693374D01*
X74559963Y-126678084D01*
X74498315Y-126644192D01*
X74498314Y-126644191D01*
X74491368Y-126640373D01*
X74483693Y-126638402D01*
X74483692Y-126638402D01*
X74339855Y-126601471D01*
X74339852Y-126601471D01*
X74332177Y-126599500D01*
X74209075Y-126599500D01*
X74151310Y-126606797D01*
X74094807Y-126613935D01*
X74094804Y-126613936D01*
X74086942Y-126614929D01*
X74079575Y-126617846D01*
X74079574Y-126617846D01*
X74044867Y-126631588D01*
X73934129Y-126675432D01*
X73835843Y-126746841D01*
X73811815Y-126764298D01*
X73744947Y-126788157D01*
X73671919Y-126769794D01*
X73641775Y-126751321D01*
X73641767Y-126751317D01*
X73637552Y-126748734D01*
X73471834Y-126680091D01*
X73438535Y-126666298D01*
X73438533Y-126666297D01*
X73433962Y-126664404D01*
X73349777Y-126644193D01*
X73224498Y-126614116D01*
X73224492Y-126614115D01*
X73219685Y-126612961D01*
X73035297Y-126598449D01*
X73013177Y-126596708D01*
X73011969Y-126596565D01*
X73011359Y-126596565D01*
X73008246Y-126596320D01*
X73000000Y-126595014D01*
X72978311Y-126598449D01*
X72958602Y-126600000D01*
X70526000Y-126600000D01*
X70457879Y-126579998D01*
X70411386Y-126526342D01*
X70400000Y-126474000D01*
X70400000Y-120993138D01*
X76344758Y-120993138D01*
X76362035Y-121149633D01*
X76416143Y-121297490D01*
X76420380Y-121303796D01*
X76420382Y-121303799D01*
X76460709Y-121363811D01*
X76503958Y-121428172D01*
X76620410Y-121534135D01*
X76680369Y-121566690D01*
X76752099Y-121605637D01*
X76752101Y-121605638D01*
X76758776Y-121609262D01*
X76766125Y-121611190D01*
X76903719Y-121647287D01*
X76903721Y-121647287D01*
X76911069Y-121649215D01*
X76994380Y-121650524D01*
X77060898Y-121651569D01*
X77060901Y-121651569D01*
X77068495Y-121651688D01*
X77221968Y-121616538D01*
X77362625Y-121545795D01*
X77388869Y-121523381D01*
X77476574Y-121448474D01*
X77476576Y-121448471D01*
X77482348Y-121443542D01*
X77574224Y-121315683D01*
X77632950Y-121169598D01*
X77655134Y-121013723D01*
X77655278Y-121000000D01*
X77636363Y-120843694D01*
X77580710Y-120696412D01*
X77491531Y-120566657D01*
X77410288Y-120494272D01*
X77379648Y-120466972D01*
X77379645Y-120466970D01*
X77373976Y-120461919D01*
X77234831Y-120388245D01*
X77222569Y-120385165D01*
X77089498Y-120351740D01*
X77089496Y-120351740D01*
X77082128Y-120349889D01*
X77074530Y-120349849D01*
X77074528Y-120349849D01*
X77007319Y-120349497D01*
X76924684Y-120349065D01*
X76917305Y-120350837D01*
X76917301Y-120350837D01*
X76778967Y-120384048D01*
X76778963Y-120384049D01*
X76771588Y-120385820D01*
X76631679Y-120458032D01*
X76625957Y-120463024D01*
X76625955Y-120463025D01*
X76518759Y-120556538D01*
X76518756Y-120556541D01*
X76513034Y-120561533D01*
X76422501Y-120690348D01*
X76365309Y-120837039D01*
X76344758Y-120993138D01*
X70400000Y-120993138D01*
X70400000Y-115526000D01*
X70420002Y-115457879D01*
X70473658Y-115411386D01*
X70526000Y-115400000D01*
X72958602Y-115400000D01*
X72978311Y-115401551D01*
X73000000Y-115404986D01*
X73008246Y-115403680D01*
X73011359Y-115403435D01*
X73011969Y-115403435D01*
X73013177Y-115403292D01*
X73073694Y-115398529D01*
X73219685Y-115387039D01*
X73224492Y-115385885D01*
X73224498Y-115385884D01*
X73359930Y-115353369D01*
X73433962Y-115335596D01*
X73466989Y-115321916D01*
X73507025Y-115305332D01*
X73637552Y-115251266D01*
X73674155Y-115228836D01*
X73742689Y-115210299D01*
X73810365Y-115231756D01*
G37*
G04 #@! TD.AperFunction*
M02*
